<?xml version="1.0" encoding="UTF-8" standalone="no"?>
<!DOCTYPE svg PUBLIC "-//W3C//DTD SVG 1.1//EN" "http://www.w3.org/Graphics/SVG/1.1/DTD/svg11.dtd">
<svg width="100%" height="100%" viewBox="0 0 10 18" version="1.1" xmlns="http://www.w3.org/2000/svg" xmlns:xlink="http://www.w3.org/1999/xlink" xml:space="preserve" xmlns:serif="http://www.serif.com/" style="fill-rule:evenodd;clip-rule:evenodd;stroke-linejoin:round;stroke-miterlimit:2;">
    <g transform="matrix(1,0,0,1,-5.90948,-1.39814)">
        <path d="M13.25,10L6.109,2.58C5.843,2.31 5.843,1.871 6.109,1.601C6.237,1.471 6.411,1.398 6.594,1.398C6.776,1.398 6.95,1.471 7.078,1.601L14.908,9.509C15.174,9.779 15.174,10.218 14.908,10.488L7.078,18.396C6.95,18.526 6.776,18.599 6.594,18.599C6.411,18.599 6.237,18.526 6.109,18.396C5.843,18.126 5.843,17.687 6.109,17.417L13.25,10Z" style="fill:rgb(230,24,0);fill-rule:nonzero;"/>
    </g>
</svg>
