<?xml version="1.0" encoding="UTF-8" standalone="no"?>
<!DOCTYPE svg PUBLIC "-//W3C//DTD SVG 1.1//EN" "http://www.w3.org/Graphics/SVG/1.1/DTD/svg11.dtd">
<svg width="100%" height="100%" viewBox="0 0 60 60" version="1.1" xmlns="http://www.w3.org/2000/svg" xmlns:xlink="http://www.w3.org/1999/xlink" xml:space="preserve" xmlns:serif="http://www.serif.com/" style="fill-rule:evenodd;clip-rule:evenodd;stroke-linejoin:round;stroke-miterlimit:2;">
    <path d="M59.985,7C59.985,5.13 59.257,3.373 57.935,2.051C56.613,0.729 54.855,0 52.985,0C51.115,0 49.358,0.729 48.035,2.051L46.621,3.465L42.378,7.707L4.536,45.551C4.426,45.66 4.344,45.794 4.294,45.942L0.051,58.669C-0.069,59.028 0.025,59.425 0.293,59.692C0.483,59.882 0.739,59.985 1,59.985C1.106,59.985 1.212,59.968 1.316,59.933L14.044,55.69C14.191,55.641 14.325,55.558 14.435,55.449L57.935,11.949C59.257,10.627 59.985,8.87 59.985,7ZM52.278,14.778L45.207,7.707L46.621,6.293L53.692,13.364L52.278,14.778ZM5.68,48.109L11.877,54.305L2.581,57.404L5.68,48.109ZM13.728,53.328L6.657,46.258L43.793,9.121L50.864,16.192L13.728,53.328ZM55.106,11.95L48.035,4.879L49.449,3.465C50.394,2.521 51.65,2 52.985,2C54.32,2 55.576,2.521 56.521,3.465C57.466,4.409 57.985,5.665 57.985,7C57.985,8.335 57.465,9.591 56.521,10.535L55.106,11.95Z" style="fill-rule:nonzero;"/>
</svg>
