<svg width="96" height="96" viewBox="0 0 96 96" fill="none" xmlns="http://www.w3.org/2000/svg">
<path fill-rule="evenodd" clip-rule="evenodd" d="M25.4146 19.0002C25.4639 19.4219 25.6733 19.8085 25.9996 20.0802C28.4496 22.5002 37.5996 25.0002 50.3946 25.0002H50.5596C62.3596 25.0002 73.8796 21.6652 74.5946 19.0352C74.5946 15.1752 61.0946 12.0352 49.9996 12.0352C38.9046 12.0352 25.5546 15.0952 25.4096 18.9252C25.4096 18.9338 25.4105 18.9424 25.4116 18.9522C25.413 18.9652 25.4146 18.9802 25.4146 19.0002ZM74.6246 32.7452C74.6278 33.5782 74.1591 34.3413 73.4146 34.7152C69.0996 36.8352 58.8996 38.1102 50.5596 38.1002C41.0796 38.1002 29.3746 35.9352 25.5246 32.2902C25.4458 32.2146 25.4022 32.1094 25.4046 32.0002V22.9052C25.4034 22.7632 25.4795 22.6318 25.6033 22.5621C25.727 22.4924 25.8788 22.4955 25.9996 22.5702C30.2946 25.2152 39.8096 27.0002 50.4046 26.9752H50.5596C58.3996 26.9652 69.1046 25.3002 73.9996 22.3002C74.1204 22.2255 74.2722 22.2224 74.396 22.2921C74.5197 22.3618 74.5958 22.4932 74.5946 22.6352V29.8702H74.6246V32.7452ZM76.843 31.3143C76.7099 31.3809 76.6255 31.5164 76.6246 31.6652L76.6346 33.8402C76.6362 34.5293 76.314 35.1792 75.7646 35.5952C71.3896 38.8902 58.5196 40.0952 50.5696 40.0952C44.8796 40.0952 36.5546 39.2502 30.4046 37.1302C30.2874 37.0957 30.1608 37.1181 30.0626 37.1908C29.9644 37.2635 29.9059 37.378 29.9046 37.5002V44.5602C29.9018 45.3081 30.2782 46.0064 30.9046 46.4152C35.5346 49.3602 44.9246 51.3602 54.7646 51.3602C67.5346 51.3602 74.9496 49.4402 78.0696 47.4702C78.6979 47.0679 79.0756 46.3712 79.0696 45.6252V34.2502C79.0696 33.2152 78.4196 32.2352 77.2546 31.3502C77.1351 31.2617 76.976 31.2478 76.843 31.3143ZM69.0246 65.6752C69.7191 65.2863 70.1479 64.5511 70.1446 63.7552V59.5002V53.9252C70.1457 53.78 70.0661 53.6462 69.938 53.578C69.8099 53.5097 69.6545 53.5183 69.5346 53.6002C64.9596 56.6002 53.7646 58.2252 46.1046 58.2252C38.6846 58.2252 26.8496 56.6952 21.5346 53.6452C21.4136 53.5753 21.2644 53.5755 21.1436 53.6457C21.0228 53.7159 20.9488 53.8454 20.9496 53.9852V62.9852C20.9513 63.7772 21.3766 64.5077 22.0646 64.9002C26.0646 67.1952 37.2246 69.3502 46.1046 69.3502C54.7346 69.3602 64.8646 68.0002 69.0246 65.6752ZM64.4546 53.7252C59.9646 55.1152 53.0846 56.2252 46.0846 56.2252C35.3596 56.2252 23.9696 53.5002 21.3446 51.1952C21.0811 50.9502 20.934 50.6049 20.9396 50.2452C20.9396 48.2252 23.4146 46.4002 27.3746 45.1252C27.4925 45.0926 27.6188 45.1166 27.7167 45.1899C27.8145 45.2633 27.8728 45.3779 27.8746 45.5002C27.8698 46.2484 28.2136 46.9563 28.8046 47.4152C33.4196 50.9552 43.8746 53.3852 54.7546 53.3852C56.6646 53.3852 60.2946 53.3252 64.2946 52.9552C64.497 52.9328 64.6833 53.068 64.7247 53.2674C64.7662 53.4668 64.6492 53.665 64.4546 53.7252ZM49.9996 84.0002C42.2446 84.0002 32.4996 82.5002 27.7396 80.2852V80.2652L27.7323 80.2616C27.52 80.1579 27.3174 80.059 27.1246 79.9552C26.0666 79.3881 25.4058 78.2855 25.4046 77.0852V68.9052C25.4043 68.7821 25.4622 68.6662 25.5606 68.5923C25.659 68.5185 25.7866 68.4954 25.9046 68.5302C31.9096 70.2952 40.4096 71.3502 46.0846 71.3502C53.0746 71.3502 67.0096 70.3052 71.4346 66.4152C71.8919 65.9993 72.1502 65.4082 72.1446 64.7902V61.2902C72.1437 61.1405 72.2273 61.0032 72.3607 60.9355C72.4941 60.8677 72.6544 60.8811 72.7746 60.9702C73.9446 61.8752 74.5946 62.8402 74.5946 63.8752V77.6602C74.5937 78.8953 73.8949 80.0239 72.7896 80.5752C72.0259 80.9431 71.2353 81.2523 70.4246 81.5002C65.2896 83.1552 56.8596 84.0002 49.9996 84.0002Z" fill="#CCCCCC"/>
<mask id="mask0_568_2020" style="mask-type:luminance" maskUnits="userSpaceOnUse" x="20" y="12" width="60" height="72">
<path fill-rule="evenodd" clip-rule="evenodd" d="M76.6246 31.6652C76.6255 31.5164 76.7099 31.3809 76.843 31.3143C76.976 31.2478 77.1351 31.2617 77.2546 31.3502C78.4196 32.2352 79.0696 33.2152 79.0696 34.2502V45.6252C79.0756 46.3712 78.6979 47.0679 78.0696 47.4702C74.9496 49.4402 67.5346 51.3602 54.7646 51.3602C44.9246 51.3602 35.5346 49.3602 30.9046 46.4152C30.2782 46.0064 29.9018 45.3081 29.9046 44.5602V37.5002C29.9059 37.378 29.9644 37.2635 30.0626 37.1908C30.1608 37.1181 30.2874 37.0957 30.4046 37.1302C36.5546 39.2502 44.8796 40.0952 50.5696 40.0952C58.5196 40.0952 71.3896 38.8902 75.7646 35.5952C76.314 35.1792 76.6362 34.5293 76.6346 33.8402L76.6246 31.6652ZM73.4146 34.7152C74.1591 34.3413 74.6278 33.5782 74.6246 32.7452V29.8702H74.5946V22.6352C74.5958 22.4932 74.5197 22.3618 74.396 22.2921C74.2722 22.2224 74.1204 22.2255 73.9996 22.3002C69.1046 25.3002 58.3996 26.9652 50.5596 26.9752H50.4046C39.8096 27.0002 30.2946 25.2152 25.9996 22.5702C25.8788 22.4955 25.727 22.4924 25.6033 22.5621C25.4795 22.6318 25.4034 22.7632 25.4046 22.9052V32.0002C25.4022 32.1094 25.4458 32.2146 25.5246 32.2902C29.3746 35.9352 41.0796 38.1002 50.5596 38.1002C58.8996 38.1102 69.0996 36.8352 73.4146 34.7152ZM69.0246 65.6752C69.7191 65.2863 70.1479 64.5511 70.1446 63.7552V59.5002V53.9252C70.1457 53.78 70.0661 53.6462 69.938 53.578C69.8099 53.5097 69.6545 53.5183 69.5346 53.6002C64.9596 56.6002 53.7646 58.2252 46.1046 58.2252C38.6846 58.2252 26.8496 56.6952 21.5346 53.6452C21.4136 53.5753 21.2644 53.5755 21.1436 53.6457C21.0228 53.7159 20.9488 53.8454 20.9496 53.9852V62.9852C20.9513 63.7772 21.3766 64.5077 22.0646 64.9002C26.0646 67.1952 37.2246 69.3502 46.1046 69.3502C54.7346 69.3602 64.8646 68.0002 69.0246 65.6752ZM46.0846 56.2252C53.0846 56.2252 59.9646 55.1152 64.4546 53.7252C64.6492 53.665 64.7662 53.4668 64.7247 53.2674C64.6833 53.068 64.497 52.9328 64.2946 52.9552C60.2946 53.3252 56.6646 53.3852 54.7546 53.3852C43.8746 53.3852 33.4196 50.9552 28.8046 47.4152C28.2136 46.9563 27.8698 46.2484 27.8746 45.5002C27.8728 45.3779 27.8145 45.2633 27.7167 45.1899C27.6188 45.1166 27.4925 45.0926 27.3746 45.1252C23.4146 46.4002 20.9396 48.2252 20.9396 50.2452C20.934 50.6049 21.0811 50.9502 21.3446 51.1952C23.9696 53.5002 35.3596 56.2252 46.0846 56.2252ZM25.4146 19.0002C25.4639 19.4219 25.6733 19.8085 25.9996 20.0802C28.4496 22.5002 37.5996 25.0002 50.3946 25.0002H50.5596C62.3596 25.0002 73.8796 21.6652 74.5946 19.0352C74.5946 15.1752 61.0946 12.0352 49.9996 12.0352C38.9046 12.0352 25.5546 15.0952 25.4096 18.9252C25.4096 18.9452 25.4146 18.9652 25.4146 19.0002ZM27.7396 80.2852C32.4996 82.5002 42.2446 84.0002 49.9996 84.0002C56.8596 84.0002 65.2896 83.1552 70.4246 81.5002C71.2353 81.2523 72.0259 80.9431 72.7896 80.5752C73.8949 80.0239 74.5937 78.8953 74.5946 77.6602V63.8752C74.5946 62.8402 73.9446 61.8752 72.7746 60.9702C72.6544 60.8811 72.4941 60.8677 72.3607 60.9355C72.2273 61.0032 72.1437 61.1405 72.1446 61.2902V64.7902C72.1502 65.4082 71.8919 65.9993 71.4346 66.4152C67.0096 70.3052 53.0746 71.3502 46.0846 71.3502C40.4096 71.3502 31.9096 70.2952 25.9046 68.5302C25.7866 68.4954 25.659 68.5185 25.5606 68.5923C25.4622 68.6662 25.4043 68.7821 25.4046 68.9052V77.0852C25.4058 78.2855 26.0666 79.3881 27.1246 79.9552C27.3196 80.0602 27.5246 80.1602 27.7396 80.2652" fill="white"/>
</mask>
<g mask="url(#mask0_568_2020)">
<path d="M78.3145 34.0352C78.3145 33.4829 77.8667 33.0352 77.3145 33.0352C76.7622 33.0352 76.3145 33.4829 76.3145 34.0352C76.3145 34.5874 76.7622 35.0352 77.3145 35.0352C77.8667 35.0352 78.3145 34.5874 78.3145 34.0352Z" fill="#666666"/>
<path d="M77.3193 39.3447C77.8716 39.3447 78.3193 38.897 78.3193 38.3447C78.3193 37.7924 77.8716 37.3447 77.3193 37.3447C76.7671 37.3447 76.3193 37.7924 76.3193 38.3447C76.3193 38.897 76.7671 39.3447 77.3193 39.3447Z" fill="#666666"/>
<path d="M77.3445 41.6596C76.9375 41.6474 76.5638 41.8832 76.3995 42.2557C76.2352 42.6282 76.3132 43.0632 76.5967 43.3554C76.8802 43.6477 77.3125 43.7389 77.6899 43.586C78.0673 43.4332 78.3143 43.0668 78.3145 42.6596C78.3147 42.1189 77.885 41.6759 77.3445 41.6596Z" fill="#666666"/>
<path d="M77.3047 48C77.857 48 78.3047 47.5523 78.3047 47C78.3047 46.4477 77.857 46 77.3047 46C76.7524 46 76.3047 46.4477 76.3047 47C76.3047 47.5523 76.7524 48 77.3047 48Z" fill="#666666"/>
<path d="M72.9999 28.7252C72.5925 28.711 72.2173 28.9453 72.0514 29.3177C71.8855 29.69 71.9622 30.1257 72.2453 30.419C72.5283 30.7123 72.961 30.8045 73.339 30.652C73.717 30.4995 73.9646 30.1328 73.9649 29.7252C73.9652 29.1863 73.5384 28.7441 72.9999 28.7252Z" fill="#666666"/>
<path d="M72.9999 37.3698C72.5925 37.3555 72.2173 37.5899 72.0514 37.9622C71.8855 38.3345 71.9622 38.7702 72.2453 39.0635C72.5283 39.3568 72.961 39.449 73.339 39.2965C73.717 39.144 73.9646 38.7773 73.9649 38.3698C73.9652 37.8309 73.5384 37.3886 72.9999 37.3698Z" fill="#666666"/>
<path d="M72.9994 33.0449C72.5918 33.0452 72.2252 33.2928 72.0727 33.6708C71.9202 34.0488 72.0123 34.4815 72.3056 34.7645C72.5989 35.0475 73.0347 35.1242 73.407 34.9584C73.7793 34.7925 74.0137 34.4173 73.9994 34.0099C73.9806 33.4714 73.5383 33.0446 72.9994 33.0449Z" fill="#666666"/>
<path d="M72.9996 41.6893C72.5414 41.7808 72.2076 42.1773 72.1956 42.6443C72.1837 43.1114 72.4967 43.5245 72.9496 43.6393C73.3478 43.7403 73.7673 43.5874 74.0072 43.2538C74.2471 42.9202 74.2585 42.4739 74.036 42.1285C73.8136 41.7831 73.4025 41.6089 72.9996 41.6893Z" fill="#666666"/>
<path d="M72.9998 24.4047C72.5928 24.3925 72.219 24.6283 72.0548 25.0008C71.8905 25.3734 71.9685 25.8083 72.252 26.1006C72.5354 26.3928 72.9678 26.484 73.3452 26.3312C73.7226 26.1783 73.9696 25.8119 73.9698 25.4048C73.97 24.864 73.5403 24.421 72.9998 24.4047Z" fill="#666666"/>
<path d="M72.9994 46C72.5918 46.0002 72.2252 46.2479 72.0727 46.6258C71.9202 47.0038 72.0123 47.4366 72.3056 47.7196C72.5989 48.0026 73.0347 48.0793 73.407 47.9135C73.7793 47.7476 74.0137 47.3723 73.9994 46.965C73.9806 46.4264 73.5383 45.9997 72.9994 46Z" fill="#666666"/>
<path d="M68.6591 28.7793C68.149 28.7848 67.7396 29.2024 67.7442 29.7126C67.7488 30.2227 68.1656 30.6329 68.6758 30.6292C69.186 30.6256 69.5969 30.2095 69.5941 29.6993C69.5859 29.1888 69.1697 28.7792 68.6591 28.7793V28.7793Z" fill="#666666"/>
<path d="M68.6691 33.0996C68.1589 33.0996 67.7451 33.5127 67.7441 34.023C67.7432 34.5332 68.1556 34.9478 68.6658 34.9496C69.176 34.9514 69.5914 34.5398 69.5941 34.0296C69.5888 33.5202 69.1785 33.1077 68.6691 33.0996V33.0996Z" fill="#666666"/>
<path d="M68.68 50.3848C68.3037 50.3808 67.9624 50.6052 67.817 50.9524C67.6716 51.2996 67.751 51.7002 68.0179 51.9656C68.2847 52.231 68.6858 52.3083 69.0322 52.161C69.3785 52.0137 69.6011 51.6712 69.595 51.2948C69.5818 50.7959 69.179 50.3953 68.68 50.3848Z" fill="#666666"/>
<path d="M68.685 54.7052C68.3082 54.6991 67.9654 54.9223 67.8184 55.2692C67.6714 55.6162 67.7496 56.0177 68.0161 56.2842C68.2825 56.5506 68.684 56.6288 69.031 56.4818C69.378 56.3348 69.6011 55.992 69.595 55.6152C69.5794 55.1192 69.181 54.7208 68.685 54.7052Z" fill="#666666"/>
<path d="M69.5943 38.3801C69.6159 37.8699 69.22 37.4388 68.7098 37.4169C68.1996 37.395 67.7682 37.7906 67.746 38.3008C67.7238 38.8109 68.1192 39.2426 68.6293 39.2651C69.1363 39.2769 69.5622 38.8863 69.5943 38.3801Z" fill="#666666"/>
<path d="M68.6741 46.0645C68.1597 46.0672 67.7441 46.485 67.7441 46.9995C67.7441 47.5103 68.1583 47.9245 68.6691 47.9245C69.18 47.9245 69.5941 47.5103 69.5941 46.9995C69.5942 46.4889 69.1847 46.0726 68.6741 46.0645Z" fill="#666666"/>
<path d="M68.6698 41.7402C68.2934 41.7404 67.9547 41.9685 67.8131 42.3173C67.6715 42.666 67.7553 43.0657 68.0251 43.3282C68.2949 43.5907 68.6967 43.6635 69.0415 43.5124C69.3862 43.3614 69.605 43.0165 69.5948 42.6402C69.5737 42.1425 69.1679 41.7477 68.6698 41.7402V41.7402Z" fill="#666666"/>
<path d="M68.6691 24.46C68.1589 24.46 67.7451 24.8731 67.7441 25.3833C67.7432 25.8935 68.1556 26.3081 68.6658 26.31C69.176 26.3118 69.5914 25.9002 69.5941 25.39C69.5914 24.8794 69.1797 24.4654 68.6691 24.46Z" fill="#666666"/>
<path d="M64.3399 33.165C63.9908 33.1692 63.6788 33.3841 63.5505 33.7089C63.4221 34.0336 63.5028 34.4037 63.7548 34.6454C64.0067 34.8872 64.3798 34.9527 64.6989 34.8111C65.0181 34.6696 65.22 34.3491 65.2099 34C65.1911 33.5333 64.807 33.1647 64.3399 33.165Z" fill="#666666"/>
<path d="M64.3542 41.8047C63.8799 41.802 63.4929 42.1838 63.4893 42.6581C63.4856 43.1323 63.8667 43.5201 64.3409 43.5246C64.8152 43.5292 65.2037 43.149 65.2092 42.6747C65.2093 42.2 64.8288 41.8129 64.3542 41.8047Z" fill="#666666"/>
<path d="M64.3541 46.125C63.8805 46.1223 63.4938 46.5031 63.4893 46.9768C63.4848 47.4504 63.864 47.8385 64.3376 47.8449C64.8112 47.8513 65.2009 47.4736 65.2091 47C65.2092 46.5245 64.8295 46.1359 64.3541 46.125Z" fill="#666666"/>
<path d="M64.3291 54.7697C63.855 54.7808 63.4793 55.1736 63.4895 55.6478C63.4996 56.1219 63.8916 56.4984 64.3658 56.4893C64.84 56.4801 65.2173 56.0889 65.2091 55.6147C65.1982 55.1389 64.805 54.7613 64.3291 54.7697Z" fill="#666666"/>
<path d="M64.3743 28.8451C64.0239 28.8349 63.7024 29.0384 63.5616 29.3594C63.4209 29.6805 63.4891 30.0548 63.734 30.3056C63.9789 30.5564 64.3515 30.6334 64.6758 30.5003C65.0001 30.3672 65.2112 30.0506 65.2093 29.7001C65.2017 29.2388 64.8353 28.8636 64.3743 28.8451Z" fill="#666666"/>
<path d="M64.3693 24.5002C64.0193 24.4921 63.6993 24.6969 63.5601 25.0182C63.421 25.3394 63.4905 25.713 63.7358 25.9627C63.9812 26.2124 64.3534 26.2885 64.6771 26.1551C65.0007 26.0216 65.2112 25.7053 65.2093 25.3552C65.2016 24.892 64.8322 24.5161 64.3693 24.5002Z" fill="#666666"/>
<path d="M64.3649 50.4445C63.8913 50.4364 63.5004 50.8127 63.4904 51.2862C63.4804 51.7597 63.8552 52.1522 64.3286 52.1641C64.8021 52.176 65.196 51.8029 65.2099 51.3295C65.2183 50.8528 64.8415 50.4581 64.3649 50.4445Z" fill="#666666"/>
<path d="M64.3392 37.5C63.865 37.5055 63.4847 37.894 63.4893 38.3683C63.4939 38.8425 63.8816 39.2236 64.3559 39.2199C64.8302 39.2163 65.212 38.8293 65.2092 38.355C65.2011 37.8804 64.8139 37.4999 64.3392 37.5V37.5Z" fill="#666666"/>
<path d="M60.8392 38.3746C60.8554 37.9277 60.5064 37.5522 60.0595 37.5357C59.6126 37.5193 59.237 37.8681 59.2203 38.315C59.2036 38.7619 59.5523 39.1377 59.9992 39.1546C60.2152 39.1669 60.4268 39.0906 60.5853 38.9434C60.7438 38.7963 60.8355 38.5909 60.8392 38.3746Z" fill="#666666"/>
<path d="M60.0247 28.8948C59.5793 28.8976 59.2197 29.2594 59.2197 29.7048C59.2197 30.1502 59.5794 30.512 60.0247 30.5148C60.4701 30.5175 60.8342 30.1601 60.8397 29.7148C60.8466 29.4961 60.7632 29.2843 60.6089 29.1291C60.4547 28.9739 60.2434 28.8892 60.0247 28.8948Z" fill="#666666"/>
<path d="M60.0446 46.1749C59.5973 46.1667 59.2281 46.5226 59.2199 46.9699C59.2116 47.4171 59.5674 47.7864 60.0147 47.7947C60.4619 47.803 60.8312 47.4472 60.8396 46.9999C60.8463 46.7843 60.7657 46.5751 60.616 46.4198C60.4664 46.2645 60.2603 46.1762 60.0446 46.1749Z" fill="#666666"/>
<path d="M60.0444 33.215C59.7132 33.209 59.4118 33.4052 59.2832 33.7105C59.1547 34.0157 59.225 34.3685 59.4606 34.6012C59.6963 34.8339 60.0499 34.8997 60.3535 34.7673C60.6571 34.6349 60.8495 34.331 60.8394 34C60.8339 33.5648 60.4796 33.2149 60.0444 33.215Z" fill="#666666"/>
<path d="M60.0597 41.855C59.7305 41.8429 59.4268 42.0312 59.2914 42.3315C59.156 42.6317 59.2158 42.9841 59.4429 43.2228C59.6699 43.4614 60.0188 43.5388 60.3254 43.4186C60.6321 43.2984 60.8354 43.0044 60.8397 42.675C60.8464 42.4625 60.7677 42.2561 60.6211 42.102C60.4745 41.9479 60.2723 41.859 60.0597 41.855Z" fill="#666666"/>
<path d="M60.0597 50.4996C59.7305 50.4874 59.4268 50.6758 59.2914 50.976C59.156 51.2763 59.2158 51.6286 59.4429 51.8673C59.6699 52.1059 60.0188 52.1834 60.3254 52.0631C60.6321 51.9429 60.8354 51.6489 60.8397 51.3196C60.8464 51.107 60.7677 50.9006 60.6211 50.7465C60.4745 50.5924 60.2723 50.5035 60.0597 50.4996Z" fill="#666666"/>
<path d="M55.6998 33.2794C55.5067 33.2768 55.3205 33.3513 55.1825 33.4864C55.0445 33.6216 54.9662 33.8063 54.9648 33.9994C54.9648 34.4136 55.3006 34.7494 55.7148 34.7494C56.1291 34.7494 56.4648 34.4136 56.4648 33.9994C56.4638 33.8009 56.3813 33.6115 56.2367 33.4754C56.0922 33.3393 55.8981 33.2685 55.6998 33.2794Z" fill="#666666"/>
<path d="M56.4542 38.4097C56.4798 38.1085 56.3209 37.8217 56.0519 37.6837C55.783 37.5457 55.4573 37.5839 55.2276 37.7804C54.9979 37.9769 54.9096 38.2927 55.0043 38.5798C55.0989 38.8669 55.3576 39.0683 55.6592 39.0897C55.855 39.1063 56.0494 39.0436 56.1988 38.9159C56.3482 38.7881 56.4401 38.6058 56.4542 38.4097Z" fill="#666666"/>
<path d="M55.7041 28.9551C55.2899 28.9551 54.9541 29.2909 54.9541 29.7051C54.9541 30.1193 55.2899 30.4551 55.7041 30.4551C55.8998 30.4592 56.0889 30.3839 56.2283 30.2464C56.3676 30.1089 56.4455 29.9209 56.4441 29.7251C56.4537 29.5233 56.3799 29.3264 56.2399 29.1808C56.0999 29.0351 55.9061 28.9535 55.7041 28.9551Z" fill="#666666"/>
<path d="M55.7349 50.5594C55.5331 50.5498 55.3362 50.6237 55.1905 50.7636C55.0449 50.9036 54.9633 51.0974 54.9649 51.2994C54.9649 51.7136 55.3007 52.0494 55.7149 52.0494C56.1291 52.0494 56.4649 51.7136 56.4649 51.2994C56.4662 51.1045 56.39 50.917 56.2531 50.7782C56.1162 50.6395 55.9298 50.5608 55.7349 50.5594Z" fill="#666666"/>
<path d="M55.7143 46.2394C55.5124 46.2352 55.3176 46.3142 55.1757 46.458C55.0338 46.6018 54.9574 46.7976 54.9643 46.9994C54.9725 47.4082 55.3086 47.7339 55.7174 47.7294C56.1262 47.7248 56.455 47.3917 56.4541 46.9828C56.4533 46.574 56.1231 46.2422 55.7143 46.2394Z" fill="#666666"/>
<path d="M55.6998 41.9202C55.2904 41.9257 54.9621 42.2606 54.9649 42.6701C54.9676 43.0796 55.3003 43.4101 55.7098 43.4101C56.1193 43.4102 56.452 43.0797 56.4548 42.6702C56.459 42.4692 56.3806 42.2752 56.238 42.1335C56.0953 41.9918 55.9008 41.9147 55.6998 41.9202Z" fill="#666666"/>
<path d="M51.3597 47.665C51.6357 47.6772 51.8917 47.521 52.0072 47.27C52.1227 47.019 52.0749 46.723 51.8861 46.5212C51.6974 46.3194 51.4053 46.2519 51.1471 46.3504C50.8889 46.4489 50.716 46.6938 50.7097 46.97C50.7015 47.149 50.7659 47.3236 50.8883 47.4544C51.0106 47.5852 51.1806 47.6612 51.3597 47.665Z" fill="#666666"/>
<path d="M50.7101 42.6151C50.684 42.8912 50.8283 43.1556 51.0747 43.283C51.3211 43.4104 51.6202 43.3754 51.8305 43.1945C52.0408 43.0136 52.1201 42.7231 52.031 42.4604C51.9418 42.1978 51.702 42.0156 51.4251 42.0001C51.2486 41.9863 51.0739 42.0435 50.9397 42.1589C50.8055 42.2743 50.7228 42.4385 50.7101 42.6151Z" fill="#666666"/>
<path d="M51.4042 28.9995C51.2195 28.9926 51.0403 29.0622 50.9087 29.1918C50.7771 29.3215 50.7049 29.4998 50.7092 29.6845C50.7092 30.0601 51.0136 30.3645 51.3892 30.3645C51.7647 30.3645 52.0692 30.0601 52.0692 29.6845C52.0732 29.5051 52.0051 29.3316 51.8801 29.2028C51.7551 29.074 51.5836 29.0008 51.4042 28.9995Z" fill="#666666"/>
<path d="M51.4 51.9996C51.7755 51.9996 52.08 51.6952 52.08 51.3196C52.08 50.9441 51.7755 50.6396 51.4 50.6396C51.2214 50.6396 51.0502 50.7109 50.9244 50.8377C50.7986 50.9644 50.7286 51.1361 50.73 51.3146C50.7231 51.4957 50.791 51.6717 50.9177 51.8012C51.0444 51.9308 51.2188 52.0025 51.4 51.9996Z" fill="#666666"/>
<path d="M51.3692 39.0248C51.6459 39.0329 51.8999 38.8725 52.0115 38.6191C52.1231 38.3658 52.0699 38.0701 51.8771 37.8715C51.6843 37.6728 51.3903 37.6109 51.1338 37.7148C50.8772 37.8188 50.7093 38.0679 50.7092 38.3448C50.7051 38.5229 50.7727 38.6951 50.8968 38.8229C51.0209 38.9508 51.191 39.0235 51.3692 39.0248Z" fill="#666666"/>
<path d="M52.0698 34.04C52.0777 33.6666 51.7829 33.3568 51.4096 33.346C51.0362 33.3352 50.7241 33.6276 50.7104 34.0008C50.6968 34.3741 50.9867 34.6885 51.3598 34.705C51.5438 34.7175 51.7248 34.653 51.8594 34.5269C51.994 34.4008 52.0702 34.2245 52.0698 34.04Z" fill="#666666"/>
<path d="M47.0543 50.6843C46.7099 50.6926 46.4371 50.9781 46.4445 51.3225C46.4518 51.6669 46.7365 51.9404 47.0809 51.934C47.4253 51.9277 47.6997 51.6438 47.6943 51.2993C47.6958 51.1314 47.6281 50.9702 47.5069 50.8538C47.3858 50.7374 47.222 50.6761 47.0543 50.6843Z" fill="#666666"/>
<path d="M47.0744 30.3252C47.4189 30.3224 47.6962 30.0414 47.6944 29.6969C47.6926 29.3523 47.4123 29.0743 47.0678 29.0752C46.7232 29.0761 46.4444 29.3557 46.4444 29.7002C46.4416 29.8676 46.5073 30.029 46.6262 30.147C46.7451 30.2649 46.907 30.3293 47.0744 30.3252Z" fill="#666666"/>
<path d="M47.0591 34.6445C47.4029 34.6498 47.6864 34.3764 47.6936 34.0327C47.7009 33.6889 47.4291 33.4039 47.0854 33.3948C46.7417 33.3856 46.4551 33.6558 46.4441 33.9995C46.4359 34.1677 46.497 34.332 46.6133 34.4539C46.7295 34.5758 46.8907 34.6447 47.0591 34.6445Z" fill="#666666"/>
<path d="M47.0595 47.6093C47.3145 47.6133 47.5464 47.462 47.6454 47.2269C47.7443 46.9919 47.6906 46.7203 47.5095 46.5407C47.3284 46.361 47.0564 46.3095 46.8221 46.4104C46.5879 46.5113 46.4384 46.7443 46.4445 46.9993C46.4473 47.337 46.7218 47.6093 47.0595 47.6093Z" fill="#666666"/>
<path d="M47.0744 43.29C47.4183 43.2873 47.6953 43.0072 47.6944 42.6634C47.6935 42.3195 47.4149 42.041 47.0711 42.04C46.7272 42.0391 46.4472 42.3162 46.4444 42.66C46.4417 42.8279 46.5072 42.9898 46.6259 43.1085C46.7447 43.2273 46.9065 43.2927 47.0744 43.29Z" fill="#666666"/>
<path d="M47.0694 38.9697C47.4139 38.9697 47.6935 38.6909 47.6944 38.3464C47.6953 38.0019 47.4172 37.7216 47.0727 37.7197C46.7282 37.7179 46.4472 37.9952 46.4444 38.3397C46.4417 38.5068 46.5065 38.6678 46.6242 38.7864C46.7418 38.905 46.9024 38.9711 47.0694 38.9697Z" fill="#666666"/>
<path d="M42.7591 29.1594C42.5384 29.1533 42.3358 29.2811 42.2461 29.483C42.1565 29.6849 42.1976 29.9208 42.3501 30.0806C42.5026 30.2403 42.7365 30.2922 42.9422 30.2119C43.148 30.1317 43.285 29.9352 43.2891 29.7144C43.2975 29.5692 43.2451 29.427 43.1447 29.3218C43.0442 29.2166 42.9046 29.1578 42.7591 29.1594Z" fill="#666666"/>
<path d="M42.7492 37.8C42.5284 37.798 42.3281 37.9295 42.2422 38.133C42.1562 38.3365 42.2016 38.5717 42.3571 38.7286C42.5126 38.8855 42.7474 38.9331 42.9516 38.849C43.1559 38.7649 43.2892 38.5659 43.2892 38.345C43.2948 38.1997 43.2399 38.0586 43.1376 37.9553C43.0352 37.852 42.8946 37.7958 42.7492 37.8Z" fill="#666666"/>
<path d="M42.7345 42.1251C42.5141 42.1318 42.3199 42.2719 42.244 42.479C42.168 42.686 42.2257 42.9184 42.3895 43.0661C42.5534 43.2137 42.7905 43.2468 42.9885 43.1498C43.1866 43.0527 43.3057 42.845 43.2895 42.6251C43.2904 42.4824 43.2302 42.3461 43.1242 42.2506C43.0181 42.1551 42.8763 42.1094 42.7345 42.1251Z" fill="#666666"/>
<path d="M42.7491 46.4452C42.4488 46.4425 42.2029 46.6833 42.1993 46.9836C42.1956 47.2839 42.4356 47.5306 42.7359 47.5352C43.0362 47.5397 43.2836 47.3005 43.2891 47.0002C43.3062 46.8511 43.2554 46.7022 43.1507 46.5947C43.0461 46.4871 42.8986 46.4323 42.7491 46.4452Z" fill="#666666"/>
<path d="M42.7492 50.7649C42.5284 50.7628 42.3281 50.8943 42.2422 51.0978C42.1562 51.3013 42.2016 51.5365 42.3571 51.6934C42.5126 51.8504 42.7474 51.8979 42.9516 51.8138C43.1559 51.7298 43.2892 51.5308 43.2892 51.3099C43.2948 51.1646 43.2399 51.0234 43.1376 50.9201C43.0352 50.8168 42.8946 50.7606 42.7492 50.7649Z" fill="#666666"/>
<path d="M42.7493 33.5002C42.5245 33.4989 42.322 33.6358 42.2393 33.8449C42.1567 34.054 42.2109 34.2924 42.3759 34.4451C42.5409 34.5979 42.7827 34.6336 42.9848 34.5352C43.187 34.4368 43.3079 34.2243 43.2893 34.0002C43.2758 33.7142 43.0356 33.4917 42.7493 33.5002Z" fill="#666666"/>
<path d="M38.4445 46.5244C38.1916 46.5352 37.9938 46.7464 37.9995 46.9994C37.9941 47.117 38.036 47.2318 38.1158 47.3182C38.1957 47.4047 38.3069 47.4555 38.4245 47.4594C38.5487 47.469 38.6716 47.4284 38.7656 47.3466C38.8596 47.2648 38.9168 47.1488 38.9245 47.0244C38.9247 46.7559 38.7128 46.5352 38.4445 46.5244Z" fill="#666666"/>
<path d="M38.4347 43.1247C38.5622 43.1224 38.6831 43.0673 38.7684 42.9725C38.8537 42.8777 38.8958 42.7517 38.8847 42.6247C38.8847 42.5071 38.8377 42.3944 38.7541 42.3118C38.6705 42.2291 38.5573 42.1833 38.4397 42.1847C38.3169 42.182 38.198 42.2286 38.1097 42.3141C38.0215 42.3995 37.971 42.5168 37.9697 42.6397C37.9768 42.8969 38.178 43.1068 38.4347 43.1247Z" fill="#666666"/>
<path d="M37.9993 38.3598C38.0006 38.4778 38.0487 38.5905 38.1331 38.673C38.2175 38.7555 38.3313 38.8011 38.4493 38.7998C38.5713 38.8011 38.6888 38.7539 38.776 38.6686C38.8632 38.5832 38.913 38.4668 38.9143 38.3448C38.8947 38.0955 38.6939 37.899 38.4443 37.8848C38.3223 37.8887 38.2068 37.9409 38.1233 38.03C38.0399 38.1191 37.9952 38.2377 37.9993 38.3598Z" fill="#666666"/>
<path d="M38.4298 33.5645C38.1948 33.5748 38.0074 33.7644 37.9998 33.9995C37.9888 34.1248 38.0296 34.2492 38.1127 34.3437C38.1959 34.4382 38.3141 34.4945 38.4398 34.4995C38.6147 34.5178 38.7847 34.4348 38.8779 34.2857C38.971 34.1365 38.971 33.9474 38.8779 33.7982C38.7847 33.6491 38.6147 33.5661 38.4398 33.5845L38.4298 33.5645Z" fill="#666666"/>
<path d="M38.4345 29.2444C38.3164 29.2404 38.2016 29.2834 38.1153 29.3641C38.029 29.4447 37.9784 29.5564 37.9745 29.6744C37.9634 29.7989 38.0036 29.9226 38.0856 30.0169C38.1677 30.1112 38.2846 30.1681 38.4095 30.1744C38.6655 30.176 38.8813 29.9839 38.9095 29.7294C38.915 29.6009 38.8671 29.4758 38.7771 29.3839C38.6871 29.292 38.563 29.2415 38.4345 29.2444Z" fill="#666666"/>
<path d="M34.3948 46.9993C34.3948 46.8893 34.2198 46.7943 34.1198 46.6943C34.0148 46.7993 33.8498 46.8893 33.8298 47.0143C33.8098 47.1393 33.9748 47.2293 34.1148 47.4193C34.2548 47.2143 34.4048 47.0943 34.3948 46.9993Z" fill="#666666"/>
<path d="M34.0996 42.9444C34.2096 42.9444 34.3096 42.7794 34.4096 42.6844C34.3096 42.5744 34.2196 42.4094 34.0996 42.3844C33.9796 42.3594 33.8796 42.5244 33.6846 42.6644C33.8746 42.8044 33.9996 42.9544 34.0996 42.9444Z" fill="#666666"/>
<path d="M34.1192 38.7699C34.2542 38.5699 34.4142 38.4399 34.3892 38.3499C34.3642 38.2599 34.1942 38.1449 34.0842 38.0449C33.9942 38.1499 33.8342 38.2499 33.8292 38.3599C33.8242 38.4699 33.9992 38.5799 34.1192 38.7699Z" fill="#666666"/>
<path d="M34.3948 34.0297C34.3948 33.9197 34.2198 33.8247 34.1198 33.7197C34.0148 33.8247 33.8498 33.9197 33.8298 34.0397C33.8098 34.1597 33.9748 34.2547 34.1148 34.4447C34.2548 34.2547 34.4048 34.1347 34.3948 34.0297Z" fill="#666666"/>
<path d="M33.8096 29.6844C33.9096 29.7894 33.9996 29.9594 34.1196 29.9844C34.2396 30.0094 34.3396 29.8444 34.5346 29.7044C34.3446 29.5644 34.2246 29.4094 34.1196 29.4194C34.0146 29.4294 33.9096 29.5894 33.8096 29.6844Z" fill="#666666"/>
<path d="M33.8096 25.3651C33.9096 25.4701 33.9996 25.6351 34.1196 25.6651C34.2396 25.6951 34.3396 25.5201 34.5346 25.3851C34.3446 25.2451 34.2246 25.0901 34.1196 25.1001C34.0146 25.1101 33.9096 25.2701 33.8096 25.3651Z" fill="#666666"/>
<path d="M72.9999 63.7145C72.5925 63.7002 72.2173 63.9346 72.0514 64.3069C71.8855 64.6792 71.9622 65.115 72.2453 65.4083C72.5283 65.7016 72.961 65.7937 73.339 65.6412C73.717 65.4887 73.9646 65.1221 73.9649 64.7145C73.9652 64.1756 73.5384 63.7333 72.9999 63.7145Z" fill="#666666"/>
<path d="M72.9994 68.04C72.5918 68.0403 72.2252 68.2879 72.0727 68.6659C71.9202 69.0439 72.0123 69.4766 72.3056 69.7596C72.5989 70.0427 73.0347 70.1194 73.407 69.9535C73.7793 69.7876 74.0137 69.4124 73.9994 69.005C73.9806 68.4665 73.5383 68.0397 72.9994 68.04Z" fill="#666666"/>
<path d="M72.9999 76.6793C72.5925 76.6651 72.2173 76.8995 72.0514 77.2718C71.8855 77.6441 71.9622 78.0798 72.2453 78.3731C72.5283 78.6664 72.961 78.7586 73.339 78.6061C73.717 78.4536 73.9646 78.0869 73.9649 77.6793C73.9652 77.1404 73.5384 76.6982 72.9999 76.6793Z" fill="#666666"/>
<path d="M72.9998 59.395C72.5928 59.3828 72.219 59.6185 72.0548 59.9911C71.8905 60.3636 71.9685 60.7985 72.252 61.0908C72.5354 61.383 72.9678 61.4742 73.3452 61.3214C73.7226 61.1685 73.9696 60.8021 73.9698 60.395C73.97 59.8542 73.5403 59.4112 72.9998 59.395Z" fill="#666666"/>
<path d="M72.9996 72.3602C72.5414 72.4517 72.2076 72.8482 72.1956 73.3152C72.1837 73.7823 72.4967 74.1954 72.9496 74.3102C73.3478 74.4112 73.7673 74.2583 74.0072 73.9247C74.2471 73.5911 74.2585 73.1448 74.036 72.7994C73.8136 72.454 73.4025 72.2798 72.9996 72.3602Z" fill="#666666"/>
<path d="M68.68 63.7696C68.3037 63.7656 67.9624 63.99 67.817 64.3372C67.6716 64.6843 67.751 65.085 68.0179 65.3504C68.2847 65.6158 68.6858 65.6931 69.0322 65.5457C69.3785 65.3984 69.6011 65.0559 69.595 64.6796C69.5793 64.1817 69.178 63.7826 68.68 63.7696Z" fill="#666666"/>
<path d="M68.7041 81.0544C68.3276 81.0401 67.9801 81.2557 67.8255 81.5993C67.671 81.943 67.7404 82.346 68.0009 82.6183C68.2614 82.8905 68.661 82.9775 69.0111 82.8382C69.3612 82.6989 69.5918 82.3612 69.5941 81.9844C69.5871 81.489 69.1987 81.0832 68.7041 81.0544Z" fill="#666666"/>
<path d="M69.5943 69.0501C69.6159 68.5399 69.22 68.1087 68.7098 68.0868C68.1996 68.0649 67.7682 68.4605 67.746 68.9707C67.7238 69.4809 68.1192 69.9125 68.6293 69.9351C69.1363 69.9468 69.5622 69.5562 69.5943 69.0501Z" fill="#666666"/>
<path d="M68.65 76.7344C68.14 76.7455 67.7352 77.1675 67.7453 77.6776C67.7554 78.1876 68.1766 78.5932 68.6867 78.5841C69.1968 78.5749 69.6032 78.1545 69.595 77.6444C69.5814 77.1339 69.1607 76.7288 68.65 76.7344Z" fill="#666666"/>
<path d="M68.6898 59.4494C68.1798 59.4386 67.7572 59.8427 67.7454 60.3527C67.7335 60.8627 68.1368 61.286 68.6468 61.2989C69.1567 61.3118 69.5809 60.9094 69.5948 60.3994C69.6032 59.8887 69.2003 59.4658 68.6898 59.4494Z" fill="#666666"/>
<path d="M68.65 72.4102C68.14 72.4213 67.7352 72.8432 67.7453 73.3533C67.7554 73.8634 68.1766 74.2689 68.6867 74.2598C69.1968 74.2507 69.6032 73.8303 69.595 73.3202C69.5787 72.8108 69.1596 72.4072 68.65 72.4102Z" fill="#666666"/>
<path d="M64.3591 63.835C63.8849 63.8296 63.4957 64.2091 63.4893 64.6834C63.4829 65.1576 63.8617 65.5475 64.3359 65.5549C64.8102 65.5622 65.2008 65.1842 65.2091 64.71C65.212 64.2353 64.8337 63.8459 64.3591 63.835Z" fill="#666666"/>
<path d="M64.3442 72.5C63.8706 72.5028 63.4883 72.888 63.4893 73.3617C63.4902 73.8353 63.8739 74.2191 64.3476 74.22C64.8212 74.2209 65.2065 73.8387 65.2092 73.365C65.2065 72.8884 64.8208 72.5027 64.3442 72.5V72.5Z" fill="#666666"/>
<path d="M64.3542 59.5C63.8799 59.4973 63.4929 59.8791 63.4893 60.3534C63.4856 60.8277 63.8667 61.2154 64.3409 61.22C64.8152 61.2246 65.2037 60.8443 65.2092 60.37C65.212 59.8942 64.83 59.5055 64.3542 59.5Z" fill="#666666"/>
<path d="M64.3443 76.7949C63.87 76.7977 63.4874 77.1839 63.4893 77.6582C63.4911 78.1325 63.8766 78.5158 64.3509 78.5149C64.8252 78.514 65.2092 78.1292 65.2093 77.6549C65.2038 77.1803 64.8189 76.7976 64.3443 76.7949V76.7949Z" fill="#666666"/>
<path d="M64.3941 81.1193C64.0442 81.1011 63.7181 81.297 63.5699 81.6146C63.4218 81.9322 63.4811 82.3079 63.72 82.5643C63.9588 82.8208 64.3294 82.9066 64.6567 82.7813C64.984 82.6561 65.2025 82.3447 65.2091 81.9943C65.2127 81.5326 64.8549 81.1485 64.3941 81.1193Z" fill="#666666"/>
<path d="M64.3291 68.1544C63.855 68.1655 63.4793 68.5583 63.4895 69.0325C63.4996 69.5066 63.8916 69.8831 64.3658 69.874C64.84 69.8648 65.2173 69.4736 65.2091 68.9994C65.1955 68.5248 64.8039 68.1487 64.3291 68.1544Z" fill="#666666"/>
<path d="M60.0247 59.5647C59.5793 59.5675 59.2197 59.9293 59.2197 60.3747C59.2197 60.8201 59.5794 61.1819 60.0247 61.1847C60.4701 61.1874 60.8342 60.8301 60.8397 60.3847C60.8466 60.1661 60.7632 59.9542 60.6089 59.799C60.4547 59.6439 60.2434 59.5591 60.0247 59.5647Z" fill="#666666"/>
<path d="M60.0447 68.2052C59.7154 68.1991 59.4151 68.3931 59.2853 68.6959C59.1555 68.9986 59.2219 69.3499 59.4534 69.5842C59.6849 69.8186 60.0353 69.8895 60.3396 69.7635C60.644 69.6374 60.8417 69.3396 60.8397 69.0102C60.8411 68.798 60.7581 68.594 60.609 68.4431C60.4599 68.2921 60.2569 68.2065 60.0447 68.2052Z" fill="#666666"/>
<path d="M60.0597 81.1695C59.7305 81.1573 59.4268 81.3457 59.2914 81.6459C59.156 81.9462 59.2158 82.2986 59.4429 82.5372C59.6699 82.7759 60.0188 82.8533 60.3254 82.733C60.6321 82.6128 60.8354 82.3188 60.8397 81.9895C60.8464 81.7769 60.7677 81.5705 60.6211 81.4164C60.4745 81.2623 60.2723 81.1734 60.0597 81.1695Z" fill="#666666"/>
<path d="M60.8395 64.7343C60.8575 64.406 60.6753 64.0993 60.3783 63.9582C60.0813 63.8172 59.7284 63.8696 59.4853 64.091C59.2422 64.3124 59.1571 64.6588 59.2699 64.9677C59.3826 65.2766 59.6709 65.4866 59.9995 65.4993C60.2129 65.5115 60.4223 65.4373 60.5803 65.2934C60.7384 65.1494 60.8318 64.9479 60.8395 64.7343Z" fill="#666666"/>
<path d="M60.0345 72.5245C59.5891 72.5219 59.2252 72.8793 59.2198 73.3246C59.2144 73.77 59.5695 74.1361 60.0148 74.1443C60.4601 74.1525 60.8285 73.7997 60.8395 73.3545C60.8491 73.1359 60.7683 72.923 60.6159 72.7659C60.4636 72.6089 60.2533 72.5215 60.0345 72.5245Z" fill="#666666"/>
<path d="M60.0346 76.8447C59.7052 76.8428 59.4074 77.0405 59.2814 77.3448C59.1553 77.6492 59.2262 77.9996 59.4606 78.231C59.695 78.4625 60.0462 78.529 60.349 78.3992C60.6517 78.2694 60.8457 77.9691 60.8396 77.6397C60.8383 77.4276 60.7527 77.2246 60.6018 77.0755C60.4508 76.9264 60.2468 76.8434 60.0346 76.8447Z" fill="#666666"/>
<path d="M55.6941 81.2299C55.2812 81.2354 54.9505 81.5736 54.9541 81.9865C54.9578 82.3994 55.2945 82.7317 55.7074 82.7299C56.1203 82.728 56.4541 82.3928 56.4541 81.9799C56.4583 81.778 56.3793 81.5832 56.2355 81.4413C56.0918 81.2995 55.896 81.223 55.6941 81.2299Z" fill="#666666"/>
<path d="M54.9695 77.5898C54.9437 77.8915 55.1031 78.1788 55.3726 78.3166C55.6422 78.4544 55.9684 78.4154 56.1978 78.2179C56.4273 78.0204 56.5144 77.7037 56.4182 77.4166C56.322 77.1295 56.0617 76.9292 55.7595 76.9098C55.5641 76.8933 55.3703 76.9561 55.2217 77.084C55.0731 77.2119 54.9822 77.3942 54.9695 77.5898Z" fill="#666666"/>
<path d="M55.7242 72.59C55.3149 72.5821 54.9759 72.9059 54.9651 73.3152C54.9543 73.7245 55.2758 74.0658 55.685 74.0794C56.0941 74.0931 56.4377 73.7741 56.4542 73.365C56.4652 73.1641 56.3933 72.9675 56.2554 72.821C56.1174 72.6746 55.9254 72.5911 55.7242 72.59Z" fill="#666666"/>
<path d="M55.6998 68.27C55.2904 68.2755 54.9621 68.6104 54.9649 69.0199C54.9676 69.4294 55.3003 69.7599 55.7098 69.7599C56.1193 69.7599 56.452 69.4295 56.4548 69.02C56.4605 68.8185 56.3826 68.6237 56.2396 68.4816C56.0966 68.3396 55.9012 68.263 55.6998 68.27Z" fill="#666666"/>
<path d="M55.7348 63.9496C55.4319 63.9395 55.153 64.1139 55.0295 64.3907C54.906 64.6675 54.9625 64.9915 55.1724 65.2102C55.3823 65.4288 55.7038 65.4985 55.9854 65.3864C56.267 65.2743 56.4526 65.0027 56.4548 64.6996C56.4602 64.5043 56.3871 64.315 56.2517 64.174C56.1164 64.0331 55.9302 63.9522 55.7348 63.9496Z" fill="#666666"/>
<path d="M56.4545 60.3998C56.4646 60.0974 56.2907 59.8188 56.0145 59.695C55.7383 59.5713 55.4147 59.6269 55.1957 59.8358C54.9767 60.0446 54.9058 60.3652 55.0163 60.647C55.1269 60.9287 55.3968 61.1156 55.6995 61.1198C55.8953 61.1252 56.0851 61.0522 56.2268 60.917C56.3686 60.7818 56.4505 60.5957 56.4545 60.3998Z" fill="#666666"/>
<path d="M51.3799 69.6947C51.5592 69.7028 51.7341 69.6376 51.8643 69.514C51.9945 69.3904 52.0687 69.2192 52.0699 69.0397C52.0795 68.856 52.0132 68.6764 51.8865 68.5431C51.7598 68.4098 51.5838 68.3344 51.3999 68.3347C51.2206 68.3265 51.0457 68.3917 50.9155 68.5153C50.7853 68.6389 50.7111 68.8102 50.7099 68.9897C50.7003 69.1733 50.7666 69.3529 50.8933 69.4862C51.02 69.6195 51.196 69.6949 51.3799 69.6947Z" fill="#666666"/>
<path d="M50.7097 60.325C50.7207 60.6984 51.0308 60.993 51.4043 60.9848C51.7777 60.9766 52.0747 60.6687 52.0693 60.2952C52.0639 59.9217 51.7582 59.6224 51.3847 59.625C51.2008 59.6235 51.0243 59.6976 50.8967 59.8299C50.769 59.9623 50.7014 60.1413 50.7097 60.325Z" fill="#666666"/>
<path d="M51.405 72.6545C51.1287 72.6484 50.8761 72.8101 50.7661 73.0637C50.6562 73.3172 50.7106 73.6121 50.9038 73.8097C51.0971 74.0073 51.3907 74.0683 51.6466 73.964C51.9026 73.8597 52.0699 73.6108 52.07 73.3345C52.074 73.1555 52.0057 72.9825 51.8806 72.8545C51.7554 72.7265 51.584 72.6544 51.405 72.6545Z" fill="#666666"/>
<path d="M51.405 77.0002C51.1282 76.9941 50.8754 77.1564 50.7656 77.4105C50.6559 77.6647 50.7113 77.96 50.9056 78.1572C51.0999 78.3544 51.3943 78.4142 51.6501 78.3083C51.9059 78.2024 52.0719 77.952 52.07 77.6752C52.0726 77.4971 52.0038 77.3253 51.8788 77.1985C51.7538 77.0716 51.5831 77.0001 51.405 77.0002Z" fill="#666666"/>
<path d="M51.3693 65.3744C51.6455 65.3825 51.8992 65.2226 52.0111 64.9699C52.1229 64.7172 52.0707 64.4219 51.879 64.2229C51.6872 64.0238 51.3941 63.9607 51.1373 64.0631C50.8806 64.1654 50.7114 64.413 50.7093 64.6894C50.7039 64.8683 50.7709 65.0419 50.8951 65.1708C51.0193 65.2997 51.1903 65.3731 51.3693 65.3744Z" fill="#666666"/>
<path d="M52.0698 82C52.0777 81.6266 51.7829 81.3167 51.4096 81.306C51.0362 81.2952 50.7241 81.5875 50.7104 81.9608C50.6968 82.334 50.9867 82.6484 51.3598 82.665C51.5435 82.676 51.7236 82.611 51.8578 82.4852C51.9921 82.3594 52.0688 82.184 52.0698 82Z" fill="#666666"/>
<path d="M47.0442 68.3897C46.7007 68.4035 46.4328 68.6922 46.4447 69.0358C46.4566 69.3794 46.7437 69.6488 47.0874 69.6389C47.431 69.629 47.7021 69.3434 47.6942 68.9997C47.6931 68.8312 47.6229 68.6705 47.5 68.5552C47.3772 68.4399 47.2124 68.3801 47.0442 68.3897Z" fill="#666666"/>
<path d="M47.075 81.3545C46.82 81.3526 46.5894 81.5058 46.4923 81.7417C46.3953 81.9775 46.4513 82.2487 46.6338 82.4268C46.8164 82.6049 47.0888 82.6543 47.3222 82.5515C47.5556 82.4487 47.7032 82.2144 47.695 81.9595C47.6895 81.6218 47.4127 81.3517 47.075 81.3545Z" fill="#666666"/>
<path d="M47.0594 78.2797C47.2951 78.3009 47.5225 78.1871 47.6469 77.9857C47.7713 77.7844 47.7713 77.5301 47.6469 77.3287C47.5225 77.1274 47.2951 77.0136 47.0594 77.0347C46.7371 77.0636 46.4902 77.3337 46.4902 77.6572C46.4902 77.9808 46.7371 78.2508 47.0594 78.2797Z" fill="#666666"/>
<path d="M47.0794 60.9296C47.4238 60.9241 47.6989 60.6409 47.6943 60.2964C47.6897 59.9519 47.4072 59.6761 47.0627 59.6797C46.7182 59.6834 46.4416 59.9651 46.4444 60.3096C46.4429 60.4771 46.5098 60.638 46.6297 60.755C46.7495 60.872 46.9119 60.9351 47.0794 60.9296Z" fill="#666666"/>
<path d="M47.6947 73.3649C47.7106 73.021 47.4454 72.7289 47.1015 72.7117C46.7577 72.6945 46.4646 72.9587 46.4462 73.3025C46.4278 73.6463 46.6909 73.9403 47.0347 73.9599C47.202 73.9723 47.3671 73.9157 47.4917 73.8034C47.6163 73.691 47.6897 73.5326 47.6947 73.3649Z" fill="#666666"/>
<path d="M47.0942 64.0702C46.8594 64.0442 46.6301 64.1528 46.5014 64.3508C46.3727 64.5488 46.3665 64.8024 46.4856 65.0064C46.6046 65.2104 46.8285 65.3299 47.0642 65.3152C47.3879 65.2951 47.6424 65.0307 47.6502 64.7065C47.658 64.3822 47.4165 64.1059 47.0942 64.0702Z" fill="#666666"/>
<path d="M42.7441 81.435C42.5228 81.435 42.3235 81.5689 42.2397 81.7738C42.156 81.9787 42.2045 82.2138 42.3624 82.3689C42.5204 82.5239 42.7564 82.5681 42.9597 82.4805C43.163 82.393 43.2932 82.1913 43.2891 81.97C43.292 81.8255 43.2352 81.6862 43.132 81.5849C43.0289 81.4837 42.8886 81.4294 42.7441 81.435Z" fill="#666666"/>
<path d="M42.7647 59.7646C42.542 59.7462 42.3306 59.8656 42.2315 60.0658C42.1323 60.266 42.1653 60.5065 42.3149 60.6725C42.4645 60.8385 42.7002 60.8964 42.9097 60.8186C43.1191 60.7407 43.2598 60.5429 43.2647 60.3196C43.2804 60.1777 43.2347 60.0359 43.1392 59.9299C43.0437 59.8238 42.9074 59.7637 42.7647 59.7646Z" fill="#666666"/>
<path d="M42.7492 64.1496C42.5284 64.1476 42.3281 64.2791 42.2422 64.4826C42.1562 64.6861 42.2016 64.9213 42.3571 65.0782C42.5126 65.2351 42.7474 65.2827 42.9516 65.1986C43.1559 65.1146 43.2892 64.9155 43.2892 64.6946C43.2948 64.5493 43.2399 64.4082 43.1376 64.3049C43.0352 64.2016 42.8946 64.1454 42.7492 64.1496Z" fill="#666666"/>
<path d="M42.7601 72.7946C42.6136 72.7796 42.468 72.8298 42.362 72.932C42.2561 73.0341 42.2004 73.1777 42.2101 73.3246C42.2101 73.6228 42.4518 73.8646 42.7501 73.8646C43.0483 73.8646 43.2901 73.6228 43.2901 73.3246C43.2989 73.1815 43.2459 73.0415 43.1446 72.9401C43.0432 72.8387 42.9032 72.7857 42.7601 72.7946Z" fill="#666666"/>
<path d="M42.7544 77.1145C42.6079 77.1008 42.4628 77.1524 42.3577 77.2555C42.2527 77.3586 42.1985 77.5027 42.2094 77.6495C42.2094 77.9477 42.4512 78.1895 42.7494 78.1895C43.0476 78.1895 43.2894 77.9477 43.2894 77.6495C43.2999 77.5046 43.247 77.3623 43.1443 77.2596C43.0416 77.1569 42.8993 77.1039 42.7544 77.1145Z" fill="#666666"/>
<path d="M42.7399 68.4697C42.4604 68.4966 42.2471 68.7314 42.2471 69.0122C42.2471 69.293 42.4604 69.5279 42.7399 69.5547C43.0194 69.5279 43.2328 69.293 43.2328 69.0122C43.2328 68.7314 43.0194 68.4966 42.7399 68.4697Z" fill="#666666"/>
<path d="M38.4245 69.5001C38.674 69.4831 38.8726 69.2845 38.8895 69.0351C38.8869 68.9131 38.8359 68.7971 38.7477 68.7127C38.6596 68.6283 38.5415 68.5824 38.4195 68.5851C38.1937 68.595 38.0121 68.7744 37.9995 69.0001C37.9794 69.2553 38.1693 69.4788 38.4245 69.5001Z" fill="#666666"/>
<path d="M38.8892 64.66C38.8913 64.4073 38.7047 64.1928 38.4542 64.16C38.3288 64.1489 38.2044 64.1897 38.1099 64.2729C38.0155 64.356 37.9592 64.4742 37.9542 64.6C37.946 64.7176 37.9853 64.8335 38.0633 64.9219C38.1413 65.0102 38.2515 65.0636 38.3692 65.07C38.4929 65.0869 38.6182 65.0528 38.7163 64.9754C38.8144 64.8981 38.8768 64.7842 38.8892 64.66Z" fill="#666666"/>
<path d="M38.42 59.8497C38.3024 59.8484 38.1892 59.8942 38.1056 59.9768C38.022 60.0595 37.975 60.1722 37.975 60.2897C37.9653 60.4164 38.008 60.5416 38.093 60.636C38.178 60.7304 38.298 60.786 38.425 60.7897C38.6727 60.7731 38.8707 60.5772 38.89 60.3297C38.8955 60.2025 38.8481 60.0787 38.7591 59.9878C38.67 59.8968 38.5472 59.8468 38.42 59.8497Z" fill="#666666"/>
<path d="M38.4147 77.1993C38.2972 77.1993 38.1845 77.2464 38.1018 77.33C38.0191 77.4136 37.9734 77.5268 37.9747 77.6443C37.972 77.7672 38.0186 77.886 38.1041 77.9743C38.1896 78.0626 38.3068 78.113 38.4297 78.1143C38.6772 78.095 38.8731 77.897 38.8897 77.6493C38.8816 77.3945 38.6697 77.1937 38.4147 77.1993Z" fill="#666666"/>
<path d="M38.415 82.4349C38.537 82.4376 38.655 82.3917 38.7432 82.3073C38.8313 82.2229 38.8823 82.107 38.885 81.9849C38.8904 81.8669 38.8486 81.7515 38.7689 81.6643C38.6892 81.5771 38.578 81.5251 38.46 81.5199C38.3357 81.5103 38.2129 81.551 38.1189 81.6327C38.0249 81.7145 37.9676 81.8306 37.96 81.9549C37.969 82.2067 38.164 82.4124 38.415 82.4349Z" fill="#666666"/>
<path d="M38.42 72.88C38.3024 72.8787 38.1892 72.9244 38.1056 73.0071C38.022 73.0898 37.975 73.2024 37.975 73.32C37.9653 73.4467 38.008 73.5718 38.093 73.6663C38.178 73.7607 38.298 73.8163 38.425 73.82C38.6744 73.8031 38.873 73.6045 38.89 73.355C38.8941 73.2287 38.8461 73.1062 38.7572 73.0163C38.6683 72.9265 38.5463 72.8772 38.42 72.88Z" fill="#666666"/>
<path d="M34.1398 60C34.0298 60.1 33.8598 60.18 33.8298 60.3C33.7998 60.42 33.9598 60.525 34.0898 60.725C34.2398 60.54 34.3948 60.43 34.3898 60.325C34.3848 60.22 34.2298 60.115 34.1398 60Z" fill="#666666"/>
<path d="M34.0742 64.9251C34.1892 64.8301 34.3592 64.7501 34.3892 64.6301C34.4192 64.5101 34.2592 64.4051 34.1292 64.2051C33.9842 64.3851 33.8242 64.4951 33.8292 64.6001C33.8342 64.7051 33.9992 64.8201 34.0742 64.9251Z" fill="#666666"/>
<path d="M34.0898 69.4348C34.2348 69.2548 34.3948 69.1448 34.3898 69.0398C34.3848 68.9348 34.2298 68.8198 34.1398 68.7148C34.0298 68.8098 33.8598 68.8948 33.8298 69.0098C33.7998 69.1248 33.9598 69.2398 34.0898 69.4348Z" fill="#666666"/>
<path d="M34.0742 73.6352C34.1892 73.5352 34.3592 73.4552 34.3892 73.3402C34.4192 73.2252 34.2592 73.1102 34.1292 72.9102C33.9842 73.0952 33.8242 73.2052 33.8292 73.3102C33.8342 73.4152 33.9992 73.5252 34.0742 73.6352Z" fill="#666666"/>
<path d="M34.0846 77.9594C34.1946 77.8544 34.3646 77.7694 34.3896 77.6494C34.4146 77.5294 34.2546 77.4244 34.1196 77.2344C33.9746 77.4194 33.8196 77.5344 33.8296 77.6394C33.8396 77.7444 33.9996 77.8494 34.0846 77.9594Z" fill="#666666"/>
<path d="M34.1198 81.6748C34.0148 81.7798 33.8498 81.8748 33.8298 81.9948C33.8098 82.1148 33.9748 82.2098 34.1148 82.3998C34.2548 82.2048 34.4048 82.0848 34.3948 81.9848C34.3848 81.8848 34.2198 81.7748 34.1198 81.6748Z" fill="#666666"/>
</g>
</svg>
