<svg width="93" height="64" viewBox="0 0 93 64" fill="none" xmlns="http://www.w3.org/2000/svg">
<g clip-path="url(#clip0_564_62069)">
<path d="M40.1567 -6.12065C40.4308 -8.03862 42.999 -8.48535 43.9046 -6.77259L57.1409 18.2607C57.5459 19.0266 58.3981 19.4447 59.2517 19.2962L87.15 14.4435C89.0588 14.1114 90.2773 16.416 88.9282 17.8065L69.2104 38.1307C68.6071 38.7526 68.4728 39.6922 68.8778 40.4582L82.1141 65.4914C83.0198 67.2042 81.2046 69.0752 79.4652 68.2219L54.0426 55.7496C53.2647 55.368 52.3296 55.5307 51.7262 56.1526L32.0084 76.4767C30.6594 77.8673 28.319 76.7191 28.5931 74.8012L32.5989 46.7687C32.7214 45.911 32.2778 45.0719 31.4999 44.6902L6.07731 32.218C4.33791 31.3647 4.70668 28.7841 6.61546 28.452L34.5138 23.5993C35.3674 23.4508 36.0283 22.7695 36.1509 21.9118L40.1567 -6.12065Z" fill="#FFC050"/>
<mask id="mask0_564_62069" style="mask-type:alpha" maskUnits="userSpaceOnUse" x="4" y="-8" width="86" height="86">
<path d="M40.1567 -6.12065C40.4308 -8.03862 42.999 -8.48535 43.9046 -6.77259L57.1409 18.2607C57.5459 19.0266 58.3981 19.4447 59.2517 19.2962L87.15 14.4435C89.0588 14.1114 90.2773 16.416 88.9282 17.8065L69.2104 38.1307C68.6071 38.7526 68.4728 39.6922 68.8778 40.4582L82.1141 65.4914C83.0198 67.2042 81.2046 69.0752 79.4652 68.2219L54.0426 55.7496C53.2647 55.368 52.3296 55.5307 51.7262 56.1526L32.0084 76.4767C30.6594 77.8673 28.319 76.7191 28.5931 74.8012L32.5989 46.7687C32.7214 45.911 32.2778 45.0719 31.4999 44.6902L6.07731 32.218C4.33791 31.3647 4.70668 28.7841 6.61546 28.452L34.5138 23.5993C35.3674 23.4508 36.0283 22.7695 36.1509 21.9118L40.1567 -6.12065Z" fill="#FFE0A8"/>
</mask>
<g mask="url(#mask0_564_62069)">
<path d="M181.938 -14.1635C187.896 20.1268 158.551 65.2853 120 72C81.4487 78.7147 69 57.0006 50.0002 36.5006C44.0422 2.21033 29.4486 -54.2849 68 -60.9997C106.551 -67.7144 175.98 -48.4538 181.938 -14.1635Z" fill="#FFCA6C"/>
<path d="M181.938 -14.1635C187.896 20.1268 157.551 3.28526 119 10C80.4487 16.7147 87.5 15 50.0002 36.5006C44.0422 2.21033 29.4486 -54.2849 68 -60.9997C106.551 -67.7144 175.98 -48.4538 181.938 -14.1635Z" fill="#FFD68D"/>
<path d="M49.999 36.4992L32.5 20L41.9987 -11.0008L49.999 36.4992Z" fill="#FFB736"/>
<path d="M-86.3593 -2.22334C-70.199 -33.0482 -56.3901 -1.20847 -21.725 16.947C12.9402 35.1024 7.16298 30.7118 50 36.5C33.8397 67.3248 10.144 122.476 -24.5211 104.321C-59.1863 86.1651 -102.52 28.6015 -86.3593 -2.22334Z" fill="#FFB42E"/>
<path d="M50 36.4999L33 69.5L22 51L50 36.4999Z" fill="#FAA50E"/>
<path d="M50 36.5L79.4999 66.5669L55 67.5009L50 36.5Z" fill="#FFB736"/>
<path d="M50 36.5L62 12L92.5 13.5L50 36.5Z" fill="#FFEAC5"/>
<path d="M50.0003 36.5087L76.999 40.4225L83 70.5L50.0003 36.5087Z" fill="#FFD68D"/>
</g>
</g>
<defs>
<clipPath id="clip0_564_62069">
<rect width="93" height="64" fill="white"/>
</clipPath>
</defs>
</svg>
