<svg width="128" height="128" viewBox="0 0 128 128" fill="none" xmlns="http://www.w3.org/2000/svg">
<path d="M33.1797 43.994C33.5314 27.4742 47.1357 16 63.9746 16H64.1961C81.0371 16 94.6403 26.8039 94.9941 43.994C95.3585 61.6809 78.6382 81.4253 78.3253 85.2645C78.3211 85.3213 78.2812 85.3751 78.2613 85.4308C78.0282 87.2662 76.782 89.0676 74.3778 90.495C68.9017 93.7455 59.835 93.8364 54.1278 90.6975C51.4843 89.2442 50.0795 87.3499 49.8181 85.4143C49.8024 85.3637 49.7646 85.3151 49.7614 85.2645C49.4486 81.4253 32.8154 61.0849 33.1797 43.994Z" fill="#FFF4E1"/>
<path d="M33.0057 43.9947C32.6477 61.0846 49.2777 81.4178 49.5884 85.2735C49.5884 85.321 49.6367 85.3675 49.6367 85.415C49.8992 87.3423 51.3092 89.2469 53.9612 90.7043C59.6714 93.8308 68.7276 93.7368 74.1996 90.4926C76.6122 89.059 77.8552 87.2721 78.0935 85.4387C78.1177 85.3685 78.1418 85.321 78.1418 85.2745C78.2615 83.9813 80.2447 80.8548 82.8012 76.6242C78.4526 77.0001 84.8915 64.5922 80.8537 64.4652C70.9649 64.1543 61.0352 63.1152 54.8 54.6322C48.0798 45.4892 46.0472 31.3698 53.0772 21.8581C57.6431 15.6805 52.9827 17.583 50.6478 18.5519C40.3884 22.8135 33.264 32.0939 33.0057 43.9957V43.9947Z" fill="#FFEAC4"/>
<path d="M35.2328 45.0497C35.2234 46.7333 35.3913 48.451 35.6989 50.18C36.4212 54.2413 38.7058 57.9359 42.1872 60.2309C45.7861 62.6044 50.9295 64.979 56.7699 65.9778C57.6696 66.1317 58.1463 64.9966 57.382 64.506C48.9462 59.0906 39.0008 46.2127 45.2307 29.6062C48.2281 21.6169 35.3315 28.9896 35.2328 45.0487V45.0497Z" fill="#FFE0A8"/>
<path d="M54.1551 96.4632C59.2911 93.3377 67.794 93.2509 73.1473 96.269C78.5006 99.287 78.677 104.268 73.541 107.393C72.2076 108.205 70.6433 108.801 68.9698 109.202C68.9352 109.894 68.4858 110.579 67.5787 111.117C65.6375 112.266 62.4228 112.298 60.3997 111.188C59.4149 110.647 58.9152 109.935 58.8638 109.214C57.3057 108.846 55.8328 108.311 54.5477 107.586C49.1944 104.568 49.0191 99.5876 54.1551 96.4621V96.4632Z" fill="#FFA300"/>
<path d="M74.159 106.066C75.5501 105.225 76.2608 104.487 76.5643 104.172C76.9674 103.753 77.296 103.291 77.2992 103.287C77.6603 102.761 77.7947 102.531 78.0194 102.054C78.1874 101.698 78.3396 101.251 78.4372 100.825C78.5548 100.315 78.5706 99.9669 78.5863 99.6003C78.5937 99.4247 78.5685 98.9082 78.5275 98.6686C78.4236 98.0603 78.3711 97.8898 78.2189 97.4416C78.1139 97.1328 77.7874 96.3106 77.0189 95.35C76.2651 94.408 75.3685 93.7418 75.1123 93.5611C74.4005 93.057 72.5107 91.7195 69.0241 90.9314C67.6991 90.6318 66.2829 90.4531 64.8151 90.3984C64.3532 90.3808 63.6151 90.3705 62.7185 90.4191C61.8713 90.4645 61.5185 90.511 60.665 90.6215C60.6566 90.6225 59.76 90.7403 58.6828 91.0016C57.8513 91.203 57.4986 91.3218 56.7941 91.5604C56.1369 91.7814 55.6434 92.0118 55.0167 92.303C54.6786 92.46 54.2471 92.709 53.9238 92.8959C54.0077 92.8453 54.1033 92.8091 54.2093 92.7874C54.6041 92.7058 55.1437 92.8195 55.739 93.15C60.1411 90.51 67.4293 90.4366 72.0173 92.9858C76.6052 95.5349 76.7564 99.7418 72.3543 102.382C67.9522 105.022 60.6639 105.095 56.076 102.546C51.4881 99.9969 51.3369 95.79 55.739 93.15C55.1437 92.8195 54.6041 92.7048 54.2093 92.7874C54.1033 92.8102 54.0067 92.8463 53.9238 92.8959C53.6014 93.0994 53.1699 93.369 52.8676 93.6013C52.5558 93.841 52.1274 94.1694 51.7075 94.597C51.5773 94.7303 51.1815 95.1331 50.9117 95.5039C50.6429 95.8726 50.4308 96.1639 50.1369 96.7547C49.9794 97.0708 49.6035 97.9188 49.5185 98.9578C49.4754 99.4794 49.508 99.8678 49.5237 100.011C49.5909 100.621 49.6949 101.013 49.7705 101.235C49.9153 101.663 49.9962 101.899 50.2901 102.457C50.5201 102.892 50.8361 103.312 50.94 103.451C51.4009 104.064 52.1537 104.801 52.813 105.283C53.3799 105.697 54.1558 106.265 55.7631 106.973C56.4329 107.267 57.55 107.691 59.0618 108.033C64.3007 109.216 70.2262 108.445 74.159 106.068V106.066Z" fill="#FFBE49"/>
<path d="M49.1604 95.4579C49.2286 96.0745 49.3347 96.4742 49.4102 96.7015C49.5572 97.1394 49.6381 97.3811 49.9383 97.9626C50.1704 98.4129 50.4916 98.8581 50.5966 99.0037C51.0638 99.6503 51.826 100.44 52.4937 100.971C53.067 101.427 53.8523 102.051 55.4785 102.874C56.1578 103.218 57.2895 103.724 58.8203 104.176C64.1263 105.743 70.1284 105.407 74.1127 103.318C75.5206 102.58 76.2387 101.895 76.5463 101.602C76.9547 101.213 77.2886 100.775 77.2907 100.771C77.6539 100.276 77.7967 100.045 78.0203 99.5914C78.1904 99.2464 78.3458 98.8095 78.4455 98.3923C78.5642 97.8913 78.5799 97.5432 78.5957 97.1745C78.603 97.0185 78.5799 96.5 78.5358 96.2428C78.4424 95.6913 78.3857 95.4847 78.265 95.1222C78.3395 94.9135 78.4046 94.6966 78.455 94.4839C78.5736 93.985 78.5894 93.6359 78.6062 93.2661C78.6135 93.1101 78.5904 92.5927 78.5474 92.3355C78.4529 91.7798 78.3962 91.5743 78.2765 91.2107C78.351 91.002 78.4161 90.7852 78.4676 90.5713C78.5862 90.0725 78.602 89.7234 78.6188 89.3546C78.6261 89.1987 78.603 88.6812 78.5589 88.424C78.4529 87.8043 78.4004 87.6318 78.2482 87.1763C78.1652 86.9294 77.9951 86.5091 77.6529 85.91C77.5279 85.692 77.3012 85.3316 76.9232 84.8544C76.139 83.8628 75.2151 83.1501 74.8203 82.8454C74.1579 82.3342 73.1122 81.6938 72.2744 81.2868C71.1006 80.7167 70.1326 80.3397 68.9326 79.9854C67.5909 79.5888 66.1578 79.3058 64.6702 79.1447C64.203 79.0941 63.4544 79.03 62.5473 79.0125C61.6896 78.9959 61.3316 79.0166 60.4686 79.0651C60.4591 79.0651 59.552 79.1178 58.4612 79.3006C57.6192 79.4411 57.2612 79.534 56.5494 79.72C55.8838 79.8935 55.383 80.0877 54.7499 80.3325C54.4077 80.4647 53.9698 80.6826 53.6433 80.8448C53.6391 80.8448 52.6176 81.3633 51.7683 82.0646C51.3273 82.4282 50.8465 82.8651 50.3152 83.5943C49.7462 84.3731 49.3483 85.3305 49.2234 86.2198C49.173 86.5803 49.0449 87.6483 49.4984 89.0282C49.3567 89.4197 49.216 89.9186 49.1677 90.5001C49.1247 91.0186 49.1572 91.4069 49.173 91.5495C49.2412 92.1661 49.3473 92.5658 49.4228 92.7931C49.4396 92.8426 49.4617 92.9025 49.4795 92.9562C49.3399 93.3456 49.2034 93.8383 49.1562 94.4074C49.1131 94.9259 49.1457 95.3143 49.1614 95.4579H49.1604Z" fill="#FFBE49"/>
<path d="M54.0658 102.319C59.7614 105.736 68.8081 106.28 74.2727 103.537C76.6297 102.353 77.9326 100.75 78.1982 99.0365C78.5278 101.231 77.2292 103.375 74.2727 104.859C68.8081 107.602 59.7614 107.058 54.0658 103.641C50.828 101.698 49.3729 99.2462 49.7214 96.9873C50.0007 98.8506 51.4506 100.75 54.0658 102.319Z" fill="#FFA300"/>
<path d="M54.0658 98.3249C59.7614 101.741 68.8081 102.286 74.2727 99.5426C76.6297 98.3589 77.9326 96.7559 78.1982 95.0424C78.5278 97.2372 77.2292 99.3805 74.2727 100.865C68.8081 103.608 59.7614 103.064 54.0658 99.6469C50.828 97.7041 49.3729 95.2521 49.7214 92.9932C50.0007 94.8554 51.4506 96.7559 54.0658 98.3249Z" fill="#FFA300"/>
<path d="M54.0658 94.4933C59.7614 97.909 68.8081 98.4544 74.2727 95.7111C76.6297 94.5274 77.9326 92.9244 78.1982 91.2108C78.5278 93.4057 77.2292 95.5489 74.2727 97.0331C68.8081 99.7765 59.7614 99.2321 54.0658 95.8154C50.828 93.8726 49.3729 91.4205 49.7214 89.1616C50.0007 91.0249 51.4506 92.9244 54.0658 94.4933Z" fill="#FFA300"/>
<path d="M53.9728 90.6901C56.7024 92.3623 60.2227 93.0296 63.7282 93.2774C67.3849 93.5357 71.0259 93.3084 73.7566 91.9079C76.0642 90.7242 77.3398 89.1212 77.6002 87.4076C77.9225 89.6025 76.6511 91.7457 73.7566 93.2299C68.4064 95.9733 59.5486 95.4289 53.9717 92.0122C50.8011 90.0693 49.3764 87.6173 49.7187 85.3584C49.9917 87.2207 51.4121 89.1212 53.9717 90.6901H53.9728Z" fill="#FFA300"/>
<path d="M34.6143 54.5731C38.7004 68.6306 49.3566 82.1943 49.5959 85.2733C49.5959 85.3208 49.6201 85.3672 49.6442 85.4148C49.9067 87.3421 51.3167 89.2467 53.9697 90.7041C59.6558 93.8306 68.7362 93.7366 74.2081 90.4924C76.6218 89.0587 77.8638 87.2719 78.1031 85.4385C78.1031 85.3683 78.1504 85.3208 78.1504 85.2743C78.4139 82.1013 89.7389 68.2319 93.5625 53.563C92.6302 56.8775 89.9783 60.0742 85.6055 62.6605C74.0884 69.4775 55.0689 69.6655 43.0741 63.084C38.7014 60.6867 35.8825 57.7007 34.6153 54.5742L34.6143 54.5731Z" fill="#FFD893"/>
<path d="M34.6143 54.5737C38.7004 68.6311 49.3566 82.1948 49.5959 85.2738C49.5959 85.3214 49.6201 85.3678 49.6432 85.4153C49.9057 87.3427 51.3156 89.2473 53.9687 90.7047C56.7288 92.221 59.7808 93.0679 62.6732 93.0979C63.2537 93.1041 60.5388 91.6043 60.0695 89.2979C58.0474 79.3503 57.9844 67.4196 57.8028 67.3845C44.5555 64.8467 40.5702 61.6179 38.4599 60.0035C36.2678 58.3262 35.2914 56.059 34.6143 54.5737Z" fill="#FFB126"/>
<g style="mix-blend-mode:screen">
<path d="M78.5669 29.6731C83.621 32.8481 86.9144 38.4608 87.2788 35.2062C87.6084 32.2542 84.7874 27.7426 80.3475 24.3961C74.97 20.3421 68.3569 18.7928 66.4881 22.1744C64.3306 26.0797 72.3107 25.743 78.5669 29.672V29.6731Z" fill="#FFE6D1"/>
</g>
<g style="mix-blend-mode:screen">
<path d="M88.3465 43.1601C88.8641 45.1784 88.8126 46.611 89.7103 46.4075C90.6069 46.204 90.9145 44.4027 90.3958 42.3845C89.8783 40.3662 88.7318 38.8954 87.8342 39.0989C86.9376 39.3024 87.8278 41.1419 88.3465 43.1601Z" fill="#FFE6D1"/>
</g>
</svg>
