<svg width="248" height="171" viewBox="0 0 248 171" fill="none" xmlns="http://www.w3.org/2000/svg">
<g clip-path="url(#clip0_564_61603)">
<path d="M135.352 144.203L179.782 169.751C181.518 170.75 183.656 170.75 185.391 169.751L229.821 144.203C231.468 143.256 231.468 140.888 229.821 139.941L185.391 114.392C183.656 113.394 181.518 113.394 179.782 114.392L135.352 139.941C133.705 140.888 133.705 143.256 135.352 144.203Z" fill="url(#paint0_linear_564_61603)"/>
<g style="mix-blend-mode:multiply">
<path d="M130.764 132.535L179.509 160.565C181.413 161.66 183.759 161.66 185.663 160.565L234.408 132.535C236.214 131.495 236.214 128.898 234.408 127.859L185.663 99.829C183.759 98.7341 181.413 98.7341 179.509 99.829L130.764 127.859C128.957 128.898 128.957 131.495 130.764 132.535Z" fill="url(#paint1_linear_564_61603)"/>
</g>
<path d="M213.931 99.8501L114.848 156.821C110.96 159.08 106.194 159.08 102.352 156.821L3.27009 99.8501C0.308315 98.1446 -1.12611 90.4931 1.04917 86.0219C-0.0152406 88.419 0.771248 91.4144 3.31655 92.8439L102.399 149.861C106.287 152.074 111.054 152.074 114.895 149.861L214.024 92.8439C216.755 91.2772 217.449 87.9117 216.06 85.4229C219.16 89.9403 217.032 98.0521 213.931 99.8501Z" fill="url(#paint2_linear_564_61603)"/>
<path d="M108.659 151.25C106.512 151.25 104.395 150.684 102.536 149.615L3.44638 92.6356C1.80372 91.6911 0.822266 89.9988 0.822266 88.1091C0.822266 86.2193 1.80289 84.527 3.44638 83.5826L102.536 26.6022C104.395 25.533 106.512 24.9678 108.659 24.9678C110.806 24.9678 112.923 25.533 114.783 26.6022L213.872 83.5826C215.515 84.527 216.496 86.2193 216.496 88.1091C216.496 89.9988 215.515 91.6911 213.872 92.6356L114.783 149.616C112.923 150.685 110.806 151.25 108.659 151.25V151.25Z" fill="#FFEAC3"/>
<path d="M108.659 25.2296C110.759 25.2296 112.832 25.7824 114.651 26.8285L213.74 83.8089C215.301 84.7062 216.233 86.3142 216.233 88.109C216.233 89.9037 215.302 91.5117 213.74 92.4091L114.651 149.389C112.832 150.436 110.76 150.988 108.659 150.988C106.557 150.988 104.486 150.436 102.666 149.389L3.57693 92.4091C2.0164 91.5117 1.0839 89.9037 1.0839 88.109C1.0839 86.3142 2.01557 84.7062 3.57693 83.8089L102.666 26.8285C104.486 25.7824 106.557 25.2296 108.659 25.2296ZM108.659 24.7074C106.499 24.7074 104.34 25.2635 102.404 26.3765L3.31477 83.3561C-0.35883 85.4681 -0.35883 90.749 3.31477 92.8619L102.404 149.842C104.34 150.955 106.499 151.511 108.659 151.511C110.818 151.511 112.978 150.955 114.913 149.842L214.003 92.8619C217.676 90.7498 217.676 85.4689 214.003 83.3561L114.912 26.3757C112.977 25.2626 110.817 24.7065 108.658 24.7065L108.659 24.7074Z" fill="#FFB126"/>
<path d="M182.587 140.77C181.297 140.77 180.026 140.431 178.909 139.789L119.399 105.568C118.412 105 117.823 103.984 117.823 102.85C117.823 101.715 118.412 100.699 119.399 100.131L178.909 65.9104C180.026 65.2683 181.297 64.9287 182.587 64.9287C183.876 64.9287 185.148 65.2683 186.264 65.9104L245.775 100.131C246.761 100.699 247.35 101.715 247.35 102.85C247.35 103.984 246.761 105 245.775 105.568L186.264 139.789C185.148 140.431 183.876 140.77 182.587 140.77Z" fill="#FFEAC3"/>
<path d="M182.587 65.0865C183.849 65.0865 185.094 65.4186 186.186 66.0466L245.696 100.267C246.634 100.806 247.193 101.772 247.193 102.849C247.193 103.928 246.633 104.893 245.696 105.432L186.186 139.652C185.094 140.28 183.849 140.612 182.587 140.612C181.325 140.612 180.081 140.28 178.988 139.652L119.478 105.432C118.541 104.893 117.981 103.927 117.981 102.849C117.981 101.772 118.541 100.806 119.478 100.267L178.988 66.0466C180.081 65.4186 181.325 65.0865 182.587 65.0865ZM182.587 64.7725C181.291 64.7725 179.993 65.1063 178.831 65.7748L119.321 99.9954C117.115 101.264 117.115 104.435 119.321 105.704L178.831 139.925C179.993 140.593 181.29 140.927 182.587 140.927C183.885 140.927 185.181 140.593 186.344 139.925L245.854 105.704C248.06 104.436 248.06 101.265 245.854 99.9954L186.344 65.7748C185.181 65.1063 183.885 64.7725 182.587 64.7725Z" fill="#FFBF8C"/>
<path d="M245.811 111.104L186.304 145.32C183.969 146.677 181.106 146.677 178.799 145.32L119.293 111.104C117.514 110.08 116.653 103.8 117.959 101.115C117.32 102.555 117.792 104.354 119.321 105.212L178.827 139.455C181.162 140.784 184.025 140.784 186.332 139.455L245.866 105.212C247.506 104.271 247.923 102.25 247.089 100.755C248.951 103.468 247.672 110.024 245.811 111.104Z" fill="url(#paint3_linear_564_61603)"/>
<path d="M140.533 39.1429L113.32 27.5127L86.1081 70.8598L86.1064 70.8607V105.376L140.534 73.6577V39.1421L140.533 39.1429Z" fill="#FFE0A8"/>
<path d="M38.8232 43.8481L86.1063 70.8609V105.376L38.8232 78.3638V43.8481Z" fill="#FFF4E1"/>
<path d="M142.937 40.2809L113.724 25.3008L36.4238 47.483V48.5638L84.6319 76.5763L113.746 29.2076L143.059 41.4575L142.937 40.2809Z" fill="#FFBE49"/>
<path d="M108.584 92.271V60.8193L122.354 53L122.332 84.3128" fill="#FFD893"/>
<path d="M108.966 92.1218L108.165 92.5292V60.5776L122.776 52.2773L122.795 84.0149L121.951 84.5305L121.935 53.7226L109.005 61.0643L108.966 92.1218Z" fill="#FFBE49"/>
<path d="M143.057 40.3056L95.7735 13.2937L66.0371 0.5L113.319 27.5127L143.057 40.3056Z" fill="#FFB126"/>
<path d="M66.0375 0.5L113.32 27.5127L83.7061 74.4238L36.4238 47.411L66.0375 0.5Z" fill="#FFD893"/>
<path d="M97.5994 0.973633L103.552 4.39123L97.5579 7.89064L91.5215 4.43172L97.5994 0.973633Z" fill="#FFBE49"/>
<path d="M97.5748 2.27734L101.282 4.40591L97.5491 6.5857L93.79 4.43152L97.5748 2.27734Z" fill="#FFA300"/>
<path d="M103.552 4.39111V19.791L97.5576 17.7079V7.89052L103.552 4.39111Z" fill="#FFD893"/>
<path d="M91.5217 4.43164L97.5581 7.89055V17.7079L91.4678 14.0044L91.5217 4.43164Z" fill="#FFEAC3"/>
<path d="M158.232 61.6268C158.51 48.4109 169.26 39.2314 182.567 39.2314H182.742C196.05 39.2314 206.8 47.8746 207.079 61.6268C207.367 75.7765 194.154 91.5721 193.907 94.6435C193.904 94.6889 193.872 94.7319 193.857 94.7765C193.672 96.2449 192.688 97.686 190.788 98.8279C186.46 101.428 179.296 101.501 174.786 98.9899C172.697 97.8272 171.587 96.3118 171.38 94.7633C171.368 94.7228 171.338 94.684 171.335 94.6435C171.088 91.5721 157.944 75.2997 158.232 61.6268Z" fill="#FFF4E1"/>
<path d="M158.094 61.6276C157.811 75.2997 170.953 91.5663 171.198 94.6509C171.198 94.6889 171.237 94.7261 171.237 94.7641C171.444 96.306 172.558 97.8297 174.654 98.9956C179.166 101.497 186.322 101.422 190.647 98.8262C192.553 97.6793 193.535 96.2498 193.724 94.7831C193.743 94.7269 193.762 94.6889 193.762 94.6517C193.856 93.6172 195.424 91.116 197.444 87.7314C194.007 88.0322 199.095 78.1058 195.905 78.0042C188.09 77.7555 180.244 76.9242 175.317 70.1377C170.006 62.8233 168.4 51.5277 173.955 43.9183C177.563 38.9761 173.881 40.4982 172.035 41.2733C163.928 44.6826 158.298 52.1069 158.094 61.6285V61.6276Z" fill="#FFEAC4"/>
<path d="M159.855 62.4718C159.847 63.8187 159.98 65.1928 160.223 66.5761C160.794 69.8251 162.599 72.7808 165.35 74.6169C168.194 76.5157 172.259 78.4154 176.874 79.2144C177.585 79.3375 177.961 78.4294 177.357 78.0369C170.691 73.7046 162.832 63.4022 167.755 50.1169C170.124 43.7254 159.933 49.6236 159.855 62.471V62.4718Z" fill="#FFE0A8"/>
<path d="M174.807 103.602C178.866 101.102 185.585 101.033 189.815 103.447C194.045 105.861 194.185 109.846 190.126 112.346C189.072 112.996 187.836 113.473 186.514 113.793C186.487 114.347 186.131 114.895 185.415 115.325C183.881 116.245 181.34 116.27 179.742 115.382C178.963 114.949 178.569 114.38 178.528 113.803C177.297 113.509 176.133 113.081 175.117 112.501C170.887 110.086 170.748 106.102 174.807 103.602V103.602Z" fill="#FFA300"/>
<path d="M190.614 111.284C191.714 110.612 192.275 110.021 192.515 109.769C192.834 109.434 193.093 109.064 193.096 109.061C193.381 108.64 193.487 108.456 193.665 108.075C193.798 107.79 193.918 107.432 193.995 107.092C194.088 106.683 194.1 106.405 194.113 106.112C194.119 105.971 194.099 105.558 194.066 105.366C193.984 104.88 193.943 104.743 193.822 104.385C193.74 104.137 193.482 103.48 192.874 102.711C192.279 101.958 191.57 101.425 191.368 101.28C190.805 100.877 189.312 99.8068 186.557 99.1764C185.51 98.9367 184.39 98.7938 183.231 98.75C182.866 98.7359 182.282 98.7277 181.574 98.7665C180.904 98.8029 180.626 98.84 179.951 98.9285C179.944 98.9293 179.236 99.0235 178.385 99.2325C177.728 99.3937 177.449 99.4887 176.892 99.6796C176.373 99.8564 175.983 100.041 175.488 100.274C175.221 100.399 174.88 100.598 174.624 100.748C174.69 100.707 174.766 100.679 174.85 100.661C175.162 100.596 175.588 100.687 176.058 100.951C179.537 98.8392 185.296 98.7806 188.922 100.82C192.547 102.859 192.667 106.225 189.188 108.337C185.71 110.449 179.95 110.507 176.325 108.468C172.699 106.429 172.58 103.063 176.058 100.951C175.588 100.687 175.162 100.595 174.85 100.661C174.766 100.679 174.69 100.708 174.624 100.748C174.369 100.911 174.028 101.126 173.789 101.312C173.543 101.504 173.205 101.767 172.873 102.109C172.77 102.216 172.457 102.538 172.244 102.834C172.031 103.129 171.864 103.362 171.632 103.835C171.507 104.088 171.21 104.766 171.143 105.598C171.109 106.015 171.135 106.326 171.147 106.44C171.2 106.928 171.282 107.242 171.342 107.42C171.457 107.762 171.52 107.951 171.753 108.397C171.934 108.745 172.184 109.081 172.266 109.192C172.63 109.683 173.225 110.272 173.746 110.658C174.194 110.989 174.807 111.444 176.078 112.01C176.607 112.245 177.49 112.584 178.684 112.857C182.824 113.804 187.507 113.187 190.614 111.286V111.284Z" fill="#FFBE49"/>
<path d="M170.86 102.799C170.914 103.292 170.998 103.612 171.058 103.793C171.174 104.144 171.238 104.337 171.475 104.802C171.658 105.163 171.912 105.519 171.995 105.635C172.364 106.153 172.967 106.785 173.494 107.209C173.947 107.574 174.568 108.073 175.853 108.731C176.39 109.007 177.284 109.412 178.494 109.773C182.686 111.027 187.429 110.758 190.578 109.087C191.69 108.496 192.258 107.948 192.501 107.714C192.824 107.403 193.088 107.052 193.089 107.049C193.376 106.653 193.489 106.468 193.666 106.105C193.8 105.83 193.923 105.48 194.002 105.146C194.096 104.745 194.108 104.467 194.12 104.172C194.126 104.047 194.108 103.632 194.073 103.427C193.999 102.985 193.954 102.82 193.859 102.53C193.918 102.363 193.969 102.19 194.009 102.019C194.103 101.62 194.115 101.341 194.129 101.045C194.135 100.92 194.116 100.506 194.082 100.301C194.008 99.8561 193.963 99.6917 193.868 99.4009C193.927 99.2339 193.979 99.0604 194.019 98.8894C194.113 98.4903 194.125 98.211 194.139 97.916C194.144 97.7912 194.126 97.3772 194.091 97.1715C194.008 96.6757 193.966 96.5377 193.846 96.1733C193.78 95.9758 193.646 95.6395 193.375 95.1603C193.277 94.9859 193.097 94.6975 192.799 94.3158C192.179 93.5225 191.449 92.9524 191.137 92.7086C190.614 92.2996 189.787 91.7873 189.125 91.4617C188.198 91.0056 187.433 90.704 186.485 90.4206C185.424 90.1033 184.292 89.8769 183.116 89.748C182.747 89.7075 182.155 89.6562 181.439 89.6422C180.761 89.629 180.478 89.6455 179.796 89.6843C179.789 89.6843 179.072 89.7265 178.21 89.8727C177.544 89.9851 177.262 90.0595 176.699 90.2082C176.173 90.347 175.777 90.5024 175.277 90.6982C175.007 90.804 174.661 90.9783 174.403 91.1081C174.399 91.1081 173.592 91.5229 172.921 92.0839C172.572 92.3748 172.192 92.7243 171.773 93.3077C171.323 93.9307 171.009 94.6967 170.91 95.4081C170.87 95.6965 170.769 96.5509 171.127 97.6549C171.015 97.968 170.904 98.3671 170.866 98.8324C170.832 99.2472 170.858 99.5579 170.87 99.6719C170.924 100.165 171.008 100.485 171.067 100.667C171.081 100.706 171.098 100.754 171.112 100.797C171.002 101.109 170.894 101.503 170.857 101.958C170.823 102.373 170.848 102.684 170.861 102.799H170.86Z" fill="#FFBE49"/>
<path d="M174.736 108.287C179.236 111.021 186.385 111.456 190.704 109.262C192.566 108.315 193.596 107.032 193.806 105.661C194.066 107.417 193.04 109.132 190.704 110.319C186.385 112.514 179.236 112.078 174.736 109.345C172.177 107.791 171.027 105.829 171.303 104.022C171.523 105.513 172.669 107.032 174.736 108.287Z" fill="#FFA300"/>
<path d="M174.736 105.092C179.236 107.825 186.385 108.261 190.704 106.066C192.566 105.119 193.596 103.837 193.806 102.466C194.066 104.222 193.04 105.937 190.704 107.124C186.385 109.319 179.236 108.883 174.736 106.15C172.177 104.595 171.027 102.634 171.303 100.827C171.523 102.316 172.669 103.837 174.736 105.092Z" fill="#FFA300"/>
<path d="M174.736 102.027C179.236 104.759 186.385 105.196 190.704 103.001C192.566 102.054 193.596 100.771 193.806 99.4006C194.066 101.157 193.04 102.871 190.704 104.058C186.385 106.253 179.236 105.818 174.736 103.084C172.177 101.53 171.027 99.5684 171.303 97.7612C171.523 99.2519 172.669 100.771 174.736 102.027Z" fill="#FFA300"/>
<path d="M174.664 98.9841C176.821 100.322 179.602 100.856 182.373 101.054C185.262 101.261 188.139 101.079 190.297 99.9584C192.121 99.0114 193.129 97.729 193.334 96.3581C193.589 98.114 192.584 99.8286 190.297 101.016C186.069 103.211 179.07 102.775 174.663 100.042C172.157 98.4875 171.032 96.5259 171.302 94.7188C171.518 96.2086 172.64 97.729 174.663 98.9841H174.664Z" fill="#FFA300"/>
<path d="M159.366 70.0904C162.595 81.3364 171.016 92.1874 171.205 94.6506C171.205 94.6886 171.224 94.7258 171.243 94.7638C171.451 96.3057 172.565 97.8294 174.661 98.9953C179.155 101.497 186.33 101.421 190.654 98.826C192.561 97.679 193.543 96.2495 193.732 94.7828C193.732 94.7266 193.769 94.6886 193.769 94.6515C193.978 92.113 202.927 81.0174 205.948 69.2822C205.212 71.9338 203.116 74.4913 199.66 76.5603C190.559 82.0139 175.53 82.1643 166.051 76.8991C162.596 74.9813 160.368 72.5924 159.367 70.0912L159.366 70.0904Z" fill="#FFD893"/>
<path d="M159.366 70.0908C162.595 81.3368 171.016 92.1879 171.205 94.6511C171.205 94.6891 171.224 94.7263 171.242 94.7643C171.45 96.3062 172.564 97.8299 174.66 98.9958C176.842 100.209 179.253 100.886 181.539 100.91C181.998 100.915 179.852 99.7155 179.481 97.8704C177.884 89.9122 177.834 80.3676 177.69 80.3395C167.222 78.3093 164.073 75.7262 162.405 74.4347C160.673 73.0928 159.901 71.279 159.366 70.0908Z" fill="#FFB126"/>
<g style="mix-blend-mode:screen">
<path d="M194.097 50.1702C198.091 52.7102 200.693 57.2004 200.981 54.5967C201.242 52.2351 199.013 48.6258 195.504 45.9486C191.255 42.7053 186.029 41.4659 184.552 44.1712C182.847 47.2954 189.153 47.0261 194.097 50.1693V50.1702Z" fill="#FFE6D1"/>
</g>
<g style="mix-blend-mode:screen">
<path d="M201.826 60.9599C202.235 62.5745 202.194 63.7206 202.903 63.5578C203.612 63.395 203.855 61.9539 203.445 60.3393C203.036 58.7247 202.13 57.5481 201.421 57.7108C200.712 57.8736 201.416 59.3453 201.826 60.9599Z" fill="#FFE6D1"/>
</g>
</g>
<defs>
<linearGradient id="paint0_linear_564_61603" x1="182.586" y1="113.644" x2="182.586" y2="170.5" gradientUnits="userSpaceOnUse">
<stop stop-color="#FFFEFA"/>
<stop offset="0.2" stop-color="#FFF4E1"/>
<stop offset="0.51" stop-color="#FFEAC3"/>
<stop offset="0.9" stop-color="#FFE0A8"/>
<stop offset="1" stop-color="#FFD893"/>
</linearGradient>
<linearGradient id="paint1_linear_564_61603" x1="182.586" y1="99.0076" x2="182.586" y2="161.386" gradientUnits="userSpaceOnUse">
<stop stop-color="#FFFEFA"/>
<stop offset="0.2" stop-color="#FFF4E1"/>
<stop offset="0.51" stop-color="#FFEAC3"/>
<stop offset="0.9" stop-color="#FFE0A8"/>
<stop offset="1" stop-color="#FFD893"/>
</linearGradient>
<linearGradient id="paint2_linear_564_61603" x1="-0.000307262" y1="121.969" x2="217.577" y2="121.969" gradientUnits="userSpaceOnUse">
<stop stop-color="#FFA300"/>
<stop offset="0.49" stop-color="#FFBE49"/>
<stop offset="1" stop-color="#FFA300"/>
</linearGradient>
<linearGradient id="paint3_linear_564_61603" x1="117.329" y1="123.546" x2="248" y2="123.546" gradientUnits="userSpaceOnUse">
<stop stop-color="#FFA300"/>
<stop offset="0.49" stop-color="#FFBE49"/>
<stop offset="1" stop-color="#FFA300"/>
</linearGradient>
<clipPath id="clip0_564_61603">
<rect width="248" height="170" fill="white" transform="translate(0 0.5)"/>
</clipPath>
</defs>
</svg>
