<?xml version="1.0" encoding="UTF-8" standalone="no"?>
<!DOCTYPE svg PUBLIC "-//W3C//DTD SVG 1.1//EN" "http://www.w3.org/Graphics/SVG/1.1/DTD/svg11.dtd">
<svg width="100%" height="100%" viewBox="0 0 60 60" version="1.1" xmlns="http://www.w3.org/2000/svg" xmlns:xlink="http://www.w3.org/1999/xlink" xml:space="preserve" xmlns:serif="http://www.serif.com/" style="fill-rule:evenodd;clip-rule:evenodd;stroke-linejoin:round;stroke-miterlimit:2;">
    <g>
        <path d="M54,29.647L54,29.395C57.155,27.176 59,24.441 59,21.448L59,13C59,5.589 47.393,0 32,0C16.607,0 5,5.589 5,13L5,15.27C1.738,17.456 0,20.116 0,23L0,31.448C0,34.745 2.235,37.731 6,40.057L6,46.448C6,54.047 17.86,60 33,60C48.14,60 60,54.047 60,46.448L60,38C60,34.815 57.914,31.941 54,29.647ZM58,38C58,44.393 46.318,50 33,50C32.425,50 31.854,49.985 31.286,49.965C31.117,49.959 30.948,49.953 30.779,49.945C30.284,49.923 29.792,49.893 29.304,49.855C28.986,49.83 28.671,49.8 28.356,49.769C28.217,49.756 28.078,49.741 27.94,49.727C19.713,48.842 12.715,45.875 9.654,42.127C9.614,42.077 9.571,42.028 9.532,41.977C9.486,41.918 9.445,41.858 9.4,41.798C10.807,42.398 12.338,42.928 13.981,43.373C18.42,46.293 25.327,47.965 33,47.965C46.554,47.965 56,42.713 56,38C56,36.611 55.156,35.228 53.552,33.968C53.578,33.897 53.596,33.824 53.62,33.752C53.654,33.648 53.689,33.545 53.718,33.441C53.752,33.32 53.78,33.199 53.808,33.077C53.832,32.972 53.857,32.867 53.877,32.761C53.9,32.638 53.915,32.514 53.931,32.391C53.945,32.284 53.96,32.178 53.97,32.071C53.973,32.04 53.979,32.009 53.981,31.978C56.05,33.377 58,35.39 58,38ZM37.131,51.836C37.161,51.834 37.19,51.83 37.22,51.828C37.794,51.781 38.359,51.722 38.92,51.657C39.065,51.64 39.209,51.623 39.353,51.605C39.908,51.535 40.459,51.46 41,51.373L41,57.365C39.707,57.574 38.371,57.736 37,57.843L37,51.846C37.043,51.842 37.087,51.84 37.131,51.836ZM43,51.005C43.057,50.993 43.11,50.979 43.166,50.967C43.704,50.853 44.236,50.733 44.756,50.602C44.824,50.585 44.89,50.566 44.958,50.548C45.309,50.458 45.657,50.364 45.999,50.267L45.999,56.256C45.038,56.533 44.036,56.78 42.999,56.996L42.999,51.005L43,51.005ZM48,49.634C48.054,49.615 48.107,49.597 48.16,49.578C48.236,49.551 48.308,49.523 48.384,49.496C48.797,49.347 49.201,49.191 49.598,49.031C49.711,48.985 49.824,48.94 49.935,48.894C49.957,48.885 49.979,48.876 50.001,48.867L50.001,54.83C49.363,55.107 48.697,55.37 48.001,55.616L48.001,49.634L48,49.634ZM52,47.936C52.172,47.848 52.338,47.756 52.505,47.666C52.602,47.614 52.699,47.562 52.794,47.509C53.18,47.293 53.555,47.071 53.914,46.843C53.942,46.825 53.971,46.808 53.999,46.79L53.999,52.615C53.391,53.049 52.723,53.465 51.999,53.858L51.999,47.936L52,47.936ZM12,46.79C12.623,47.189 13.298,47.564 14,47.925L14,53.858C13.276,53.464 12.608,53.049 12,52.615L12,46.79ZM7,18.289C7.016,18.309 7.035,18.328 7.051,18.347C7.273,18.624 7.512,18.897 7.766,19.165C7.823,19.225 7.883,19.283 7.941,19.342C8.167,19.571 8.404,19.796 8.652,20.018C8.711,20.071 8.767,20.124 8.828,20.176C8.886,20.226 8.942,20.275 9,20.323L9,25.894C7.715,24.518 7,23.013 7,21.448L7,18.289ZM12.206,22.508C12.301,22.561 12.399,22.613 12.495,22.665C12.662,22.756 12.828,22.847 13,22.935L13,28.857C12.276,28.463 11.608,28.048 11,27.614L11,21.79C11.028,21.808 11.057,21.825 11.085,21.843C11.445,22.07 11.82,22.292 12.206,22.508ZM15.403,24.03C15.799,24.191 16.203,24.346 16.617,24.495C16.692,24.522 16.765,24.551 16.841,24.577C16.894,24.596 16.948,24.614 17.001,24.633L17.001,30.614C16.305,30.368 15.639,30.105 15.001,29.828L15.001,23.865C15.023,23.874 15.045,23.883 15.067,23.892C15.177,23.94 15.29,23.985 15.403,24.03ZM20.243,25.601C20.763,25.732 21.295,25.852 21.833,25.966C21.889,25.978 21.943,25.992 21.999,26.004L21.999,31.995C20.962,31.779 19.96,31.532 18.999,31.255L18.999,25.266C19.341,25.364 19.689,25.457 20.04,25.547C20.109,25.565 20.175,25.584 20.243,25.601ZM26.079,26.657C26.64,26.722 27.206,26.781 27.779,26.828C27.809,26.83 27.838,26.834 27.868,26.836C27.911,26.839 27.955,26.842 27.999,26.845L27.999,32.842C26.628,32.735 25.292,32.574 23.999,32.364L23.999,26.372C24.54,26.459 25.091,26.535 25.646,26.604C25.791,26.623 25.935,26.64 26.079,26.657ZM32,27C32.628,27 33.249,26.985 33.866,26.963C33.91,26.961 33.956,26.962 34,26.96L34,32.937C33.334,32.963 32.671,33 32,33C31.327,33 30.661,32.983 30,32.958L30,26.96C30.044,26.962 30.09,26.961 30.134,26.963C30.751,26.985 31.372,27 32,27ZM36.22,26.828C36.794,26.781 37.359,26.722 37.92,26.657C38.065,26.64 38.209,26.623 38.353,26.605C38.908,26.535 39.459,26.46 40,26.373L40,32.352C39.624,32.412 39.256,32.482 38.874,32.534C38.674,32.561 38.476,32.59 38.274,32.615C37.525,32.707 36.764,32.772 36,32.831L36,26.847C36.043,26.844 36.087,26.841 36.131,26.838C36.161,26.834 36.19,26.83 36.22,26.828ZM43.757,25.601C43.825,25.584 43.891,25.565 43.959,25.547C44.31,25.457 44.658,25.363 45,25.266L45,31.255C44.872,31.292 44.743,31.328 44.614,31.363C44.613,31.363 44.611,31.363 44.61,31.364C44.386,31.426 44.16,31.488 43.932,31.547C43.381,31.689 42.821,31.82 42.251,31.942C42.167,31.96 42.084,31.978 42,31.995L42,26.004C42.057,25.992 42.11,25.978 42.166,25.966C42.705,25.852 43.237,25.732 43.757,25.601ZM47.384,24.496C47.797,24.347 48.201,24.191 48.598,24.031C48.711,23.985 48.824,23.94 48.935,23.894C48.957,23.885 48.979,23.876 49.001,23.867L49.001,29.83C48.363,30.107 47.697,30.37 47.001,30.616L47.001,24.635C47.055,24.616 47.108,24.598 47.161,24.579C47.236,24.551 47.309,24.523 47.384,24.496ZM51.794,22.508C52.18,22.292 52.555,22.07 52.914,21.842C52.942,21.824 52.971,21.807 52.999,21.789L52.999,27.614C52.391,28.048 51.723,28.464 50.999,28.857L50.999,22.935C51.171,22.847 51.337,22.755 51.504,22.665C51.602,22.613 51.699,22.561 51.794,22.508ZM10.066,33.893C10.177,33.94 10.29,33.985 10.403,34.03C10.799,34.191 11.203,34.346 11.617,34.495C11.692,34.522 11.765,34.551 11.841,34.577C11.894,34.596 11.948,34.614 12.001,34.633L12.001,40.614C11.305,40.368 10.639,40.105 10.001,39.828L10.001,33.865C10.022,33.875 10.044,33.884 10.066,33.893ZM15.243,35.601C15.763,35.732 16.295,35.852 16.833,35.966C16.889,35.978 16.943,35.992 16.999,36.004L16.999,41.995C16.942,41.983 16.885,41.971 16.829,41.959C16.292,41.846 15.764,41.724 15.245,41.593C14.822,41.486 14.408,41.372 14,41.255L14,35.266C14.342,35.364 14.69,35.457 15.041,35.547C15.109,35.565 15.175,35.584 15.243,35.601ZM21.079,36.657C21.64,36.722 22.206,36.781 22.779,36.828C22.809,36.83 22.838,36.834 22.868,36.836C22.911,36.839 22.955,36.842 22.999,36.845L22.999,42.829C22.311,42.776 21.626,42.717 20.951,42.638C20.625,42.6 20.304,42.553 19.982,42.509C19.65,42.463 19.327,42.405 18.999,42.353L18.999,36.373C19.54,36.46 20.091,36.536 20.646,36.605C20.791,36.623 20.935,36.64 21.079,36.657ZM27,37C27.671,37 28.336,36.977 29,36.951L29,42.958C28.979,42.959 28.958,42.96 28.937,42.96C28.295,42.984 27.651,43 27,43C26.33,43 25.666,42.964 25,42.938L25,36.96C25.044,36.962 25.09,36.961 25.134,36.963C25.751,36.985 26.372,37 27,37ZM33.844,42.537C33.608,42.569 33.374,42.603 33.136,42.632C32.619,42.694 32.096,42.748 31.569,42.794C31.394,42.81 31.219,42.825 31.043,42.839C31.029,42.84 31.014,42.841 31,42.842L31,36.829C31.328,36.803 31.66,36.788 31.986,36.756C32.316,36.723 32.638,36.674 32.965,36.635C33.447,36.578 33.933,36.527 34.408,36.455C34.608,36.425 34.801,36.384 35,36.351L35,42.365C34.915,42.379 34.831,42.392 34.746,42.406C34.447,42.452 34.147,42.496 33.844,42.537ZM37.783,35.803C38.202,35.707 38.627,35.618 39.036,35.511C39.364,35.425 39.677,35.323 39.999,35.23L39.999,41.255C39.038,41.532 38.036,41.779 36.999,41.995L36.999,35.985C37.265,35.929 37.522,35.863 37.783,35.803ZM42,34.592C42.064,34.569 42.127,34.546 42.191,34.523C42.558,34.392 42.933,34.268 43.288,34.127C43.532,34.03 43.76,33.921 43.999,33.819L43.999,39.828C43.361,40.105 42.695,40.368 41.999,40.614L41.999,34.592L42,34.592ZM46,38.858L46,33.094C46.689,32.888 47.354,32.666 48,32.431L48,37.615C47.392,38.049 46.724,38.464 46,38.858ZM52,31.448C52,32.209 51.828,32.955 51.507,33.679L51.416,33.867C51.119,34.484 50.707,35.078 50.211,35.652C50.151,35.721 50.094,35.79 50.031,35.858C50.021,35.868 50.01,35.878 50,35.889L50,31.625C50.7,31.314 51.369,30.986 52,30.64L52,31.448ZM6,31.79C6.028,31.808 6.057,31.825 6.085,31.843C6.445,32.071 6.819,32.293 7.205,32.509C7.3,32.562 7.398,32.614 7.494,32.666C7.661,32.757 7.827,32.848 7.999,32.936L7.999,38L6.562,38C6.369,37.873 6.182,37.745 6,37.615L6,31.79ZM16,48.864C16.643,49.135 17.31,49.391 18,49.631L18,55.615C17.304,55.369 16.638,55.106 16,54.829L16,48.864ZM20,50.259C20.968,50.536 21.964,50.79 23,51.005L23,56.996C21.963,56.78 20.961,56.533 20,56.256L20,50.259ZM25,51.371C25.156,51.396 25.318,51.415 25.476,51.439C25.715,51.475 25.956,51.509 26.197,51.541C26.574,51.592 26.952,51.64 27.335,51.683C27.716,51.726 28.099,51.764 28.485,51.799C28.657,51.814 28.827,51.831 29,51.845L29,57.844C27.629,57.737 26.293,57.576 25,57.366L25,51.371ZM57,18.289L57,21.449C57,23.014 56.285,24.519 55,25.895L55,20.324C55.058,20.276 55.114,20.227 55.171,20.178C55.231,20.126 55.288,20.072 55.347,20.02C55.596,19.798 55.833,19.573 56.058,19.344C56.116,19.285 56.177,19.226 56.233,19.167C56.488,18.899 56.726,18.626 56.948,18.349C56.965,18.327 56.984,18.308 57,18.289ZM32,2C46.019,2 57,6.832 57,13C57,19.393 45.318,25 32,25C18.682,25 7,19.393 7,13C7,6.832 17.981,2 32,2ZM2,31.448L2,28.288C2.016,28.308 2.035,28.327 2.051,28.346C2.273,28.623 2.512,28.896 2.766,29.164C2.823,29.224 2.883,29.282 2.941,29.341C3.167,29.57 3.404,29.795 3.652,30.017C3.711,30.07 3.767,30.123 3.828,30.175C3.886,30.226 3.942,30.275 4,30.323L4,35.894C2.715,34.518 2,33.013 2,31.448ZM8,46.448L8,43.288C8.558,43.995 9.235,44.67 10,45.314L10,50.893C8.715,49.518 8,48.013 8,46.448ZM31,57.958L31,51.96C31.048,51.962 31.097,51.961 31.145,51.963C31.759,51.985 32.377,52 33,52C33.628,52 34.249,51.985 34.866,51.963C34.91,51.961 34.956,51.962 35,51.96L35,57.958C34.339,57.983 33.673,58 33,58C32.327,58 31.661,57.983 31,57.958ZM58,43.289L58,46.449C58,48.014 57.285,49.519 56,50.895L56,45.324C56.058,45.276 56.114,45.227 56.171,45.178C56.231,45.126 56.288,45.072 56.347,45.02C56.596,44.798 56.833,44.573 57.058,44.344C57.116,44.285 57.177,44.226 57.233,44.167C57.488,43.899 57.726,43.626 57.948,43.349C57.965,43.327 57.984,43.308 58,43.289Z" style="fill:rgb(165,165,165);fill-rule:nonzero;"/>
        <path d="M19.603,21.297L27.056,18.607L27.068,18.504C25.064,17.636 24.214,16.301 23.877,15.133C23.408,14.927 23.041,14.618 22.814,14.233C22.558,13.799 22.5,13.294 22.648,12.809L22.837,12.192C23.037,11.545 23.612,10.992 24.413,10.661C24.685,10.154 25.028,9.691 25.435,9.279C25.615,9.098 25.762,8.963 25.881,8.854C25.898,8.839 25.913,8.825 25.928,8.812C25.926,8.798 25.923,8.783 25.921,8.768C25.879,8.516 25.864,8.286 25.864,8.093C25.863,7.48 26.384,7 27.048,7C27.315,7 27.563,7.079 27.765,7.229C27.814,7.265 27.976,7.368 28.384,7.517C29.108,7.781 30.137,7.901 31.236,7.854C31.406,7.847 31.578,7.843 31.754,7.843C34.218,7.843 37.596,8.144 39.071,10.652C39.884,10.983 40.469,11.54 40.671,12.194L40.86,12.81C41.009,13.294 40.95,13.8 40.695,14.234C40.468,14.62 40.1,14.928 39.631,15.134C39.294,16.303 38.444,17.637 36.44,18.505L36.452,18.609L43.965,21.423C50.783,19.518 55,16.143 55,13C55,8.576 46.397,4 32,4C17.603,4 9,8.576 9,13C9,16.076 13.04,19.372 19.603,21.297Z" style="fill:rgb(151,151,151);fill-rule:nonzero;"/>
    </g>
</svg>
