<?xml version="1.0" encoding="UTF-8" standalone="no"?>
<!DOCTYPE svg PUBLIC "-//W3C//DTD SVG 1.1//EN" "http://www.w3.org/Graphics/SVG/1.1/DTD/svg11.dtd">
<svg width="100%" height="100%" viewBox="0 0 325 257" version="1.1" xmlns="http://www.w3.org/2000/svg" xmlns:xlink="http://www.w3.org/1999/xlink" xml:space="preserve" xmlns:serif="http://www.serif.com/" style="fill-rule:evenodd;clip-rule:evenodd;stroke-linejoin:round;stroke-miterlimit:2;">
    <g transform="matrix(1,0,0,1,-187.653,-151.712)">
        <path d="M471.74,300.724L471.74,174.95C471.74,157.872 419.045,151.712 383.595,151.712C348.15,151.708 295.454,157.927 295.454,174.95L295.454,225.071C288.622,224.68 281.958,224.512 275.798,224.512C240.349,224.512 187.653,230.727 187.653,247.75L187.653,355.27C187.653,372.348 240.348,378.508 275.798,378.508C294.501,378.508 318.079,376.774 336.11,372.63L336.11,385.005C336.11,402.083 388.805,408.243 424.255,408.243C459.7,408.243 512.396,402.028 512.396,385.005L512.396,320.548C512.396,310.47 494.029,304.196 471.74,300.724ZM505.51,320.544C505.51,326.255 477.565,337.009 424.198,337.009C370.831,337.009 342.886,326.314 342.886,320.544C342.886,314.833 370.831,304.079 424.198,304.079C477.624,304.079 505.51,314.778 505.51,320.544ZM383.6,255.923C376.6,255.923 370.049,255.755 363.944,255.419L363.944,247.747C363.944,245.005 362.6,242.595 360.19,240.411C368.311,240.97 376.319,241.251 383.596,241.251C411.26,241.251 449.506,237.497 464.908,227.7L464.908,239.516C464.908,245.223 436.967,255.922 383.599,255.922L383.6,255.923ZM464.909,249.146L464.909,260.962C464.909,266.673 436.964,277.427 383.597,277.427C376.597,277.427 370.046,277.259 363.941,276.923L363.941,262.138C370.773,262.528 377.437,262.755 383.597,262.755C411.265,262.755 449.456,258.946 464.909,249.146L464.909,249.146ZM383.6,298.931C376.6,298.931 370.049,298.763 363.944,298.427L363.944,283.642C370.776,284.032 377.44,284.259 383.6,284.259C411.264,284.259 449.51,280.505 464.912,270.708L464.912,282.524C464.912,286.891 448.56,294.227 416.974,297.419C408.966,297.587 400.4,298.091 391.943,298.876C389.197,298.872 386.455,298.931 383.599,298.931L383.6,298.931ZM450.069,298.259C456.061,296.579 461.159,294.564 464.909,292.153L464.909,299.771C460.038,299.153 455.054,298.649 450.069,298.259ZM383.6,158.539C436.967,158.539 464.912,169.234 464.912,175.004C464.912,180.715 436.967,191.469 383.6,191.469C330.233,191.469 302.288,180.774 302.288,175.004C302.288,169.234 330.229,158.539 383.6,158.539ZM302.288,184.637C317.686,194.438 355.936,198.242 383.6,198.242C411.264,198.242 449.51,194.488 464.912,184.691L464.912,196.507C464.912,202.218 436.967,212.972 383.6,212.972C330.233,212.972 302.288,202.277 302.288,196.507L302.288,184.637ZM302.288,206.141C317.686,215.942 355.936,219.692 383.6,219.692C411.264,219.692 449.51,215.938 464.912,206.141L464.912,217.957C464.912,223.668 436.967,234.422 383.6,234.422C367.362,234.422 353.471,233.414 342.049,231.902C335.272,230 327.432,228.488 319.201,227.367C308.056,224.176 302.291,220.59 302.291,218.016L302.288,206.141ZM275.8,231.286C329.167,231.286 357.112,241.981 357.112,247.751C357.112,253.462 329.167,264.216 275.8,264.216C222.433,264.216 194.488,253.521 194.488,247.751C194.488,242.036 222.375,231.286 275.8,231.286ZM194.488,257.438C209.886,267.239 248.136,270.989 275.8,270.989C303.464,270.989 341.71,267.235 357.112,257.438L357.112,269.254C357.112,274.965 329.167,285.719 275.8,285.719C222.433,285.719 194.488,275.024 194.488,269.254L194.488,257.438ZM194.488,278.942C209.886,288.743 248.136,292.493 275.8,292.493C303.464,292.493 341.71,288.739 357.112,278.942L357.112,290.758C357.112,296.469 329.167,307.223 275.8,307.223C222.433,307.223 194.488,296.528 194.488,290.758L194.488,278.942ZM194.488,300.446C209.886,310.247 248.136,313.997 275.8,313.997C303.464,313.997 341.71,310.243 357.112,300.446L357.112,304.926C344.624,308.567 336.112,313.661 336.112,320.551L336.112,322.735C322.448,326.094 302.288,328.727 275.8,328.727C222.433,328.727 194.488,318.032 194.488,312.262L194.488,300.446ZM194.488,321.95C209.886,331.751 248.136,335.501 275.8,335.501C294.503,335.501 318.081,333.766 336.112,329.622L336.112,344.239C322.448,347.598 302.288,350.231 275.8,350.231C222.433,350.231 194.488,339.536 194.488,333.766L194.488,321.95ZM275.8,371.731C222.433,371.731 194.488,361.036 194.488,355.266L194.488,343.45C209.886,353.251 248.136,357.001 275.8,357.001C294.503,357.001 318.081,355.266 336.112,351.122L336.112,365.739C322.448,369.044 302.229,371.731 275.8,371.731L275.8,371.731ZM424.26,401.469C370.893,401.469 342.948,390.774 342.948,385.004L342.948,373.188C358.346,382.989 396.596,386.739 424.26,386.739C451.924,386.739 490.17,382.985 505.572,373.188L505.572,385.004C505.513,390.773 477.627,401.469 424.26,401.469ZM424.26,379.965C370.893,379.965 342.948,369.27 342.948,363.5L342.948,351.684C358.346,361.485 396.596,365.235 424.26,365.235C451.924,365.235 490.17,361.481 505.572,351.684L505.572,363.5C505.513,369.269 477.627,379.965 424.26,379.965ZM424.26,358.461C370.893,358.461 342.948,347.766 342.948,341.996L342.948,330.18C358.346,339.981 396.596,343.731 424.26,343.731C451.924,343.731 490.17,339.977 505.572,330.18L505.572,341.996C505.513,347.765 477.627,358.461 424.26,358.461Z" style="fill-rule:nonzero;"/>
    </g>
</svg>
