<svg viewBox="0 0 17 16" fill="none" xmlns="http://www.w3.org/2000/svg">
<path fill-rule="evenodd" clip-rule="evenodd" d="M6.79961 0.599609H10.7525C10.9296 0.599609 11.0977 0.677881 11.2117 0.813456L12.5139 2.36201L14.2486 4.31868C14.3459 4.42844 14.3996 4.57005 14.3996 4.71674V11.1996C14.3996 12.0833 13.6833 12.7996 12.7996 12.7996H6.79961C5.91595 12.7996 5.19961 12.0833 5.19961 11.1996V2.19961C5.19961 1.31595 5.91595 0.599609 6.79961 0.599609ZM6.79961 1.79961H9.7662V4.81035L9.77426 4.90022C9.8166 5.13347 10.0207 5.31035 10.2662 5.31035H13.1996V11.1996C13.1996 11.4205 13.0205 11.5996 12.7996 11.5996H6.79961C6.5787 11.5996 6.39961 11.4205 6.39961 11.1996V2.19961C6.39961 1.9787 6.5787 1.79961 6.79961 1.79961ZM11.6228 3.16605L12.6371 4.31007L10.7656 4.30961L10.766 2.1482L11.6228 3.16605ZM3.97251 3.65655C3.7499 3.41108 3.37045 3.39255 3.12499 3.61516C2.79312 3.91612 2.59961 4.34349 2.59961 4.80058V13.8006L2.60615 13.9462C2.67972 14.7616 3.36505 15.4006 4.19961 15.4006H10.1996L10.3654 15.392C10.7483 15.3524 11.1012 15.1766 11.3636 14.8983C11.591 14.6573 11.5799 14.2775 11.3389 14.0502C11.0978 13.8228 10.7181 13.8339 10.4907 14.0749L10.4291 14.1283C10.3629 14.1749 10.2837 14.2006 10.1996 14.2006H4.19961L4.119 14.1925C3.93672 14.1552 3.79961 13.9939 3.79961 13.8006V4.80058L3.8084 4.71644C3.82579 4.63465 3.86841 4.56093 3.93112 4.50407L4.00451 4.42445C4.17772 4.19879 4.17038 3.87474 3.97251 3.65655Z" fill="#333333"/>
</svg>
