<svg width="120" height="120" viewBox="0 0 120 120" fill="none" xmlns="http://www.w3.org/2000/svg">
<path d="M55.865 12.9862C57.1665 9.0046 62.8335 9.0046 64.135 12.9862L73.666 42.1432C74.248 43.9238 75.9174 45.1294 77.801 45.1294H108.644C112.856 45.1294 114.607 50.4866 111.199 52.9474L86.247 70.9674C84.7232 72.0679 84.0855 74.0185 84.6676 75.7992L94.1986 104.956C95.5001 108.938 90.9154 112.249 87.508 109.788L62.5556 91.7679C61.0317 90.6674 58.9683 90.6674 57.4444 91.7679L32.492 109.788C29.0846 112.249 24.4999 108.938 25.8014 104.956L35.3324 75.7992C35.9145 74.0185 35.2768 72.0679 33.753 70.9674L8.80056 52.9474C5.39313 50.4866 7.14432 45.1294 11.3561 45.1294H42.199C44.0826 45.1294 45.752 43.9238 46.334 42.1432L55.865 12.9862Z" fill="#E60000"/>
<path d="M106.382 47.7205C105.852 47.7209 105.375 48.0435 105.177 48.5357C104.979 49.0279 105.1 49.591 105.483 49.9583C105.865 50.3257 106.433 50.4237 106.917 50.206C107.4 49.9883 107.703 49.4985 107.682 48.9685C107.654 48.2709 107.08 47.7199 106.382 47.7205Z" fill="#990000"/>
<path d="M100.778 47.7856C100.116 47.7892 99.5811 48.3279 99.5823 48.9903C99.5835 49.6528 100.12 50.1895 100.783 50.1907C101.445 50.1919 101.984 49.6571 101.987 48.9947C101.984 48.3284 101.445 47.7892 100.778 47.7856V47.7856Z" fill="#990000"/>
<path d="M101.981 54.6494C102.009 53.9861 101.495 53.4256 100.832 53.3971C100.168 53.3687 99.6074 53.883 99.5786 54.5462C99.5497 55.2094 100.064 55.7706 100.727 55.7999C101.389 55.8221 101.946 55.3105 101.981 54.6494Z" fill="#990000"/>
<path d="M107.181 54.6494C107.209 53.9861 106.695 53.4256 106.031 53.3971C105.368 53.3687 104.807 53.883 104.779 54.5462C104.75 55.2094 105.264 55.7706 105.927 55.7999C106.589 55.8221 107.146 55.3105 107.181 54.6494Z" fill="#990000"/>
<path d="M95.1563 47.8699C94.5397 47.8771 94.0454 48.3821 94.0513 48.9986C94.0573 49.6152 94.5613 50.1106 95.1779 50.1058C95.7945 50.1011 96.2908 49.598 96.2873 48.9814C96.2767 48.3644 95.7734 47.8698 95.1563 47.8699V47.8699Z" fill="#990000"/>
<path d="M95.1692 59.1018C94.5535 59.1018 94.0536 59.5998 94.0513 60.2155C94.0489 60.8313 94.5449 61.3331 95.1607 61.3378C95.7764 61.3426 96.2801 60.8486 96.2872 60.2328C96.289 59.9346 96.1721 59.6479 95.9625 59.4358C95.7528 59.2237 95.4675 59.1035 95.1692 59.1018V59.1018Z" fill="#990000"/>
<path d="M95.1563 53.4861C94.5397 53.4933 94.0454 53.9983 94.0513 54.6149C94.0573 55.2314 94.5613 55.7268 95.1779 55.722C95.7945 55.7173 96.2908 55.2142 96.2873 54.5976C96.2767 53.9806 95.7734 53.486 95.1563 53.4861V53.4861Z" fill="#990000"/>
<path d="M90.6059 54.6495C90.6216 54.2222 90.3774 53.8277 89.9879 53.6514C89.5983 53.475 89.1408 53.5517 88.8301 53.8455C88.5194 54.1393 88.4172 54.5917 88.5714 54.9906C88.7257 55.3894 89.1058 55.6553 89.5333 55.6635C89.8108 55.674 90.0808 55.5725 90.2825 55.3817C90.4843 55.191 90.6008 54.9271 90.6059 54.6495Z" fill="#990000"/>
<path d="M89.5723 64.7831C89.1447 64.7752 88.7548 65.0267 88.5856 65.4195C88.4165 65.8123 88.5017 66.2684 88.8013 66.5736C89.1008 66.8788 89.5553 66.9725 89.9511 66.8108C90.347 66.649 90.6058 66.2638 90.6058 65.8362C90.6093 65.5592 90.5021 65.2923 90.3081 65.0946C90.1141 64.897 89.8493 64.7849 89.5723 64.7831Z" fill="#990000"/>
<path d="M89.5723 47.935C89.1441 47.9271 88.7538 48.1793 88.585 48.5729C88.4162 48.9665 88.5026 49.4231 88.8036 49.7278C89.1045 50.0325 89.56 50.1246 89.9557 49.9608C90.3513 49.7969 90.6084 49.4098 90.6058 48.9815C90.6093 48.7052 90.5019 48.4389 90.3077 48.2423C90.1135 48.0456 89.8487 47.935 89.5723 47.935Z" fill="#990000"/>
<path d="M89.5921 59.1997C89.1648 59.1839 88.7704 59.4281 88.594 59.8177C88.4176 60.2072 88.4943 60.6647 88.7881 60.9754C89.0819 61.2862 89.5344 61.3884 89.9332 61.2341C90.332 61.0798 90.5979 60.6997 90.6061 60.2722C90.6149 59.9953 90.5127 59.7263 90.3223 59.5249C90.132 59.3235 89.8691 59.2065 89.5921 59.1997Z" fill="#990000"/>
<path d="M83.9239 48.0194C83.5316 48.0141 83.1749 48.246 83.0205 48.6067C82.8662 48.9674 82.9446 49.3855 83.2192 49.6657C83.4938 49.9459 83.9103 50.0328 84.274 49.8857C84.6377 49.7387 84.8768 49.3867 84.8794 48.9944C84.8883 48.7366 84.7912 48.4864 84.6106 48.3021C84.4301 48.1179 84.1819 48.0157 83.9239 48.0194Z" fill="#990000"/>
<path d="M84.8794 54.689C84.9129 54.2968 84.7058 53.9234 84.3553 53.7442C84.0049 53.565 83.5808 53.6157 83.2825 53.8724C82.9842 54.1292 82.871 54.541 82.996 54.9142C83.1211 55.2874 83.4595 55.5478 83.8523 55.573C84.1063 55.5945 84.3583 55.5129 84.5515 55.3466C84.7446 55.1803 84.8628 54.9433 84.8794 54.689Z" fill="#990000"/>
<path d="M83.9438 64.8679C83.6813 64.8624 83.4281 64.9651 83.2437 65.152C83.0592 65.3389 82.9598 65.5935 82.9688 65.8559C82.9688 66.3944 83.4054 66.8309 83.9438 66.8309C84.4823 66.8309 84.9189 66.3944 84.9189 65.8559C84.9279 65.5935 84.8285 65.3389 84.644 65.152C84.4596 64.9651 84.2064 64.8624 83.9438 64.8679Z" fill="#990000"/>
<path d="M83.9238 59.2518C83.3915 59.2589 82.9647 59.6944 82.9683 60.2267C82.9718 60.759 83.4044 61.1887 83.9367 61.1887C84.4691 61.1888 84.9017 60.7591 84.9053 60.2268C84.9126 59.9649 84.8113 59.7116 84.6255 59.527C84.4396 59.3423 84.1856 59.2427 83.9238 59.2518Z" fill="#990000"/>
<path d="M78.2819 66.7203C78.6414 66.7362 78.9746 66.5325 79.1245 66.2054C79.2744 65.8783 79.211 65.4929 78.9643 65.231C78.7175 64.9691 78.3367 64.8829 78.0012 65.013C77.6657 65.1431 77.4425 65.4635 77.4369 65.8233C77.4281 66.0548 77.5127 66.2802 77.6715 66.4488C77.8304 66.6175 78.0503 66.7153 78.2819 66.7203Z" fill="#990000"/>
<path d="M78.3143 77.9589C78.7999 77.9623 79.1973 77.5733 79.2043 77.0877C79.2113 76.6021 78.8253 76.2018 78.3398 76.1911C77.8543 76.1805 77.451 76.5635 77.4368 77.0489C77.4241 77.2883 77.5114 77.5221 77.6777 77.6946C77.8441 77.8672 78.0746 77.9629 78.3143 77.9589Z" fill="#990000"/>
<path d="M82.4742 77.9589C82.9598 77.9623 83.3572 77.5733 83.3642 77.0877C83.3712 76.6021 82.9852 76.2018 82.4997 76.1911C82.0142 76.1805 81.611 76.5635 81.5967 77.0489C81.584 77.2883 81.6713 77.5221 81.8377 77.6946C82.004 77.8672 82.2345 77.9629 82.4742 77.9589Z" fill="#990000"/>
<path d="M77.4366 60.1553C77.4111 60.5122 77.6032 60.8492 77.9233 61.0091C78.2433 61.1689 78.6282 61.1202 78.8982 60.8855C79.1682 60.6509 79.2702 60.2766 79.1566 59.9374C79.0429 59.5982 78.736 59.3609 78.3791 59.3363C78.1448 59.3166 77.9124 59.3926 77.7349 59.5468C77.5574 59.7011 77.4498 59.9205 77.4366 60.1553Z" fill="#990000"/>
<path d="M78.3272 72.343C78.8182 72.343 79.2165 71.9456 79.2177 71.4547C79.2189 70.9637 78.8225 70.5644 78.3315 70.562C77.8405 70.5596 77.4403 70.9551 77.4367 71.446C77.4295 71.6849 77.5208 71.9163 77.6892 72.0859C77.8576 72.2555 78.0882 72.3485 78.3272 72.343Z" fill="#990000"/>
<path d="M83.5274 72.343C84.0184 72.343 84.4167 71.9456 84.4179 71.4547C84.4191 70.9637 84.0227 70.5644 83.5317 70.562C83.0407 70.5596 82.6405 70.9551 82.6369 71.446C82.6297 71.6849 82.721 71.9163 82.8894 72.0859C83.0577 72.2555 83.2884 72.3485 83.5274 72.343Z" fill="#990000"/>
<path d="M78.2948 55.4881C78.6545 55.4987 78.9847 55.2902 79.1298 54.9608C79.2748 54.6315 79.2058 54.2471 78.9551 53.9888C78.7045 53.7306 78.3223 53.65 77.9887 53.7852C77.6552 53.9204 77.4369 54.2442 77.4367 54.6041C77.4315 54.8356 77.5194 55.0596 77.6807 55.2258C77.842 55.3919 78.0632 55.4865 78.2948 55.4881Z" fill="#990000"/>
<path d="M79.2051 49.0079C79.2153 48.5224 78.8321 48.1196 78.3468 48.1056C77.8614 48.0916 77.4556 48.4717 77.4379 48.9569C77.4201 49.4421 77.797 49.8509 78.2821 49.8724C78.5213 49.8886 78.7566 49.8048 78.9316 49.6408C79.1066 49.4769 79.2057 49.2477 79.2051 49.0079Z" fill="#990000"/>
<path d="M72.6851 70.6462C72.2382 70.657 71.8839 71.0267 71.8922 71.4736C71.9005 71.9206 72.2683 72.2768 72.7153 72.271C73.1623 72.2651 73.5205 71.8992 73.5171 71.4522C73.521 71.2327 73.4337 71.0215 73.276 70.8687C73.1183 70.716 72.9044 70.6354 72.6851 70.6462Z" fill="#990000"/>
<path d="M72.6918 49.794C73.138 49.7939 73.5006 49.434 73.5041 48.9878C73.5076 48.5416 73.1507 48.1761 72.7045 48.1691C72.2584 48.162 71.89 48.5159 71.8793 48.962C71.8704 49.1819 71.9524 49.3957 72.1062 49.5532C72.2599 49.7106 72.4718 49.7977 72.6918 49.794Z" fill="#990000"/>
<path d="M73.517 77.0878C73.5241 76.8701 73.4421 76.659 73.29 76.5032C73.1379 76.3474 72.9288 76.2604 72.711 76.2622C72.2631 76.2587 71.8969 76.6183 71.8921 77.0661C71.8874 77.514 72.246 77.8812 72.6938 77.8872C73.1416 77.8931 73.5098 77.5356 73.517 77.0878Z" fill="#990000"/>
<path d="M72.6916 66.6486C73.0231 66.6538 73.3245 66.4571 73.4532 66.1515C73.5819 65.8459 73.512 65.4928 73.2765 65.2593C73.0411 65.0259 72.6875 64.9588 72.383 65.09C72.0784 65.2211 71.8842 65.5242 71.8921 65.8556C71.8956 66.2946 72.2526 66.6487 72.6916 66.6486Z" fill="#990000"/>
<path d="M72.7114 61.0323C73.1575 61.0216 73.5115 60.6532 73.5044 60.2071C73.4973 59.7609 73.1318 59.404 72.6856 59.4075C72.2394 59.411 71.8796 59.7736 71.8794 60.2198C71.8775 60.4392 71.9652 60.65 72.1223 60.8033C72.2793 60.9567 72.4921 61.0394 72.7114 61.0323Z" fill="#990000"/>
<path d="M72.705 55.4167C73.1511 55.4095 73.508 55.044 73.5045 54.5978C73.5009 54.1516 73.1382 53.7918 72.6921 53.7917C72.2459 53.7917 71.8831 54.1515 71.8795 54.5977C71.8759 54.8171 71.9619 55.0285 72.1177 55.1831C72.2735 55.3377 72.4856 55.422 72.705 55.4167Z" fill="#990000"/>
<path d="M67.1012 42.6634C66.8142 42.6555 66.5508 42.8216 66.4343 43.0841C66.3178 43.3465 66.3711 43.6533 66.5694 43.8609C66.7677 44.0686 67.0717 44.136 67.3392 44.0317C67.6067 43.9274 67.7848 43.6719 67.7902 43.3849C67.7991 43.1966 67.7305 43.0128 67.6003 42.8765C67.4701 42.7402 67.2897 42.6631 67.1012 42.6634Z" fill="#990000"/>
<path d="M67.0885 53.8954C66.8995 53.8918 66.7172 53.9653 66.5836 54.099C66.4499 54.2326 66.3764 54.4149 66.38 54.6039C66.4149 54.9673 66.7202 55.2446 67.0853 55.2446C67.4503 55.2446 67.7556 54.9673 67.7905 54.6039C67.7941 54.4161 67.7214 54.2348 67.5892 54.1013C67.457 53.9679 67.2764 53.8936 67.0885 53.8954Z" fill="#990000"/>
<path d="M67.0693 59.5181C66.8802 59.516 66.6987 59.5924 66.5681 59.7292C66.4375 59.8659 66.3695 60.0508 66.3803 60.2396C66.3818 60.4287 66.4603 60.609 66.5977 60.739C66.735 60.869 66.9194 60.9374 67.1083 60.9286C67.2918 60.9203 67.4641 60.8384 67.5865 60.7014C67.7088 60.5644 67.7707 60.3838 67.7583 60.2006C67.7679 60.0156 67.6982 59.8354 67.5666 59.7051C67.435 59.5747 67.2541 59.5067 67.0693 59.5181Z" fill="#990000"/>
<path d="M67.0825 65.1345C66.8935 65.129 66.7107 65.2021 66.5776 65.3364C66.4446 65.4707 66.3732 65.6542 66.3805 65.8431C66.3547 66.1112 66.4832 66.3707 66.7121 66.5128C66.9409 66.6549 67.2305 66.6549 67.4594 66.5128C67.6883 66.3707 67.8168 66.1112 67.791 65.8431C67.7984 65.653 67.7261 65.4684 67.5916 65.3339C67.4571 65.1994 67.2726 65.1272 67.0825 65.1345Z" fill="#990000"/>
<path d="M67.1081 76.3664C66.8413 76.3344 66.5794 76.456 66.4318 76.6805C66.2841 76.905 66.2761 77.1936 66.4112 77.4259C66.5462 77.6582 66.801 77.7941 67.0691 77.7769C67.2535 77.7973 67.4378 77.738 67.5757 77.6138C67.7135 77.4896 67.7917 77.3124 67.7906 77.1269C67.8129 76.9328 67.751 76.7384 67.6205 76.593C67.49 76.4476 67.3035 76.3651 67.1081 76.3664Z" fill="#990000"/>
<path d="M67.7906 32.1723C67.8171 31.9847 67.7605 31.795 67.6356 31.6526C67.5107 31.5102 67.3299 31.4294 67.1405 31.4312C66.9556 31.417 66.7727 31.4779 66.6332 31.6002C66.4937 31.7226 66.4095 31.896 66.3995 32.0813C66.3871 32.2658 66.4486 32.4477 66.5706 32.5868C66.6926 32.7259 66.8649 32.8106 67.0495 32.8223C67.2345 32.8365 67.4174 32.7756 67.5569 32.6533C67.6964 32.5309 67.7806 32.3575 67.7906 32.1723Z" fill="#990000"/>
<path d="M67.7906 26.9721C67.8171 26.7845 67.7605 26.5948 67.6356 26.4524C67.5107 26.31 67.3299 26.2292 67.1405 26.231C66.9556 26.2168 66.7727 26.2777 66.6332 26.4C66.4937 26.5224 66.4095 26.6958 66.3995 26.8811C66.3871 27.0656 66.4486 27.2475 66.5706 27.3866C66.6926 27.5257 66.8649 27.6104 67.0495 27.6221C67.2345 27.6363 67.4174 27.5754 67.5569 27.4531C67.6964 27.3307 67.7806 27.1573 67.7906 26.9721Z" fill="#990000"/>
<path d="M67.0887 70.7506C66.7254 70.7855 66.448 71.0908 66.448 71.4558C66.448 71.8209 66.7254 72.1262 67.0887 72.1611C67.3569 72.1869 67.6164 72.0584 67.7585 71.8295C67.9005 71.6007 67.9005 71.311 67.7585 71.0822C67.6164 70.8533 67.3569 70.7248 67.0887 70.7506Z" fill="#990000"/>
<path d="M67.0887 37.0475C66.7254 37.0824 66.448 37.3877 66.448 37.7527C66.448 38.1178 66.7254 38.4231 67.0887 38.458C67.3569 38.4837 67.6164 38.3552 67.7585 38.1264C67.9005 37.8975 67.9005 37.6079 67.7585 37.379C67.6164 37.1502 67.3569 37.0217 67.0887 37.0475Z" fill="#990000"/>
<path d="M67.0883 48.2796C66.8006 48.277 66.5398 48.4486 66.4285 48.7139C66.3172 48.9793 66.3774 49.2856 66.5808 49.4891C66.7843 49.6925 67.0906 49.7527 67.3559 49.6414C67.6213 49.5301 67.7929 49.2693 67.7903 48.9816C67.7958 48.7938 67.7235 48.6121 67.5907 48.4792C67.4578 48.3463 67.2761 48.2741 67.0883 48.2796Z" fill="#990000"/>
<path d="M61.4789 76.4774C61.3203 76.474 61.1668 76.5336 61.0522 76.6434C60.9376 76.7531 60.8713 76.9038 60.8679 77.0625C60.8591 77.2153 60.9118 77.3653 61.0145 77.4789C61.1171 77.5925 61.261 77.6603 61.4139 77.667C61.7492 77.6893 62.0396 77.4366 62.0639 77.1015C62.0525 76.7764 61.8026 76.5098 61.4789 76.4774Z" fill="#990000"/>
<path d="M61.4789 65.2448C61.3209 65.2413 61.1681 65.3012 61.0545 65.4111C60.9409 65.521 60.8761 65.6718 60.8744 65.8298C60.8673 65.9826 60.9218 66.1319 61.0257 66.2443C61.1295 66.3566 61.274 66.4227 61.4269 66.4278C61.5884 66.4403 61.7481 66.3875 61.8703 66.2812C61.9925 66.1748 62.0669 66.0239 62.0769 65.8623C62.0616 65.5352 61.8053 65.2706 61.4789 65.2448Z" fill="#990000"/>
<path d="M61.479 60.8183C61.8104 60.8077 62.0713 60.5322 62.064 60.2008C62.0605 59.8839 61.8025 59.6288 61.4855 59.6288C61.3258 59.6253 61.1713 59.6859 61.0565 59.797C60.9418 59.9081 60.8762 60.0606 60.8745 60.2203C60.8996 60.5421 61.157 60.7967 61.479 60.8183Z" fill="#990000"/>
<path d="M61.4786 37.1578C61.3195 37.1578 61.167 37.2219 61.0557 37.3356C60.9444 37.4494 60.8836 37.6032 60.8871 37.7623C60.8836 37.9151 60.9415 38.063 61.0477 38.1729C61.1539 38.2828 61.2998 38.3456 61.4526 38.3473C61.68 38.3711 61.901 38.2633 62.0221 38.0694C62.1432 37.8755 62.1432 37.6296 62.0221 37.4357C61.901 37.2419 61.68 37.134 61.4526 37.1578H61.4786Z" fill="#990000"/>
<path d="M60.8807 54.6493C60.8807 54.8021 60.9418 54.9486 61.0505 55.0561C61.1592 55.1635 61.3064 55.223 61.4592 55.2213C61.7906 55.2249 62.0631 54.9611 62.0702 54.6298C62.0616 54.2999 61.8073 54.0289 61.4787 53.9993C61.3107 53.9986 61.1501 54.0687 61.0363 54.1924C60.9226 54.3161 60.8661 54.4819 60.8807 54.6493Z" fill="#990000"/>
<path d="M61.4785 21.4984C61.8028 21.4764 62.061 21.2182 62.083 20.8939C62.08 20.7282 62.0084 20.5711 61.8851 20.4602C61.7619 20.3492 61.5982 20.2945 61.433 20.3089C61.2802 20.3089 61.1337 20.3701 61.0262 20.4787C60.9187 20.5874 60.8593 20.7346 60.861 20.8874C60.8573 21.0517 60.9214 21.2103 61.0382 21.3258C61.155 21.4414 61.3143 21.5038 61.4785 21.4984Z" fill="#990000"/>
<path d="M61.4791 48.3897C61.3256 48.3862 61.1771 48.4439 61.0661 48.5499C60.9552 48.656 60.891 48.8018 60.8875 48.9552C60.875 49.1167 60.9279 49.2765 61.0342 49.3987C61.1405 49.5209 61.2914 49.5953 61.4531 49.6053C61.7904 49.6066 62.0727 49.3497 62.1031 49.0137C62.1086 48.8466 62.0446 48.6847 61.9263 48.5665C61.8081 48.4482 61.6462 48.3842 61.4791 48.3897Z" fill="#990000"/>
<path d="M61.4794 70.8607C61.3259 70.8625 61.1795 70.9251 61.0722 71.0348C60.9649 71.1445 60.9056 71.2923 60.9074 71.4458C60.9039 71.6049 60.9646 71.7587 61.076 71.8724C61.1873 71.9862 61.3397 72.0503 61.4989 72.0503C61.8207 72.0252 62.0753 71.7678 62.0969 71.4458C62.0863 71.1144 61.8108 70.8534 61.4794 70.8607Z" fill="#990000"/>
<path d="M61.4785 27.1152C61.6382 27.1187 61.7927 27.0581 61.9075 26.947C62.0222 26.8359 62.0878 26.6834 62.0895 26.5237C62.1005 26.2065 61.854 25.9397 61.537 25.9257C61.3765 25.9131 61.2177 25.9651 61.0957 26.07C60.9737 26.1749 60.8986 26.3242 60.887 26.4847C60.8955 26.8145 61.1499 27.0856 61.4785 27.1152Z" fill="#990000"/>
<path d="M61.4789 42.7735C61.326 42.7683 61.1775 42.8244 61.0663 42.9295C60.9552 43.0345 60.8907 43.1797 60.8873 43.3325C60.873 43.4944 60.9252 43.6552 61.0319 43.7778C61.1385 43.9004 61.2905 43.9744 61.4529 43.9826C61.7857 43.9846 62.0663 43.7349 62.1029 43.404C62.1102 43.2358 62.047 43.0722 61.9286 42.9525C61.8101 42.8328 61.6471 42.7679 61.4789 42.7735Z" fill="#990000"/>
<path d="M61.4789 31.5418C61.326 31.5366 61.1775 31.5928 61.0663 31.6978C60.9552 31.8028 60.8907 31.948 60.8873 32.1009C60.873 32.2627 60.9252 32.4235 61.0319 32.5461C61.1385 32.6688 61.2905 32.7427 61.4529 32.7509C61.7879 32.7525 62.0694 32.4992 62.1029 32.1659C62.1084 31.9987 62.0444 31.8368 61.9261 31.7186C61.8079 31.6003 61.646 31.5364 61.4789 31.5418Z" fill="#990000"/>
<path d="M61.4787 14.6869C61.1592 14.6869 60.9002 14.9459 60.9002 15.2654C60.895 15.4245 60.9541 15.579 61.0642 15.694C61.1743 15.809 61.3261 15.8747 61.4852 15.8764C61.7126 15.9002 61.9336 15.7923 62.0547 15.5984C62.1758 15.4046 62.1758 15.1586 62.0547 14.9648C61.9336 14.7709 61.7126 14.6631 61.4852 14.6869H61.4787Z" fill="#990000"/>
<path d="M55.8692 71.8228C55.9862 71.8228 56.1552 71.6408 56.4087 71.4588C56.1552 71.2767 56.0057 71.0752 55.8692 71.0882C55.7327 71.1012 55.5962 71.3092 55.4597 71.4328C55.6287 71.5498 55.7132 71.7903 55.8692 71.8228Z" fill="#990000"/>
<path d="M56.2201 65.8426C56.2201 65.6996 55.9926 65.576 55.8691 65.446C55.7326 65.5825 55.518 65.7061 55.4855 65.8621C55.453 66.0181 55.6806 66.1416 55.8626 66.3886C56.0381 66.1351 56.2331 65.9791 56.2201 65.8426Z" fill="#990000"/>
<path d="M55.8432 60.5908C55.9862 60.5908 56.1097 60.3698 56.2462 60.2463C56.1162 60.1033 55.9992 59.8888 55.8432 59.8563C55.6872 59.8238 55.5572 60.0383 55.3037 60.2203C55.5507 60.4023 55.7067 60.5973 55.8432 60.5908Z" fill="#990000"/>
<path d="M56.2789 77.0946C56.1489 76.9581 56.0319 76.7436 55.8759 76.7046C55.7199 76.6656 55.5899 76.8931 55.3364 77.0686C55.5834 77.2506 55.7394 77.4521 55.8759 77.4391C56.0124 77.4261 56.1099 77.2181 56.2789 77.0946Z" fill="#990000"/>
<path d="M55.8693 55.1566C56.0448 54.9031 56.2528 54.7276 56.2203 54.6106C56.1878 54.4936 55.9668 54.3441 55.8238 54.2141C55.7003 54.3506 55.4922 54.4806 55.4857 54.6236C55.4792 54.7666 55.6808 54.9096 55.8693 55.1566Z" fill="#990000"/>
<path d="M55.8238 21.2909C55.9668 21.1609 56.1813 21.0504 56.2203 20.8944C56.2593 20.7384 56.0448 20.6019 55.8693 20.3484C55.6808 20.5954 55.4792 20.7449 55.4857 20.8749C55.4922 21.0049 55.7068 21.1544 55.8238 21.2909Z" fill="#990000"/>
<path d="M56.2201 48.9946C56.2201 48.8516 55.9926 48.7281 55.8691 48.5916C55.7326 48.7281 55.518 48.8516 55.4855 49.0076C55.453 49.1636 55.6806 49.2936 55.8626 49.5406C56.0381 49.2871 56.2331 49.1311 56.2201 48.9946Z" fill="#990000"/>
<path d="M55.8691 26.127C55.7326 26.2635 55.518 26.3805 55.4855 26.5365C55.453 26.6925 55.6806 26.8225 55.8626 27.0695C56.0381 26.816 56.2331 26.66 56.2201 26.5235C56.2071 26.387 55.9926 26.257 55.8691 26.127Z" fill="#990000"/>
<path d="M55.4597 43.3461C55.5962 43.4826 55.7132 43.7036 55.8692 43.7361C56.0252 43.7686 56.1552 43.5541 56.4087 43.3721C56.1552 43.1901 56.0057 42.9886 55.8692 43.0016C55.7327 43.0146 55.6287 43.2226 55.4597 43.3461Z" fill="#990000"/>
<path d="M55.4859 32.1329C55.5314 32.2889 55.7524 32.3929 55.8954 32.5229C56.0124 32.3864 56.2139 32.2499 56.2204 32.1069C56.2269 31.9639 56.0254 31.8209 55.8304 31.5869C55.6614 31.8404 55.4599 32.0159 55.4859 32.1329Z" fill="#990000"/>
<path d="M55.4597 37.7494C55.5962 37.8859 55.7132 38.1004 55.8692 38.1394C56.0252 38.1784 56.1552 37.9509 56.4087 37.7754C56.1552 37.5934 56.0057 37.3919 55.8692 37.4049C55.7327 37.4179 55.6287 37.6064 55.4597 37.7494Z" fill="#990000"/>
<path d="M89.5594 99.0387C88.9805 99.0353 88.5074 99.4999 88.5003 100.079C88.4933 100.658 88.955 101.134 89.5339 101.145C90.1127 101.155 90.5917 100.697 90.606 100.118C90.6185 99.8335 90.5134 99.5567 90.3153 99.3525C90.1173 99.1484 89.8439 99.0348 89.5594 99.0387Z" fill="#990000"/>
<path d="M89.5532 104.655C89.1261 104.655 88.7414 104.913 88.5792 105.308C88.417 105.704 88.5095 106.157 88.8133 106.458C89.1172 106.758 89.5722 106.845 89.9653 106.677C90.3583 106.51 90.6115 106.122 90.6062 105.695C90.6063 105.417 90.4949 105.151 90.297 104.955C90.0992 104.76 89.8313 104.652 89.5532 104.655Z" fill="#990000"/>
<path d="M83.9563 99.1236C83.424 99.0995 82.9723 99.51 82.9454 100.042C82.9184 100.574 83.3264 101.028 83.8584 101.058C84.3904 101.088 84.8466 100.682 84.8793 100.151C84.899 99.8906 84.8115 99.6338 84.6372 99.4399C84.4629 99.246 84.2169 99.1317 83.9563 99.1236Z" fill="#990000"/>
<path d="M83.9237 93.5074C83.3922 93.5146 82.9659 93.9487 82.9683 94.4802C82.9707 95.0117 83.4009 95.442 83.9324 95.4444C84.4639 95.4467 84.898 95.0204 84.9052 94.4889C84.9144 94.2259 84.8139 93.9709 84.6278 93.7848C84.4417 93.5987 84.1867 93.4982 83.9237 93.5074Z" fill="#990000"/>
<path d="M89.1241 93.5074C88.5927 93.5146 88.1663 93.9487 88.1687 94.4802C88.1711 95.0117 88.6014 95.442 89.1329 95.4444C89.6643 95.4467 90.0985 95.0204 90.1057 94.4889C90.1148 94.2259 90.0144 93.9709 89.8283 93.7848C89.6422 93.5987 89.3872 93.4982 89.1241 93.5074Z" fill="#990000"/>
<path d="M83.9693 87.8917C83.5755 87.8784 83.2129 88.1052 83.0523 88.465C82.8918 88.8249 82.9652 89.2461 83.2381 89.5304C83.511 89.8146 83.9289 89.9052 84.295 89.7595C84.6611 89.6137 84.9024 89.2607 84.9053 88.8667C84.9123 88.6128 84.8172 88.3666 84.6412 88.1834C84.4653 88.0001 84.2233 87.895 83.9693 87.8917Z" fill="#990000"/>
<path d="M84.8792 83.2503C84.8923 82.8577 84.6669 82.4961 84.3087 82.3349C83.9504 82.1736 83.5303 82.2448 83.2451 82.515C82.9599 82.7851 82.8662 83.2008 83.0078 83.5672C83.1494 83.9337 83.4984 84.1782 83.8911 84.1864C84.1473 84.1969 84.3968 84.1034 84.5829 83.9271C84.769 83.7508 84.8759 83.5067 84.8792 83.2503Z" fill="#990000"/>
<path d="M78.3075 95.3598C78.5406 95.3704 78.768 95.2857 78.9372 95.125C79.1065 94.9643 79.203 94.7417 79.2045 94.5083C79.217 94.2695 79.1308 94.0361 78.966 93.8628C78.8013 93.6895 78.5726 93.5915 78.3335 93.5918C77.8453 93.5918 77.4495 93.9876 77.4495 94.4758C77.4495 94.964 77.8453 95.3598 78.3335 95.3598H78.3075Z" fill="#990000"/>
<path d="M77.437 83.1787C77.437 83.6669 77.8328 84.0627 78.321 84.0627C78.8093 84.0627 79.205 83.6669 79.205 83.1787C79.205 82.6905 78.8093 82.2947 78.321 82.2947C77.8328 82.2947 77.437 82.6905 77.437 83.1787Z" fill="#990000"/>
<path d="M78.2947 89.7499C78.6538 89.7604 78.9836 89.5526 79.129 89.224C79.2745 88.8955 79.2066 88.5116 78.9573 88.2529C78.708 87.9941 78.3269 87.912 77.9932 88.0451C77.6594 88.1782 77.4395 88.5001 77.4367 88.8593C77.4297 89.092 77.5168 89.3176 77.6782 89.4852C77.8397 89.6528 78.062 89.7482 78.2947 89.7499Z" fill="#990000"/>
<path d="M72.6719 93.6505C72.2253 93.6685 71.8771 94.0438 71.8926 94.4904C71.908 94.9371 72.2813 95.2874 72.7281 95.2745C73.1748 95.2616 73.5273 94.8903 73.5169 94.4435C73.5155 94.2244 73.4243 94.0156 73.2645 93.8657C73.1048 93.7158 72.8906 93.638 72.6719 93.6505Z" fill="#990000"/>
<path d="M72.7176 83.9653C73.1655 83.9581 73.523 83.5899 73.5171 83.142C73.5111 82.6942 73.1439 82.3356 72.696 82.3404C72.2482 82.3451 71.8886 82.7114 71.8921 83.1592C71.8902 83.377 71.9772 83.5861 72.1331 83.7382C72.2889 83.8904 72.5 83.9724 72.7176 83.9653Z" fill="#990000"/>
<path d="M72.7308 88.0472C72.4244 88.0197 72.1287 88.1677 71.967 88.4294C71.8053 88.6912 71.8053 89.0218 71.967 89.2835C72.1287 89.5453 72.4244 89.6932 72.7308 89.6657C73.1497 89.6282 73.4707 89.2771 73.4707 88.8565C73.4707 88.4359 73.1497 88.0848 72.7308 88.0472Z" fill="#990000"/>
<path d="M67.1079 82.4504C66.8184 82.4265 66.5437 82.5817 66.4147 82.842C66.2858 83.1023 66.3288 83.4149 66.5232 83.6308C66.7176 83.8466 67.0241 83.9219 67.2964 83.8207C67.5687 83.7195 67.7516 83.4623 67.7579 83.1719C67.7783 82.9875 67.719 82.8032 67.5948 82.6653C67.4706 82.5275 67.2935 82.4493 67.1079 82.4504Z" fill="#990000"/>
<path d="M67.0881 88.151C66.8199 88.1252 66.5604 88.2537 66.4183 88.4826C66.2763 88.7114 66.2763 89.001 66.4183 89.2299C66.5604 89.4588 66.8199 89.5873 67.0881 89.5615C67.4514 89.5266 67.7288 89.2213 67.7288 88.8562C67.7288 88.4912 67.4514 88.1859 67.0881 88.151Z" fill="#990000"/>
<path d="M62.0637 88.8142C62.0669 88.4879 61.8277 88.2098 61.5047 88.1642C61.3417 88.1498 61.18 88.2029 61.0571 88.3109C60.9343 88.419 60.8611 88.5727 60.8547 88.7362C60.844 88.889 60.8951 89.0398 60.9965 89.1546C61.0979 89.2695 61.2412 89.3389 61.3942 89.3472C61.5543 89.3692 61.7165 89.3246 61.843 89.2239C61.9694 89.1233 62.0492 88.9752 62.0637 88.8142Z" fill="#990000"/>
<path d="M61.479 82.5613C61.3262 82.5596 61.179 82.6191 61.0703 82.7265C60.9616 82.834 60.9005 82.9805 60.9005 83.1333C60.886 83.2985 60.9408 83.4622 61.0517 83.5855C61.1626 83.7087 61.3197 83.7804 61.4855 83.7833C61.8075 83.7617 62.0649 83.5071 62.09 83.1853C62.0953 83.0205 62.0331 82.8607 61.9177 82.7429C61.8024 82.625 61.6439 82.5595 61.479 82.5613Z" fill="#990000"/>
<path d="M55.8953 82.7622C55.7523 82.8922 55.5313 82.9962 55.4858 83.1522C55.4403 83.3082 55.6613 83.4447 55.8303 83.7047C56.0188 83.4642 56.2268 83.3212 56.2203 83.1847C56.2138 83.0482 56.0123 82.9052 55.8953 82.7622Z" fill="#990000"/>
<path d="M55.8108 89.1587C55.9603 89.0352 56.1814 88.9312 56.2204 88.7752C56.2594 88.6192 56.0514 88.4827 55.8823 88.2227C55.6873 88.4632 55.4858 88.5997 55.4858 88.7362C55.4858 88.8727 55.6938 89.0222 55.8108 89.1587Z" fill="#990000"/>
<path fill-rule="evenodd" clip-rule="evenodd" d="M74.5968 49.7578C74.5968 49.3781 74.289 49.0703 73.9093 49.0703C73.5296 49.0703 73.2218 49.3781 73.2218 49.7578V56.8008C69.5505 52.932 64.1942 51.0445 58.8398 51.8328C49.8167 53.1612 43.5789 61.5526 44.9073 70.5757C44.9626 70.9513 45.312 71.211 45.6876 71.1557C46.0633 71.1004 46.3229 70.7511 46.2676 70.3754C45.0498 62.1036 50.7682 54.4109 59.0401 53.1931L59.0401 53.1931C64.207 52.4324 69.376 54.3897 72.743 58.3226H64.7007C64.321 58.3226 64.0132 58.6304 64.0132 59.0101C64.0132 59.3898 64.321 59.6976 64.7007 59.6976H73.9093C74.289 59.6976 74.5968 59.3898 74.5968 59.0101V49.7578ZM48.5877 75.8532C48.208 75.8532 47.9002 76.161 47.9002 76.5407L47.9002 76.8789C47.8999 76.8907 47.8999 76.9026 47.9002 76.9145L47.9 85.8147C47.9 86.1944 48.2077 86.5022 48.5874 86.5022C48.9671 86.5022 49.275 86.1944 49.275 85.8147L49.2751 78.7748C52.9471 82.6443 58.3047 84.5318 63.6604 83.7424C72.683 82.4122 78.9193 74.0196 77.5891 64.9967C77.5338 64.6211 77.1843 64.3615 76.8087 64.4168C76.4331 64.4722 76.1735 64.8216 76.2288 65.1973C77.4482 73.4689 71.7312 81.1627 63.4598 82.3821C58.2808 83.1455 53.0998 81.1782 49.7328 77.2282H57.796C58.1757 77.2282 58.4835 76.9204 58.4835 76.5407C58.4835 76.161 58.1757 75.8532 57.796 75.8532H48.5877Z" fill="white"/>
<path d="M73.2218 56.8008L72.8591 57.145C73 57.2934 73.217 57.341 73.4071 57.2652C73.5971 57.1894 73.7218 57.0054 73.7218 56.8008H73.2218ZM58.8398 51.8328L58.9126 52.3275L58.9126 52.3275L58.8398 51.8328ZM44.9073 70.5757L45.402 70.5029L44.9073 70.5757ZM45.6876 71.1557L45.6148 70.6611L45.6148 70.6611L45.6876 71.1557ZM46.2676 70.3754L45.773 70.4483L46.2676 70.3754ZM59.0401 53.1931L58.9725 52.6977L58.9672 52.6985L59.0401 53.1931ZM59.0401 53.1931L59.1076 53.6886L59.1129 53.6878L59.0401 53.1931ZM72.743 58.3226V58.8226C72.9382 58.8226 73.1156 58.709 73.1972 58.5316C73.2788 58.3543 73.2498 58.1457 73.1228 57.9974L72.743 58.3226ZM47.9002 76.5407L48.4002 76.5407L47.9002 76.5407ZM47.9002 76.8789L48.4002 76.8918L48.4002 76.8789L47.9002 76.8789ZM47.9002 76.9145L48.4004 76.9145L48.4 76.9016L47.9002 76.9145ZM47.9 85.8147L47.4 85.8147L47.9 85.8147ZM48.5874 86.5022L48.5874 87.0022H48.5874L48.5874 86.5022ZM49.275 85.8147L49.775 85.8147L49.275 85.8147ZM49.2751 78.7748L49.6378 78.4306C49.497 78.2822 49.2799 78.2345 49.0899 78.3103C48.8998 78.3862 48.7751 78.5701 48.7751 78.7747L49.2751 78.7748ZM63.6604 83.7424L63.7333 84.237L63.7333 84.237L63.6604 83.7424ZM77.5891 64.9967L77.0945 65.0696V65.0696L77.5891 64.9967ZM76.8087 64.4168L76.8816 64.9115L76.8087 64.4168ZM76.2288 65.1973L76.7235 65.1243V65.1243L76.2288 65.1973ZM63.4598 82.3821L63.5328 82.8767L63.5328 82.8767L63.4598 82.3821ZM49.7328 77.2282V76.7282C49.5378 76.7282 49.3605 76.8416 49.2788 77.0186C49.1971 77.1957 49.2258 77.4041 49.3523 77.5525L49.7328 77.2282ZM73.9093 49.5703C74.0129 49.5703 74.0968 49.6543 74.0968 49.7578H75.0968C75.0968 49.102 74.5651 48.5703 73.9093 48.5703V49.5703ZM73.7218 49.7578C73.7218 49.6543 73.8058 49.5703 73.9093 49.5703V48.5703C73.2535 48.5703 72.7218 49.102 72.7218 49.7578H73.7218ZM73.7218 56.8008V49.7578H72.7218V56.8008H73.7218ZM58.9126 52.3275C64.1048 51.563 69.299 53.3933 72.8591 57.145L73.5845 56.4566C69.802 52.4706 64.2835 50.5259 58.7669 51.3381L58.9126 52.3275ZM45.402 70.5029C44.1138 61.7529 50.1627 53.6157 58.9126 52.3275L58.767 51.3381C49.4706 52.7068 43.044 61.3522 44.4126 70.6485L45.402 70.5029ZM45.6148 70.6611C45.5123 70.6761 45.4171 70.6053 45.402 70.5029L44.4126 70.6485C44.5082 71.2974 45.1116 71.7459 45.7604 71.6504L45.6148 70.6611ZM45.773 70.4483C45.7881 70.5507 45.7172 70.646 45.6148 70.6611L45.7604 71.6504C46.4093 71.5549 46.8578 70.9514 46.7623 70.3026L45.773 70.4483ZM58.9672 52.6985C50.4222 53.9565 44.515 61.9032 45.773 70.4483L46.7623 70.3026C45.5847 62.304 51.1142 54.8654 59.1129 53.6878L58.9672 52.6985ZM58.9725 52.6977L58.9725 52.6977L59.1076 53.6886L59.1076 53.6886L58.9725 52.6977ZM73.1228 57.9974C69.6445 53.9346 64.3049 51.9126 58.9672 52.6985L59.1129 53.6878C64.1091 52.9522 69.1074 54.8449 72.3632 58.6478L73.1228 57.9974ZM64.7007 58.8226H72.743V57.8226H64.7007V58.8226ZM64.5132 59.0101C64.5132 58.9065 64.5972 58.8226 64.7007 58.8226V57.8226C64.0449 57.8226 63.5132 58.3542 63.5132 59.0101H64.5132ZM64.7007 59.1976C64.5972 59.1976 64.5132 59.1136 64.5132 59.0101H63.5132C63.5132 59.6659 64.0449 60.1976 64.7007 60.1976V59.1976ZM73.9093 59.1976H64.7007V60.1976H73.9093V59.1976ZM74.0968 59.0101C74.0968 59.1136 74.0129 59.1976 73.9093 59.1976V60.1976C74.5651 60.1976 75.0968 59.6659 75.0968 59.0101H74.0968ZM74.0968 49.7578V59.0101H75.0968V49.7578H74.0968ZM48.4002 76.5407C48.4002 76.4371 48.4842 76.3532 48.5877 76.3532V75.3532C47.9319 75.3532 47.4002 75.8848 47.4002 76.5407L48.4002 76.5407ZM48.4002 76.8789L48.4002 76.5407L47.4002 76.5407L47.4002 76.8789L48.4002 76.8789ZM48.4 76.9016C48.3999 76.8983 48.3999 76.8951 48.4 76.8918L47.4004 76.866C47.3998 76.8864 47.3998 76.9069 47.4004 76.9274L48.4 76.9016ZM48.4 85.8147L48.4002 76.9145L47.4002 76.9145L47.4 85.8147L48.4 85.8147ZM48.5875 86.0022C48.4839 86.0022 48.4 85.9182 48.4 85.8147L47.4 85.8147C47.3999 86.4705 47.9316 87.0022 48.5874 87.0022L48.5875 86.0022ZM48.775 85.8147C48.775 85.9183 48.691 86.0022 48.5875 86.0022L48.5874 87.0022C49.2433 87.0022 49.7749 86.4706 49.775 85.8147L48.775 85.8147ZM48.7751 78.7747L48.775 85.8147L49.775 85.8147L49.7751 78.7748L48.7751 78.7747ZM63.5875 83.2477C58.394 84.0133 53.1985 82.1829 49.6378 78.4306L48.9125 79.1189C52.6956 83.1057 58.2154 85.0504 63.7333 84.237L63.5875 83.2477ZM77.0945 65.0696C78.3843 73.8193 72.3369 81.9578 63.5874 83.2477L63.7333 84.237C73.0291 82.8666 79.4542 74.2199 78.0838 64.9238L77.0945 65.0696ZM76.8816 64.9115C76.9841 64.8964 77.0794 64.9672 77.0945 65.0696L78.0838 64.9238C77.9881 64.275 77.3846 63.8265 76.7358 63.9222L76.8816 64.9115ZM76.7235 65.1243C76.7084 65.0219 76.7792 64.9266 76.8816 64.9115L76.7358 63.9222C76.087 64.0178 75.6385 64.6214 75.7342 65.2702L76.7235 65.1243ZM63.5328 82.8767C72.0773 81.617 77.9831 73.6691 76.7235 65.1243L75.7342 65.2702C76.9133 73.2686 71.3851 80.7083 63.3869 81.8874L63.5328 82.8767ZM49.3523 77.5525C52.8306 81.6331 58.1827 83.6653 63.5328 82.8767L63.3869 81.8874C58.379 82.6256 53.3691 80.7233 50.1133 76.9038L49.3523 77.5525ZM57.796 76.7282H49.7328V77.7282H57.796V76.7282ZM57.9835 76.5407C57.9835 76.6442 57.8996 76.7282 57.796 76.7282V77.7282C58.4519 77.7282 58.9835 77.1965 58.9835 76.5407H57.9835ZM57.796 76.3532C57.8996 76.3532 57.9835 76.4371 57.9835 76.5407H58.9835C58.9835 75.8848 58.4519 75.3532 57.796 75.3532V76.3532ZM48.5877 76.3532H57.796V75.3532H48.5877V76.3532Z" fill="white"/>
</svg>
