<svg width="120" height="120" viewBox="0 0 120 120" fill="none" xmlns="http://www.w3.org/2000/svg">
<path d="M104.844 19.55L100.469 26.2625L95.5813 33.7625L64.0313 81.9938L54.7438 95.7438C53.3188 97.775 51.6188 99.875 48.9126 99.875C46.4751 99.875 44.7938 98.1188 43.3626 96.4375L16.6376 66.8438L16.1001 66.2188C15.4055 65.311 14.9731 64.2302 14.8501 63.0938C14.4821 59.9337 16.5996 57.0198 19.7188 56.3938C22.0938 55.9501 23.9251 57.0751 25.3876 58.55L44.7626 75.3813C45.408 75.9426 46.2552 76.2149 47.1068 76.1345C47.9583 76.0542 48.7398 75.6284 49.2688 74.9563L56.2001 66.1563L90.4688 22.7125C92.0222 20.7617 94.3942 19.6438 96.8876 19.6875L100.144 19.6438L104.844 19.55Z" fill="#E60000"/>
<mask id="mask0_0_39942" style="mask-type:luminance" maskUnits="userSpaceOnUse" x="14" y="19" width="91" height="81">
<path fill-rule="evenodd" clip-rule="evenodd" d="M104.844 19.55L100.469 26.2625L95.5813 33.7625L64.0313 81.9938L54.7438 95.7438C53.3188 97.775 51.6188 99.875 48.9126 99.875C46.4751 99.875 44.7938 98.1188 43.3626 96.4375L16.6376 66.8438L16.1001 66.2188C15.4055 65.311 14.9731 64.2302 14.8501 63.0938C14.4821 59.9337 16.5996 57.0198 19.7188 56.3938C22.0938 55.9501 23.9251 57.0751 25.3876 58.55L44.7626 75.3813C45.408 75.9426 46.2552 76.2149 47.1068 76.1345C47.9583 76.0542 48.7398 75.6284 49.2688 74.9563L56.2001 66.1563L90.4688 22.7125C92.0222 20.7617 94.3942 19.6438 96.8876 19.6875L100.144 19.6438L104.844 19.55Z" fill="white"/>
</mask>
<g mask="url(#mask0_0_39942)">
<path d="M101.475 24.6875C102.161 24.6873 102.719 24.1339 102.725 23.4477C102.73 22.7614 102.182 22.199 101.496 22.1877C100.809 22.1763 100.242 22.7202 100.225 23.4063C100.217 23.7432 100.345 24.0692 100.58 24.3104C100.815 24.5516 101.138 24.6876 101.475 24.6875Z" fill="#BD0000"/>
<path d="M96.0938 27.5813C95.5846 27.5635 95.1156 27.8565 94.9083 28.3219C94.7009 28.7873 94.7968 29.3319 95.1506 29.6986C95.5044 30.0652 96.0453 30.1804 96.5178 29.9898C96.9903 29.7991 97.2998 29.3408 97.3001 28.8313C97.3005 28.1577 96.767 27.6049 96.0938 27.5813Z" fill="#BD0000"/>
<path d="M96.094 32.9812C95.585 32.9814 95.127 33.2902 94.936 33.7619C94.7449 34.2336 94.8589 34.7741 95.2242 35.1284C95.5895 35.4828 96.1332 35.5803 96.5989 35.3749C97.0645 35.1696 97.3592 34.7024 97.344 34.1937C97.3237 33.518 96.7699 32.9809 96.094 32.9812Z" fill="#BD0000"/>
<path d="M96.094 22.1875C95.4036 22.1875 94.844 22.7471 94.844 23.4375C94.844 24.1279 95.4036 24.6875 96.094 24.6875C96.7844 24.6875 97.344 24.1279 97.344 23.4375C97.344 22.7471 96.7844 22.1875 96.094 22.1875Z" fill="#BD0000"/>
<path d="M90.7064 27.6501C90.2354 27.6425 89.8069 27.9214 89.6231 28.3551C89.4394 28.7888 89.5371 29.2907 89.8702 29.6237C90.2033 29.9568 90.7051 30.0546 91.1388 29.8708C91.5726 29.687 91.8515 29.2585 91.8439 28.7876C91.8275 28.1662 91.3277 27.6665 90.7064 27.6501Z" fill="#BD0000"/>
<path d="M91.844 34.2501C91.8709 33.6123 91.376 33.0734 90.7383 33.046C90.1006 33.0186 89.5614 33.5132 89.5336 34.1509C89.5058 34.7886 90 35.3281 90.6377 35.3563C91.274 35.3776 91.8103 34.8858 91.844 34.2501Z" fill="#BD0000"/>
<path d="M90.7126 22.2438C90.074 22.2266 89.5423 22.7303 89.5251 23.3688C89.5078 24.0074 90.0115 24.5391 90.6501 24.5563C91.2887 24.5736 91.8203 24.0699 91.8376 23.4313C91.8548 22.7928 91.3512 22.2611 90.7126 22.2438Z" fill="#BD0000"/>
<path d="M90.6626 38.4376C90.0585 38.4909 89.5982 39.0018 89.6081 39.6082C89.6179 40.2145 90.0946 40.7102 90.7001 40.7438C91.1323 40.7678 91.5417 40.5484 91.7611 40.1751C91.9804 39.8019 91.9728 39.3374 91.7415 38.9715C91.5102 38.6056 91.0938 38.3996 90.6626 38.4376Z" fill="#BD0000"/>
<path d="M85.3001 27.7251C84.708 27.7218 84.2247 28.1978 84.219 28.7898C84.2134 29.3818 84.6875 29.867 85.2795 29.875C85.8715 29.883 86.3585 29.4108 86.3688 28.8189C86.369 28.2244 85.8944 27.7387 85.3001 27.7251Z" fill="#BD0000"/>
<path d="M85.2877 38.5313C84.6949 38.5347 84.2167 39.0175 84.219 39.6104C84.2213 40.2033 84.7032 40.6824 85.2961 40.6812C85.889 40.6801 86.369 40.1991 86.369 39.6063C86.3656 39.0115 85.8825 38.5312 85.2877 38.5312V38.5313Z" fill="#BD0000"/>
<path d="M85.2815 43.9312C84.6895 43.938 84.2145 44.4223 84.219 45.0144C84.2236 45.6064 84.706 46.0833 85.2981 46.0811C85.8902 46.0788 86.369 45.5982 86.369 45.0062C86.3621 44.4104 85.8773 43.9311 85.2815 43.9312Z" fill="#BD0000"/>
<path d="M85.3439 49.3312C84.9075 49.311 84.5022 49.557 84.3187 49.9536C84.1352 50.3501 84.2099 50.8183 84.5078 51.1379C84.8057 51.4576 85.2674 51.5652 85.6759 51.4101C86.0844 51.255 86.3583 50.868 86.3689 50.4312C86.3766 49.8494 85.9249 49.3646 85.3439 49.3312Z" fill="#BD0000"/>
<path d="M85.2688 33.1313C84.6762 33.1451 84.2066 33.6362 84.2192 34.2289C84.2319 34.8216 84.722 35.2922 85.3147 35.2808C85.9074 35.2694 86.379 34.7803 86.3688 34.1875C86.3552 33.5928 85.8636 33.1208 85.2688 33.1313Z" fill="#BD0000"/>
<path d="M79.9126 60.1999C79.5015 60.1923 79.1266 60.4341 78.9639 60.8117C78.8013 61.1894 78.8832 61.628 79.1713 61.9214C79.4593 62.2149 79.8962 62.305 80.2769 62.1495C80.6575 61.9939 80.9063 61.6236 80.9064 61.2124C80.9132 60.9451 80.8112 60.6865 80.624 60.4956C80.4367 60.3048 80.18 60.1981 79.9126 60.1999Z" fill="#BD0000"/>
<path d="M79.9064 33.1937C79.4952 33.1886 79.1218 33.4327 78.9615 33.8114C78.8012 34.1901 78.8858 34.6281 79.1757 34.9198C79.4656 35.2115 79.9031 35.2989 80.2827 35.141C80.6624 34.983 80.9089 34.6111 80.9064 34.1999C80.9097 33.9331 80.8056 33.6762 80.6176 33.4869C80.4295 33.2977 80.1732 33.192 79.9064 33.1937Z" fill="#BD0000"/>
<path d="M79.925 49.3938C79.5141 49.3811 79.1362 49.6183 78.969 49.9939C78.8017 50.3695 78.8782 50.809 79.1625 51.106C79.4468 51.403 79.8825 51.4986 80.2651 51.3478C80.6476 51.1971 80.901 50.8299 80.9063 50.4188C80.913 50.1525 80.8132 49.8945 80.629 49.7021C80.4448 49.5097 80.1914 49.3987 79.925 49.3938Z" fill="#BD0000"/>
<path d="M79.9189 54.7938C79.5078 54.7836 79.1314 55.0231 78.9664 55.3997C78.8015 55.7764 78.8807 56.2154 79.1669 56.5107C79.4531 56.8059 79.8894 56.8988 80.271 56.7456C80.6526 56.5924 80.9037 56.2237 80.9064 55.8125C80.9131 55.5457 80.8122 55.2875 80.6265 55.0958C80.4407 54.9042 80.1857 54.7954 79.9189 54.7938Z" fill="#BD0000"/>
<path d="M79.9 38.5938C79.3433 38.5906 78.8884 39.0374 78.8817 39.594C78.8749 40.1507 79.3188 40.6084 79.8754 40.6187C80.432 40.6289 80.8925 40.1879 80.9063 39.6313C80.9184 39.3581 80.8173 39.092 80.6269 38.8956C80.4364 38.6993 80.1735 38.5901 79.9 38.5938Z" fill="#BD0000"/>
<path d="M79.8939 43.9938C79.4827 43.9939 79.1124 44.2427 78.9569 44.6233C78.8013 45.004 78.8914 45.4409 79.1849 45.7289C79.4784 46.017 79.9169 46.0989 80.2946 45.9363C80.6723 45.7736 80.9141 45.3987 80.9064 44.9876C80.9065 44.7207 80.7992 44.4651 80.6088 44.2782C80.4184 44.0913 80.1607 43.9888 79.8939 43.9938Z" fill="#BD0000"/>
<path d="M74.4814 71.0811C73.9704 71.088 73.5605 71.5055 73.5628 72.0165C73.5651 72.5275 73.9788 72.9412 74.4898 72.9435C75.0008 72.9458 75.4183 72.5359 75.4252 72.0249C75.4359 71.7715 75.3399 71.5251 75.1605 71.3458C74.9812 71.1664 74.7348 71.0704 74.4814 71.0811Z" fill="#BD0000"/>
<path d="M74.519 54.8751C74.1408 54.8649 73.7941 55.0846 73.6417 55.4309C73.4893 55.7772 73.5615 56.1812 73.8245 56.4532C74.0874 56.7253 74.4888 56.8112 74.84 56.6706C75.1913 56.53 75.4226 56.1909 75.4252 55.8126C75.432 55.5674 75.3397 55.3298 75.1692 55.1534C74.9987 54.977 74.7643 54.8767 74.519 54.8751Z" fill="#BD0000"/>
<path d="M74.4752 49.4749C73.9635 49.4852 73.556 49.9066 73.5628 50.4184C73.5697 50.9302 73.9883 51.3406 74.5001 51.3372C75.012 51.3338 75.4251 50.918 75.4252 50.4062C75.4306 50.1543 75.3316 49.9114 75.1517 49.735C74.9718 49.5586 74.727 49.4645 74.4752 49.4749Z" fill="#BD0000"/>
<path d="M74.4875 65.6812C73.9698 65.6812 73.55 66.1009 73.55 66.6187C73.55 67.1364 73.9698 67.5562 74.4875 67.5562C75.0053 67.5562 75.425 67.1364 75.425 66.6187C75.425 66.1009 75.0053 65.6812 74.4875 65.6812Z" fill="#BD0000"/>
<path d="M73.5938 44.9249C73.566 45.3037 73.771 45.6614 74.1119 45.8289C74.4528 45.9964 74.8612 45.9401 75.1441 45.6866C75.4269 45.4331 75.5275 45.0333 75.3983 44.6762C75.269 44.3191 74.9359 44.0762 74.5563 44.0624C74.0533 44.0375 73.624 44.4222 73.5938 44.9249Z" fill="#BD0000"/>
<path d="M74.5002 60.275C74.1188 60.2699 73.7724 60.4965 73.6241 60.8479C73.4758 61.1993 73.5552 61.6056 73.8249 61.8753C74.0946 62.145 74.5009 62.2245 74.8523 62.0761C75.2037 61.9278 75.4303 61.5814 75.4252 61.2C75.4286 60.9536 75.3323 60.7164 75.1581 60.5422C74.9838 60.368 74.7466 60.2716 74.5002 60.275Z" fill="#BD0000"/>
<path d="M69.9438 61.2249C69.9501 60.7597 69.5812 60.376 69.1161 60.3638C68.651 60.3517 68.2626 60.7156 68.2445 61.1805C68.2265 61.6454 68.5855 62.0384 69.0501 62.0624C69.2818 62.078 69.5095 61.9967 69.679 61.8379C69.8484 61.6791 69.9444 61.4571 69.9438 61.2249Z" fill="#BD0000"/>
<path d="M68.244 82.7562C68.2215 83.1007 68.4097 83.4246 68.7201 83.5757C69.0305 83.7269 69.4015 83.6752 69.6588 83.4451C69.9162 83.2149 70.0087 82.852 69.893 82.5267C69.7774 82.2014 69.4764 81.9784 69.1315 81.9624C68.9078 81.947 68.6875 82.0227 68.5203 82.1721C68.3532 82.3216 68.2536 82.5322 68.244 82.7562Z" fill="#BD0000"/>
<path d="M69.1126 65.7624C68.6432 65.7521 68.2542 66.1242 68.2439 66.5937C68.2335 67.0631 68.6057 67.4521 69.0751 67.4624C69.3059 67.4711 69.53 67.3841 69.6945 67.222C69.859 67.0599 69.9492 66.837 69.9439 66.6062C69.9489 66.383 69.8634 66.1674 69.7068 66.0084C69.5501 65.8494 69.3358 65.7607 69.1126 65.7624Z" fill="#BD0000"/>
<path d="M69.0689 78.2624C69.4148 78.2726 69.7323 78.0721 69.8718 77.7554C70.0112 77.4387 69.9448 77.0691 69.7038 76.8208C69.4628 76.5725 69.0953 76.495 68.7746 76.625C68.4539 76.755 68.244 77.0664 68.2439 77.4124C68.2388 77.635 68.3233 77.8503 68.4784 78.0101C68.6335 78.1699 68.8462 78.2608 69.0689 78.2624Z" fill="#BD0000"/>
<path d="M69.944 50.425C69.9536 49.9591 69.5863 49.5723 69.1205 49.5578C68.6548 49.5433 68.2642 49.9066 68.2449 50.3722C68.2256 50.8378 68.5848 51.2322 69.0502 51.2562C69.2808 51.2718 69.5076 51.1913 69.6769 51.0339C69.8461 50.8765 69.9428 50.6561 69.944 50.425Z" fill="#BD0000"/>
<path d="M69.0751 54.9562C68.6057 54.9665 68.2335 55.3555 68.2439 55.8249C68.2542 56.2944 68.6432 56.6665 69.1126 56.6562C69.3358 56.6579 69.5501 56.5692 69.7068 56.4102C69.8634 56.2512 69.9489 56.0355 69.9439 55.8124C69.9492 55.5815 69.859 55.3587 69.6945 55.1966C69.53 55.0345 69.3059 54.9475 69.0751 54.9562Z" fill="#BD0000"/>
<path d="M69.944 72.0312C69.9536 71.5653 69.5863 71.1785 69.1205 71.164C68.6548 71.1495 68.2642 71.5128 68.2449 71.9784C68.2256 72.444 68.5848 72.8384 69.0502 72.8624C69.2808 72.878 69.5076 72.7975 69.6769 72.6401C69.8461 72.4827 69.9428 72.2623 69.944 72.0312Z" fill="#BD0000"/>
<path d="M63.7001 67.3876C63.9095 67.3913 64.1111 67.308 64.2568 67.1576C64.4025 67.0072 64.4793 66.803 64.4689 66.5938C64.4619 66.1625 64.1066 65.8184 63.6752 65.8253C63.2438 65.8322 62.8997 66.1875 62.9066 66.6189C62.9135 67.0503 63.2688 67.3944 63.7001 67.3876Z" fill="#BD0000"/>
<path d="M63.6814 72.8124C64.1111 72.8191 64.4655 72.4774 64.4746 72.0477C64.4836 71.618 64.1439 71.2617 63.7142 71.2503C63.2846 71.2389 62.9264 71.5766 62.9126 72.0062C62.9005 72.2169 62.9763 72.4233 63.122 72.5761C63.2677 72.7289 63.4703 72.8145 63.6814 72.8124Z" fill="#BD0000"/>
<path d="M63.7001 56.5625C64.1307 56.559 64.4774 56.2077 64.4751 55.7771C64.4728 55.3464 64.1224 54.9989 63.6918 55C63.2611 55.0011 62.9126 55.3506 62.9126 55.7812C62.9073 55.9911 62.9888 56.1939 63.1378 56.3417C63.2869 56.4896 63.4903 56.5694 63.7001 56.5625Z" fill="#BD0000"/>
<path d="M63.6813 88.9938C64.0001 88.9988 64.2899 88.8097 64.4136 88.5158C64.5373 88.222 64.4701 87.8825 64.2438 87.658C64.0174 87.4335 63.6774 87.369 63.3846 87.4951C63.0918 87.6212 62.905 87.9126 62.9126 88.2313C62.9126 88.4346 62.9938 88.6295 63.1381 88.7727C63.2825 88.9159 63.478 88.9955 63.6813 88.9938Z" fill="#BD0000"/>
<path d="M63.7065 61.9874C64.137 61.9805 64.4809 61.6265 64.4751 61.1959C64.4694 60.7653 64.1163 60.4205 63.6857 60.4251C63.255 60.4297 62.9093 60.7818 62.9127 61.2124C62.9091 61.4224 62.9922 61.6245 63.1424 61.7712C63.2926 61.9178 63.4967 61.9961 63.7065 61.9874Z" fill="#BD0000"/>
<path d="M63.7002 83.5938C63.9068 83.5955 64.1053 83.5134 64.2502 83.3661C64.3951 83.2188 64.474 83.0191 64.469 82.8125C64.4328 82.4097 64.0952 82.1011 63.6908 82.1011C63.2864 82.1011 62.9488 82.4097 62.9127 82.8125C62.9092 83.0219 62.9913 83.2235 63.1399 83.371C63.2886 83.5184 63.4909 83.5989 63.7002 83.5938Z" fill="#BD0000"/>
<path d="M63.6938 78.1938C64.1245 78.1938 64.4739 77.8453 64.4751 77.4147C64.4762 76.984 64.1286 76.6337 63.698 76.6314C63.2673 76.6291 62.916 76.9757 62.9126 77.4063C62.9074 77.6156 62.9879 77.818 63.1354 77.9666C63.2828 78.1153 63.4845 78.1973 63.6938 78.1938Z" fill="#BD0000"/>
<path d="M58.3065 65.9375C58.0487 65.9127 57.7991 66.0362 57.6625 66.2563C57.5259 66.4763 57.5259 66.7548 57.6625 66.9749C57.7991 67.1949 58.0487 67.3185 58.3065 67.2937C58.6559 67.2601 58.9226 66.9666 58.9226 66.6156C58.9226 66.2646 58.6559 65.971 58.3065 65.9375Z" fill="#BD0000"/>
<path d="M58.294 76.7375C58.1124 76.7305 57.936 76.7992 57.8068 76.9271C57.6777 77.0551 57.6074 77.2308 57.6128 77.4125C57.588 77.6704 57.7115 77.9199 57.9316 78.0565C58.1516 78.1931 58.4301 78.1931 58.6502 78.0565C58.8702 77.9199 58.9938 77.6704 58.969 77.4125C58.9742 77.232 58.9048 77.0572 58.7771 76.9295C58.6493 76.8017 58.4746 76.7323 58.294 76.7375Z" fill="#BD0000"/>
<path d="M58.2752 82.1376C57.8998 82.1445 57.6008 82.4538 57.6065 82.8291C57.6123 83.2045 57.9206 83.5045 58.296 83.4999C58.6713 83.4954 58.9723 83.188 58.9689 82.8126C58.9851 82.6257 58.9166 82.4414 58.7821 82.3106C58.6477 82.1798 58.4615 82.1163 58.2752 82.1376Z" fill="#BD0000"/>
<path d="M58.2877 87.5374C58.0116 87.5374 57.7628 87.7041 57.6577 87.9594C57.5527 88.2147 57.6121 88.5082 57.8082 88.7026C58.0044 88.8969 58.2984 88.9536 58.5528 88.8462C58.8071 88.7388 58.9715 88.4885 58.9689 88.2124C58.9724 88.0312 58.9016 87.8565 58.7729 87.729C58.6441 87.6015 58.4688 87.5322 58.2877 87.5374Z" fill="#BD0000"/>
<path d="M58.294 92.9376C58.0179 92.9351 57.7675 93.0995 57.6601 93.3538C57.5527 93.6082 57.6094 93.9022 57.8038 94.0983C57.9981 94.2945 58.2916 94.3539 58.547 94.2488C58.8023 94.1438 58.969 93.895 58.969 93.6189C58.9741 93.4378 58.9049 93.2624 58.7773 93.1337C58.6498 93.005 58.4751 92.9341 58.294 92.9376Z" fill="#BD0000"/>
<path d="M58.294 60.5314C58.0179 60.5288 57.7675 60.6932 57.6601 60.9476C57.5527 61.2019 57.6094 61.496 57.8038 61.6921C57.9981 61.8882 58.2916 61.9477 58.547 61.8426C58.8023 61.7375 58.969 61.4887 58.969 61.2126C58.9741 61.0315 58.9049 60.8562 58.7773 60.7275C58.6498 60.5987 58.4751 60.5279 58.294 60.5314Z" fill="#BD0000"/>
<path d="M58.2877 71.3313C58.107 71.3296 57.9334 71.401 57.8062 71.5294C57.6791 71.6577 57.6093 71.832 57.6127 72.0126C57.6127 72.2887 57.7793 72.5375 58.0347 72.6425C58.29 72.7476 58.5835 72.6882 58.7778 72.492C58.9722 72.2959 59.0289 72.0019 58.9215 71.7475C58.8141 71.4932 58.5638 71.3288 58.2877 71.3313Z" fill="#BD0000"/>
<path d="M52.9127 98.4375C52.7543 98.4254 52.5979 98.4787 52.4799 98.585C52.3618 98.6913 52.2924 98.8412 52.2877 99C52.277 99.306 52.5132 99.5644 52.819 99.5812C52.9736 99.595 53.1272 99.5457 53.245 99.4444C53.3627 99.3432 53.4344 99.1987 53.444 99.0437C53.4383 98.7392 53.2139 98.4831 52.9127 98.4375Z" fill="#BD0000"/>
<path d="M52.9065 87.6438C52.5879 87.6403 52.3258 87.894 52.319 88.2126C52.3119 88.5186 52.5507 88.7741 52.8565 88.7876C53.0122 88.8014 53.1667 88.7512 53.2846 88.6486C53.4025 88.5461 53.4736 88.3999 53.4815 88.2438C53.4849 88.088 53.4261 87.9372 53.3183 87.8247C53.2105 87.7122 53.0623 87.6471 52.9065 87.6438Z" fill="#BD0000"/>
<path d="M52.9002 83.3874C53.2188 83.3772 53.4698 83.1123 53.4627 82.7937C53.4593 82.4889 53.2113 82.2436 52.9065 82.2437C52.5962 82.2504 52.3473 82.5021 52.344 82.8124C52.3664 83.1132 52.6004 83.3551 52.9002 83.3874Z" fill="#BD0000"/>
<path d="M52.344 77.4375C52.3456 77.5844 52.406 77.7246 52.5117 77.8268C52.6173 77.9289 52.7595 77.9846 52.9065 77.9812C53.0595 77.9846 53.2073 77.9261 53.3167 77.8191C53.4261 77.7121 53.4877 77.5655 53.4877 77.4125C53.5106 77.1939 53.4069 76.9814 53.2205 76.8649C53.0341 76.7485 52.7976 76.7485 52.6112 76.8649C52.4248 76.9814 52.3211 77.1939 52.344 77.4125V77.4375Z" fill="#BD0000"/>
<path d="M52.894 71.4437C52.7464 71.4386 52.6029 71.4924 52.4951 71.5933C52.3872 71.6941 52.3239 71.8336 52.319 71.9812C52.2895 72.198 52.3855 72.4127 52.5668 72.5352C52.7481 72.6577 52.9832 72.6667 53.1733 72.5584C53.3634 72.4501 53.4756 72.2433 53.4627 72.0249C53.4661 71.8719 53.4077 71.724 53.3006 71.6147C53.1936 71.5053 53.047 71.4436 52.894 71.4437Z" fill="#BD0000"/>
<path d="M52.8752 93.0438C52.5684 93.0505 52.3223 93.2994 52.319 93.6063C52.314 93.8416 52.4529 94.0562 52.6697 94.148C52.8864 94.2397 53.1372 94.1901 53.3027 94.0228C53.4682 93.8554 53.515 93.6041 53.4208 93.3884C53.3266 93.1727 53.1105 93.0361 52.8752 93.0438Z" fill="#BD0000"/>
<path d="M52.894 66.0374C52.6034 66.0461 52.3662 66.2726 52.344 66.5624C52.3286 66.7978 52.4585 67.0187 52.6717 67.1196C52.8849 67.2205 53.1381 67.181 53.3104 67.02C53.4828 66.8589 53.5392 66.6089 53.4529 66.3894C53.3665 66.1699 53.1549 66.0254 52.919 66.0249L52.894 66.0374Z" fill="#BD0000"/>
<path d="M47.5063 93.9689C47.6188 93.9689 47.7813 93.7939 48.0188 93.6189C47.7813 93.4439 47.6375 93.2564 47.5063 93.2626C47.375 93.2689 47.2438 93.4751 47.1125 93.5939C47.2438 93.7251 47.3438 93.9376 47.5063 93.9689Z" fill="#BD0000"/>
<path d="M47.8438 88.2249C47.8438 88.0812 47.625 87.9624 47.5063 87.8374C47.375 87.9687 47.1688 88.0874 47.1375 88.2374C47.1063 88.3874 47.325 88.5062 47.5 88.7437C47.6688 88.4999 47.8563 88.3499 47.8438 88.2249Z" fill="#BD0000"/>
<path d="M47.4751 83.1686C47.6126 83.1686 47.7376 82.9561 47.8689 82.8374C47.7376 82.7061 47.6314 82.4936 47.4751 82.4624C47.3189 82.4311 47.2001 82.6374 46.9626 82.8124C47.2001 82.9874 47.3439 83.1749 47.4751 83.1686Z" fill="#BD0000"/>
<path d="M47.8689 99.0626C47.7376 98.9313 47.6314 98.7251 47.4751 98.6876C47.3189 98.6501 47.2001 98.8688 46.9626 99.0376C47.2001 99.2126 47.3439 99.4063 47.4751 99.3938C47.6064 99.3813 47.7376 99.1563 47.8689 99.0626Z" fill="#BD0000"/>
<path d="M47.5063 77.9438C47.6751 77.7001 47.8688 77.5313 47.8438 77.4188C47.8188 77.3063 47.5938 77.1626 47.4626 77.0376C47.3438 77.1688 47.1438 77.3001 47.1376 77.4376C47.1313 77.5751 47.3438 77.7063 47.5063 77.9438Z" fill="#BD0000"/>
</g>
</svg>
