<svg width="120" height="120" viewBox="0 0 120 120" fill="none" xmlns="http://www.w3.org/2000/svg">
<path d="M49.0625 21.6062L14.0625 86.4125C11.9494 90.2849 12.0339 94.9843 14.2849 98.7782C16.5358 102.572 20.6198 104.899 25.0312 104.9H95.0312C99.4314 104.877 103.495 102.541 105.731 98.7514C107.967 94.9615 108.045 90.2751 105.937 86.4125L70.9375 21.6062C68.736 17.6273 64.5473 15.1578 60 15.1578C55.4526 15.1578 51.264 17.6273 49.0625 21.6062Z" fill="#E60000"/>
<mask id="mask0_0_18908" style="mask-type:luminance" maskUnits="userSpaceOnUse" x="12" y="15" width="96" height="90">
<path fill-rule="evenodd" clip-rule="evenodd" d="M49.0625 21.6062L14.0625 86.4125C11.9494 90.2849 12.0339 94.9843 14.2849 98.7782C16.5358 102.572 20.6198 104.899 25.0312 104.9H95.0312C99.4314 104.877 103.495 102.541 105.731 98.7514C107.967 94.9615 108.045 90.2751 105.937 86.4125L70.9375 21.6062C68.736 17.6273 64.5473 15.1578 60 15.1578C55.4526 15.1578 51.264 17.6273 49.0625 21.6062Z" fill="white"/>
</mask>
<g mask="url(#mask0_0_18908)">
<path d="M87.2874 55.3438C86.6947 55.3576 86.2252 55.8487 86.2378 56.4414C86.2504 57.0341 86.7405 57.5047 87.3332 57.4933C87.926 57.4818 88.3976 56.9927 88.3874 56.4C88.3704 55.8067 87.8809 55.3367 87.2874 55.3438Z" fill="#BD0000"/>
<path d="M87.3313 49.9437C86.7385 49.9336 86.2494 50.4052 86.238 50.9979C86.2266 51.5906 86.6972 52.0807 87.2899 52.0933C87.8826 52.106 88.3736 51.6364 88.3875 51.0437C88.3946 50.4503 87.9245 49.9608 87.3313 49.9437Z" fill="#BD0000"/>
<path d="M81.9063 55.4062C81.3496 55.4097 80.9001 55.862 80.9001 56.4188C80.9002 56.9755 81.3497 57.4278 81.9064 57.4312C82.4631 57.4346 82.9182 56.9879 82.9251 56.4312C82.9338 56.1579 82.8294 55.8931 82.6367 55.6991C82.4439 55.5052 82.1797 55.3992 81.9063 55.4062Z" fill="#BD0000"/>
<path d="M81.9312 44.6063C81.5195 44.5986 81.1441 44.8411 80.9819 45.2196C80.8196 45.598 80.9027 46.0371 81.192 46.33C81.4814 46.623 81.9193 46.7116 82.2998 46.5541C82.6802 46.3965 82.9274 46.0243 82.9249 45.6125C82.93 45.3463 82.8273 45.0893 82.6402 44.8998C82.4531 44.7104 82.1974 44.6045 81.9312 44.6063Z" fill="#BD0000"/>
<path d="M81.95 39.2C81.5391 39.1849 81.1599 39.4197 80.9903 39.7942C80.8207 40.1688 80.8945 40.6087 81.1769 40.9074C81.4594 41.2062 81.8945 41.3045 82.2779 41.1561C82.6614 41.0078 82.9171 40.6423 82.925 40.2313C82.9334 39.9649 82.8352 39.7063 82.6521 39.5127C82.4691 39.3191 82.2163 39.2065 81.95 39.2Z" fill="#BD0000"/>
<path d="M81.95 50.0062C81.5391 49.9911 81.1599 50.2259 80.9903 50.6005C80.8207 50.975 80.8945 51.4149 81.1769 51.7137C81.4594 52.0124 81.8945 52.1107 82.2779 51.9624C82.6614 51.814 82.9171 51.4486 82.925 51.0375C82.9334 50.7712 82.8352 50.5125 82.6521 50.3189C82.4691 50.1253 82.2163 50.0128 81.95 50.0062Z" fill="#BD0000"/>
<path d="M76.5187 55.4875C76.1404 55.485 75.7981 55.7116 75.6528 56.061C75.5074 56.4103 75.5879 56.8128 75.8563 57.0794C76.1248 57.3461 76.5278 57.4238 76.8762 57.2761C77.2245 57.1283 77.4488 56.7846 77.4437 56.4062C77.4454 56.161 77.3483 55.9253 77.1743 55.7525C77.0003 55.5796 76.764 55.4841 76.5187 55.4875Z" fill="#BD0000"/>
<path d="M77.4437 34.8937C77.4757 34.5173 77.277 34.1587 76.9409 33.9863C76.6047 33.8138 76.1976 33.8615 75.9104 34.1071C75.6233 34.3527 75.513 34.7475 75.6313 35.1064C75.7496 35.4652 76.073 35.717 76.4499 35.7437C76.6948 35.7644 76.9377 35.6862 77.1244 35.5264C77.3112 35.3667 77.4261 35.1388 77.4437 34.8937Z" fill="#BD0000"/>
<path d="M76.5624 50.0875C76.1837 50.0748 75.8351 50.2928 75.6807 50.6388C75.5263 50.9848 75.5969 51.3898 75.8593 51.6631C76.1217 51.9365 76.5235 52.0236 76.8756 51.8834C77.2276 51.7433 77.4596 51.4039 77.4624 51.025C77.4691 50.7808 77.3776 50.5442 77.2085 50.368C77.0393 50.1918 76.8066 50.0908 76.5624 50.0875Z" fill="#BD0000"/>
<path d="M76.5186 44.6875C76.2662 44.6822 76.0227 44.781 75.8454 44.9607C75.668 45.1404 75.5725 45.3852 75.5811 45.6375C75.5897 46.1553 76.0165 46.568 76.5342 46.5594C77.052 46.5507 77.4647 46.124 77.4561 45.6062C77.4562 45.3593 77.3568 45.1227 77.1804 44.9499C77.004 44.777 76.7655 44.6824 76.5186 44.6875Z" fill="#BD0000"/>
<path d="M76.5 39.2812C75.9882 39.2881 75.5779 39.7068 75.5813 40.2186C75.5847 40.7305 76.0006 41.1436 76.5125 41.1437C77.0244 41.1437 77.4403 40.7306 77.4438 40.2187C77.449 39.9674 77.351 39.725 77.1727 39.5478C76.9944 39.3707 76.7513 39.2744 76.5 39.2812Z" fill="#BD0000"/>
<path d="M71.0751 46.4625C71.5445 46.4832 71.9419 46.1194 71.9626 45.65C71.9833 45.1806 71.6195 44.7832 71.1501 44.7625C70.6806 44.7418 70.2833 45.1056 70.2626 45.575C70.2419 46.0444 70.6056 46.4418 71.0751 46.4625Z" fill="#BD0000"/>
<path d="M71.1061 57.2687C71.5731 57.272 71.9552 56.8979 71.9619 56.431C71.9687 55.9641 71.5975 55.5792 71.1307 55.569C70.6638 55.5587 70.2761 55.927 70.2624 56.3937C70.2502 56.6239 70.3341 56.8487 70.4941 57.0146C70.6541 57.1805 70.8757 57.2725 71.1061 57.2687Z" fill="#BD0000"/>
<path d="M70.2625 40.15C70.2376 40.4943 70.4234 40.8194 70.7327 40.9728C71.0419 41.1261 71.4132 41.0772 71.6722 40.849C71.9312 40.6208 72.0265 40.2586 71.9133 39.9325C71.8001 39.6064 71.5009 39.3812 71.1562 39.3625C70.933 39.3471 70.7128 39.4217 70.5449 39.5696C70.377 39.7176 70.2753 39.9266 70.2625 40.15Z" fill="#BD0000"/>
<path d="M71.1312 23.1625C70.6617 23.1521 70.2728 23.5243 70.2624 23.9938C70.2521 24.4632 70.6242 24.8521 71.0937 24.8625C71.3244 24.8712 71.5486 24.7842 71.713 24.6221C71.8775 24.46 71.9678 24.2371 71.9624 24.0063C71.9675 23.7831 71.882 23.5675 71.7253 23.4085C71.5687 23.2495 71.3543 23.1608 71.1312 23.1625Z" fill="#BD0000"/>
<path d="M71.1251 51.8687C71.3483 51.8687 71.5622 51.7797 71.7195 51.6212C71.8767 51.4628 71.9642 51.2482 71.9626 51.025C71.9626 50.5555 71.582 50.175 71.1126 50.175C70.6431 50.175 70.2626 50.5555 70.2626 51.025C70.259 51.2531 70.3493 51.4727 70.5124 51.6323C70.6755 51.7918 70.897 51.8773 71.1251 51.8687Z" fill="#BD0000"/>
<path d="M71.0874 35.6625C71.4333 35.6727 71.7508 35.4721 71.8903 35.1555C72.0298 34.8388 71.9634 34.4692 71.7224 34.2209C71.4814 33.9725 71.1139 33.8951 70.7932 34.0251C70.4725 34.155 70.2626 34.4665 70.2624 34.8125C70.2574 35.0351 70.3419 35.2504 70.497 35.4102C70.6521 35.57 70.8648 35.6609 71.0874 35.6625Z" fill="#BD0000"/>
<path d="M71.9625 29.4312C71.9724 28.9645 71.6039 28.5771 71.1372 28.5637C70.6705 28.5502 70.2804 28.9157 70.2633 29.3822C70.2462 29.8488 70.6086 30.2418 71.075 30.2625C71.3051 30.2781 71.5312 30.1975 71.6995 30.0398C71.8678 29.8822 71.963 29.6618 71.9625 29.4312Z" fill="#BD0000"/>
<path d="M65.6936 50.2375C65.2639 50.2478 64.9233 50.6033 64.9313 51.033C64.9393 51.4628 65.2929 51.8054 65.7227 51.7997C66.1525 51.7941 66.4969 51.4423 66.4936 51.0125C66.4955 50.802 66.411 50.5999 66.2598 50.4535C66.1086 50.307 65.904 50.2289 65.6936 50.2375Z" fill="#BD0000"/>
<path d="M65.7188 24.7875C65.9287 24.7911 66.1309 24.708 66.2775 24.5578C66.4242 24.4076 66.5025 24.2035 66.4938 23.9937C66.4938 23.5623 66.144 23.2125 65.7126 23.2125C65.2811 23.2125 64.9313 23.5623 64.9313 23.9937C64.9225 24.2057 65.0024 24.4118 65.1519 24.5625C65.3013 24.7131 65.5068 24.7946 65.7188 24.7875Z" fill="#BD0000"/>
<path d="M65.6998 30.1937C66.1296 30.2004 66.484 29.8587 66.493 29.429C66.5021 28.9993 66.1623 28.643 65.7327 28.6316C65.3031 28.6202 64.9449 28.9579 64.9311 29.3875C64.9208 29.5978 64.9973 29.8031 65.1426 29.9555C65.2879 30.1079 65.4893 30.194 65.6998 30.1937Z" fill="#BD0000"/>
<path d="M66.4938 56.4375C66.5063 56.1213 66.3268 55.8288 66.0392 55.6967C65.7516 55.5646 65.4128 55.6191 65.1811 55.8346C64.9493 56.0502 64.8706 56.3842 64.9815 56.6806C65.0925 56.977 65.3713 57.1771 65.6876 57.1875C65.8951 57.1994 66.0985 57.1261 66.2507 56.9845C66.4029 56.843 66.4907 56.6454 66.4938 56.4375Z" fill="#BD0000"/>
<path d="M65.6999 46.3938C66.0186 46.3988 66.3085 46.2096 66.4322 45.9158C66.5559 45.6219 66.4887 45.2824 66.2623 45.0579C66.036 44.8334 65.6959 44.769 65.4031 44.8951C65.1103 45.0212 64.9235 45.3125 64.9311 45.6313C64.9346 46.0534 65.2777 46.3938 65.6999 46.3938Z" fill="#BD0000"/>
<path d="M65.7249 19.3875C66.1555 19.3806 66.4993 19.0266 66.4936 18.5959C66.4879 18.1653 66.1348 17.8206 65.7041 17.8251C65.2735 17.8297 64.9278 18.1819 64.9312 18.6125C64.9294 18.8219 65.013 19.0229 65.1628 19.1692C65.3127 19.3155 65.5157 19.3943 65.7249 19.3875Z" fill="#BD0000"/>
<path d="M65.7187 40.9938C65.9286 40.9939 66.1296 40.9088 66.2757 40.758C66.4218 40.6072 66.5004 40.4036 66.4937 40.1938C66.4833 39.7641 66.1279 39.4234 65.6981 39.4314C65.2684 39.4394 64.9258 39.793 64.9315 40.2228C64.9371 40.6526 65.2889 40.9971 65.7187 40.9938Z" fill="#BD0000"/>
<path d="M65.7124 35.5938C66.143 35.5937 66.4925 35.2452 66.4936 34.8146C66.4948 34.3839 66.1472 34.0336 65.7165 34.0313C65.2859 34.029 64.9346 34.3756 64.9311 34.8063C64.926 35.0156 65.0065 35.2179 65.1539 35.3665C65.3014 35.5152 65.5031 35.5972 65.7124 35.5938Z" fill="#BD0000"/>
<path d="M60.3124 23.3312C60.0365 23.3237 59.7832 23.4834 59.6712 23.7358C59.5591 23.9881 59.6105 24.2831 59.8011 24.4827C59.9918 24.6824 60.2841 24.7472 60.5413 24.6469C60.7985 24.5466 60.9698 24.301 60.9749 24.025C60.9957 23.8409 60.9338 23.6572 60.8059 23.5232C60.678 23.3893 60.4973 23.319 60.3124 23.3312Z" fill="#BD0000"/>
<path d="M60.3124 34.1375C60.1291 34.1221 59.9484 34.1883 59.8183 34.3184C59.6882 34.4484 59.6221 34.6292 59.6374 34.8125C59.6374 35.0537 59.7661 35.2765 59.9749 35.3971C60.1838 35.5176 60.4411 35.5176 60.6499 35.3971C60.8588 35.2765 60.9874 35.0537 60.9874 34.8125C61.0028 34.6292 60.9366 34.4484 60.8066 34.3184C60.6765 34.1883 60.4957 34.1221 60.3124 34.1375Z" fill="#BD0000"/>
<path d="M60.3124 39.5375C60.134 39.5364 59.9637 39.6116 59.8442 39.7442C59.7248 39.8767 59.6678 40.0539 59.6874 40.2312C59.6977 40.604 60.0083 40.8979 60.3811 40.8875C60.7539 40.8771 61.0477 40.5665 61.0374 40.1937C61.0494 40.0038 60.9742 39.8186 60.8331 39.6909C60.6919 39.5631 60.5003 39.5067 60.3124 39.5375Z" fill="#BD0000"/>
<path d="M60.3125 44.9375C60.0358 44.935 59.7851 45.1 59.6781 45.3551C59.571 45.6103 59.6289 45.9048 59.8246 46.1004C60.0202 46.2961 60.3147 46.354 60.5698 46.2469C60.825 46.1399 60.99 45.8892 60.9875 45.6125C60.9927 45.4319 60.9233 45.2572 60.7956 45.1294C60.6678 45.0017 60.4931 44.9323 60.3125 44.9375Z" fill="#BD0000"/>
<path d="M60.3124 55.7375C60.1314 55.7289 59.9547 55.7949 59.8236 55.9201C59.6925 56.0453 59.6185 56.2187 59.6187 56.4C59.612 56.6411 59.7344 56.8676 59.9399 56.9939C60.1454 57.1203 60.4027 57.1275 60.6149 57.0127C60.8271 56.8979 60.962 56.6786 60.9687 56.4375C60.9808 56.256 60.917 56.0776 60.7926 55.9449C60.6682 55.8122 60.4943 55.7371 60.3124 55.7375Z" fill="#BD0000"/>
<path d="M60.3125 50.3125C60.0364 50.31 59.7861 50.4743 59.6787 50.7287C59.5713 50.983 59.628 51.2771 59.8223 51.4732C60.0167 51.6693 60.3102 51.7288 60.5655 51.6237C60.8208 51.5186 60.9875 51.2698 60.9875 50.9937C60.9945 50.8121 60.9259 50.6357 60.7979 50.5066C60.67 50.3774 60.4942 50.3072 60.3125 50.3125Z" fill="#BD0000"/>
<path d="M60.3125 17.9312C60.0364 17.9287 59.7861 18.0931 59.6787 18.3474C59.5713 18.6018 59.628 18.8958 59.8223 19.092C60.0167 19.2881 60.3102 19.3475 60.5655 19.2425C60.8208 19.1374 60.9875 18.8886 60.9875 18.6125C60.9945 18.4309 60.9259 18.2544 60.7979 18.1253C60.67 17.9962 60.4942 17.9259 60.3125 17.9312Z" fill="#BD0000"/>
<path d="M60.3125 28.7312C60.0364 28.7287 59.7861 28.8931 59.6787 29.1474C59.5713 29.4018 59.628 29.6958 59.8223 29.892C60.0167 30.0881 60.3102 30.1475 60.5655 30.0425C60.8208 29.9374 60.9875 29.6886 60.9875 29.4125C60.9945 29.2308 60.9259 29.0544 60.7979 28.9253C60.67 28.7962 60.4942 28.7259 60.3125 28.7312Z" fill="#BD0000"/>
<path d="M54.9311 55.8438C54.7786 55.8404 54.631 55.8978 54.5208 56.0033C54.4106 56.1088 54.3469 56.2537 54.3436 56.4063C54.3368 56.5538 54.389 56.698 54.4887 56.8071C54.5883 56.9161 54.7273 56.981 54.8749 56.9875C55.0291 56.9996 55.1818 56.9496 55.2991 56.8487C55.4164 56.7478 55.4887 56.6043 55.4999 56.45C55.4916 56.1329 55.2471 55.8722 54.9311 55.8438Z" fill="#BD0000"/>
<path d="M54.9312 45.0438C54.7771 45.0387 54.6276 45.0963 54.5168 45.2036C54.4061 45.3108 54.3436 45.4584 54.3437 45.6125C54.3365 45.9162 54.5716 46.1707 54.8749 46.1875C55.0302 46.1995 55.1838 46.1487 55.3013 46.0465C55.4188 45.9443 55.4903 45.7992 55.4999 45.6438C55.4886 45.329 55.2448 45.0719 54.9312 45.0438Z" fill="#BD0000"/>
<path d="M54.9187 40.7875C55.078 40.7846 55.2291 40.7157 55.3357 40.5972C55.4424 40.4787 55.495 40.3213 55.4812 40.1625C55.4812 40.0155 55.4224 39.8747 55.3179 39.7714C55.2134 39.668 55.0719 39.6108 54.9249 39.6125C54.6063 39.609 54.3442 39.8627 54.3374 40.1812C54.3463 40.5028 54.5978 40.7651 54.9187 40.7875Z" fill="#BD0000"/>
<path d="M54.9125 18.0375C54.76 18.0391 54.6144 18.1013 54.5078 18.2103C54.4011 18.3193 54.3421 18.4662 54.3438 18.6187C54.3421 18.7663 54.3991 18.9084 54.5023 19.0139C54.6054 19.1194 54.7463 19.1796 54.8938 19.1812C55.1124 19.2041 55.3249 19.1004 55.4413 18.914C55.5578 18.7276 55.5578 18.4911 55.4413 18.3047C55.3249 18.1183 55.1124 18.0146 54.8938 18.0375H54.9125Z" fill="#BD0000"/>
<path d="M54.3436 34.8375C54.3452 34.9845 54.4056 35.1247 54.5113 35.2268C54.617 35.329 54.7591 35.3846 54.9061 35.3813C55.0586 35.3829 55.2055 35.3239 55.3145 35.2173C55.4235 35.1106 55.4857 34.965 55.4873 34.8125C55.4628 34.5009 55.2119 34.2553 54.8998 34.2375C54.5812 34.251 54.333 34.5188 54.3436 34.8375Z" fill="#BD0000"/>
<path d="M54.9125 28.8437C54.7656 28.8387 54.6227 28.8927 54.5158 28.9937C54.409 29.0947 54.347 29.2343 54.3437 29.3812C54.3317 29.5375 54.3834 29.6921 54.4869 29.8097C54.5905 29.9274 54.7372 29.9983 54.8937 30.0062C55.2159 30.0079 55.4865 29.7643 55.5187 29.4437C55.5261 29.2814 55.4643 29.1235 55.3488 29.0092C55.2333 28.8949 55.0748 28.8348 54.9125 28.8437Z" fill="#BD0000"/>
<path d="M54.8936 50.4437C54.7461 50.4454 54.6053 50.5056 54.5021 50.6111C54.399 50.7166 54.342 50.8587 54.3436 51.0062C54.3403 51.1592 54.3987 51.3071 54.5057 51.4165C54.6128 51.5259 54.7594 51.5875 54.9124 51.5875C55.131 51.6104 55.3435 51.5067 55.4599 51.3203C55.5764 51.1339 55.5764 50.8974 55.4599 50.711C55.3435 50.5246 55.131 50.4209 54.9124 50.4437H54.8936Z" fill="#BD0000"/>
<path d="M54.9188 23.4375C54.7712 23.4324 54.6277 23.4862 54.5199 23.5871C54.412 23.6879 54.3487 23.8274 54.3438 23.975C54.33 24.1307 54.3802 24.2852 54.4827 24.4031C54.5853 24.521 54.7315 24.5921 54.8875 24.6C55.2076 24.6019 55.4773 24.3618 55.5125 24.0437C55.5195 23.8831 55.4596 23.7268 55.3471 23.6119C55.2346 23.497 55.0795 23.4339 54.9188 23.4375Z" fill="#BD0000"/>
<path d="M49.525 51.3688C49.6375 51.3688 49.8 51.1938 50.0437 51.0188C49.8062 50.8438 49.6562 50.6563 49.525 50.6625C49.3937 50.6688 49.2625 50.875 49.1375 50.9938C49.2625 51.125 49.375 51.3375 49.525 51.3688Z" fill="#BD0000"/>
<path d="M49.8687 45.6188C49.8687 45.4813 49.65 45.3625 49.525 45.2375C49.3937 45.3688 49.1875 45.4875 49.1625 45.6375C49.1375 45.7875 49.3437 45.9063 49.5187 46.1438C49.6875 45.9 49.8812 45.75 49.8687 45.6188Z" fill="#BD0000"/>
<path d="M49.5 40.5687C49.6375 40.5687 49.7625 40.3562 49.8875 40.2375C49.7625 40.1062 49.65 39.8937 49.5 39.8625C49.35 39.8312 49.225 40.0375 48.9812 40.2125C49.2187 40.3875 49.3687 40.575 49.5 40.5687Z" fill="#BD0000"/>
<path d="M49.8875 56.4375C49.7625 56.3063 49.65 56.1 49.5 56.0625C49.35 56.025 49.225 56.2438 48.9812 56.4125C49.2187 56.5875 49.3687 56.7813 49.5 56.7688C49.6312 56.7563 49.7625 56.5625 49.8875 56.4375Z" fill="#BD0000"/>
<path d="M49.525 35.3438C49.6938 35.1 49.8938 34.9312 49.8625 34.8187C49.8313 34.7063 49.6188 34.5625 49.4813 34.4375C49.3688 34.5687 49.1688 34.6938 49.1625 34.8375C49.1563 34.9812 49.3438 35.1062 49.525 35.3438Z" fill="#BD0000"/>
<path d="M49.8687 29.4187C49.8687 29.2812 49.65 29.1625 49.525 29.0312C49.3937 29.1625 49.1875 29.2812 49.1625 29.4313C49.1375 29.5813 49.3437 29.7063 49.5187 29.9438C49.6875 29.6875 49.8812 29.55 49.8687 29.4187Z" fill="#BD0000"/>
<path d="M49.1375 23.9875C49.2625 24.1187 49.375 24.3312 49.525 24.3625C49.675 24.3937 49.8 24.1875 50.0437 24.0125C49.8062 23.8375 49.6562 23.65 49.525 23.6562C49.3937 23.6625 49.2625 23.8687 49.1375 23.9875Z" fill="#BD0000"/>
<path d="M103.531 98.9C102.841 98.9 102.281 99.4596 102.281 100.15C102.281 100.84 102.841 101.4 103.531 101.4C104.222 101.4 104.781 100.84 104.781 100.15C104.781 99.4596 104.222 98.9 103.531 98.9Z" fill="#BD0000"/>
<path d="M103.519 93.5C102.828 93.5 102.269 94.0596 102.269 94.75C102.269 95.4404 102.828 96 103.519 96C104.209 96 104.769 95.4404 104.769 94.75C104.769 94.0596 104.209 93.5 103.519 93.5Z" fill="#BD0000"/>
<path d="M103.506 90.6062C104.196 90.6062 104.756 90.0466 104.756 89.3562C104.756 88.6659 104.196 88.1062 103.506 88.1062C102.816 88.1062 102.256 88.6659 102.256 89.3562C102.256 90.0466 102.816 90.6062 103.506 90.6062Z" fill="#BD0000"/>
<path d="M103.488 82.7C102.797 82.7 102.238 83.2596 102.238 83.95C102.238 84.6404 102.797 85.2 103.488 85.2C104.178 85.2 104.738 84.6404 104.738 83.95C104.738 83.2596 104.178 82.7 103.488 82.7Z" fill="#BD0000"/>
<path d="M98.1248 104.338C97.6157 104.32 97.1466 104.613 96.9393 105.078C96.7319 105.543 96.8278 106.088 97.1816 106.455C97.5354 106.821 98.0763 106.937 98.5488 106.746C99.0213 106.555 99.3308 106.097 99.3311 105.588C99.3315 104.914 98.798 104.361 98.1248 104.338Z" fill="#BD0000"/>
<path d="M98.1062 93.5375C97.5972 93.5377 97.1392 93.8465 96.9482 94.3182C96.7571 94.7899 96.8711 95.3304 97.2364 95.6847C97.6017 96.0391 98.1454 96.1366 98.6111 95.9312C99.0768 95.7259 99.3714 95.2587 99.3562 94.75C99.3359 94.0743 98.7821 93.5372 98.1062 93.5375Z" fill="#BD0000"/>
<path d="M98.1062 88.1313C97.5972 88.1315 97.1392 88.4403 96.9482 88.912C96.7571 89.3837 96.8711 89.9241 97.2364 90.2785C97.6017 90.6329 98.1454 90.7303 98.6111 90.525C99.0768 90.3196 99.3714 89.8525 99.3562 89.3438C99.3359 88.6681 98.7821 88.131 98.1062 88.1313Z" fill="#BD0000"/>
<path d="M98.0999 71.9312C97.5904 71.9316 97.1321 72.2411 96.9414 72.7135C96.7508 73.186 96.866 73.7269 97.2326 74.0807C97.5992 74.4345 98.1439 74.5304 98.6093 74.3231C99.0747 74.1157 99.3677 73.6467 99.3499 73.1375C99.3263 72.4643 98.7735 71.9308 98.0999 71.9312Z" fill="#BD0000"/>
<path d="M98.1186 98.9375C97.6099 98.9222 97.1427 99.2169 96.9374 99.6826C96.732 100.148 96.8295 100.692 97.1838 101.057C97.5382 101.423 98.0787 101.537 98.5504 101.345C99.0221 101.154 99.3309 100.696 99.3311 100.187C99.3314 99.5115 98.7943 98.9578 98.1186 98.9375Z" fill="#BD0000"/>
<path d="M98.1248 82.7312C97.6157 82.7134 97.1466 83.0064 96.9393 83.4718C96.7319 83.9372 96.8278 84.4819 97.1816 84.8485C97.5354 85.2151 98.0763 85.3303 98.5488 85.1397C99.0213 84.949 99.3308 84.4907 99.3311 83.9812C99.3315 83.3076 98.798 82.7548 98.1248 82.7312Z" fill="#BD0000"/>
<path d="M98.1436 77.3313C97.6331 77.3057 97.1585 77.5935 96.9452 78.058C96.7318 78.5225 96.8228 79.0701 97.1748 79.4406C97.5269 79.8112 98.0691 79.9301 98.5439 79.7409C99.0187 79.5516 99.3304 79.0924 99.3311 78.5813C99.3319 77.9146 98.8094 77.3646 98.1436 77.3313Z" fill="#BD0000"/>
<path d="M92.7437 93.6C92.2734 93.5873 91.8423 93.8608 91.6534 94.2917C91.4646 94.7226 91.5556 95.225 91.8837 95.5621C92.2118 95.8993 92.7115 96.0041 93.1474 95.8272C93.5833 95.6502 93.8685 95.2267 93.8687 94.7563C93.8593 94.1336 93.3658 93.6264 92.7437 93.6Z" fill="#BD0000"/>
<path d="M92.6999 104.406C92.0622 104.413 91.5505 104.935 91.5562 105.573C91.5619 106.211 92.083 106.723 92.7207 106.719C93.3584 106.714 93.872 106.194 93.8686 105.556C93.8584 104.918 93.3381 104.406 92.6999 104.406Z" fill="#BD0000"/>
<path d="M92.725 66.5938C92.2546 66.5887 91.828 66.8693 91.6462 67.3032C91.4644 67.7372 91.5637 68.238 91.8973 68.5698C92.2309 68.9015 92.7323 68.9981 93.1652 68.8139C93.5982 68.6298 93.8764 68.2017 93.8688 67.7313C93.8491 67.1089 93.3474 66.61 92.725 66.5938Z" fill="#BD0000"/>
<path d="M92.7562 88.2C92.2855 88.1822 91.8511 88.4516 91.6579 88.8812C91.4647 89.3108 91.5514 89.8146 91.8771 90.1548C92.2027 90.4951 92.7022 90.6039 93.1399 90.4298C93.5775 90.2556 93.8658 89.8335 93.8687 89.3625C93.8599 88.7433 93.3744 88.236 92.7562 88.2Z" fill="#BD0000"/>
<path d="M93.8686 73.1937C93.8921 72.5567 93.3955 72.0208 92.7585 71.9957C92.1215 71.9707 91.5844 72.4661 91.5579 73.103C91.5314 73.74 92.0255 74.2782 92.6624 74.3062C93.2984 74.3208 93.8318 73.8289 93.8686 73.1937Z" fill="#BD0000"/>
<path d="M92.6875 82.8125C92.0499 82.8264 91.544 83.3538 91.5566 83.9914C91.5693 84.629 92.0957 85.136 92.7334 85.1245C93.371 85.1131 93.8789 84.5876 93.8688 83.95C93.8517 83.3119 93.3258 82.8054 92.6875 82.8125Z" fill="#BD0000"/>
<path d="M92.7375 61.1937C92.0999 61.1802 91.5718 61.6853 91.557 62.3229C91.5421 62.9604 92.0462 63.4895 92.6837 63.5056C93.3212 63.5217 93.8513 63.0187 93.8687 62.3812C93.8793 61.7429 93.3756 61.2141 92.7375 61.1937Z" fill="#BD0000"/>
<path d="M92.6875 77.4C92.0499 77.4139 91.544 77.9413 91.5566 78.5789C91.5693 79.2165 92.0957 79.7235 92.7334 79.712C93.371 79.7006 93.8789 79.1751 93.8688 78.5375C93.8517 77.8994 93.3258 77.393 92.6875 77.4Z" fill="#BD0000"/>
<path d="M92.7123 99C92.0754 99 91.5584 99.5152 91.5562 100.152C91.5539 100.789 92.0672 101.308 92.7041 101.312C93.341 101.317 93.8617 100.806 93.8686 100.169C93.8653 99.5295 93.3515 99.0102 92.7123 99V99Z" fill="#BD0000"/>
<path d="M87.3063 93.6812C86.7142 93.6847 86.2364 94.1662 86.2376 94.7583C86.2387 95.3504 86.7184 95.8301 87.3105 95.8312C87.9025 95.8324 88.3841 95.3546 88.3875 94.7625C88.3841 94.1668 87.902 93.6847 87.3063 93.6812V93.6812Z" fill="#BD0000"/>
<path d="M87.3249 66.675C86.7321 66.6682 86.2456 67.1426 86.2376 67.7354C86.2297 68.3282 86.7031 68.8156 87.2959 68.8248C87.8887 68.834 88.377 68.3615 88.3874 67.7687C88.391 67.1753 87.9181 66.6886 87.3249 66.675Z" fill="#BD0000"/>
<path d="M87.3063 77.475C86.7142 77.4785 86.2364 77.96 86.2376 78.5521C86.2387 79.1442 86.7184 79.6238 87.3105 79.625C87.9025 79.6261 88.3841 79.1483 88.3875 78.5563C88.3841 77.9605 87.902 77.4784 87.3063 77.475V77.475Z" fill="#BD0000"/>
<path d="M87.3188 61.275C86.7241 61.275 86.241 61.7553 86.2375 62.35C86.2375 62.9437 86.7188 63.425 87.3125 63.425C87.9063 63.425 88.3875 62.9437 88.3875 62.35C88.3842 61.7601 87.9086 61.2818 87.3188 61.275Z" fill="#BD0000"/>
<path d="M87.3436 104.481C86.9062 104.469 86.5047 104.722 86.3284 105.123C86.1521 105.523 86.2362 105.991 86.5411 106.305C86.8459 106.619 87.3106 106.716 87.7162 106.552C88.1217 106.388 88.3871 105.994 88.3873 105.556C88.378 104.978 87.9209 104.508 87.3436 104.481Z" fill="#BD0000"/>
<path d="M87.3063 82.8813C86.7134 82.8847 86.2353 83.3675 86.2376 83.9604C86.2399 84.5533 86.7217 85.0324 87.3146 85.0312C87.9075 85.0301 88.3875 84.5491 88.3875 83.9563C88.3841 83.3615 87.901 82.8812 87.3063 82.8813Z" fill="#BD0000"/>
<path d="M87.3376 99.0625C86.9001 99.0523 86.5001 99.3084 86.3261 99.7099C86.1522 100.111 86.2391 100.578 86.5457 100.891C86.8524 101.203 87.3177 101.298 87.7223 101.131C88.1269 100.964 88.39 100.569 88.3876 100.131C88.3779 99.5523 87.9163 99.0824 87.3376 99.0625Z" fill="#BD0000"/>
<path d="M87.3686 88.2813C86.9312 88.2584 86.5236 88.5033 86.3384 88.9003C86.1532 89.2973 86.2274 89.7669 86.5259 90.0875C86.8245 90.408 87.2877 90.5154 87.6968 90.3588C88.106 90.2022 88.3791 89.813 88.3874 89.375C88.3919 88.7978 87.9447 88.3177 87.3686 88.2813Z" fill="#BD0000"/>
<path d="M87.2875 72.075C86.6956 72.0888 86.2263 72.5786 86.2378 73.1705C86.2492 73.7624 86.7371 74.2337 87.329 74.2246C87.921 74.2155 88.3942 73.7295 88.3875 73.1375C88.3738 72.5418 87.8833 72.068 87.2875 72.075Z" fill="#BD0000"/>
<path d="M81.9063 61.3375C81.3496 61.341 80.9001 61.7933 80.9001 62.35C80.9002 62.9068 81.3497 63.359 81.9064 63.3625C82.4631 63.3659 82.9182 62.9192 82.9251 62.3625C82.9338 62.0892 82.8294 61.8243 82.6367 61.6304C82.4439 61.4364 82.1797 61.3305 81.9063 61.3375Z" fill="#BD0000"/>
<path d="M81.9374 99.1437C81.5258 99.1336 81.149 99.3737 80.9844 99.7511C80.8197 100.129 80.9001 100.568 81.1876 100.863C81.4751 101.158 81.9125 101.249 82.2939 101.094C82.6753 100.939 82.9248 100.568 82.9249 100.156C82.9283 99.891 82.8261 99.6353 82.6409 99.4455C82.4557 99.2556 82.2027 99.147 81.9374 99.1437Z" fill="#BD0000"/>
<path d="M81.9312 72.1375C81.5195 72.1299 81.1441 72.3724 80.9819 72.7508C80.8196 73.1293 80.9027 73.5683 81.192 73.8613C81.4814 74.1543 81.9193 74.2428 82.2998 74.0853C82.6802 73.9278 82.9274 73.5555 82.9249 73.1438C82.9266 72.8785 82.8228 72.6235 82.6364 72.4348C82.4501 72.2461 82.1964 72.1392 81.9312 72.1375Z" fill="#BD0000"/>
<path d="M81.9063 104.544C81.3471 104.544 80.8938 104.997 80.8938 105.556C80.8938 106.115 81.3471 106.569 81.9063 106.569C82.4655 106.569 82.9188 106.115 82.9188 105.556C82.9188 104.997 82.4655 104.544 81.9063 104.544Z" fill="#BD0000"/>
<path d="M81.9498 88.3437C81.5384 88.3285 81.1587 88.564 80.9894 88.9393C80.8202 89.3146 80.895 89.7551 81.1788 90.0534C81.4626 90.3517 81.8987 90.4485 82.282 90.2982C82.6653 90.1479 82.9195 89.7804 82.9248 89.3687C82.9332 89.103 82.8348 88.845 82.6516 88.6524C82.4684 88.4598 82.2156 88.3486 81.9498 88.3437Z" fill="#BD0000"/>
<path d="M82.9249 67.8125C82.9475 67.4015 82.7191 67.0177 82.3471 66.8416C81.975 66.6655 81.5334 66.7322 81.2299 67.0102C80.9264 67.2883 80.8215 67.7224 80.9644 68.1084C81.1073 68.4944 81.4697 68.7554 81.8811 68.7688C82.1464 68.7806 82.4055 68.6865 82.6013 68.5071C82.7971 68.3277 82.9135 68.0778 82.9249 67.8125Z" fill="#BD0000"/>
<path d="M81.9437 93.7437C81.5321 93.731 81.1538 93.9688 80.9869 94.3452C80.8199 94.7216 80.8975 95.1616 81.1832 95.4582C81.4688 95.7547 81.9056 95.8488 82.288 95.696C82.6704 95.5433 82.9222 95.1742 82.9249 94.7625C82.9299 94.4973 82.8294 94.2409 82.6453 94.0498C82.4613 93.8588 82.2089 93.7487 81.9437 93.7437Z" fill="#BD0000"/>
<path d="M81.9186 77.5375C81.3619 77.5342 80.907 77.981 80.9002 78.5377C80.8935 79.0944 81.3374 79.5521 81.894 79.5623C82.4506 79.5726 82.9111 79.1315 82.9248 78.575C82.9369 78.3018 82.8358 78.0356 82.6454 77.8393C82.455 77.643 82.1921 77.5338 81.9186 77.5375Z" fill="#BD0000"/>
<path d="M81.9188 82.9437C81.507 82.9413 81.1347 83.1884 80.9772 83.5689C80.8197 83.9493 80.9082 84.3873 81.2012 84.6766C81.4942 84.966 81.9332 85.0491 82.3117 84.8868C82.6901 84.7245 82.9326 84.3492 82.925 83.9375C82.925 83.6718 82.8186 83.4171 82.6295 83.2303C82.4405 83.0436 82.1845 82.9404 81.9188 82.9437Z" fill="#BD0000"/>
<path d="M76.5624 93.825C76.1837 93.8123 75.8351 94.0303 75.6807 94.3763C75.5263 94.7223 75.5969 95.1273 75.8593 95.4006C76.1217 95.674 76.5235 95.7611 76.8756 95.6209C77.2276 95.4808 77.4596 95.1414 77.4624 94.7625C77.4674 94.5188 77.3754 94.2831 77.2066 94.1073C77.0378 93.9315 76.806 93.8299 76.5624 93.825Z" fill="#BD0000"/>
<path d="M76.4937 88.4375C76.249 88.4358 76.014 88.5331 75.8421 88.7073C75.6703 88.8815 75.5762 89.1178 75.5812 89.3625C75.5788 89.7414 75.8061 90.084 76.1562 90.229C76.5063 90.3739 76.9093 90.2923 77.1754 90.0226C77.4415 89.7528 77.5177 89.3487 77.368 89.0006C77.2183 88.6526 76.8726 88.4299 76.4937 88.4375Z" fill="#BD0000"/>
<path d="M76.5061 104.625C75.9883 104.625 75.5686 105.045 75.5686 105.562C75.5686 106.08 75.9883 106.5 76.5061 106.5C77.0239 106.5 77.4436 106.08 77.4436 105.562C77.4436 105.045 77.0239 104.625 76.5061 104.625Z" fill="#BD0000"/>
<path d="M75.5875 83.8688C75.5526 84.2461 75.75 84.6069 76.0865 84.7812C76.423 84.9555 76.8316 84.9085 77.1197 84.6623C77.4078 84.4161 77.518 84.0199 77.3984 83.6603C77.2787 83.3007 76.9531 83.0495 76.575 83.025C76.3318 83.0043 76.0904 83.0819 75.9048 83.2405C75.7193 83.399 75.605 83.6253 75.5875 83.8688Z" fill="#BD0000"/>
<path d="M76.5625 77.6187C76.0509 77.6089 75.6271 78.0137 75.6136 78.5253C75.6001 79.0368 76.002 79.4634 76.5134 79.4805C77.0249 79.4976 77.4543 79.0988 77.475 78.5875C77.4887 78.3364 77.3989 78.0906 77.2264 77.9075C77.054 77.7245 76.814 77.6201 76.5625 77.6187Z" fill="#BD0000"/>
<path d="M76.5 72.2188C75.989 72.2257 75.579 72.6431 75.5813 73.1541C75.5836 73.6652 75.9973 74.0789 76.5084 74.0812C77.0194 74.0835 77.4368 73.6735 77.4437 73.1625C77.4525 72.9096 77.3559 72.6644 77.177 72.4855C76.9981 72.3065 76.7529 72.2099 76.5 72.2188Z" fill="#BD0000"/>
<path d="M76.525 99.225C76.1461 99.2199 75.8019 99.445 75.6546 99.7941C75.5073 100.143 75.5861 100.547 75.8541 100.815C76.122 101.083 76.5256 101.161 76.8747 101.014C77.2238 100.867 77.4488 100.523 77.4437 100.144C77.4437 99.6363 77.0324 99.225 76.525 99.225Z" fill="#BD0000"/>
<path d="M76.5625 66.8187C76.1844 66.8061 75.8363 67.0234 75.6815 67.3686C75.5268 67.7139 75.5964 68.1184 75.8574 68.3922C76.1185 68.6659 76.5193 68.7546 76.8715 68.6164C77.2236 68.4782 77.4572 68.1408 77.4625 67.7625C77.4692 67.5177 77.378 67.2804 77.209 67.1033C77.04 66.9261 76.8073 66.8237 76.5625 66.8187Z" fill="#BD0000"/>
<path d="M77.4438 62.3875C77.459 62.009 77.2434 61.6589 76.8985 61.5022C76.5535 61.3455 76.1481 61.4134 75.873 61.6739C75.5979 61.9344 75.5081 62.3356 75.6458 62.6886C75.7835 63.0415 76.1212 63.2759 76.5001 63.2813C76.7442 63.2897 76.9816 63.1998 77.1589 63.0318C77.3363 62.8639 77.4389 62.6318 77.4438 62.3875Z" fill="#BD0000"/>
<path d="M71.9625 100.175C71.9724 99.7082 71.6039 99.3209 71.1372 99.3074C70.6705 99.294 70.2804 99.6594 70.2633 100.126C70.2462 100.593 70.6086 100.986 71.075 101.006C71.3046 101.02 71.5297 100.939 71.6975 100.781C71.8654 100.624 71.9612 100.405 71.9625 100.175Z" fill="#BD0000"/>
<path d="M71.0999 74C71.324 74.0102 71.5427 73.9287 71.7054 73.7742C71.8681 73.6197 71.9609 73.4056 71.9624 73.1812C71.9744 72.9516 71.8915 72.7272 71.7331 72.5605C71.5747 72.3939 71.3548 72.2997 71.1249 72.3C70.9007 72.2898 70.6821 72.3713 70.5194 72.5258C70.3566 72.6803 70.2638 72.8944 70.2624 73.1187C70.2504 73.3483 70.3333 73.5728 70.4917 73.7394C70.65 73.9061 70.87 74.0003 71.0999 74Z" fill="#BD0000"/>
<path d="M70.2625 62.2938C70.2625 62.7632 70.643 63.1438 71.1125 63.1438C71.5819 63.1438 71.9625 62.7632 71.9625 62.2938C71.9625 61.8243 71.5819 61.4438 71.1125 61.4438C70.643 61.4438 70.2625 61.8243 70.2625 62.2938H70.2625Z" fill="#BD0000"/>
<path d="M71.1312 77.7C70.9004 77.6913 70.6763 77.7783 70.5118 77.9404C70.3473 78.1025 70.2571 78.3254 70.2624 78.5562C70.2624 79.0257 70.643 79.4062 71.1124 79.4062C71.5819 79.4062 71.9624 79.0257 71.9624 78.5562C71.9675 78.332 71.8823 78.1151 71.7261 77.9541C71.5698 77.7932 71.3555 77.7016 71.1312 77.7Z" fill="#BD0000"/>
<path d="M71.1313 104.688C70.9016 104.679 70.6785 104.765 70.5142 104.926C70.35 105.087 70.259 105.308 70.2626 105.538C70.2627 106.004 70.6395 106.384 71.1064 106.387C71.5734 106.391 71.9556 106.017 71.9625 105.55C71.9693 105.083 71.5982 104.698 71.1313 104.688Z" fill="#BD0000"/>
<path d="M71.1312 83.1C70.7858 83.0924 70.4702 83.2946 70.3327 83.6115C70.1952 83.9285 70.2632 84.2971 70.5048 84.5441C70.7463 84.7911 71.1133 84.8673 71.4333 84.7369C71.7532 84.6065 71.9624 84.2955 71.9625 83.95C71.9675 83.7263 71.8822 83.51 71.7257 83.3501C71.5693 83.1901 71.355 83.0999 71.1312 83.1Z" fill="#BD0000"/>
<path d="M71.0874 68.6C71.4333 68.6102 71.7508 68.4096 71.8903 68.093C72.0298 67.7763 71.9634 67.4067 71.7224 67.1584C71.4814 66.91 71.1139 66.8326 70.7932 66.9626C70.4725 67.0925 70.2626 67.404 70.2624 67.75C70.2574 67.9726 70.3419 68.1879 70.497 68.3477C70.6521 68.5075 70.8648 68.5984 71.0874 68.6Z" fill="#BD0000"/>
<path d="M71.9625 89.375C71.9724 88.9082 71.6039 88.5209 71.1372 88.5074C70.6705 88.494 70.2804 88.8594 70.2633 89.326C70.2462 89.7925 70.6086 90.1856 71.075 90.2063C71.3051 90.2219 71.5312 90.1412 71.6995 89.9836C71.8678 89.826 71.963 89.6056 71.9625 89.375Z" fill="#BD0000"/>
<path d="M71.0936 93.9062C70.8693 93.9044 70.654 93.994 70.4971 94.1544C70.3403 94.3148 70.2555 94.5321 70.2623 94.7562C70.2624 95.1017 70.4716 95.4128 70.7915 95.5432C71.1115 95.6736 71.4785 95.5973 71.72 95.3503C71.9616 95.1033 72.0296 94.7347 71.8921 94.4178C71.7546 94.1008 71.439 93.8986 71.0936 93.9062Z" fill="#BD0000"/>
<path d="M66.4937 105.538C66.4833 105.108 66.1279 104.767 65.6981 104.775C65.2684 104.783 64.9258 105.137 64.9315 105.567C64.9371 105.996 65.2889 106.341 65.7187 106.338C65.9297 106.341 66.1329 106.257 66.2798 106.106C66.4266 105.954 66.5041 105.748 66.4937 105.538Z" fill="#BD0000"/>
<path d="M65.6812 72.3687C65.2518 72.386 64.917 72.7469 64.9319 73.1764C64.9467 73.6058 65.3057 73.9427 65.7352 73.9303C66.1648 73.9179 66.5037 73.5609 66.4937 73.1312C66.4923 72.9206 66.4046 72.7198 66.251 72.5757C66.0975 72.4316 65.8915 72.3568 65.6812 72.3687Z" fill="#BD0000"/>
<path d="M65.7188 88.575C65.4 88.5726 65.1117 88.7642 64.9904 89.059C64.8691 89.3538 64.9391 89.6927 65.1673 89.9154C65.3955 90.138 65.736 90.1997 66.0278 90.0712C66.3195 89.9427 66.504 89.6499 66.4938 89.3312C66.4869 88.9091 66.1409 88.5715 65.7188 88.575Z" fill="#BD0000"/>
<path d="M65.7188 95.5375C66.1486 95.534 66.4949 95.184 66.4937 94.7542C66.4926 94.3243 66.1444 93.9762 65.7146 93.975C65.2847 93.9739 64.9347 94.3202 64.9313 94.75C64.9278 94.9599 65.0097 95.1622 65.1581 95.3106C65.3066 95.459 65.5089 95.5409 65.7188 95.5375Z" fill="#BD0000"/>
<path d="M65.7188 99.375C65.4 99.3726 65.1117 99.5641 64.9904 99.859C64.8691 100.154 64.9391 100.493 65.1673 100.715C65.3955 100.938 65.736 101 66.0278 100.871C66.3195 100.743 66.504 100.45 66.4938 100.131C66.4836 99.7106 66.1396 99.3749 65.7188 99.375Z" fill="#BD0000"/>
<path d="M65.7 84.7312C65.9946 84.7577 66.2789 84.6154 66.4344 84.3637C66.5899 84.1121 66.5899 83.7942 66.4344 83.5425C66.2789 83.2908 65.9946 83.1486 65.7 83.175C65.2972 83.2111 64.9885 83.5487 64.9885 83.9531C64.9885 84.3575 65.2972 84.6951 65.7 84.7312Z" fill="#BD0000"/>
<path d="M65.7249 63.0438C66.1555 63.0369 66.4993 62.6828 66.4936 62.2522C66.4879 61.8216 66.1348 61.4768 65.7041 61.4814C65.2735 61.486 64.9278 61.8381 64.9312 62.2688C64.9294 62.4781 65.013 62.6792 65.1628 62.8255C65.3127 62.9717 65.5157 63.0506 65.7249 63.0438Z" fill="#BD0000"/>
<path d="M66.4938 78.5875C66.5138 78.1576 66.1823 77.7925 65.7524 77.771C65.3226 77.7495 64.9563 78.0797 64.9333 78.5095C64.9102 78.9392 65.2391 79.3067 65.6688 79.3312C65.8784 79.3485 66.0858 79.2785 66.242 79.1377C66.3982 78.9968 66.4893 78.7978 66.4938 78.5875Z" fill="#BD0000"/>
<path d="M65.7437 66.9687C65.4246 66.956 65.1298 67.1387 64.9994 67.4302C64.8689 67.7216 64.9289 68.0632 65.151 68.2927C65.3731 68.5221 65.7125 68.5934 66.0081 68.4725C66.3037 68.3517 66.496 68.0631 66.4937 67.7437C66.4939 67.3253 66.1619 66.9822 65.7437 66.9687Z" fill="#BD0000"/>
<path d="M60.3125 104.881C60.036 104.874 59.7823 105.034 59.6706 105.287C59.5589 105.54 59.6113 105.836 59.8033 106.035C59.9952 106.234 60.2886 106.297 60.5457 106.195C60.8027 106.093 60.9724 105.845 60.975 105.569C60.9836 105.388 60.9175 105.212 60.7921 105.082C60.6667 104.952 60.4932 104.879 60.3125 104.881Z" fill="#BD0000"/>
<path d="M60.3125 88.675C60.1313 88.6732 59.9573 88.7456 59.8309 88.8755C59.7046 89.0054 59.6369 89.1814 59.6438 89.3625C59.6507 89.7344 59.9571 90.0306 60.3291 90.0249C60.701 90.0192 60.9982 89.7136 60.9936 89.3417C60.9891 88.9698 60.6845 88.6716 60.3125 88.675Z" fill="#BD0000"/>
<path d="M60.3125 61.5625C60.1315 61.554 59.9548 61.62 59.8237 61.7451C59.6926 61.8703 59.6186 62.0437 59.6188 62.225C59.612 62.5969 59.9074 62.9041 60.2792 62.9121C60.6511 62.92 60.9593 62.6257 60.9684 62.2539C60.9776 61.8821 60.6843 61.5729 60.3125 61.5625Z" fill="#BD0000"/>
<path d="M60.3125 67.0687C60.0364 67.0662 59.7861 67.2306 59.6787 67.4849C59.5713 67.7393 59.628 68.0333 59.8223 68.2295C60.0167 68.4256 60.3102 68.485 60.5655 68.38C60.8208 68.2749 60.9875 68.0261 60.9875 67.75C60.9945 67.5684 60.9259 67.3919 60.7979 67.2628C60.67 67.1337 60.4942 67.0634 60.3125 67.0687Z" fill="#BD0000"/>
<path d="M60.3125 77.875C60.036 77.8674 59.7823 78.0278 59.6706 78.2809C59.5589 78.534 59.6113 78.8295 59.8033 79.0287C59.9952 79.2279 60.2886 79.2913 60.5457 79.189C60.8027 79.0867 60.9724 78.8391 60.975 78.5625C60.9836 78.382 60.9175 78.206 60.7921 78.0758C60.6667 77.9457 60.4932 77.8731 60.3125 77.875Z" fill="#BD0000"/>
<path d="M60.3124 83.275C60.0363 83.2699 59.7845 83.432 59.6748 83.6854C59.5651 83.9387 59.6191 84.2332 59.8116 84.4311C60.0041 84.6291 60.297 84.6912 60.5533 84.5885C60.8096 84.4858 60.9786 84.2386 60.9811 83.9625C61.0002 83.7783 60.9366 83.5952 60.8075 83.4624C60.6784 83.3297 60.497 83.2611 60.3124 83.275Z" fill="#BD0000"/>
<path d="M60.9875 94.7875C60.9986 94.5463 60.8803 94.3175 60.677 94.1873C60.4738 94.0571 60.2164 94.0451 60.002 94.1561C59.7876 94.267 59.6486 94.4838 59.6375 94.725C59.6202 95.0978 59.9084 95.414 60.2812 95.4312C60.654 95.4485 60.9702 95.1603 60.9875 94.7875Z" fill="#BD0000"/>
<path d="M60.3125 72.475C60.0358 72.4776 59.7883 72.6473 59.686 72.9044C59.5837 73.1614 59.647 73.4548 59.8463 73.6468C60.0455 73.8387 60.341 73.8912 60.5941 73.7794C60.8472 73.6677 61.0076 73.414 61 73.1375C61.0019 72.9568 60.9292 72.7833 60.7991 72.6579C60.669 72.5326 60.4929 72.4664 60.3125 72.475Z" fill="#BD0000"/>
<path d="M60.3124 99.4812C60.1291 99.4659 59.9484 99.5321 59.8183 99.6621C59.6882 99.7922 59.6221 99.973 59.6374 100.156C59.6374 100.397 59.7661 100.62 59.9749 100.741C60.1838 100.861 60.4411 100.861 60.6499 100.741C60.8588 100.62 60.9874 100.397 60.9874 100.156C61.0028 99.973 60.9366 99.7922 60.8066 99.6621C60.6765 99.5321 60.4957 99.4659 60.3124 99.4812Z" fill="#BD0000"/>
<path d="M54.9061 73.725C55.2158 73.7042 55.4633 73.4594 55.4874 73.15C55.4858 72.9964 55.4227 72.8498 55.3124 72.743C55.202 72.6361 55.0535 72.5779 54.8999 72.5813C54.753 72.5796 54.6114 72.6368 54.5069 72.7401C54.4024 72.8434 54.3436 72.9843 54.3436 73.1313C54.3366 73.4499 54.5876 73.7148 54.9061 73.725Z" fill="#BD0000"/>
<path d="M54.9125 99.5812C54.76 99.5829 54.6144 99.6451 54.5078 99.7541C54.4011 99.8631 54.3421 100.01 54.3438 100.162C54.3421 100.31 54.3991 100.452 54.5023 100.558C54.6054 100.663 54.7463 100.723 54.8938 100.725C55.0515 100.739 55.208 100.687 55.3263 100.582C55.4446 100.476 55.5142 100.327 55.5188 100.169C55.4995 99.8454 55.2363 99.5904 54.9125 99.5812Z" fill="#BD0000"/>
<path d="M55.4874 67.7062C55.49 67.3905 55.2567 67.1223 54.9436 67.0812C54.7869 67.0674 54.6314 67.1184 54.5133 67.2224C54.3952 67.3263 54.3248 67.4741 54.3186 67.6312C54.2993 67.7839 54.3441 67.9378 54.4424 68.0562C54.5407 68.1747 54.6837 68.2471 54.8374 68.2562C54.9977 68.2755 55.1589 68.2272 55.2822 68.1229C55.4055 68.0185 55.4798 67.8676 55.4874 67.7062Z" fill="#BD0000"/>
<path d="M54.8999 61.6937C54.5927 61.6937 54.3436 61.9428 54.3436 62.25C54.3403 62.4025 54.3977 62.5501 54.5032 62.6603C54.6087 62.7705 54.7536 62.8342 54.9061 62.8375C55.2158 62.8167 55.4633 62.5719 55.4874 62.2625C55.4806 61.9439 55.2185 61.6902 54.8999 61.6937Z" fill="#BD0000"/>
<path d="M54.8936 83.3812C54.5889 83.3847 54.3436 83.6327 54.3436 83.9375C54.3403 84.0911 54.3985 84.2396 54.5054 84.35C54.6122 84.4603 54.7588 84.5234 54.9124 84.525C55.131 84.5479 55.3435 84.4442 55.4599 84.2578C55.5764 84.0714 55.5764 83.8349 55.4599 83.6485C55.3435 83.4621 55.131 83.3584 54.9124 83.3812H54.8936Z" fill="#BD0000"/>
<path d="M54.8936 89.925C55.0461 89.9283 55.1937 89.871 55.3039 89.7655C55.4141 89.66 55.4778 89.515 55.4811 89.3625C55.4896 89.2151 55.4378 89.0706 55.3376 88.9621C55.2374 88.8537 55.0975 88.7906 54.9498 88.7875C54.7952 88.7737 54.6416 88.823 54.5238 88.9243C54.4061 89.0255 54.3344 89.17 54.3248 89.325C54.3178 89.6471 54.5716 89.9148 54.8936 89.925Z" fill="#BD0000"/>
<path d="M54.9188 94.1875C54.7718 94.1807 54.6283 94.2331 54.5202 94.3329C54.4122 94.4328 54.3486 94.5717 54.3438 94.7188C54.3318 94.874 54.3826 95.0276 54.4848 95.1451C54.587 95.2626 54.7321 95.3342 54.8875 95.3438C55.2097 95.3454 55.4803 95.1018 55.5125 94.7813C55.5178 94.6222 55.4569 94.4681 55.3444 94.3556C55.2319 94.2431 55.0778 94.1822 54.9188 94.1875Z" fill="#BD0000"/>
<path d="M54.8999 77.9813C54.5927 77.9813 54.3436 78.2303 54.3436 78.5375C54.3403 78.69 54.3977 78.8376 54.5032 78.9478C54.6087 79.058 54.7536 79.1217 54.9061 79.125C55.2158 79.1042 55.4633 78.8594 55.4874 78.55C55.4806 78.2314 55.2185 77.9778 54.8999 77.9813Z" fill="#BD0000"/>
<path d="M49.55 61.8875C49.4125 62.0125 49.2 62.1125 49.1625 62.2625C49.125 62.4125 49.325 62.5437 49.4875 62.7937C49.675 62.5625 49.8688 62.425 49.8625 62.2937C49.8563 62.1625 49.6875 62.025 49.55 61.8875Z" fill="#BD0000"/>
<path d="M49.4687 68.0437C49.6125 67.9187 49.825 67.8187 49.8625 67.6687C49.9 67.5187 49.7 67.3875 49.5375 67.1375C49.3562 67.3687 49.1562 67.5062 49.1625 67.6375C49.1687 67.7687 49.3625 67.9062 49.4687 68.0437Z" fill="#BD0000"/>
<path d="M49.4875 73.6812C49.6688 73.45 49.8688 73.3125 49.8625 73.1812C49.8563 73.05 49.6625 72.9125 49.55 72.775C49.4125 72.9 49.2 73 49.1625 73.15C49.125 73.3 49.325 73.4375 49.4875 73.6812Z" fill="#BD0000"/>
<path d="M49.4687 78.925C49.6125 78.8062 49.825 78.7062 49.8625 78.5562C49.9 78.4062 49.7 78.2687 49.5375 78.025C49.3562 78.25 49.1562 78.3875 49.1625 78.5187C49.1687 78.65 49.3625 78.7937 49.4687 78.925Z" fill="#BD0000"/>
<path d="M49.4812 84.3312C49.6187 84.2062 49.8312 84.0937 49.8624 83.9437C49.8937 83.7937 49.6937 83.6687 49.5249 83.425C49.3437 83.6562 49.1499 83.8 49.1624 83.9312C49.1749 84.0625 49.3687 84.2 49.4812 84.3312Z" fill="#BD0000"/>
<path d="M49.525 88.975C49.3937 89.1063 49.1875 89.225 49.1625 89.375C49.1375 89.525 49.3437 89.65 49.5187 89.8813C49.6937 89.6438 49.8812 89.4938 49.8687 89.3625C49.8562 89.2313 49.65 89.1063 49.525 88.975Z" fill="#BD0000"/>
<path d="M49.1625 94.7563C49.2 94.9063 49.4125 95.0063 49.55 95.1313C49.6625 94.9938 49.8625 94.8625 49.8625 94.725C49.8625 94.5875 49.675 94.4563 49.4875 94.225C49.325 94.475 49.1313 94.6438 49.1625 94.7563Z" fill="#BD0000"/>
<path d="M49.1375 100.131C49.2625 100.269 49.375 100.475 49.525 100.506C49.675 100.538 49.8 100.331 50.0437 100.163C49.8062 99.9813 49.6562 99.7938 49.525 99.8063C49.3937 99.8188 49.2625 100.013 49.1375 100.131Z" fill="#BD0000"/>
</g>
<path d="M60 39.9125V75.225" stroke="white" stroke-width="6.25" stroke-linecap="round" stroke-linejoin="round"/>
<circle cx="60" cy="87.4125" r="3" fill="white"/>
<circle cx="60" cy="87.4125" r="0.625" fill="white" stroke="white" stroke-width="6.25" stroke-linecap="round" stroke-linejoin="round"/>
</svg>
