<?xml version="1.0" encoding="UTF-8" standalone="no"?>
<!DOCTYPE svg PUBLIC "-//W3C//DTD SVG 1.1//EN" "http://www.w3.org/Graphics/SVG/1.1/DTD/svg11.dtd">
<svg width="100%" height="100%" viewBox="0 0 269 449" version="1.1" xmlns="http://www.w3.org/2000/svg" xmlns:xlink="http://www.w3.org/1999/xlink" xml:space="preserve" xmlns:serif="http://www.serif.com/" style="fill-rule:evenodd;clip-rule:evenodd;stroke-linejoin:round;stroke-miterlimit:2;">
    <g transform="matrix(1,0,0,1,-215.578,-55.7663)">
        <path d="M484.42,190.2C484.42,153.251 468.975,117.54 442.041,92.227C414.729,66.555 379.002,53.692 341.431,56.039C273.536,60.254 218.301,116.844 215.681,184.889C214.283,221.17 227.15,255.701 251.911,282.112C270.731,302.194 281.485,329.1 282.723,358.327L280.942,358.327C268.587,358.327 258.536,368.378 258.536,380.733C258.536,390.881 265.364,399.381 274.638,402.124L274.638,450.038C274.638,461.245 283.755,470.362 294.962,470.362L296.083,470.362L296.083,477.854C296.083,492.252 307.798,503.971 322.208,503.971L377.81,503.971C392.212,503.971 403.935,492.248 403.935,477.854L403.935,470.362L405.056,470.362C416.263,470.362 425.38,461.245 425.38,450.038L425.38,402.124C434.653,399.382 441.482,390.886 441.482,380.733C441.482,368.378 431.431,358.327 419.076,358.327L417.303,358.327C418.556,329.229 429.42,302.194 448.444,281.753C471.639,256.804 484.424,224.296 484.424,190.202L484.42,190.2ZM392.721,477.85C392.721,486.077 386.03,492.768 377.795,492.768L322.193,492.768C313.966,492.768 307.267,486.077 307.267,477.85L307.267,470.358L392.712,470.358L392.716,477.85L392.721,477.85ZM405.045,459.155L294.951,459.155C289.924,459.155 285.83,455.065 285.83,450.034L285.83,403.136L414.17,403.136L414.17,450.034C414.166,455.069 410.072,459.155 405.045,459.155ZM430.264,380.729C430.264,386.913 425.237,391.936 419.057,391.936L280.937,391.932C274.753,391.932 269.73,386.909 269.73,380.725C269.73,374.541 274.753,369.518 280.937,369.518L419.057,369.518C425.241,369.522 430.272,374.549 430.272,380.729L430.264,380.729ZM406.084,358.323L293.914,358.323C292.66,326.229 280.848,296.604 260.074,274.448C237.379,250.233 225.582,218.573 226.859,185.307C229.265,122.944 279.898,71.077 342.119,67.217C376.549,65.072 409.33,76.861 434.361,100.385C459.416,123.932 473.213,155.826 473.213,190.197C473.213,221.451 461.49,251.248 440.217,274.111C419.272,296.634 407.346,326.377 406.084,358.326L406.084,358.323Z" style="fill-rule:nonzero;"/>
    </g>
</svg>
