<svg width="100" height="96" viewBox="0 0 100 96" fill="none" xmlns="http://www.w3.org/2000/svg">
<path d="M44.9561 2.76393C46.1535 -0.921308 51.3671 -0.921313 52.5645 2.76393L61.3331 29.7508C61.8686 31.3989 63.4044 32.5147 65.1373 32.5147H93.513C97.3879 32.5147 98.999 37.4732 95.8641 39.7508L72.9077 56.4296C71.5058 57.4481 70.9192 59.2536 71.4547 60.9017L80.2232 87.8885C81.4206 91.5738 77.2027 94.6383 74.0679 92.3607L51.1115 75.6819C49.7095 74.6633 47.8111 74.6633 46.4092 75.6819L23.4528 92.3607C20.3179 94.6383 16.1 91.5738 17.2974 87.8885L26.066 60.9017C26.6015 59.2536 26.0149 57.4481 24.6129 56.4296L1.65653 39.7508C-1.47833 37.4732 0.132771 32.5147 4.00767 32.5147H32.3833C34.1162 32.5147 35.652 31.3989 36.1875 29.7508L44.9561 2.76393Z" fill="#E60000"/>
<path d="M91.6607 34.4698C91.1586 34.4703 90.7071 34.79 90.5199 35.2778C90.3327 35.7656 90.4473 36.3235 90.8095 36.6876C91.1717 37.0516 91.7089 37.1488 92.1667 36.933C92.6246 36.7173 92.9113 36.2319 92.8912 35.7067C92.8648 35.0153 92.3215 34.4693 91.6607 34.4698Z" fill="#990000"/>
<path d="M86.3572 34.5342C85.7301 34.5377 85.224 35.0715 85.2251 35.728C85.2262 36.3845 85.7342 36.9164 86.3613 36.9176C86.9883 36.9188 87.4981 36.3888 87.5015 35.7323C87.4982 35.0721 86.9878 34.5377 86.3572 34.5342V34.5342Z" fill="#990000"/>
<path d="M87.4954 41.3364C87.522 40.6791 87.0348 40.1236 86.407 40.0954C85.7793 40.0671 85.2484 40.5769 85.2211 41.2341C85.1937 41.8914 85.6802 42.4475 86.308 42.4765C86.9343 42.4985 87.4622 41.9916 87.4954 41.3364Z" fill="#990000"/>
<path d="M92.4175 41.3364C92.4441 40.6791 91.9569 40.1236 91.3292 40.0954C90.7014 40.0671 90.1705 40.5769 90.1432 41.2341C90.1158 41.8914 90.6024 42.4475 91.2301 42.4765C91.8564 42.4985 92.3844 41.9916 92.4175 41.3364Z" fill="#990000"/>
<path d="M81.0352 34.6178C80.4516 34.6249 79.9837 35.1254 79.9893 35.7364C79.995 36.3475 80.472 36.8384 81.0557 36.8336C81.6393 36.8289 82.1091 36.3304 82.1057 35.7193C82.0956 35.1079 81.6193 34.6177 81.0352 34.6178V34.6178Z" fill="#990000"/>
<path d="M81.0474 45.7489C80.4646 45.7489 79.9915 46.2424 79.9893 46.8526C79.987 47.4629 80.4565 47.9601 81.0393 47.9648C81.6221 47.9695 82.0989 47.48 82.1057 46.8698C82.1073 46.5742 81.9967 46.2901 81.7983 46.0799C81.5998 45.8697 81.3297 45.7506 81.0474 45.7489V45.7489Z" fill="#990000"/>
<path d="M81.0352 40.1833C80.4516 40.1905 79.9837 40.6909 79.9893 41.302C79.995 41.913 80.472 42.4039 81.0557 42.3992C81.6393 42.3945 82.1091 41.8959 82.1057 41.2849C82.0956 40.6734 81.6193 40.1833 81.0352 40.1833V40.1833Z" fill="#990000"/>
<path d="M76.7284 41.3363C76.7433 40.9128 76.5121 40.522 76.1434 40.3472C75.7747 40.1724 75.3417 40.2484 75.0476 40.5396C74.7535 40.8307 74.6567 41.2791 74.8028 41.6743C74.9488 42.0696 75.3085 42.3331 75.7132 42.3412C75.9758 42.3517 76.2314 42.251 76.4224 42.062C76.6133 41.8729 76.7236 41.6114 76.7284 41.3363Z" fill="#990000"/>
<path d="M75.7501 51.379C75.3453 51.3711 74.9763 51.6203 74.8162 52.0096C74.6561 52.3989 74.7367 52.8508 75.0203 53.1533C75.3038 53.4558 75.7339 53.5487 76.1086 53.3884C76.4834 53.228 76.7282 52.8463 76.7283 52.4225C76.7316 52.1481 76.6302 51.8836 76.4465 51.6877C76.2629 51.4918 76.0122 51.3807 75.7501 51.379Z" fill="#990000"/>
<path d="M75.75 34.6823C75.3448 34.6745 74.9753 34.9244 74.8156 35.3144C74.6558 35.7045 74.7376 36.157 75.0224 36.459C75.3073 36.7609 75.7384 36.8522 76.1129 36.6899C76.4874 36.5275 76.7307 36.1438 76.7283 35.7194C76.7316 35.4456 76.63 35.1817 76.4462 34.9868C76.2623 34.792 76.0116 34.6823 75.75 34.6823Z" fill="#990000"/>
<path d="M75.7686 45.8457C75.3641 45.8301 74.9908 46.0721 74.8239 46.4581C74.6569 46.8441 74.7295 47.2975 75.0076 47.6055C75.2856 47.9134 75.7139 48.0147 76.0914 47.8618C76.4689 47.7089 76.7206 47.3322 76.7284 46.9086C76.7366 46.6341 76.64 46.3675 76.4598 46.168C76.2796 45.9684 76.0308 45.8524 75.7686 45.8457Z" fill="#990000"/>
<path d="M70.4036 34.7658C70.0323 34.7606 69.6947 34.9905 69.5486 35.3479C69.4025 35.7053 69.4767 36.1197 69.7366 36.3974C69.9965 36.6751 70.3908 36.7611 70.735 36.6154C71.0793 36.4697 71.3055 36.1209 71.3081 35.7321C71.3165 35.4766 71.2246 35.2286 71.0537 35.046C70.8827 34.8634 70.6478 34.7622 70.4036 34.7658Z" fill="#990000"/>
<path d="M71.308 41.3753C71.3397 40.9867 71.1436 40.6166 70.8119 40.439C70.4802 40.2614 70.0789 40.3117 69.7965 40.5661C69.5141 40.8206 69.407 41.2287 69.5253 41.5985C69.6437 41.9684 69.9641 42.2264 70.3358 42.2514C70.5763 42.2727 70.8147 42.1919 70.9976 42.0271C71.1804 41.8623 71.2923 41.6274 71.308 41.3753Z" fill="#990000"/>
<path d="M70.4222 51.4631C70.1737 51.4576 69.934 51.5595 69.7595 51.7447C69.5849 51.9299 69.4908 52.1822 69.4993 52.4422C69.4993 52.9759 69.9125 53.4085 70.4222 53.4085C70.9319 53.4085 71.3451 52.9759 71.3451 52.4422C71.3536 52.1822 71.2595 51.9299 71.0849 51.7447C70.9104 51.5595 70.6707 51.4576 70.4222 51.4631Z" fill="#990000"/>
<path d="M70.4037 45.8974C69.8998 45.9045 69.4959 46.336 69.4993 46.8636C69.5027 47.3911 69.9121 47.8169 70.4159 47.817C70.9198 47.817 71.3293 47.3912 71.3327 46.8637C71.3396 46.6041 71.2438 46.3531 71.0678 46.1701C70.8919 45.9871 70.6515 45.8884 70.4037 45.8974Z" fill="#990000"/>
<path d="M65.0634 53.2987C65.4036 53.3144 65.719 53.1126 65.8609 52.7884C66.0027 52.4642 65.9428 52.0823 65.7092 51.8228C65.4757 51.5632 65.1152 51.4777 64.7976 51.6067C64.4801 51.7356 64.2689 52.0532 64.2635 52.4097C64.2552 52.6392 64.3352 52.8625 64.4856 53.0296C64.636 53.1967 64.8441 53.2937 65.0634 53.2987Z" fill="#990000"/>
<path d="M65.0939 64.4367C65.5536 64.44 65.9298 64.0545 65.9364 63.5733C65.943 63.0921 65.5776 62.6953 65.1181 62.6848C64.6585 62.6742 64.2769 63.0538 64.2633 63.5349C64.2514 63.772 64.334 64.0038 64.4915 64.1748C64.6489 64.3457 64.8671 64.4406 65.0939 64.4367Z" fill="#990000"/>
<path d="M69.0314 64.4367C69.4911 64.44 69.8673 64.0545 69.8739 63.5733C69.8805 63.0921 69.5151 62.6953 69.0556 62.6848C68.596 62.6742 68.2144 63.0538 68.2008 63.5349C68.1889 63.772 68.2715 64.0038 68.429 64.1748C68.5864 64.3457 68.8046 64.4406 69.0314 64.4367Z" fill="#990000"/>
<path d="M64.2634 46.7925C64.2393 47.1461 64.4211 47.4801 64.724 47.6385C65.027 47.797 65.3912 47.7487 65.6468 47.5161C65.9024 47.2836 65.999 46.9126 65.8914 46.5765C65.7838 46.2403 65.4933 46.0052 65.1555 45.9808C64.9337 45.9613 64.7138 46.0365 64.5457 46.1894C64.3777 46.3423 64.2759 46.5598 64.2634 46.7925Z" fill="#990000"/>
<path d="M65.1062 58.871C65.5709 58.871 65.948 58.4772 65.9491 57.9906C65.9502 57.504 65.575 57.1083 65.1103 57.106C64.6456 57.1036 64.2667 57.4955 64.2633 57.982C64.2565 58.2188 64.3429 58.4481 64.5023 58.6162C64.6617 58.7843 64.88 58.8764 65.1062 58.871Z" fill="#990000"/>
<path d="M70.0281 58.871C70.4928 58.871 70.8698 58.4772 70.871 57.9906C70.8721 57.504 70.4969 57.1083 70.0322 57.106C69.5674 57.1036 69.1886 57.4955 69.1852 57.982C69.1784 58.2188 69.2648 58.4481 69.4242 58.6162C69.5836 58.7843 69.8019 58.8764 70.0281 58.871Z" fill="#990000"/>
<path d="M65.0755 42.1676C65.416 42.1781 65.7286 41.9714 65.8659 41.645C66.0032 41.3186 65.9378 40.9376 65.7006 40.6817C65.4633 40.4258 65.1016 40.346 64.7859 40.4799C64.4702 40.6139 64.2635 40.9348 64.2634 41.2915C64.2584 41.5209 64.3416 41.7429 64.4943 41.9075C64.6469 42.0722 64.8563 42.1659 65.0755 42.1676Z" fill="#990000"/>
<path d="M65.937 35.7454C65.9467 35.2643 65.584 34.8651 65.1246 34.8512C64.6652 34.8373 64.2811 35.214 64.2642 35.6949C64.2474 36.1757 64.6042 36.5808 65.0633 36.6021C65.2898 36.6182 65.5124 36.5351 65.6781 36.3726C65.8437 36.2102 65.9375 35.983 65.937 35.7454Z" fill="#990000"/>
<path d="M59.7657 57.1894C59.3427 57.2001 59.0074 57.5665 59.0153 58.0094C59.0231 58.4523 59.3712 58.8054 59.7943 58.7996C60.2174 58.7937 60.5565 58.4312 60.5533 57.9882C60.5569 57.7707 60.4743 57.5613 60.325 57.4099C60.1758 57.2585 59.9733 57.1787 59.7657 57.1894Z" fill="#990000"/>
<path d="M59.7721 36.5246C60.1945 36.5245 60.5377 36.1678 60.541 35.7257C60.5443 35.2835 60.2064 34.9213 59.7841 34.9143C59.3619 34.9073 59.0132 35.258 59.0031 35.7001C58.9946 35.918 59.0722 36.1299 59.2178 36.286C59.3633 36.442 59.5639 36.5283 59.7721 36.5246Z" fill="#990000"/>
<path d="M60.5534 63.5731C60.5601 63.3574 60.4825 63.1482 60.3385 62.9938C60.1945 62.8394 59.9966 62.7532 59.7905 62.755C59.3666 62.7515 59.0199 63.1079 59.0154 63.5517C59.0109 63.9955 59.3503 64.3595 59.7742 64.3654C60.1981 64.3713 60.5466 64.0169 60.5534 63.5731Z" fill="#990000"/>
<path d="M59.7719 53.2278C60.0857 53.2329 60.371 53.038 60.4928 52.7351C60.6145 52.4323 60.5484 52.0824 60.3255 51.851C60.1027 51.6196 59.768 51.5532 59.4797 51.6831C59.1915 51.8131 59.0076 52.1134 59.0151 52.4419C59.0185 52.877 59.3563 53.2278 59.7719 53.2278Z" fill="#990000"/>
<path d="M59.7905 47.6621C60.2127 47.6515 60.5477 47.2864 60.541 46.8443C60.5343 46.4022 60.1883 46.0485 59.766 46.0519C59.3437 46.0554 59.0031 46.4147 59.003 46.8569C59.0012 47.0744 59.0842 47.2832 59.2328 47.4352C59.3814 47.5872 59.5828 47.6691 59.7905 47.6621Z" fill="#990000"/>
<path d="M59.7844 42.0967C60.2067 42.0896 60.5445 41.7273 60.5411 41.2851C60.5377 40.843 60.1945 40.4864 59.7721 40.4863C59.3498 40.4863 59.0065 40.8428 59.003 41.285C58.9996 41.5025 59.0811 41.712 59.2285 41.8652C59.376 42.0183 59.5767 42.1019 59.7844 42.0967Z" fill="#990000"/>
<path d="M54.4807 29.4582C54.2091 29.4504 53.9598 29.615 53.8495 29.8751C53.7392 30.1351 53.7897 30.4392 53.9774 30.645C54.1651 30.8507 54.4528 30.9176 54.706 30.8142C54.9592 30.7108 55.1278 30.4577 55.1329 30.1732C55.1413 29.9866 55.0763 29.8045 54.9531 29.6694C54.8299 29.5343 54.6592 29.4579 54.4807 29.4582Z" fill="#990000"/>
<path d="M54.4686 40.5891C54.2897 40.5856 54.1172 40.6584 53.9907 40.7909C53.8642 40.9233 53.7946 41.104 53.798 41.2913C53.831 41.6514 54.12 41.9262 54.4655 41.9262C54.811 41.9262 55.1 41.6514 55.1331 41.2913C55.1364 41.1051 55.0677 40.9255 54.9425 40.7932C54.8174 40.661 54.6464 40.5873 54.4686 40.5891Z" fill="#990000"/>
<path d="M54.4501 46.1612C54.2711 46.1592 54.0993 46.2349 53.9757 46.3705C53.8521 46.506 53.7877 46.6892 53.7979 46.8763C53.7994 47.0637 53.8737 47.2424 54.0037 47.3712C54.1337 47.5 54.3082 47.5679 54.487 47.5591C54.6607 47.5509 54.8238 47.4697 54.9396 47.3339C55.0554 47.1981 55.114 47.0192 55.1023 46.8376C55.1114 46.6544 55.0454 46.4757 54.9208 46.3466C54.7963 46.2174 54.6251 46.15 54.4501 46.1612Z" fill="#990000"/>
<path d="M54.4625 51.7271C54.2836 51.7216 54.1106 51.794 53.9846 51.9271C53.8587 52.0602 53.7911 52.242 53.798 52.4292C53.7736 52.6949 53.8952 52.9522 54.1119 53.093C54.3285 53.2337 54.6026 53.2337 54.8193 53.093C55.0359 52.9522 55.1575 52.6949 55.1331 52.4292C55.1401 52.2409 55.0717 52.058 54.9444 51.9247C54.8171 51.7914 54.6424 51.7198 54.4625 51.7271Z" fill="#990000"/>
<path d="M54.4871 62.8582C54.2346 62.8264 53.9867 62.947 53.8469 63.1694C53.7072 63.3919 53.6996 63.678 53.8274 63.9082C53.9552 64.1384 54.1964 64.2731 54.4502 64.256C54.6247 64.2762 54.7992 64.2174 54.9297 64.0943C55.0601 63.9713 55.1342 63.7957 55.1331 63.6118C55.1542 63.4195 55.0956 63.2269 54.9721 63.0828C54.8486 62.9387 54.672 62.8569 54.4871 62.8582Z" fill="#990000"/>
<path d="M55.1331 19.0611C55.1582 18.8752 55.1046 18.6872 54.9864 18.5461C54.8682 18.405 54.6971 18.3249 54.5178 18.3267C54.3427 18.3126 54.1696 18.373 54.0376 18.4942C53.9056 18.6155 53.8259 18.7873 53.8164 18.9709C53.8046 19.1538 53.8629 19.3341 53.9784 19.4719C54.0938 19.6097 54.257 19.6937 54.4317 19.7053C54.6068 19.7194 54.7799 19.659 54.9119 19.5378C55.0439 19.4165 55.1237 19.2447 55.1331 19.0611Z" fill="#990000"/>
<path d="M55.1331 13.9078C55.1582 13.7219 55.1046 13.5339 54.9864 13.3928C54.8682 13.2517 54.6971 13.1716 54.5178 13.1734C54.3427 13.1593 54.1696 13.2197 54.0376 13.3409C53.9056 13.4621 53.8259 13.634 53.8164 13.8176C53.8046 14.0005 53.8629 14.1808 53.9784 14.3186C54.0938 14.4564 54.257 14.5404 54.4317 14.5519C54.6068 14.5661 54.7799 14.5057 54.9119 14.3845C55.0439 14.2632 55.1237 14.0914 55.1331 13.9078Z" fill="#990000"/>
<path d="M54.4685 57.2929C54.1246 57.3275 53.8621 57.6301 53.8621 57.9918C53.8621 58.3536 54.1246 58.6561 54.4685 58.6908C54.7223 58.7163 54.968 58.589 55.1025 58.3621C55.2369 58.1353 55.2369 57.8483 55.1025 57.6215C54.968 57.3947 54.7223 57.2674 54.4685 57.2929Z" fill="#990000"/>
<path d="M54.4685 23.8925C54.1246 23.9271 53.8621 24.2297 53.8621 24.5914C53.8621 24.9532 54.1246 25.2558 54.4685 25.2904C54.7223 25.3159 54.968 25.1886 55.1025 24.9618C55.2369 24.735 55.2369 24.4479 55.1025 24.2211C54.968 23.9943 54.7223 23.867 54.4685 23.8925Z" fill="#990000"/>
<path d="M54.4685 35.0237C54.1962 35.0211 53.9494 35.1912 53.844 35.4542C53.7386 35.7171 53.7956 36.0207 53.9882 36.2223C54.1808 36.424 54.4707 36.4836 54.7219 36.3733C54.973 36.263 55.1355 36.0046 55.133 35.7194C55.1382 35.5333 55.0698 35.3532 54.9441 35.2215C54.8183 35.0899 54.6463 35.0183 54.4685 35.0237Z" fill="#990000"/>
<path d="M49.1588 62.968C49.0087 62.9646 48.8634 63.0237 48.7549 63.1325C48.6465 63.2412 48.5837 63.3906 48.5805 63.5478C48.5721 63.6993 48.6221 63.8479 48.7192 63.9605C48.8164 64.0731 48.9525 64.1402 49.0973 64.1469C49.4147 64.169 49.6896 63.9186 49.7126 63.5864C49.7018 63.2643 49.4652 63.0001 49.1588 62.968Z" fill="#990000"/>
<path d="M49.1589 51.8364C49.0094 51.833 48.8647 51.8923 48.7573 52.0013C48.6498 52.1102 48.5884 52.2596 48.5868 52.4162C48.5801 52.5677 48.6317 52.7156 48.7299 52.827C48.8282 52.9383 48.965 53.0038 49.1097 53.0088C49.2626 53.0212 49.4138 52.9689 49.5294 52.8635C49.6451 52.7582 49.7155 52.6086 49.725 52.4484C49.7104 52.1243 49.4679 51.862 49.1589 51.8364Z" fill="#990000"/>
<path d="M49.1589 47.4497C49.4725 47.4392 49.7195 47.1662 49.7126 46.8378C49.7092 46.5237 49.465 46.2709 49.165 46.2709C49.0138 46.2674 48.8676 46.3275 48.759 46.4376C48.6503 46.5477 48.5883 46.6988 48.5867 46.8571C48.6104 47.176 48.8541 47.4283 49.1589 47.4497Z" fill="#990000"/>
<path d="M49.1589 24.0018C49.0083 24.0017 48.8639 24.0653 48.7586 24.178C48.6532 24.2907 48.5957 24.4432 48.599 24.6008C48.5957 24.7523 48.6505 24.8988 48.751 25.0078C48.8516 25.1167 48.9896 25.1789 49.1343 25.1806C49.3495 25.2042 49.5587 25.0973 49.6733 24.9052C49.7879 24.713 49.7879 24.4693 49.6733 24.2772C49.5587 24.0851 49.3495 23.9782 49.1343 24.0018H49.1589Z" fill="#990000"/>
<path d="M48.593 41.3363C48.593 41.4878 48.6508 41.633 48.7537 41.7394C48.8566 41.8459 48.9959 41.9049 49.1405 41.9032C49.4542 41.9068 49.7122 41.6453 49.7189 41.317C49.7108 40.9901 49.47 40.7215 49.159 40.6921C48.9999 40.6915 48.848 40.761 48.7403 40.8835C48.6326 41.0061 48.5791 41.1704 48.593 41.3363Z" fill="#990000"/>
<path d="M49.1589 8.48346C49.4658 8.46165 49.7102 8.20577 49.731 7.88438C49.7282 7.7201 49.6604 7.56442 49.5438 7.4545C49.4271 7.34459 49.2721 7.29031 49.1158 7.30462C48.9711 7.30461 48.8325 7.36522 48.7307 7.47293C48.629 7.58063 48.5727 7.72648 48.5744 7.87794C48.5709 8.04074 48.6316 8.19787 48.7421 8.31241C48.8527 8.42695 49.0034 8.48881 49.1589 8.48346Z" fill="#990000"/>
<path d="M49.1588 35.1329C49.0135 35.1294 48.8729 35.1865 48.7679 35.2917C48.6629 35.3968 48.6021 35.5413 48.5989 35.6933C48.587 35.8534 48.637 36.0117 48.7377 36.1328C48.8383 36.2539 48.9811 36.3276 49.1341 36.3375C49.4534 36.3388 49.7207 36.0842 49.7494 35.7513C49.7546 35.5857 49.694 35.4252 49.5821 35.308C49.4702 35.1909 49.3169 35.1275 49.1588 35.1329Z" fill="#990000"/>
<path d="M49.159 57.402C49.0138 57.4037 48.8751 57.4657 48.7736 57.5745C48.672 57.6832 48.6159 57.8297 48.6176 57.9818C48.6143 58.1394 48.6718 58.2919 48.7771 58.4046C48.8825 58.5174 49.0268 58.5809 49.1774 58.5808C49.482 58.556 49.723 58.3009 49.7435 57.9818C49.7334 57.6534 49.4727 57.3948 49.159 57.402Z" fill="#990000"/>
<path d="M49.1588 14.0496C49.3099 14.053 49.4562 13.993 49.5648 13.8829C49.6734 13.7727 49.7355 13.6217 49.7371 13.4634C49.7475 13.1491 49.5142 12.8847 49.2141 12.8707C49.0623 12.8583 48.912 12.9098 48.7965 13.0138C48.681 13.1177 48.6099 13.2656 48.5989 13.4247C48.607 13.7516 48.8477 14.0202 49.1588 14.0496Z" fill="#990000"/>
<path d="M49.1588 29.5674C49.0141 29.5621 48.8735 29.6178 48.7683 29.7219C48.6631 29.826 48.6021 29.9698 48.5989 30.1213C48.5853 30.2818 48.6347 30.4411 48.7357 30.5626C48.8366 30.6841 48.9805 30.7574 49.1342 30.7655C49.4492 30.7675 49.7148 30.52 49.7494 30.1922C49.7564 30.0255 49.6966 29.8633 49.5845 29.7447C49.4723 29.6261 49.3181 29.5618 49.1588 29.5674Z" fill="#990000"/>
<path d="M49.1588 18.4362C49.0141 18.431 48.8735 18.4867 48.7683 18.5908C48.6631 18.6949 48.6021 18.8387 48.5989 18.9902C48.5853 19.1507 48.6347 19.31 48.7357 19.4315C48.8367 19.553 48.9805 19.6263 49.1342 19.6344C49.4513 19.6361 49.7177 19.3851 49.7494 19.0547C49.7546 18.889 49.694 18.7286 49.5821 18.6114C49.4702 18.4942 49.317 18.4308 49.1588 18.4362Z" fill="#990000"/>
<path d="M49.1587 1.73297C48.8563 1.73297 48.6111 1.98965 48.6111 2.30628C48.6062 2.46396 48.6621 2.61708 48.7663 2.73104C48.8705 2.84499 49.0142 2.91016 49.1649 2.9118C49.3801 2.93539 49.5893 2.82849 49.7039 2.63637C49.8185 2.44425 49.8185 2.20052 49.7039 2.0084C49.5893 1.81629 49.3801 1.70938 49.1649 1.73297H49.1587Z" fill="#990000"/>
<path d="M43.849 58.3553C43.9598 58.3553 44.1197 58.175 44.3597 57.9946C44.1197 57.8142 43.9782 57.6145 43.849 57.6274C43.7198 57.6403 43.5906 57.8464 43.4614 57.9688C43.6214 58.0848 43.7014 58.3231 43.849 58.3553Z" fill="#990000"/>
<path d="M44.1814 52.4291C44.1814 52.2874 43.966 52.165 43.8491 52.0361C43.7199 52.1714 43.5169 52.2938 43.4861 52.4484C43.4554 52.603 43.6707 52.7254 43.843 52.9702C44.0091 52.719 44.1937 52.5644 44.1814 52.4291Z" fill="#990000"/>
<path d="M43.8246 47.2243C43.96 47.2243 44.0769 47.0053 44.2061 46.8829C44.083 46.7412 43.9723 46.5286 43.8246 46.4964C43.677 46.4642 43.5539 46.6768 43.314 46.8572C43.5478 47.0375 43.6954 47.2308 43.8246 47.2243Z" fill="#990000"/>
<path d="M44.2368 63.5797C44.1138 63.4444 44.003 63.2319 43.8554 63.1932C43.7077 63.1546 43.5847 63.38 43.3447 63.554C43.5785 63.7343 43.7262 63.934 43.8554 63.9211C43.9846 63.9083 44.0769 63.7021 44.2368 63.5797Z" fill="#990000"/>
<path d="M43.8492 41.8391C44.0153 41.5879 44.2122 41.4139 44.1815 41.298C44.1507 41.182 43.9415 41.0339 43.8062 40.905C43.6893 41.0403 43.4924 41.1691 43.4862 41.3109C43.4801 41.4526 43.6708 41.5943 43.8492 41.8391Z" fill="#990000"/>
<path d="M43.8062 8.27768C43.9415 8.14884 44.1445 8.03933 44.1815 7.88473C44.2184 7.73013 44.0153 7.59486 43.8492 7.34363C43.6708 7.58841 43.4801 7.73657 43.4862 7.86541C43.4924 7.99424 43.6954 8.1424 43.8062 8.27768Z" fill="#990000"/>
<path d="M44.1814 35.7323C44.1814 35.5906 43.966 35.4682 43.8491 35.3329C43.7199 35.4682 43.5169 35.5906 43.4861 35.7452C43.4554 35.8998 43.6707 36.0286 43.843 36.2734C44.0091 36.0222 44.1937 35.8676 44.1814 35.7323Z" fill="#990000"/>
<path d="M43.8491 13.0702C43.7199 13.2055 43.5169 13.3214 43.4861 13.476C43.4554 13.6306 43.6707 13.7595 43.843 14.0042C44.0091 13.753 44.1937 13.5984 44.1814 13.4631C44.169 13.3279 43.966 13.199 43.8491 13.0702Z" fill="#990000"/>
<path d="M43.4614 30.1345C43.5906 30.2698 43.7014 30.4888 43.849 30.521C43.9967 30.5532 44.1197 30.3406 44.3597 30.1603C44.1197 29.9799 43.9782 29.7802 43.849 29.7931C43.7198 29.806 43.6214 30.0121 43.4614 30.1345Z" fill="#990000"/>
<path d="M43.4863 19.0223C43.5294 19.1769 43.7385 19.28 43.8739 19.4088C43.9846 19.2735 44.1754 19.1383 44.1815 18.9965C44.1877 18.8548 43.9969 18.7131 43.8124 18.4812C43.6524 18.7324 43.4617 18.9064 43.4863 19.0223Z" fill="#990000"/>
<path d="M43.4614 24.5881C43.5906 24.7234 43.7014 24.936 43.849 24.9746C43.9967 25.0133 44.1197 24.7878 44.3597 24.6139C44.1197 24.4335 43.9782 24.2338 43.849 24.2467C43.7198 24.2596 43.6214 24.4464 43.4614 24.5881Z" fill="#990000"/>
<path d="M75.7377 85.3268C75.1897 85.3234 74.7418 85.7839 74.7352 86.3576C74.7285 86.9314 75.1655 87.4031 75.7135 87.4137C76.2614 87.4243 76.7147 86.9697 76.7282 86.3961C76.7401 86.1145 76.6406 85.8402 76.4531 85.6378C76.2657 85.4355 76.0069 85.3229 75.7377 85.3268Z" fill="#990000"/>
<path d="M75.7318 90.8929C75.3275 90.8929 74.9633 91.1486 74.8098 91.5401C74.6563 91.9317 74.7438 92.3815 75.0315 92.6789C75.3191 92.9764 75.7498 93.0624 76.1218 92.8968C76.4938 92.7312 76.7335 92.3468 76.7285 91.9236C76.7285 91.648 76.6231 91.3839 76.4358 91.1902C76.2485 90.9965 75.995 90.8895 75.7318 90.8929Z" fill="#990000"/>
<path d="M70.4344 85.4108C69.9306 85.387 69.503 85.7937 69.4775 86.3211C69.452 86.8485 69.8382 87.2984 70.3418 87.3279C70.8453 87.3575 71.2771 86.9556 71.3081 86.4286C71.3267 86.1709 71.2439 85.9165 71.0789 85.7243C70.9139 85.5321 70.6811 85.4188 70.4344 85.4108Z" fill="#990000"/>
<path d="M70.4036 79.8453C69.9006 79.8524 69.497 80.2826 69.4993 80.8094C69.5015 81.3361 69.9088 81.7625 70.4119 81.7648C70.9149 81.7672 71.3258 81.3447 71.3326 80.818C71.3413 80.5573 71.2462 80.3046 71.0701 80.1202C70.8939 79.9358 70.6526 79.8362 70.4036 79.8453Z" fill="#990000"/>
<path d="M75.3257 79.8453C74.8227 79.8524 74.4191 80.2826 74.4214 80.8094C74.4237 81.3361 74.8309 81.7625 75.334 81.7648C75.837 81.7672 76.248 81.3447 76.2548 80.818C76.2634 80.5573 76.1683 80.3046 75.9922 80.1202C75.8161 79.9358 75.5747 79.8362 75.3257 79.8453Z" fill="#990000"/>
<path d="M70.4468 74.2797C70.074 74.2666 69.7308 74.4913 69.5788 74.8479C69.4269 75.2045 69.4964 75.622 69.7547 75.9037C70.013 76.1854 70.4086 76.2752 70.7551 76.1307C71.1016 75.9863 71.33 75.6365 71.3327 75.246C71.3393 74.9943 71.2493 74.7504 71.0828 74.5688C70.9163 74.3872 70.6872 74.2831 70.4468 74.2797Z" fill="#990000"/>
<path d="M71.3081 69.6803C71.3205 69.2912 71.1072 68.9328 70.7681 68.773C70.429 68.6133 70.0313 68.6838 69.7614 68.9515C69.4914 69.2193 69.4027 69.6312 69.5368 69.9944C69.6708 70.3575 70.0011 70.5999 70.3729 70.6079C70.6153 70.6184 70.8515 70.5257 71.0277 70.351C71.2038 70.1763 71.305 69.9344 71.3081 69.6803Z" fill="#990000"/>
<path d="M65.0878 81.6809C65.3084 81.6914 65.5236 81.6074 65.6838 81.4481C65.844 81.2889 65.9354 81.0683 65.9368 80.837C65.9486 80.6004 65.867 80.369 65.7111 80.1973C65.5552 80.0255 65.3387 79.9284 65.1124 79.9287C64.6503 79.9287 64.2756 80.3209 64.2756 80.8048C64.2756 81.2886 64.6503 81.6809 65.1124 81.6809H65.0878Z" fill="#990000"/>
<path d="M64.2634 69.6094C64.2634 70.0932 64.6381 70.4854 65.1002 70.4854C65.5623 70.4854 65.9369 70.0932 65.9369 69.6094C65.9369 69.1255 65.5623 68.7333 65.1002 68.7333C64.6381 68.7333 64.2634 69.1255 64.2634 69.6094Z" fill="#990000"/>
<path d="M65.0754 76.1216C65.4154 76.132 65.7275 75.926 65.8652 75.6004C66.0028 75.2748 65.9386 74.8944 65.7026 74.638C65.4666 74.3816 65.1059 74.3002 64.79 74.4321C64.4742 74.564 64.266 74.883 64.2633 75.239C64.2567 75.4696 64.3391 75.6932 64.492 75.8593C64.6448 76.0254 64.8552 76.1199 65.0754 76.1216Z" fill="#990000"/>
<path d="M59.7535 79.9869C59.3308 80.0047 59.0012 80.3766 59.0158 80.8193C59.0305 81.2619 59.3838 81.6091 59.8067 81.5963C60.2295 81.5835 60.5631 81.2156 60.5533 80.7728C60.552 80.5557 60.4656 80.3487 60.3144 80.2002C60.1633 80.0516 59.9605 79.9745 59.7535 79.9869Z" fill="#990000"/>
<path d="M59.7965 70.3889C60.2204 70.3818 60.5588 70.0169 60.5532 69.5731C60.5476 69.1292 60.2 68.7739 59.7761 68.7786C59.3522 68.7833 59.0118 69.1463 59.0152 69.5901C59.0134 69.8059 59.0957 70.0131 59.2432 70.1639C59.3907 70.3147 59.5905 70.3959 59.7965 70.3889Z" fill="#990000"/>
<path d="M59.809 74.4339C59.5189 74.4067 59.2391 74.5533 59.086 74.8127C58.9329 75.0721 58.9329 75.3997 59.086 75.6591C59.2391 75.9185 59.5189 76.0651 59.809 76.0379C60.2055 76.0006 60.5093 75.6527 60.5093 75.2359C60.5093 74.8191 60.2055 74.4711 59.809 74.4339Z" fill="#990000"/>
<path d="M54.4868 68.8876C54.2128 68.8639 53.9527 69.0178 53.8307 69.2757C53.7086 69.5337 53.7493 69.8435 53.9334 70.0574C54.1174 70.2713 54.4075 70.3459 54.6652 70.2456C54.923 70.1453 55.0961 69.8905 55.1021 69.6027C55.1214 69.4199 55.0652 69.2372 54.9477 69.1006C54.8301 68.964 54.6624 68.8865 54.4868 68.8876Z" fill="#990000"/>
<path d="M54.4684 74.537C54.2146 74.5115 53.969 74.6389 53.8345 74.8657C53.7 75.0925 53.7 75.3795 53.8345 75.6063C53.969 75.8331 54.2146 75.9604 54.4684 75.9349C54.8124 75.9003 55.0749 75.5977 55.0749 75.236C55.0749 74.8742 54.8124 74.5717 54.4684 74.537Z" fill="#990000"/>
<path d="M49.7126 75.1943C49.7156 74.871 49.4893 74.5954 49.1835 74.5501C49.0292 74.5359 48.8761 74.5885 48.7599 74.6956C48.6436 74.8027 48.5743 74.955 48.5682 75.117C48.5581 75.2685 48.6065 75.4179 48.7025 75.5317C48.7985 75.6455 48.9341 75.7143 49.0789 75.7225C49.2305 75.7443 49.384 75.7002 49.5037 75.6004C49.6234 75.5006 49.6989 75.3539 49.7126 75.1943Z" fill="#990000"/>
<path d="M49.1589 68.9975C49.0142 68.9958 48.8749 69.0547 48.772 69.1612C48.6692 69.2677 48.6113 69.4129 48.6113 69.5643C48.5976 69.728 48.6495 69.8903 48.7544 70.0124C48.8594 70.1346 49.0081 70.2056 49.165 70.2085C49.4698 70.1871 49.7135 69.9348 49.7372 69.6159C49.7422 69.4525 49.6833 69.2941 49.5741 69.1774C49.465 69.0606 49.3149 68.9956 49.1589 68.9975Z" fill="#990000"/>
<path d="M43.8738 69.1968C43.7384 69.3256 43.5293 69.4287 43.4862 69.5833C43.4431 69.7379 43.6523 69.8732 43.8123 70.1308C43.9907 69.8925 44.1876 69.7508 44.1814 69.6155C44.1753 69.4802 43.9845 69.3385 43.8738 69.1968Z" fill="#990000"/>
<path d="M43.794 75.5354C43.9355 75.413 44.1447 75.3099 44.1816 75.1553C44.2185 75.0007 44.0216 74.8655 43.8616 74.6078C43.6771 74.8461 43.4863 74.9814 43.4863 75.1167C43.4863 75.252 43.6832 75.4001 43.794 75.5354Z" fill="#990000"/>
<circle cx="81" cy="66" r="18" fill="#E60000" stroke="white" stroke-width="2"/>
<path d="M75 66H86.5" stroke="white" stroke-width="4" stroke-linecap="square"/>
</svg>
