<svg width="24" height="24" viewBox="0 0 24 24" fill="none" xmlns="http://www.w3.org/2000/svg">
<path fill-rule="evenodd" clip-rule="evenodd" d="M19.0711 4.92893C22.9763 8.83418 22.9763 15.1658 19.0711 19.0711C15.1658 22.9763 8.83415 22.9763 4.92893 19.0711C1.02369 15.1658 1.02369 8.83415 4.92893 4.92893C8.83418 1.02369 15.1658 1.02369 19.0711 4.92893Z" fill="#A8B400"/>
<path fill-rule="evenodd" clip-rule="evenodd" d="M17.2637 8.73338C17.4109 8.87901 17.4123 9.11644 17.2666 9.2637L10.0769 16.5333L6.73338 13.1527C6.58774 13.0054 6.58905 12.768 6.7363 12.6224C6.88356 12.4767 7.12099 12.478 7.26662 12.6253L10.0769 15.4667L16.7334 8.7363C16.879 8.58905 17.1164 8.58774 17.2637 8.73338Z" fill="white"/>
</svg>
