<svg width="24" height="24" viewBox="0 0 24 24" fill="none" xmlns="http://www.w3.org/2000/svg">
<mask id="path-1-inside-1_396_15080" fill="white">
<path fill-rule="evenodd" clip-rule="evenodd" d="M19.0711 4.92893C22.9763 8.83418 22.9763 15.1658 19.0711 19.0711C15.1658 22.9763 8.83415 22.9763 4.92893 19.0711C1.02369 15.1658 1.02369 8.83415 4.92893 4.92893C8.83418 1.02369 15.1658 1.02369 19.0711 4.92893Z"/>
</mask>
<path fill-rule="evenodd" clip-rule="evenodd" d="M19.0711 4.92893C22.9763 8.83418 22.9763 15.1658 19.0711 19.0711C15.1658 22.9763 8.83415 22.9763 4.92893 19.0711C1.02369 15.1658 1.02369 8.83415 4.92893 4.92893C8.83418 1.02369 15.1658 1.02369 19.0711 4.92893Z" fill="#EBEBEB"/>
<path d="M19.0711 19.0711L18.5761 18.5761L18.5761 18.5761L19.0711 19.0711ZM4.92893 19.0711L5.42391 18.5761L5.42391 18.5761L4.92893 19.0711ZM4.92893 4.92893L5.42391 5.42391L5.42391 5.42391L4.92893 4.92893ZM18.5761 5.42391C22.208 9.05579 22.208 14.9442 18.5761 18.5761L19.566 19.566C23.7447 15.3875 23.7447 8.61257 19.566 4.43396L18.5761 5.42391ZM18.5761 18.5761C14.9442 22.208 9.05576 22.208 5.42391 18.5761L4.43396 19.566C8.61254 23.7447 15.3874 23.7447 19.566 19.566L18.5761 18.5761ZM5.42391 18.5761C1.79203 14.9442 1.79203 9.05576 5.42391 5.42391L4.43396 4.43396C0.255345 8.61254 0.255348 15.3874 4.43396 19.566L5.42391 18.5761ZM5.42391 5.42391C9.05579 1.79203 14.9442 1.79203 18.5761 5.42391L19.566 4.43396C15.3875 0.255345 8.61257 0.255348 4.43396 4.43396L5.42391 5.42391Z" fill="#EBEBEB" mask="url(#path-1-inside-1_396_15080)"/>
<path d="M7.75007 16.2421L16.2354 7.75684" stroke="#666666" stroke-linecap="round"/>
<path d="M7.75 7.75684L16.2353 16.2421" stroke="#666666" stroke-linecap="round"/>
</svg>
