<svg width="96" height="97" viewBox="0 0 96 97" fill="none" xmlns="http://www.w3.org/2000/svg">
<mask id="mask0_1570_10875" style="mask-type:alpha" maskUnits="userSpaceOnUse" x="8" y="8" width="81" height="81">
<rect x="8.0752" y="8.60498" width="79.965" height="79.965" rx="39.9825" fill="white"/>
</mask>
<g mask="url(#mask0_1570_10875)">
<rect x="8.0752" y="8.60498" width="79.965" height="79.965" rx="39.9825" fill="#E60000"/>
<path d="M85.6299 34.0698C85.0776 34.0698 84.6299 34.5175 84.6299 35.0698C84.6299 35.6221 85.0776 36.0698 85.6299 36.0698C86.1822 36.0698 86.6299 35.6221 86.6299 35.0698C86.6299 34.5175 86.1822 34.0698 85.6299 34.0698Z" fill="#BD0000"/>
<path d="M86.6299 39.4048C86.6299 38.8525 86.1822 38.4048 85.6299 38.4048C85.0776 38.4048 84.6299 38.8525 84.6299 39.4048C84.6299 39.9571 85.0776 40.4048 85.6299 40.4048C86.1822 40.4048 86.6299 39.9571 86.6299 39.4048Z" fill="#BD0000"/>
<path d="M85.6299 44.7197C86.1822 44.7197 86.6299 44.272 86.6299 43.7197C86.6299 43.1674 86.1822 42.7197 85.6299 42.7197C85.0776 42.7197 84.6299 43.1674 84.6299 43.7197C84.6299 44.272 85.0776 44.7197 85.6299 44.7197Z" fill="#BD0000"/>
<path d="M85.6599 47.0346C85.2529 47.0224 84.8792 47.2582 84.7149 47.6307C84.5506 48.0032 84.6286 48.4382 84.9121 48.7304C85.1956 49.0227 85.628 49.1139 86.0053 48.961C86.3827 48.8082 86.6297 48.4418 86.6299 48.0346C86.6301 47.4939 86.2004 47.0509 85.6599 47.0346Z" fill="#BD0000"/>
<path d="M85.6201 53.3599C86.1724 53.3599 86.6201 52.9121 86.6201 52.3599C86.6201 51.8076 86.1724 51.3599 85.6201 51.3599C85.0678 51.3599 84.6201 51.8076 84.6201 52.3599C84.6201 52.9121 85.0678 53.3599 85.6201 53.3599Z" fill="#BD0000"/>
<path d="M85.6299 57.6797C86.1822 57.6797 86.6299 57.232 86.6299 56.6797C86.6299 56.1274 86.1822 55.6797 85.6299 55.6797C85.0776 55.6797 84.6299 56.1274 84.6299 56.6797C84.6299 57.232 85.0776 57.6797 85.6299 57.6797Z" fill="#BD0000"/>
<path d="M85.605 59.9946C85.0527 59.9946 84.605 60.4423 84.605 60.9946C84.605 61.5469 85.0527 61.9946 85.605 61.9946C86.1573 61.9946 86.605 61.5469 86.605 60.9946C86.605 60.4423 86.1573 59.9946 85.605 59.9946Z" fill="#BD0000"/>
<path d="M81.2999 60.02C80.8927 60.0202 80.5263 60.2672 80.3735 60.6446C80.2206 61.022 80.3118 61.4543 80.6041 61.7378C80.8963 62.0213 81.3313 62.0993 81.7038 61.935C82.0763 61.7707 82.3121 61.397 82.2999 60.99C82.2837 60.4495 81.8407 60.0198 81.2999 60.02Z" fill="#BD0000"/>
<path d="M81.3148 34.0949C80.9075 34.0806 80.5322 34.315 80.3664 34.6873C80.2005 35.0596 80.2772 35.4953 80.5602 35.7886C80.8433 36.0819 81.276 36.1741 81.654 36.0216C82.032 35.8691 82.2796 35.5024 82.2798 35.0949C82.2801 34.556 81.8534 34.1137 81.3148 34.0949Z" fill="#BD0000"/>
<path d="M81.2999 25.4546C80.8927 25.4548 80.5263 25.7018 80.3735 26.0792C80.2206 26.4565 80.3118 26.8889 80.6041 27.1724C80.8963 27.4559 81.3313 27.5339 81.7038 27.3696C82.0763 27.2053 82.3121 26.8316 82.2999 26.4246C82.2837 25.8841 81.8407 25.4543 81.2999 25.4546Z" fill="#BD0000"/>
<path d="M81.3148 42.7496C80.9075 42.7354 80.5322 42.9698 80.3664 43.3421C80.2005 43.7144 80.2772 44.1501 80.5602 44.4434C80.8433 44.7367 81.276 44.8289 81.654 44.6764C82.032 44.5239 82.2796 44.1572 82.2798 43.7496C82.2801 43.2107 81.8534 42.7685 81.3148 42.7496Z" fill="#BD0000"/>
<path d="M81.3098 55.6997C80.9028 55.6875 80.5291 55.9232 80.3648 56.2957C80.2005 56.6683 80.2785 57.1032 80.562 57.3955C80.8455 57.6877 81.2779 57.7789 81.6552 57.6261C82.0326 57.4732 82.2796 57.1068 82.2798 56.6997C82.2801 56.1589 81.8503 55.7159 81.3098 55.6997Z" fill="#BD0000"/>
<path d="M81.2898 38.4199C80.8817 38.4202 80.5148 38.6684 80.3627 39.0471C80.2105 39.4257 80.3037 39.8587 80.598 40.1413C80.8924 40.4239 81.3289 40.4993 81.701 40.3318C82.0731 40.1644 82.3061 39.7876 82.2898 39.3799C82.2683 38.8433 81.8268 38.4195 81.2898 38.4199Z" fill="#BD0000"/>
<path d="M81.3298 47.0599C80.9214 47.0394 80.5417 47.2697 80.3711 47.6413C80.2004 48.0128 80.2732 48.4509 80.5548 48.7474C80.8364 49.0438 81.2702 49.1389 81.65 48.9875C82.0299 48.8362 82.2793 48.4688 82.2798 48.0599C82.2805 47.5265 81.8625 47.0865 81.3298 47.0599Z" fill="#BD0000"/>
<path d="M81.3098 29.7749C80.9028 29.7627 80.5291 29.9984 80.3648 30.3709C80.2005 30.7435 80.2785 31.1784 80.562 31.4707C80.8455 31.7629 81.2779 31.8541 81.6552 31.7013C82.0326 31.5484 82.2796 31.182 82.2798 30.7749C82.2801 30.2341 81.8503 29.7911 81.3098 29.7749Z" fill="#BD0000"/>
<path d="M81.2948 51.3799C80.8872 51.3801 80.5206 51.6277 80.3681 52.0057C80.2156 52.3837 80.3077 52.8164 80.601 53.0995C80.8943 53.3825 81.3301 53.4592 81.7024 53.2933C82.0747 53.1275 82.3091 52.7522 82.2948 52.3449C82.276 51.8063 81.8337 51.3796 81.2948 51.3799Z" fill="#BD0000"/>
<path d="M77.0101 25.5047C76.6338 25.4946 76.289 25.7134 76.1379 26.0581C75.9868 26.4028 76.0596 26.8047 76.3221 27.0745C76.5846 27.3442 76.9843 27.428 77.3331 27.2865C77.6818 27.1449 77.91 26.8061 77.9101 26.4297C77.9001 25.9327 77.5067 25.5283 77.0101 25.5047Z" fill="#BD0000"/>
<path d="M76.975 34.1499C76.4649 34.1554 76.0555 34.573 76.0601 35.0832C76.0647 35.5934 76.4815 36.0035 76.9917 35.9998C77.5019 35.9962 77.9128 35.5801 77.91 35.0699C77.9019 34.5594 77.4856 34.1498 76.975 34.1499Z" fill="#BD0000"/>
<path d="M76.98 38.4697C76.4705 38.4725 76.0591 38.8868 76.0601 39.3964C76.061 39.9059 76.4738 40.3188 76.9834 40.3197C77.4929 40.3206 77.9073 39.9093 77.91 39.3997C77.9073 38.8872 77.4925 38.4725 76.98 38.4697V38.4697Z" fill="#BD0000"/>
<path d="M77.0151 21.1846C76.6389 21.1724 76.2929 21.3893 76.1399 21.7332C75.987 22.0771 76.0576 22.4793 76.3186 22.7505C76.5796 23.0217 76.9788 23.1077 77.3283 22.9681C77.6778 22.8284 77.9078 22.4909 77.9101 22.1146C77.9079 21.6153 77.5138 21.2059 77.0151 21.1846Z" fill="#BD0000"/>
<path d="M76.995 55.7496C76.6186 55.7455 76.2773 55.97 76.1319 56.3171C75.9865 56.6643 76.0659 57.065 76.3328 57.3304C76.5997 57.5958 77.0008 57.673 77.3471 57.5257C77.6935 57.3784 77.916 57.0359 77.91 56.6596C77.8967 56.1606 77.494 55.7601 76.995 55.7496Z" fill="#BD0000"/>
<path d="M77 60.0748C76.6232 60.0688 76.2804 60.2919 76.1334 60.6389C75.9864 60.9858 76.0645 61.3873 76.331 61.6538C76.5975 61.9202 76.9989 61.9984 77.3459 61.8514C77.6929 61.7044 77.916 61.3616 77.91 60.9848C77.8944 60.4889 77.4959 60.0904 77 60.0748Z" fill="#BD0000"/>
<path d="M77.9049 43.7498C77.9264 43.2396 77.5305 42.8084 77.0204 42.7865C76.5102 42.7646 76.0788 43.1603 76.0566 43.6704C76.0343 44.1806 76.4297 44.6122 76.9399 44.6348C77.4489 44.6518 77.8779 44.2583 77.9049 43.7498Z" fill="#BD0000"/>
<path d="M76.99 51.4346C76.4798 51.4319 76.0637 51.8427 76.0601 52.3529C76.0564 52.8631 76.4666 53.2799 76.9767 53.2845C77.4869 53.2891 77.9045 52.8798 77.91 52.3696C77.9101 51.859 77.5005 51.4428 76.99 51.4346Z" fill="#BD0000"/>
<path d="M76.9852 47.1099C76.6089 47.11 76.2701 47.3382 76.1285 47.6869C75.9869 48.0356 76.0708 48.4354 76.3405 48.6978C76.6103 48.9603 77.0122 49.0331 77.3569 48.8821C77.7016 48.731 77.9204 48.3861 77.9102 48.0099C77.8891 47.5122 77.4833 47.1174 76.9852 47.1099V47.1099Z" fill="#BD0000"/>
<path d="M76.9851 29.8296C76.6105 29.8296 76.2729 30.0555 76.13 30.4018C75.9871 30.748 76.0672 31.1463 76.3328 31.4104C76.5984 31.6746 76.9971 31.7525 77.3425 31.6077C77.688 31.463 77.9121 31.1242 77.9101 30.7496C77.8994 30.244 77.4907 29.8375 76.9851 29.8296V29.8296Z" fill="#BD0000"/>
<path d="M72.6602 25.5698C72.1865 25.5726 71.8043 25.9578 71.8052 26.4315C71.8061 26.9051 72.1898 27.2889 72.6635 27.2898C73.1372 27.2907 73.5224 26.9085 73.5252 26.4348C73.5224 25.9582 73.1368 25.5726 72.6602 25.5698Z" fill="#BD0000"/>
<path d="M72.6552 38.5347C72.1809 38.5402 71.8006 38.9287 71.8052 39.4029C71.8098 39.8772 72.1975 40.2582 72.6718 40.2546C73.1461 40.2509 73.5279 39.864 73.5252 39.3897C73.517 38.915 73.1299 38.5346 72.6552 38.5347V38.5347Z" fill="#BD0000"/>
<path d="M72.6651 47.1748C72.1915 47.1748 71.807 47.5579 71.8052 48.0315C71.8034 48.5052 72.1849 48.8911 72.6585 48.8948C73.1322 48.8984 73.5196 48.5184 73.5251 48.0448C73.5265 47.8154 73.4366 47.5948 73.2753 47.4317C73.114 47.2685 72.8945 47.1761 72.6651 47.1748V47.1748Z" fill="#BD0000"/>
<path d="M72.67 51.4946C72.1964 51.492 71.8098 51.8728 71.8052 52.3464C71.8007 52.82 72.1799 53.2081 72.6535 53.2145C73.1271 53.221 73.5168 52.8432 73.525 52.3696C73.5252 51.8941 73.1455 51.5055 72.67 51.4946Z" fill="#BD0000"/>
<path d="M72.6401 60.1399C72.1667 60.1537 71.7935 60.5477 71.8055 61.0211C71.8174 61.4946 72.2098 61.8693 72.6833 61.8593C73.1568 61.8493 73.5331 61.4584 73.5251 60.9849C73.5198 60.7555 73.4236 60.5375 73.2576 60.379C73.0916 60.2205 72.8695 60.1345 72.6401 60.1399Z" fill="#BD0000"/>
<path d="M72.6902 34.2147C72.3398 34.2045 72.0183 34.408 71.8776 34.7291C71.7368 35.0501 71.805 35.4244 72.0499 35.6752C72.2948 35.926 72.6675 36.003 72.9917 35.8699C73.316 35.7368 73.5271 35.4202 73.5252 35.0697C73.5176 34.6084 73.1512 34.2332 72.6902 34.2147Z" fill="#BD0000"/>
<path d="M72.6552 16.9297C72.1816 16.9352 71.8015 17.3226 71.8052 17.7963C71.8089 18.2699 72.1948 18.6514 72.6685 18.6496C73.1421 18.6478 73.5251 18.2633 73.5252 17.7897C73.5197 17.3131 73.1318 16.9297 72.6552 16.9297Z" fill="#BD0000"/>
<path d="M72.6797 29.8898C72.3306 29.8837 72.0124 30.0893 71.8746 30.4101C71.7367 30.731 71.8065 31.1033 72.0513 31.3524C72.296 31.6015 72.6671 31.6778 72.9903 31.5457C73.3135 31.4135 73.5247 31.099 73.5247 30.7498C73.5195 30.2828 73.1465 29.9032 72.6797 29.8898Z" fill="#BD0000"/>
<path d="M72.7099 21.2497C72.3604 21.2315 72.0347 21.4269 71.8863 21.7439C71.7379 22.0608 71.7964 22.4361 72.0342 22.6929C72.272 22.9497 72.6417 23.0367 72.9691 22.913C73.2965 22.7893 73.5163 22.4796 73.5249 22.1297C73.5287 21.667 73.1715 21.2814 72.7099 21.2497Z" fill="#BD0000"/>
<path d="M72.6799 55.82C72.2057 55.8118 71.8145 56.1891 71.8053 56.6633C71.7962 57.1375 72.1727 57.5295 72.6468 57.5396C73.121 57.5497 73.5138 57.1741 73.5249 56.7C73.5306 56.2252 73.1545 55.8336 72.6799 55.82Z" fill="#BD0000"/>
<path d="M72.6552 42.855C72.1809 42.8605 71.8006 43.249 71.8052 43.7232C71.8098 44.1975 72.1975 44.5786 72.6718 44.5749C73.1461 44.5712 73.5279 44.1843 73.5252 43.71C73.517 43.2354 73.1299 42.8549 72.6552 42.855V42.855Z" fill="#BD0000"/>
<path d="M69.1551 43.7495C69.1672 43.4208 68.9794 43.1175 68.6798 42.9818C68.3801 42.8461 68.0282 42.9051 67.7892 43.1311C67.5502 43.3571 67.4716 43.7051 67.5902 44.0119C67.7089 44.3187 68.0013 44.5232 68.3301 44.5295C68.5435 44.5376 68.7512 44.4595 68.9064 44.3128C69.0616 44.1661 69.1512 43.9631 69.1551 43.7495Z" fill="#BD0000"/>
<path d="M68.3602 29.9398C68.142 29.933 67.9305 30.0156 67.7747 30.1686C67.6189 30.3216 67.5324 30.5315 67.5352 30.7498C67.5352 31.1972 67.8979 31.5598 68.3452 31.5598C68.7926 31.5598 69.1552 31.1972 69.1552 30.7498C69.1579 30.5368 69.0755 30.3315 68.9262 30.1795C68.777 30.0274 68.5733 29.9412 68.3602 29.9398Z" fill="#BD0000"/>
<path d="M68.3401 60.1897C67.8947 60.1925 67.5351 60.5543 67.5352 60.9997C67.5352 61.4451 67.8948 61.8069 68.3402 61.8097C68.7855 61.8124 69.1496 61.4551 69.1551 61.0097C69.162 60.7911 69.0786 60.5792 68.9244 60.424C68.7701 60.2689 68.5588 60.1841 68.3401 60.1897Z" fill="#BD0000"/>
<path d="M68.3401 34.2499C67.8947 34.2527 67.5351 34.6146 67.5352 35.0599C67.5352 35.5053 67.8948 35.8672 68.3402 35.8699C68.7855 35.8726 69.1496 35.5153 69.1551 35.0699C69.1635 34.8508 69.0806 34.6381 68.926 34.4826C68.7714 34.3271 68.5592 34.2428 68.3401 34.2499Z" fill="#BD0000"/>
<path d="M68.3701 21.2997C68.0413 21.2896 67.7391 21.4793 67.6052 21.7798C67.4714 22.0803 67.5326 22.4318 67.7601 22.6695C67.9875 22.9071 68.3361 22.9835 68.6422 22.8629C68.9482 22.7423 69.1509 22.4486 69.1551 22.1197C69.1605 21.9067 69.0806 21.7003 68.9332 21.5463C68.7859 21.3924 68.5832 21.3036 68.3701 21.2997Z" fill="#BD0000"/>
<path d="M68.3602 51.5446C68.0313 51.5385 67.7313 51.7319 67.6012 52.0341C67.4711 52.3362 67.5367 52.687 67.7671 52.9218C67.9975 53.1566 68.3471 53.2287 68.6516 53.1042C68.9561 52.9798 69.1551 52.6835 69.1552 52.3546C69.1578 52.1415 69.0754 51.9362 68.9262 51.7842C68.7769 51.6321 68.5732 51.5459 68.3602 51.5446Z" fill="#BD0000"/>
<path d="M68.3652 25.6199C68.0363 25.6118 67.7352 25.8033 67.6032 26.1047C67.4712 26.406 67.5346 26.7572 67.7636 26.9934C67.9925 27.2296 68.3416 27.3039 68.6469 27.1813C68.9522 27.0588 69.153 26.7638 69.1552 26.4349C69.1592 26.2218 69.078 26.016 68.9297 25.863C68.7814 25.71 68.5782 25.6225 68.3652 25.6199Z" fill="#BD0000"/>
<path d="M68.3602 38.5846C68.0308 38.5785 67.7306 38.7725 67.6007 39.0753C67.4709 39.378 67.5374 39.7293 67.7689 39.9636C68.0003 40.198 68.3507 40.2689 68.6551 40.1429C68.9594 40.0168 69.1571 39.719 69.1552 39.3896C69.1578 39.177 69.0753 38.9722 68.9259 38.821C68.7765 38.6697 68.5728 38.5846 68.3602 38.5846Z" fill="#BD0000"/>
<path d="M68.375 47.2496C68.0463 47.2375 67.7429 47.4253 67.6073 47.7249C67.4716 48.0246 67.5306 48.3765 67.7566 48.6155C67.9826 48.8545 68.3306 48.9331 68.6374 48.8145C68.9442 48.6958 69.1487 48.4034 69.155 48.0746C69.1617 47.8615 69.0832 47.6546 68.9367 47.4997C68.7903 47.3448 68.5881 47.2548 68.375 47.2496Z" fill="#BD0000"/>
<path d="M68.3499 12.6598C67.9046 12.6572 67.5406 13.0146 67.5352 13.46C67.5298 13.9053 67.8849 14.2715 68.3302 14.2797C68.7755 14.2879 69.1439 13.9351 69.1549 13.4898C69.1661 13.2708 69.0857 13.0571 68.933 12.8997C68.7804 12.7423 68.5691 12.6554 68.3499 12.6598Z" fill="#BD0000"/>
<path d="M68.375 55.8697C68.0463 55.8576 67.7429 56.0454 67.6073 56.3451C67.4716 56.6447 67.5306 56.9966 67.7566 57.2356C67.9826 57.4746 68.3306 57.5533 68.6374 57.4346C68.9442 57.3159 69.1487 57.0236 69.155 56.6947C69.1631 56.4813 69.085 56.2736 68.9383 56.1184C68.7916 55.9632 68.5886 55.8736 68.375 55.8697Z" fill="#BD0000"/>
<path d="M68.345 16.9796C68.0161 16.9797 67.7198 17.1787 67.5954 17.4832C67.4709 17.7877 67.543 18.1373 67.7778 18.3677C68.0126 18.5981 68.3634 18.6637 68.6656 18.5336C68.9677 18.4035 69.1611 18.1035 69.155 17.7746C69.1551 17.5612 69.0693 17.3566 68.9169 17.2071C68.7646 17.0576 68.5585 16.9756 68.345 16.9796Z" fill="#BD0000"/>
<path d="M64.0148 38.65C63.713 38.6459 63.4386 38.8243 63.3199 39.1017C63.2011 39.3792 63.2615 39.7008 63.4727 39.9164C63.6839 40.1319 64.0043 40.1987 64.2841 40.0856C64.5638 39.9725 64.7477 39.7017 64.7498 39.4C64.7566 39.2017 64.6819 39.0092 64.543 38.8675C64.4041 38.7257 64.2132 38.6471 64.0148 38.65Z" fill="#BD0000"/>
<path d="M64.0448 25.6848C63.7422 25.6767 63.4648 25.8525 63.3429 26.1295C63.221 26.4065 63.2788 26.7298 63.4892 26.9474C63.6995 27.165 64.0206 27.2337 64.3016 27.1212C64.5826 27.0088 64.7677 26.7375 64.7698 26.4348C64.7752 26.2387 64.7013 26.0486 64.5649 25.9075C64.4285 25.7664 64.241 25.6861 64.0448 25.6848Z" fill="#BD0000"/>
<path d="M64.0302 60.2496C63.7276 60.2476 63.4538 60.4289 63.3375 60.7084C63.2212 60.9878 63.2855 61.3098 63.5003 61.5231C63.715 61.7364 64.0375 61.7986 64.3162 61.6804C64.5948 61.5623 64.7743 61.2872 64.7702 60.9846C64.7716 60.7884 64.6939 60.5999 64.5547 60.4616C64.4155 60.3233 64.2264 60.2469 64.0302 60.2496Z" fill="#BD0000"/>
<path d="M64.0098 21.3648C63.708 21.3628 63.4348 21.543 63.3179 21.8212C63.2011 22.0995 63.2636 22.4207 63.4762 22.6348C63.6889 22.8489 64.0097 22.9136 64.2887 22.7986C64.5677 22.6836 64.7498 22.4116 64.7498 22.1098C64.7539 21.9119 64.6774 21.7208 64.5379 21.5803C64.3983 21.4398 64.2077 21.3621 64.0098 21.3648Z" fill="#BD0000"/>
<path d="M64.75 43.7797C64.7758 43.478 64.6165 43.1907 64.3469 43.0529C64.0774 42.915 63.7512 42.9541 63.5217 43.1516C63.2922 43.3491 63.2051 43.6658 63.3013 43.9529C63.3975 44.24 63.6579 44.4403 63.96 44.4597C64.1554 44.4762 64.3492 44.4134 64.4978 44.2855C64.6464 44.1576 64.7373 43.9753 64.75 43.7797Z" fill="#BD0000"/>
<path d="M64.02 34.3249C63.607 34.3249 63.2718 34.6587 63.27 35.0716C63.2682 35.4845 63.6005 35.8212 64.0134 35.8248C64.4263 35.8285 64.7644 35.4977 64.77 35.0849C64.7769 34.883 64.7004 34.6872 64.5585 34.5434C64.4167 34.3997 64.2219 34.3206 64.02 34.3249Z" fill="#BD0000"/>
<path d="M63.28 17.75C63.2544 18.0512 63.4133 18.338 63.6823 18.476C63.9512 18.614 64.2769 18.5758 64.5066 18.3793C64.7363 18.1828 64.8245 17.867 64.7299 17.5799C64.6353 17.2928 64.3766 17.0914 64.075 17.07C63.8792 17.0534 63.6848 17.1161 63.5354 17.2438C63.386 17.3716 63.294 17.5539 63.28 17.75Z" fill="#BD0000"/>
<path d="M64.05 55.9298C63.7447 55.9176 63.4625 56.0918 63.3366 56.3703C63.2108 56.6487 63.2664 56.9757 63.4773 57.1968C63.6882 57.4179 64.0121 57.489 64.2962 57.3765C64.5803 57.264 64.7677 56.9904 64.77 56.6848C64.7754 56.489 64.7024 56.2992 64.5672 56.1574C64.432 56.0157 64.2459 55.9337 64.05 55.9298Z" fill="#BD0000"/>
<path d="M64.0399 12.7198C63.7362 12.7038 63.4529 12.8728 63.3227 13.1477C63.1925 13.4225 63.2412 13.7487 63.4459 13.9736C63.6506 14.1985 63.9708 14.2775 64.2566 14.1737C64.5425 14.0698 64.7373 13.8036 64.7499 13.4998C64.7621 13.3015 64.6936 13.1066 64.5598 12.9596C64.426 12.8127 64.2385 12.7262 64.0399 12.7198Z" fill="#BD0000"/>
<path d="M64.0302 51.6095C63.8283 51.6053 63.6335 51.6843 63.4916 51.8281C63.3498 51.9719 63.2733 52.1677 63.2802 52.3695C63.2802 52.7838 63.616 53.1195 64.0302 53.1195C64.4444 53.1195 64.7802 52.7838 64.7802 52.3695C64.7871 52.1677 64.7107 51.9719 64.5688 51.8281C64.4269 51.6843 64.2322 51.6053 64.0302 51.6095Z" fill="#BD0000"/>
<path d="M64.0348 30.005C63.731 29.9928 63.4503 30.1663 63.3255 30.4435C63.2007 30.7207 63.2568 31.0459 63.4673 31.2653C63.6778 31.4846 64.0004 31.554 64.2825 31.4407C64.5646 31.3274 64.7495 31.054 64.7498 30.75C64.7554 30.3479 64.4368 30.0159 64.0348 30.005Z" fill="#BD0000"/>
<path d="M64.0148 47.29C63.6053 47.2955 63.2771 47.6304 63.2798 48.0399C63.2825 48.4494 63.6153 48.7799 64.0247 48.7799C64.4342 48.7799 64.767 48.4495 64.7698 48.04C64.7754 47.8385 64.6975 47.6437 64.5545 47.5017C64.4115 47.3596 64.2162 47.283 64.0148 47.29Z" fill="#BD0000"/>
<path d="M60.3848 30.75C60.3926 30.3766 60.0979 30.0667 59.7245 30.056C59.3512 30.0452 59.039 30.3375 59.0254 30.7108C59.0117 31.084 59.3016 31.3984 59.6748 31.415C59.8584 31.426 60.0385 31.361 60.1728 31.2352C60.3071 31.1094 60.3837 30.934 60.3848 30.75Z" fill="#BD0000"/>
<path d="M59.6749 53.0347C59.9514 53.0468 60.2077 52.8902 60.323 52.6386C60.4383 52.3869 60.3896 52.0905 60.1998 51.889C60.01 51.6876 59.717 51.6212 59.4589 51.7213C59.2009 51.8214 59.0292 52.0679 59.0249 52.3447C59.0181 52.5227 59.0832 52.6961 59.2054 52.8258C59.3276 52.9555 59.4967 53.0308 59.6749 53.0347Z" fill="#BD0000"/>
<path d="M59.695 9.82478C59.8743 9.83294 60.0492 9.76772 60.1794 9.64413C60.3096 9.52055 60.3838 9.34928 60.385 9.16978C60.3951 8.89361 60.2371 8.63879 59.9852 8.52508C59.7333 8.41138 59.4377 8.46142 59.2373 8.65168C59.0368 8.84194 58.9715 9.13458 59.0719 9.39203C59.1724 9.64948 59.4186 9.82053 59.695 9.82478Z" fill="#BD0000"/>
<path d="M59.6999 61.6798C60.0734 61.6824 60.3791 61.3832 60.3845 61.0096C60.3899 60.6361 60.0929 60.3282 59.7195 60.32C59.346 60.3118 59.0358 60.6064 59.0249 60.9798C59.0151 61.1639 59.0823 61.3438 59.2102 61.4765C59.3382 61.6092 59.5155 61.6828 59.6999 61.6798Z" fill="#BD0000"/>
<path d="M59.0252 47.9849C59.0056 48.2594 59.1534 48.5186 59.3995 48.6416C59.6457 48.7646 59.9418 48.7271 60.1495 48.5466C60.3572 48.3661 60.4356 48.0782 60.3482 47.8172C60.2608 47.5563 60.0247 47.3738 59.7502 47.3549C59.5699 47.3398 59.3912 47.3982 59.2546 47.5168C59.1181 47.6355 59.0353 47.8043 59.0252 47.9849Z" fill="#BD0000"/>
<path d="M59.7201 12.7897C59.3445 12.7814 59.0334 13.0792 59.0251 13.4547C59.0168 13.8303 59.3145 14.1414 59.6901 14.1497C59.8747 14.1567 60.054 14.0871 60.1856 13.9574C60.3171 13.8277 60.3893 13.6494 60.3851 13.4647C60.3891 13.2862 60.3207 13.1137 60.1954 12.9865C60.0701 12.8593 59.8986 12.7883 59.7201 12.7897Z" fill="#BD0000"/>
<path d="M59.7201 34.3899C59.441 34.3818 59.1848 34.544 59.0727 34.7998C58.9606 35.0556 59.0151 35.3539 59.2104 35.5536C59.4057 35.7533 59.7027 35.8144 59.9609 35.7081C60.2192 35.6017 60.3871 35.3492 60.3851 35.0699C60.3878 34.8914 60.3191 34.7191 60.1942 34.5915C60.0694 34.4638 59.8987 34.3913 59.7201 34.3899Z" fill="#BD0000"/>
<path d="M59.7149 17.1099C59.4385 17.1059 59.1872 17.2695 59.0791 17.5239C58.971 17.7782 59.0276 18.0727 59.2223 18.2689C59.417 18.4651 59.7111 18.5239 59.9663 18.4176C60.2214 18.3114 60.3869 18.0613 60.3849 17.7849C60.3876 17.606 60.318 17.4335 60.192 17.3064C60.0659 17.1794 59.8939 17.1086 59.7149 17.1099Z" fill="#BD0000"/>
<path d="M59.7097 57.3597C60.0874 57.3597 60.3938 57.0541 60.3947 56.6764C60.3956 56.2987 60.0907 55.9916 59.713 55.9898C59.3354 55.9879 59.0275 56.2921 59.0247 56.6697C59.0192 56.8535 59.0894 57.0315 59.2189 57.162C59.3485 57.2924 59.5259 57.3639 59.7097 57.3597Z" fill="#BD0000"/>
<path d="M59.6851 44.3949C59.9618 44.403 60.2158 44.2426 60.3274 43.9893C60.439 43.7359 60.3858 43.4402 60.193 43.2416C60.0002 43.0429 59.7062 42.981 59.4497 43.085C59.1931 43.1889 59.0252 43.4381 59.0251 43.7149C59.021 43.893 59.0886 44.0652 59.2127 44.1931C59.3368 44.3209 59.5069 44.3936 59.6851 44.3949Z" fill="#BD0000"/>
<path d="M60.3848 22.125C60.3926 21.7516 60.0979 21.4417 59.7245 21.431C59.3512 21.4202 59.039 21.7125 59.0254 22.0858C59.0117 22.459 59.3016 22.7734 59.6748 22.79C59.8584 22.801 60.0385 22.736 60.1728 22.6102C60.3071 22.4844 60.3837 22.309 60.3848 22.125Z" fill="#BD0000"/>
<path d="M59.6899 25.7497C59.3164 25.758 59.0195 26.0659 59.025 26.4395C59.0304 26.813 59.3362 27.1122 59.7098 27.1095C60.0834 27.1068 60.3848 26.8033 60.3849 26.4297C60.3893 26.2454 60.3169 26.0676 60.1852 25.9387C60.0534 25.8098 59.874 25.7413 59.6899 25.7497Z" fill="#BD0000"/>
<path d="M60.3848 39.4097C60.3926 39.0363 60.0979 38.7264 59.7245 38.7156C59.3512 38.7049 59.039 38.9972 59.0254 39.3705C59.0117 39.7437 59.3016 40.0581 59.6748 40.0747C59.8588 40.0872 60.0397 40.0226 60.1744 39.8965C60.309 39.7705 60.3852 39.5941 60.3848 39.4097Z" fill="#BD0000"/>
<path d="M55.3702 56.0549C55.0265 56.0632 54.754 56.3476 54.7604 56.6914C54.7668 57.0352 55.0497 57.3092 55.3935 57.3047C55.7373 57.3002 56.0129 57.0188 56.0102 56.6749C56.0132 56.5061 55.9461 56.3436 55.8248 56.2261C55.7035 56.1086 55.5389 56.0466 55.3702 56.0549Z" fill="#BD0000"/>
<path d="M55.3901 35.6946C55.7332 35.6864 56.0055 35.403 56 35.0599C55.9946 34.7167 55.7134 34.4422 55.3702 34.4448C55.027 34.4475 54.7502 34.7264 54.7501 35.0696C54.7472 35.2389 54.8142 35.4019 54.9353 35.5202C55.0564 35.6384 55.2209 35.7015 55.3901 35.6946Z" fill="#BD0000"/>
<path d="M55.375 40.0147C55.7182 40.0146 55.9971 39.7377 55.9998 39.3945C56.0025 39.0513 55.7279 38.7702 55.3848 38.7647C55.0416 38.7593 54.7583 39.0315 54.75 39.3747C54.7431 39.5438 54.8062 39.7083 54.9245 39.8294C55.0428 39.9505 55.2058 40.0175 55.375 40.0147Z" fill="#BD0000"/>
<path d="M56.0102 61.01C56.0156 60.8426 55.9526 60.6802 55.8355 60.5604C55.7185 60.4405 55.5577 60.3736 55.3902 60.375C55.0457 60.3723 54.7639 60.6489 54.7603 60.9934C54.7566 61.3379 55.0325 61.6204 55.3769 61.6249C55.7214 61.6295 56.0047 61.3545 56.0102 61.01Z" fill="#BD0000"/>
<path d="M55.36 8.52493C55.0158 8.53887 54.7478 8.8286 54.7607 9.17278C54.7736 9.51696 55.0625 9.78585 55.4067 9.77405C55.7509 9.76224 56.0207 9.47418 56.01 9.12993C56.0075 8.96231 55.9367 8.80296 55.814 8.68875C55.6913 8.57454 55.5273 8.51537 55.36 8.52493Z" fill="#BD0000"/>
<path d="M55.3951 22.7497C55.7354 22.7387 56.0044 22.4572 55.9998 22.1166C55.9953 21.7761 55.7189 21.5019 55.3784 21.5C55.0378 21.4981 54.7584 21.7692 54.7501 22.1097C54.7428 22.2824 54.8086 22.4502 54.9313 22.572C55.0541 22.6938 55.2224 22.7583 55.3951 22.7497Z" fill="#BD0000"/>
<path d="M55.39 27.055C55.7331 27.0468 56.0054 26.7634 55.9999 26.4202C55.9945 26.0771 55.7133 25.8025 55.3701 25.8052C55.0269 25.8079 54.7501 26.0868 54.75 26.43C54.7486 26.5988 54.816 26.7609 54.9368 26.8789C55.0576 26.9969 55.2213 27.0604 55.39 27.055Z" fill="#BD0000"/>
<path d="M55.3749 52.9799C55.63 52.9839 55.8618 52.8326 55.9608 52.5975C56.0598 52.3625 56.006 52.0909 55.8249 51.9113C55.6438 51.7317 55.3718 51.6801 55.1375 51.781C54.9033 51.8819 54.7539 52.115 54.7599 52.3699C54.7627 52.7076 55.0372 52.9799 55.3749 52.9799Z" fill="#BD0000"/>
<path d="M55.3951 31.3747C55.7375 31.3637 56.0072 31.0792 56 30.7368C55.9927 30.3943 55.7112 30.1215 55.3686 30.125C55.0261 30.1286 54.7503 30.4071 54.7501 30.7497C54.7471 30.9199 54.8148 31.0836 54.937 31.2021C55.0593 31.3205 55.2251 31.383 55.3951 31.3747Z" fill="#BD0000"/>
<path d="M55.39 48.66C55.7331 48.6517 56.0054 48.3684 55.9999 48.0252C55.9945 47.6821 55.7133 47.4075 55.3701 47.4102C55.0269 47.4129 54.7501 47.6918 54.75 48.035C54.7486 48.2038 54.816 48.3659 54.9368 48.4839C55.0576 48.6018 55.2213 48.6654 55.39 48.66Z" fill="#BD0000"/>
<path d="M55.3701 18.4097C55.7113 18.4119 55.9911 18.1401 55.999 17.799C56.0068 17.458 55.7397 17.1736 55.3988 17.1602C55.0579 17.1467 54.7692 17.4091 54.7501 17.7497C54.7359 17.9217 54.7953 18.0916 54.9135 18.2174C55.0316 18.3432 55.1976 18.4131 55.3701 18.4097Z" fill="#BD0000"/>
<path d="M55.3851 44.3398C55.7283 44.3343 56.0028 44.0531 56 43.7099C55.9973 43.3667 55.7183 43.0899 55.3751 43.0898C55.0319 43.0898 54.7529 43.3666 54.7501 43.7098C54.7473 43.8786 54.8135 44.0412 54.9333 44.1601C55.0532 44.279 55.2163 44.3439 55.3851 44.3398Z" fill="#BD0000"/>
<path d="M56.0102 13.4945C56.0184 13.3276 55.9587 13.1644 55.8448 13.042C55.7309 12.9196 55.5724 12.8484 55.4052 12.8445C55.061 12.8338 54.7729 13.1036 54.7611 13.4478C54.7493 13.792 55.0182 14.0809 55.3624 14.0938C55.7066 14.1067 55.9963 13.8387 56.0102 13.4945Z" fill="#BD0000"/>
<path d="M51.0751 34.53C50.8543 34.524 50.6517 34.6518 50.562 34.8536C50.4724 35.0555 50.5135 35.2915 50.666 35.4512C50.8185 35.6109 51.0524 35.6628 51.2582 35.5825C51.4639 35.5023 51.6009 35.3058 51.6051 35.085C51.6119 34.9401 51.5591 34.7988 51.4589 34.694C51.3588 34.5891 51.2201 34.5298 51.0751 34.53Z" fill="#BD0000"/>
<path d="M51.06 21.565C50.8538 21.5452 50.6541 21.644 50.5448 21.8201C50.4356 21.9961 50.4356 22.2189 50.5448 22.3949C50.6541 22.571 50.8538 22.6698 51.06 22.65C51.2068 22.6609 51.3509 22.6067 51.454 22.5017C51.5571 22.3966 51.6087 22.2515 51.595 22.105C51.5977 21.9618 51.5424 21.8237 51.4416 21.722C51.3409 21.6202 51.2032 21.5636 51.06 21.565Z" fill="#BD0000"/>
<path d="M51.0751 12.925C50.8543 12.919 50.6517 13.0468 50.562 13.2486C50.4724 13.4505 50.5135 13.6865 50.666 13.8462C50.8185 14.0059 51.0524 14.0578 51.2582 13.9776C51.4639 13.8973 51.6009 13.7008 51.6051 13.48C51.6119 13.3352 51.5591 13.1938 51.4589 13.089C51.3588 12.9841 51.2201 12.9248 51.0751 12.925Z" fill="#BD0000"/>
<path d="M51.0651 43.17C50.9197 43.1673 50.7795 43.2238 50.6767 43.3266C50.5739 43.4294 50.5174 43.5697 50.5201 43.715C50.547 43.9945 50.7818 44.2079 51.0626 44.2079C51.3434 44.2079 51.5783 43.9945 51.6051 43.715C51.6078 43.5705 51.552 43.4311 51.4503 43.3284C51.3485 43.2258 51.2096 43.1686 51.0651 43.17Z" fill="#BD0000"/>
<path d="M51.07 17.2497C50.9247 17.2456 50.784 17.3009 50.6802 17.4028C50.5765 17.5046 50.5186 17.6443 50.52 17.7897C50.5173 18.0907 50.7591 18.3369 51.06 18.3397C51.361 18.3424 51.6072 18.1007 51.61 17.7997C51.6128 17.4987 51.371 17.2525 51.07 17.2497Z" fill="#BD0000"/>
<path d="M51.0499 47.4946C50.9044 47.493 50.7648 47.5518 50.6644 47.657C50.5639 47.7622 50.5116 47.9044 50.5199 48.0496C50.5211 48.1951 50.5815 48.3338 50.6871 48.4337C50.7928 48.5337 50.9346 48.5864 51.0799 48.5796C51.221 48.5732 51.3536 48.5102 51.4477 48.4048C51.5418 48.2994 51.5895 48.1605 51.5799 48.0196C51.5873 47.8773 51.5337 47.7387 51.4325 47.6384C51.3312 47.5382 51.1921 47.4859 51.0499 47.4946Z" fill="#BD0000"/>
<path d="M51.0601 51.8148C50.9147 51.8106 50.7741 51.8668 50.6718 51.9701C50.5694 52.0734 50.5145 52.2145 50.5201 52.3599C50.5003 52.5661 50.5991 52.7658 50.7752 52.875C50.9512 52.9843 51.174 52.9843 51.35 52.875C51.5261 52.7658 51.6249 52.5661 51.6051 52.3599C51.6108 52.2136 51.5552 52.0717 51.4517 51.9682C51.3482 51.8648 51.2063 51.8092 51.0601 51.8148Z" fill="#BD0000"/>
<path d="M51.0801 60.4546C50.8749 60.43 50.6735 60.5235 50.5599 60.6962C50.4463 60.8689 50.4402 61.0909 50.544 61.2696C50.6479 61.4483 50.8439 61.5528 51.0501 61.5396C51.192 61.5553 51.3338 61.5096 51.4398 61.4141C51.5458 61.3186 51.606 61.1823 51.6051 61.0396C51.6223 60.8903 51.5747 60.7408 51.4743 60.6289C51.3739 60.5171 51.2304 60.4536 51.0801 60.4546Z" fill="#BD0000"/>
<path d="M51.6049 26.4598C51.6253 26.3155 51.5818 26.1695 51.4857 26.06C51.3896 25.9505 51.2506 25.8883 51.1049 25.8898C50.9626 25.8788 50.8219 25.9256 50.7146 26.0198C50.6074 26.1139 50.5426 26.2473 50.5349 26.3898C50.5253 26.5317 50.5727 26.6717 50.6665 26.7786C50.7603 26.8856 50.8929 26.9508 51.0349 26.9598C51.1772 26.9707 51.3179 26.9239 51.4252 26.8298C51.5325 26.7356 51.5973 26.6023 51.6049 26.4598Z" fill="#BD0000"/>
<path d="M51.0549 8.60487C50.8336 8.60698 50.6356 8.74273 50.5538 8.94837C50.4719 9.15401 50.5226 9.38871 50.682 9.54229C50.8414 9.69586 51.0778 9.73781 51.2802 9.64843C51.4827 9.55905 51.611 9.35611 51.6049 9.13487C51.6051 8.99077 51.5465 8.85284 51.4427 8.75285C51.3389 8.65286 51.1989 8.59943 51.0549 8.60487Z" fill="#BD0000"/>
<path d="M51.0651 56.1348C50.7856 56.1617 50.5723 56.3965 50.5723 56.6773C50.5723 56.9581 50.7856 57.193 51.0651 57.2198C51.2714 57.2397 51.471 57.1408 51.5803 56.9648C51.6896 56.7887 51.6896 56.5659 51.5803 56.3899C51.471 56.2139 51.2714 56.115 51.0651 56.1348Z" fill="#BD0000"/>
<path d="M51.0651 30.2095C50.7856 30.2364 50.5723 30.4712 50.5723 30.752C50.5723 31.0328 50.7856 31.2677 51.0651 31.2945C51.2714 31.3144 51.471 31.2155 51.5803 31.0395C51.6896 30.8634 51.6896 30.6406 51.5803 30.4646C51.471 30.2886 51.2714 30.1897 51.0651 30.2095Z" fill="#BD0000"/>
<path d="M51.0651 38.8498C50.8438 38.8478 50.6432 38.9798 50.5576 39.1839C50.472 39.388 50.5183 39.6237 50.6748 39.7802C50.8313 39.9367 51.0669 39.983 51.271 39.8974C51.4751 39.8117 51.6072 39.6112 51.6051 39.3898C51.6093 39.2454 51.5538 39.1056 51.4516 39.0034C51.3494 38.9012 51.2096 38.8456 51.0651 38.8498Z" fill="#BD0000"/>
<path d="M46.7499 8.68997C46.6324 8.68863 46.5192 8.7344 46.4356 8.81706C46.352 8.89972 46.3049 9.0124 46.3049 9.12997C46.3009 9.25283 46.3462 9.3722 46.4307 9.46144C46.5153 9.55068 46.632 9.60236 46.7549 9.60497C47.0026 9.58834 47.2006 9.39248 47.2199 9.14497C47.2145 8.89011 47.0048 8.68717 46.7499 8.68997Z" fill="#BD0000"/>
<path d="M46.75 60.5397C46.628 60.537 46.51 60.5829 46.4218 60.6673C46.3337 60.7517 46.2827 60.8677 46.28 60.9897C46.2732 61.1072 46.3138 61.2226 46.3928 61.31C46.4717 61.3974 46.5824 61.4495 46.7 61.4547C46.958 61.4718 47.1814 61.2775 47.2 61.0197C47.1913 60.7696 46.999 60.5645 46.75 60.5397Z" fill="#BD0000"/>
<path d="M46.7501 51.9C46.6286 51.8973 46.511 51.9434 46.4237 52.0279C46.3363 52.1125 46.2864 52.2285 46.2851 52.35C46.2797 52.4676 46.3216 52.5824 46.4015 52.6688C46.4814 52.7553 46.5925 52.8061 46.7101 52.81C46.8344 52.8196 46.9572 52.779 47.0512 52.6972C47.1452 52.6154 47.2025 52.4994 47.2101 52.375C47.1983 52.1234 47.0012 51.9199 46.7501 51.9Z" fill="#BD0000"/>
<path d="M46.7502 48.4947C47.005 48.4865 47.2058 48.2746 47.2002 48.0197C47.1974 47.7759 46.999 47.5797 46.7552 47.5797C46.6323 47.577 46.5135 47.6236 46.4252 47.7091C46.3369 47.7946 46.2865 47.9118 46.2852 48.0347C46.3045 48.2822 46.5025 48.4781 46.7502 48.4947Z" fill="#BD0000"/>
<path d="M46.75 30.295C46.6276 30.295 46.5103 30.3443 46.4247 30.4318C46.3391 30.5193 46.2923 30.6376 46.295 30.76C46.2924 30.8775 46.3368 30.9913 46.4186 31.0758C46.5003 31.1604 46.6125 31.2087 46.73 31.21C46.9049 31.2283 47.0749 31.1453 47.1681 30.9962C47.2612 30.8471 47.2612 30.6579 47.1681 30.5088C47.0749 30.3597 46.9049 30.2767 46.73 30.295H46.75Z" fill="#BD0000"/>
<path d="M46.2898 43.75C46.2898 43.8676 46.3369 43.9802 46.4205 44.0629C46.5041 44.1456 46.6173 44.1913 46.7348 44.19C46.9897 44.1928 47.1994 43.9899 47.2048 43.735C47.1982 43.4813 47.0026 43.2728 46.7498 43.25C46.6206 43.2495 46.4971 43.3034 46.4096 43.3986C46.322 43.4937 46.2786 43.6212 46.2898 43.75Z" fill="#BD0000"/>
<path d="M46.75 18.2498C46.9995 18.2328 47.1981 18.0342 47.215 17.7848C47.2127 17.6572 47.1576 17.5364 47.0628 17.4511C46.968 17.3658 46.8421 17.3236 46.715 17.3348C46.5975 17.3348 46.4848 17.3818 46.4021 17.4654C46.3194 17.549 46.2737 17.6622 46.275 17.7798C46.2722 17.9061 46.3215 18.0281 46.4114 18.117C46.5012 18.2059 46.6237 18.2539 46.75 18.2498Z" fill="#BD0000"/>
<path d="M46.7498 38.9348C46.6318 38.9321 46.5176 38.9765 46.4322 39.0581C46.3469 39.1396 46.2975 39.2518 46.2948 39.3698C46.2852 39.494 46.3259 39.6169 46.4076 39.7109C46.4894 39.8049 46.6055 39.8622 46.7298 39.8698C46.9893 39.8709 47.2065 39.6733 47.2298 39.4148C47.2341 39.2863 47.1848 39.1617 47.0939 39.0708C47.003 38.9798 46.8784 38.9306 46.7498 38.9348Z" fill="#BD0000"/>
<path d="M46.7502 56.2198C46.6321 56.2212 46.5195 56.2693 46.437 56.3537C46.3544 56.4381 46.3088 56.5518 46.3102 56.6698C46.3075 56.7922 46.3542 56.9106 46.4398 56.9981C46.5255 57.0856 46.6427 57.1349 46.7652 57.1348C47.0127 57.1155 47.2085 56.9175 47.2252 56.6698C47.217 56.415 47.0051 56.2142 46.7502 56.2198Z" fill="#BD0000"/>
<path d="M46.7499 22.5697C46.8728 22.5724 46.9916 22.5258 47.0799 22.4403C47.1682 22.3549 47.2186 22.2376 47.2199 22.1147C47.2284 21.8708 47.0388 21.6656 46.7949 21.6547C46.6715 21.6451 46.5494 21.6851 46.4555 21.7658C46.3617 21.8465 46.3039 21.9613 46.2949 22.0847C46.3015 22.3384 46.4971 22.547 46.7499 22.5697Z" fill="#BD0000"/>
<path d="M46.7498 34.615C46.6322 34.611 46.5179 34.6542 46.4324 34.735C46.3469 34.8157 46.2974 34.9274 46.2948 35.045C46.2837 35.1695 46.3239 35.2932 46.4059 35.3875C46.488 35.4818 46.6049 35.5387 46.7298 35.545C46.9858 35.5466 47.2016 35.3545 47.2298 35.1C47.2354 34.9706 47.1868 34.8447 47.0957 34.7527C47.0046 34.6606 46.8792 34.6107 46.7498 34.615Z" fill="#BD0000"/>
<path d="M46.7498 25.9749C46.6322 25.9708 46.5179 26.014 46.4324 26.0948C46.3469 26.1756 46.2974 26.2873 46.2948 26.4049C46.2837 26.5294 46.3239 26.6531 46.4059 26.7474C46.488 26.8417 46.6049 26.8986 46.7298 26.9049C46.9875 26.9062 47.204 26.7113 47.2298 26.4549C47.234 26.3263 47.1848 26.2018 47.0938 26.1108C47.0029 26.0199 46.8783 25.9707 46.7498 25.9749Z" fill="#BD0000"/>
<path d="M46.7499 13.0098C46.5042 13.0098 46.3049 13.2091 46.3049 13.4548C46.3009 13.5772 46.3464 13.6961 46.431 13.7845C46.5157 13.873 46.6325 13.9236 46.7549 13.9248C46.9298 13.9431 47.0998 13.8602 47.193 13.711C47.2861 13.5619 47.2861 13.3727 47.193 13.2236C47.0998 13.0745 46.9298 12.9915 46.7549 13.0098H46.7499Z" fill="#BD0000"/>
<path d="M42.4351 56.96C42.5251 56.96 42.6551 56.82 42.8501 56.68C42.6551 56.54 42.5401 56.385 42.4351 56.395C42.3301 56.405 42.2251 56.565 42.1201 56.66C42.2501 56.75 42.3151 56.935 42.4351 56.96Z" fill="#BD0000"/>
<path d="M42.7051 52.3597C42.7051 52.2497 42.5301 52.1547 42.4351 52.0547C42.3301 52.1597 42.1651 52.2547 42.1401 52.3747C42.1151 52.4947 42.2901 52.5897 42.4301 52.7797C42.5651 52.5847 42.7151 52.4647 42.7051 52.3597Z" fill="#BD0000"/>
<path d="M42.7049 9.16973C42.7049 9.05973 42.5449 8.95473 42.4549 8.84473C42.3449 8.94473 42.1749 9.02473 42.1399 9.14473C42.1049 9.26473 42.2749 9.36973 42.4049 9.56973C42.5499 9.38473 42.7099 9.27473 42.7049 9.16973Z" fill="#BD0000"/>
<path d="M42.415 48.32C42.525 48.32 42.62 48.15 42.725 48.055C42.625 47.945 42.535 47.78 42.415 47.755C42.295 47.73 42.195 47.895 42 48.035C42.19 48.175 42.31 48.325 42.415 48.32Z" fill="#BD0000"/>
<path d="M42.7499 61.0148C42.6499 60.9098 42.5599 60.7448 42.4399 60.7148C42.3199 60.6848 42.2199 60.8598 42.0249 60.9948C42.2149 61.1348 42.3349 61.2898 42.4399 61.2798C42.5449 61.2698 42.6199 61.1098 42.7499 61.0148Z" fill="#BD0000"/>
<path d="M42.3901 13.7498C42.5051 13.6548 42.6751 13.5748 42.7051 13.4548C42.7351 13.3348 42.5751 13.2298 42.4451 13.0298C42.2951 13.2148 42.1401 13.3198 42.1401 13.4298C42.1401 13.5398 42.3001 13.6598 42.3901 13.7498Z" fill="#BD0000"/>
<path d="M42.4348 44.1395C42.5698 43.9445 42.7298 43.8095 42.7048 43.7196C42.6798 43.6296 42.5098 43.5146 42.3998 43.4146C42.3048 43.5196 42.1448 43.6196 42.1398 43.7296C42.1348 43.8395 42.2898 43.9495 42.4348 44.1395Z" fill="#BD0000"/>
<path d="M42.3998 18.0897C42.5098 17.9897 42.6748 17.9047 42.7048 17.7847C42.7348 17.6647 42.5698 17.5597 42.4348 17.3647C42.2898 17.5547 42.1348 17.6697 42.1398 17.7697C42.1448 17.8697 42.3098 17.9847 42.3998 18.0897Z" fill="#BD0000"/>
<path d="M42.7051 39.3998C42.7051 39.2898 42.5301 39.1948 42.4351 39.0898C42.3301 39.1948 42.1651 39.2898 42.1401 39.4098C42.1151 39.5298 42.2901 39.6298 42.4301 39.8198C42.5651 39.6248 42.7151 39.5048 42.7051 39.3998Z" fill="#BD0000"/>
<path d="M42.4351 21.8096C42.3301 21.9146 42.1651 22.0046 42.1401 22.1246C42.1151 22.2446 42.2901 22.3446 42.4301 22.5346C42.5651 22.3396 42.7151 22.2196 42.7051 22.1146C42.6951 22.0096 42.5301 21.9096 42.4351 21.8096Z" fill="#BD0000"/>
<path d="M42.1201 35.055C42.2251 35.16 42.3151 35.33 42.4351 35.355C42.5551 35.38 42.6551 35.215 42.8501 35.075C42.6551 34.935 42.5401 34.78 42.4351 34.79C42.3301 34.8 42.2501 34.96 42.1201 35.055Z" fill="#BD0000"/>
<path d="M42.1399 26.4298C42.1749 26.5498 42.3449 26.6298 42.4549 26.7298C42.5449 26.6248 42.6999 26.5198 42.7049 26.4098C42.7099 26.2998 42.5549 26.1898 42.4049 26.0098C42.2749 26.2048 42.1199 26.3398 42.1399 26.4298Z" fill="#BD0000"/>
<path d="M42.1201 30.7498C42.2251 30.8548 42.3151 31.0198 42.4351 31.0498C42.5551 31.0798 42.6551 30.9048 42.8501 30.7698C42.6551 30.6298 42.5401 30.4748 42.4351 30.4848C42.3301 30.4948 42.2501 30.6398 42.1201 30.7498Z" fill="#BD0000"/>
<path d="M85.6549 64.7498C85.2483 64.7397 84.8761 64.9767 84.7134 65.3495C84.5507 65.7223 84.63 66.1564 84.9139 66.4476C85.1978 66.7388 85.6298 66.8291 86.0066 66.6759C86.3833 66.5227 86.6298 66.1565 86.6299 65.7498C86.6301 65.2072 86.1974 64.7634 85.6549 64.7498Z" fill="#BD0000"/>
<path d="M85.6402 69.0596C85.0919 69.0598 84.646 69.5016 84.6407 70.0499C84.6354 70.5982 85.0726 71.0485 85.6208 71.0594C86.169 71.0703 86.6237 70.6377 86.6402 70.0896C86.6483 69.8192 86.5465 69.5571 86.3581 69.363C86.1697 69.1689 85.9107 69.0594 85.6402 69.0596Z" fill="#BD0000"/>
<path d="M81.3148 69.09C80.9075 69.0757 80.5322 69.3101 80.3664 69.6824C80.2005 70.0547 80.2772 70.4905 80.5602 70.7838C80.8433 71.0771 81.276 71.1692 81.654 71.0167C82.032 70.8642 82.2796 70.4976 82.2798 70.09C82.2801 69.5511 81.8534 69.1088 81.3148 69.09Z" fill="#BD0000"/>
<path d="M81.2948 73.4097C80.8872 73.4099 80.5206 73.6575 80.3681 74.0355C80.2156 74.4135 80.3077 74.8462 80.601 75.1293C80.8943 75.4123 81.3301 75.489 81.7024 75.3231C82.0747 75.1573 82.3091 74.782 82.2948 74.3747C82.276 73.8361 81.8337 73.4093 81.2948 73.4097Z" fill="#BD0000"/>
<path d="M81.3098 64.75C80.9028 64.7378 80.5291 64.9735 80.3648 65.346C80.2005 65.7186 80.2785 66.1535 80.562 66.4458C80.8455 66.738 81.2779 66.8292 81.6552 66.6764C82.0326 66.5235 82.2796 66.1571 82.2798 65.75C82.2801 65.2092 81.8503 64.7662 81.3098 64.75Z" fill="#BD0000"/>
<path d="M76.995 69.1397C76.6186 69.1357 76.2773 69.3601 76.1319 69.7073C75.9865 70.0544 76.0659 70.4551 76.3328 70.7205C76.5997 70.9859 77.0008 71.0632 77.3471 70.9159C77.6935 70.7685 77.916 70.426 77.91 70.0497C77.8942 69.5519 77.4929 69.1527 76.995 69.1397Z" fill="#BD0000"/>
<path d="M77.9049 74.4197C77.9264 73.9095 77.5305 73.4783 77.0204 73.4564C76.5102 73.4345 76.0788 73.8302 76.0566 74.3403C76.0343 74.8505 76.4297 75.2821 76.9399 75.3047C77.4489 75.3217 77.8779 74.9283 77.9049 74.4197Z" fill="#BD0000"/>
<path d="M77.0052 64.8195C76.4952 64.8087 76.0727 65.2128 76.0608 65.7228C76.0489 66.2328 76.4522 66.6562 76.9622 66.669C77.4722 66.6819 77.8963 66.2795 77.9102 65.7696C77.916 65.2599 77.5145 64.8385 77.0052 64.8195Z" fill="#BD0000"/>
<path d="M76.9649 77.7847C76.4542 77.7959 76.0492 78.2189 76.0603 78.7296C76.0714 79.2403 76.4943 79.6453 77.005 79.6343C77.5157 79.6233 77.9208 79.2004 77.9098 78.6897C77.8936 78.1812 77.4736 77.779 76.9649 77.7847Z" fill="#BD0000"/>
<path d="M72.67 69.2046C72.1964 69.2019 71.8098 69.5827 71.8052 70.0563C71.8007 70.53 72.1799 70.9181 72.6535 70.9245C73.1271 70.9309 73.5168 70.5532 73.525 70.0796C73.5277 69.8502 73.4391 69.6291 73.2788 69.465C73.1184 69.3009 72.8995 69.2072 72.67 69.2046Z" fill="#BD0000"/>
<path d="M72.6602 77.8447C72.1865 77.8475 71.8043 78.2327 71.8052 78.7064C71.8061 79.18 72.1898 79.5638 72.6635 79.5647C73.1372 79.5656 73.5224 79.1834 73.5252 78.7097C73.5224 78.2331 73.1368 77.8475 72.6602 77.8447Z" fill="#BD0000"/>
<path d="M72.6701 64.8848C72.1958 64.8821 71.8089 65.2638 71.8052 65.7381C71.8015 66.2124 72.1826 66.6001 72.6569 66.6047C73.1311 66.6093 73.5196 66.2291 73.5251 65.7548C73.5279 65.279 73.1459 64.8903 72.6701 64.8848Z" fill="#BD0000"/>
<path d="M72.6552 82.1646C72.1816 82.1701 71.8015 82.5575 71.8052 83.0311C71.8089 83.5048 72.1948 83.8863 72.6685 83.8845C73.1421 83.8827 73.5251 83.4982 73.5252 83.0245C73.5197 82.548 73.1318 82.1645 72.6552 82.1646Z" fill="#BD0000"/>
<path d="M72.6451 73.525C72.1716 73.536 71.7962 73.9278 71.8053 74.4014C71.8145 74.8749 72.2048 75.2519 72.6784 75.2446C73.1519 75.2374 73.5305 74.8486 73.5251 74.375C73.5142 73.8984 73.1218 73.5194 72.6451 73.525Z" fill="#BD0000"/>
<path d="M68.3401 64.9348C67.8947 64.9376 67.5351 65.2995 67.5352 65.7449C67.5352 66.1902 67.8948 66.5521 68.3402 66.5548C68.7855 66.5575 69.1496 66.2002 69.1551 65.7548C69.162 65.5362 69.0786 65.3243 68.9244 65.1691C68.7701 65.014 68.5588 64.9292 68.3401 64.9348Z" fill="#BD0000"/>
<path d="M68.3552 73.5748C68.0262 73.5707 67.7275 73.766 67.5993 74.069C67.471 74.3719 67.5387 74.7223 67.7706 74.9557C68.0025 75.189 68.3525 75.2589 68.6563 75.1326C68.96 75.0062 69.1572 74.7087 69.1552 74.3798C69.1565 74.1667 69.0728 73.962 68.9226 73.8108C68.7725 73.6597 68.5682 73.5748 68.3552 73.5748Z" fill="#BD0000"/>
<path d="M69.1549 70.1098C69.173 69.7815 68.9907 69.4748 68.6937 69.3337C68.3967 69.1927 68.0439 69.2451 67.8008 69.4665C67.5577 69.6879 67.4725 70.0343 67.5853 70.3432C67.6981 70.6521 67.9864 70.8621 68.3149 70.8748C68.5284 70.887 68.7377 70.8128 68.8958 70.6689C69.0538 70.5249 69.1472 70.3234 69.1549 70.1098Z" fill="#BD0000"/>
<path d="M68.3499 77.8946C67.9046 77.892 67.5406 78.2494 67.5352 78.6947C67.5298 79.1401 67.8849 79.5062 68.3302 79.5144C68.7755 79.5227 69.1439 79.1698 69.1549 78.7246C69.1646 78.506 69.0837 78.2931 68.9314 78.136C68.779 77.979 68.5687 77.8916 68.3499 77.8946Z" fill="#BD0000"/>
<path d="M68.3451 82.2149C68.0166 82.2149 67.7206 82.4134 67.5959 82.7173C67.4711 83.0212 67.5423 83.3704 67.776 83.6012C68.0097 83.8321 68.3598 83.8989 68.6621 83.7703C68.9644 83.6418 69.1592 83.3434 69.1551 83.0149C69.1551 82.801 69.0695 82.596 68.9173 82.4457C68.7651 82.2953 68.559 82.2122 68.3451 82.2149Z" fill="#BD0000"/>
<path d="M64.01 86.5996C63.5972 86.6051 63.2664 86.9432 63.27 87.3561C63.2737 87.769 63.6104 88.1013 64.0233 88.0995C64.4362 88.0977 64.77 87.7625 64.77 87.3495C64.7743 87.1476 64.6952 86.9528 64.5515 86.811C64.4077 86.6691 64.2119 86.5926 64.01 86.5996Z" fill="#BD0000"/>
<path d="M63.28 82.9598C63.2523 83.2612 63.4098 83.5494 63.6784 83.689C63.947 83.8286 64.2733 83.7917 64.5041 83.5958C64.7348 83.3999 64.8241 83.0839 64.7299 82.7962C64.6358 82.5085 64.3769 82.3064 64.075 82.2848C63.8796 82.2668 63.6852 82.3283 63.5357 82.4553C63.3861 82.5823 63.2939 82.7641 63.28 82.9598Z" fill="#BD0000"/>
<path d="M64.0398 77.9598C63.6304 77.9413 63.2829 78.257 63.2622 78.6663C63.2415 79.0757 63.5553 79.4249 63.9645 79.4478C64.3738 79.4708 64.7247 79.1589 64.7498 78.7498C64.7649 78.5498 64.6977 78.3523 64.5636 78.2031C64.4295 78.0539 64.2403 77.966 64.0398 77.9598Z" fill="#BD0000"/>
<path d="M64.0152 73.6396C63.6064 73.6451 63.2784 73.9791 63.2803 74.3879C63.2821 74.7967 63.6131 75.1277 64.0219 75.1295C64.4307 75.1314 64.7647 74.8034 64.7702 74.3946C64.7773 74.1923 64.7 73.9961 64.5568 73.853C64.4137 73.7098 64.2175 73.6325 64.0152 73.6396Z" fill="#BD0000"/>
<path d="M64.0498 69.3198C63.7468 69.3096 63.468 69.484 63.3445 69.7608C63.2209 70.0376 63.2775 70.3616 63.4874 70.5803C63.6973 70.7989 64.0187 70.8686 64.3004 70.7565C64.582 70.6444 64.7676 70.3729 64.7698 70.0698C64.7752 69.8744 64.702 69.6851 64.5667 69.5441C64.4314 69.4032 64.2452 69.3224 64.0498 69.3198Z" fill="#BD0000"/>
<path d="M64.7499 65.7498C64.7599 65.4478 64.5866 65.1696 64.311 65.0456C64.0355 64.9216 63.7123 64.9763 63.4929 65.1842C63.2735 65.392 63.2014 65.7117 63.3104 65.9936C63.4193 66.2755 63.6877 66.4636 63.9899 66.4698C64.1869 66.478 64.3788 66.406 64.522 66.2704C64.6651 66.1348 64.7473 65.947 64.7499 65.7498Z" fill="#BD0000"/>
<path d="M59.6952 75.0646C59.8745 75.0727 60.0494 75.0075 60.1796 74.8839C60.3097 74.7604 60.384 74.5891 60.3852 74.4096C60.3948 74.2259 60.3284 74.0464 60.2017 73.913C60.075 73.7797 59.8991 73.7043 59.7152 73.7046C59.3396 73.7046 59.0352 74.009 59.0352 74.3846C59.0352 74.7601 59.3396 75.0646 59.7152 75.0646H59.6952Z" fill="#BD0000"/>
<path d="M59.0249 65.6946C59.0249 66.0702 59.3293 66.3746 59.7049 66.3746C60.0805 66.3746 60.3849 66.0702 60.3849 65.6946C60.3849 65.3191 60.0805 65.0146 59.7049 65.0146C59.3293 65.0146 59.0249 65.3191 59.0249 65.6946Z" fill="#BD0000"/>
<path d="M59.72 78.0249C59.5362 78.018 59.3578 78.0869 59.2263 78.2155C59.0949 78.3441 59.0221 78.521 59.025 78.7049C59.0251 79.0785 59.3265 79.382 59.7001 79.3847C60.0737 79.3874 60.3794 79.0882 60.3849 78.7147C60.3904 78.3411 60.0935 78.0331 59.72 78.0249Z" fill="#BD0000"/>
<path d="M59.7149 82.3448C59.439 82.3407 59.188 82.5038 59.0796 82.7576C58.9712 83.0113 59.0269 83.3054 59.2205 83.502C59.4142 83.6985 59.7075 83.7586 59.9628 83.6539C60.2181 83.5493 60.3849 83.3007 60.3849 83.0248C60.389 82.845 60.32 82.6712 60.1938 82.5431C60.0675 82.4149 59.8948 82.3434 59.7149 82.3448Z" fill="#BD0000"/>
<path d="M59.6847 70.7499C59.961 70.758 60.2147 70.5981 60.3265 70.3454C60.4384 70.0927 60.3861 69.7974 60.1944 69.5983C60.0026 69.3993 59.7095 69.3362 59.4528 69.4385C59.1961 69.5409 59.0269 69.7885 59.0247 70.0649C59.0193 70.2438 59.0863 70.4174 59.2105 70.5463C59.3347 70.6752 59.5057 70.7486 59.6847 70.7499Z" fill="#BD0000"/>
<path d="M60.3848 87.3647C60.3926 86.9913 60.0979 86.6815 59.7245 86.6707C59.3512 86.6599 59.039 86.9523 59.0254 87.3255C59.0117 87.6988 59.3016 88.0132 59.6748 88.0297C59.8584 88.0407 60.0385 87.9757 60.1728 87.8499C60.3071 87.7242 60.3837 87.5487 60.3848 87.3647Z" fill="#BD0000"/>
<path d="M55.3601 73.75C55.0166 73.7639 54.7487 74.0525 54.7606 74.3961C54.7725 74.7397 55.0597 75.0092 55.4033 74.9993C55.747 74.9893 56.0181 74.7037 56.0101 74.36C56.009 74.1915 55.9388 74.0309 55.816 73.9156C55.6931 73.8003 55.5283 73.7404 55.3601 73.75Z" fill="#BD0000"/>
<path d="M55.39 86.75C55.1349 86.7481 54.9043 86.9013 54.8073 87.1372C54.7102 87.3731 54.7662 87.6442 54.9488 87.8223C55.1313 88.0004 55.4038 88.0498 55.6372 87.947C55.8706 87.8442 56.0181 87.6099 56.01 87.355C56.0045 87.0173 55.7277 86.7472 55.39 86.75Z" fill="#BD0000"/>
<path d="M55.3699 83.6499C55.6057 83.671 55.8331 83.5572 55.9575 83.3559C56.0819 83.1545 56.0819 82.9002 55.9575 82.6989C55.8331 82.4975 55.6057 82.3837 55.3699 82.4049C55.0477 82.4338 54.8008 82.7038 54.8008 83.0274C54.8008 83.3509 55.0477 83.6209 55.3699 83.6499Z" fill="#BD0000"/>
<path d="M55.3948 66.2997C55.7393 66.2942 56.0143 66.011 56.0097 65.6665C56.0051 65.322 55.7226 65.0462 55.3782 65.0498C55.0337 65.0535 54.7571 65.3352 54.7598 65.6797C54.7583 65.8472 54.8253 66.0081 54.9451 66.1251C55.065 66.2421 55.2274 66.3052 55.3948 66.2997Z" fill="#BD0000"/>
<path d="M56.0101 78.7499C56.0196 78.582 55.9606 78.4175 55.8465 78.294C55.7324 78.1705 55.5731 78.0987 55.4051 78.0949C55.0599 78.0797 54.7678 78.3472 54.7526 78.6924C54.7374 79.0375 55.0049 79.3297 55.3501 79.3449C55.5171 79.3558 55.6814 79.2987 55.8057 79.1867C55.93 79.0746 56.0037 78.9171 56.0101 78.7499Z" fill="#BD0000"/>
<path d="M55.405 69.44C55.1692 69.4189 54.9418 69.5327 54.8174 69.734C54.693 69.9353 54.693 70.1897 54.8174 70.391C54.9418 70.5923 55.1692 70.7062 55.405 70.685C55.7272 70.6561 55.9741 70.386 55.9741 70.0625C55.9741 69.739 55.7272 69.4689 55.405 69.44Z" fill="#BD0000"/>
<path d="M51.06 86.8048C50.8538 86.7849 50.6541 86.8838 50.5448 87.0598C50.4356 87.2359 50.4356 87.4586 50.5448 87.6347C50.6541 87.8107 50.8538 87.9096 51.06 87.8898C51.3395 87.8629 51.5529 87.6281 51.5529 87.3473C51.5529 87.0665 51.3395 86.8316 51.06 86.8048Z" fill="#BD0000"/>
<path d="M51.0801 65.1347C50.8574 65.1163 50.6461 65.2357 50.5469 65.4359C50.4477 65.6361 50.4808 65.8766 50.6303 66.0426C50.7799 66.2086 51.0156 66.2665 51.2251 66.1887C51.4345 66.1109 51.5753 65.9131 51.5801 65.6897C51.5958 65.5478 51.5502 65.406 51.4546 65.3C51.3591 65.194 51.2228 65.1338 51.0801 65.1347Z" fill="#BD0000"/>
<path d="M51.0649 69.5196C50.8587 69.4998 50.659 69.5986 50.5497 69.7747C50.4405 69.9507 50.4405 70.1735 50.5497 70.3495C50.659 70.5256 50.8587 70.6244 51.0649 70.6046C51.3444 70.5777 51.5578 70.3429 51.5578 70.0621C51.5578 69.7813 51.3444 69.5465 51.0649 69.5196Z" fill="#BD0000"/>
<path d="M51.0751 78.1648C50.8539 78.1587 50.6509 78.287 50.5616 78.4895C50.4722 78.6919 50.5141 78.9284 50.6677 79.0877C50.8213 79.2471 51.056 79.2978 51.2616 79.2159C51.4673 79.1341 51.603 78.9361 51.6051 78.7148C51.6106 78.5708 51.5571 78.4308 51.4571 78.327C51.3572 78.2232 51.2192 78.1647 51.0751 78.1648Z" fill="#BD0000"/>
<path d="M51.0701 82.4848C50.8493 82.4808 50.6478 82.6104 50.5601 82.8131C50.4723 83.0158 50.5155 83.2514 50.6695 83.4097C50.8235 83.5681 51.0578 83.6178 51.2629 83.5356C51.4679 83.4535 51.6031 83.2557 51.6051 83.0348C51.6204 82.8875 51.5695 82.741 51.4662 82.6348C51.3629 82.5286 51.2178 82.4737 51.0701 82.4848Z" fill="#BD0000"/>
<path d="M51.0551 73.8399C50.8489 73.8201 50.6492 73.9189 50.54 74.095C50.4307 74.271 50.4307 74.4938 50.54 74.6698C50.6492 74.8459 50.8489 74.9447 51.0551 74.9249C51.3347 74.898 51.548 74.6632 51.548 74.3824C51.548 74.1016 51.3347 73.8668 51.0551 73.8399Z" fill="#BD0000"/>
<path d="M46.7501 74.8447C46.9978 74.8281 47.1957 74.6322 47.2151 74.3847C47.2096 74.1299 47 73.9269 46.7451 73.9297C46.6275 73.9284 46.5143 73.9741 46.4307 74.0568C46.3471 74.1395 46.3 74.2522 46.3001 74.3697C46.296 74.4926 46.3413 74.6119 46.4259 74.7012C46.5104 74.7904 46.6272 74.8421 46.7501 74.8447Z" fill="#BD0000"/>
<path d="M47.2001 70.0296C47.2026 69.7786 47.0186 69.5647 46.7701 69.5296C46.6448 69.5186 46.5203 69.5594 46.4259 69.6425C46.3314 69.7256 46.2751 69.8439 46.2701 69.9696C46.2619 70.0872 46.3012 70.2031 46.3792 70.2915C46.4572 70.3798 46.5674 70.4332 46.6851 70.4396C46.8083 70.4565 46.9331 70.4222 47.0303 70.3448C47.1276 70.2673 47.189 70.1535 47.2001 70.0296Z" fill="#BD0000"/>
<path d="M46.75 65.2198C46.6324 65.2184 46.5192 65.2642 46.4356 65.3468C46.352 65.4295 46.305 65.5422 46.305 65.6598C46.2939 65.7868 46.336 65.9128 46.4213 66.0076C46.5066 66.1024 46.6275 66.1575 46.755 66.1598C47.0027 66.1431 47.2007 65.9473 47.22 65.6998C47.2241 65.573 47.1762 65.45 47.0875 65.3594C46.9987 65.2688 46.8768 65.2183 46.75 65.2198Z" fill="#BD0000"/>
<path d="M46.7502 82.5699C46.5064 82.5727 46.3102 82.7711 46.3102 83.0149C46.3075 83.1369 46.3534 83.255 46.4378 83.3432C46.5222 83.4313 46.6382 83.4823 46.7602 83.4849C47.0096 83.468 47.2082 83.2694 47.2252 83.0199C47.217 82.7651 47.0051 82.5643 46.7502 82.5699Z" fill="#BD0000"/>
<path d="M46.7502 87.8048C46.8722 87.8075 46.9903 87.7616 47.0785 87.6772C47.1666 87.5928 47.2176 87.4769 47.2202 87.3548C47.2257 87.2368 47.1839 87.1214 47.1042 87.0342C47.0245 86.947 46.9133 86.895 46.7952 86.8898C46.6225 86.8653 46.4507 86.9406 46.3517 87.0842C46.2527 87.2279 46.2435 87.4152 46.328 87.5679C46.4124 87.7206 46.5759 87.8123 46.7502 87.8048Z" fill="#BD0000"/>
<path d="M46.7498 78.2496C46.6314 78.2483 46.5174 78.2947 46.4336 78.3785C46.3499 78.4622 46.3034 78.5762 46.3048 78.6946C46.3021 78.8166 46.348 78.9347 46.4324 79.0228C46.5168 79.111 46.6328 79.162 46.7548 79.1646C47.0043 79.1477 47.2029 78.9491 47.2198 78.6996C47.2172 78.5776 47.1662 78.4616 47.078 78.3772C46.9899 78.2929 46.8718 78.2469 46.7498 78.2496Z" fill="#BD0000"/>
<path d="M42.4549 65.375C42.3449 65.475 42.1749 65.555 42.1399 65.675C42.1049 65.795 42.2749 65.9 42.4049 66.1C42.5499 65.915 42.7099 65.805 42.7049 65.7C42.6999 65.595 42.5449 65.485 42.4549 65.375Z" fill="#BD0000"/>
<path d="M42.3901 70.2947C42.5051 70.1997 42.6751 70.1197 42.7051 69.9997C42.7351 69.8797 42.5751 69.7747 42.4451 69.5747C42.2951 69.7597 42.1401 69.8647 42.1401 69.9697C42.1401 70.0747 42.3001 70.1897 42.3901 70.2947Z" fill="#BD0000"/>
<path d="M42.4049 74.81C42.5499 74.625 42.7099 74.515 42.7049 74.41C42.6999 74.305 42.5449 74.195 42.4549 74.085C42.3449 74.185 42.1749 74.265 42.1399 74.385C42.1049 74.505 42.2749 74.61 42.4049 74.81Z" fill="#BD0000"/>
<path d="M42.3901 79.0047C42.5051 78.9097 42.6751 78.8247 42.7051 78.7097C42.7351 78.5947 42.5751 78.4797 42.4451 78.2847C42.2951 78.4647 42.1401 78.5747 42.1401 78.6797C42.1401 78.7847 42.3001 78.8947 42.3901 79.0047Z" fill="#BD0000"/>
<path d="M42.3998 83.33C42.5098 83.23 42.6748 83.14 42.7048 83.02C42.7348 82.9 42.5698 82.8 42.4348 82.605C42.2898 82.79 42.1348 82.905 42.1398 83.01C42.1448 83.115 42.3098 83.25 42.3998 83.33Z" fill="#BD0000"/>
<path d="M42.4351 87.0449C42.3301 87.1499 42.1651 87.2449 42.1401 87.3649C42.1151 87.4849 42.2901 87.5799 42.4301 87.7699C42.5651 87.5749 42.7151 87.4549 42.7051 87.3549C42.6951 87.2549 42.5301 87.1499 42.4351 87.0449Z" fill="#BD0000"/>
</g>
<path d="M47.5993 51.7141C58.7649 51.761 68.643 58.9641 72.0993 69.5829C72.4149 70.6235 71.843 71.7235 70.8149 72.0641C69.7836 72.4048 68.6711 71.8641 68.3024 70.8454C65.468 61.9204 57.2305 55.8204 47.868 55.711C38.5055 55.6048 30.1305 61.5173 27.093 70.3735C26.7274 71.4173 25.5868 71.9673 24.543 71.6048C23.4993 71.2391 22.9492 70.0985 23.3118 69.0548C26.943 58.7329 36.6555 51.7954 47.5993 51.7141Z" fill="white"/>
<path d="M66.5589 36.5658C66.5589 39.2533 64.3808 41.4314 61.6933 41.4314C59.0058 41.4314 56.8276 39.2533 56.8276 36.5658C56.8276 33.8783 59.0058 31.7002 61.6933 31.7002C64.3808 31.7002 66.5589 33.8783 66.5589 36.5658Z" fill="white"/>
<path d="M38.6839 36.5658C38.6839 39.2533 36.5058 41.4314 33.8183 41.4314C31.1308 41.4314 28.9526 39.2533 28.9526 36.5658C28.9526 33.8783 31.1308 31.7002 33.8183 31.7002C36.5058 31.7002 38.6839 33.8783 38.6839 36.5658Z" fill="white"/>
</svg>
