<svg width="32" height="32" viewBox="0 0 32 32" fill="none" xmlns="http://www.w3.org/2000/svg">
<path fill-rule="evenodd" clip-rule="evenodd" d="M15.3537 5.02021C15.549 4.82495 15.549 4.50837 15.3537 4.3131C15.1584 4.11784 14.8419 4.11784 14.6466 4.3131L3.31807 15.6416C3.3148 15.6448 3.31157 15.648 3.30839 15.6513L2.95972 16L3.30774 16.348C3.31135 16.3517 3.31501 16.3554 3.31874 16.359L14.6466 27.6869C14.8419 27.8821 15.1584 27.8821 15.3537 27.6869C15.549 27.4916 15.549 27.175 15.3537 26.9798L4.87394 16.5H28.6667C28.9429 16.5 29.1667 16.2761 29.1667 16C29.1667 15.7239 28.9429 15.5 28.6667 15.5H4.87392L15.3537 5.02021Z" fill="#333333"/>
</svg>
