<svg width="32" height="32" viewBox="0 0 32 32" fill="none" xmlns="http://www.w3.org/2000/svg">
<path fill-rule="evenodd" clip-rule="evenodd" d="M25.0204 7.6869C25.2156 7.49163 25.2156 7.17505 25.0204 6.97979C24.8251 6.78453 24.5085 6.78453 24.3133 6.97979L16.0002 15.2929L7.68705 6.97979C7.49179 6.78453 7.1752 6.78453 6.97994 6.97979C6.78468 7.17505 6.78468 7.49163 6.97994 7.6869L15.2931 16L6.97994 24.3131C6.78468 24.5084 6.78468 24.825 6.97994 25.0202C7.1752 25.2155 7.49179 25.2155 7.68705 25.0202L16.0002 16.7071L24.3133 25.0202C24.5085 25.2155 24.8251 25.2155 25.0204 25.0202C25.2156 24.825 25.2156 24.5084 25.0204 24.3131L16.7073 16L25.0204 7.6869Z" fill="#333333"/>
</svg>
