<svg viewBox="0 0 18 18" fill="none" xmlns="http://www.w3.org/2000/svg">
<g id="si_download ">
<path id="Union" fill-rule="evenodd" clip-rule="evenodd" d="M9.00005 4.59375C9.15538 4.59375 9.2813 4.71967 9.2813 4.875V13.1589L11.2315 11.0586C11.3372 10.9448 11.5151 10.9382 11.629 11.0439C11.7428 11.1496 11.7494 11.3276 11.6437 11.4414L9.20619 14.0664C9.18729 14.0868 9.16567 14.104 9.14216 14.1178C9.11029 14.1365 9.07442 14.1491 9.03615 14.154C9.02426 14.1555 9.01222 14.1563 9.00009 14.1563C8.99098 14.1563 8.98192 14.1558 8.97293 14.155C8.90126 14.1481 8.83743 14.1143 8.79167 14.0639L6.35649 11.4414C6.2508 11.3276 6.25739 11.1496 6.37122 11.0439C6.48504 10.9382 6.663 10.9448 6.76869 11.0586L8.7188 13.1588V4.875C8.7188 4.71967 8.84472 4.59375 9.00005 4.59375ZM1.875 12.0938C2.03033 12.0938 2.15625 12.2197 2.15625 12.375V14.625C2.15625 15.2981 2.7019 15.8438 3.375 15.8438H14.625C15.2981 15.8438 15.8437 15.2981 15.8437 14.625V12.375C15.8437 12.2197 15.9697 12.0938 16.125 12.0938C16.2803 12.0938 16.4062 12.2197 16.4062 12.375V14.625C16.4062 15.6088 15.6088 16.4063 14.625 16.4063H3.375C2.39124 16.4063 1.59375 15.6088 1.59375 14.625V12.375C1.59375 12.2197 1.71967 12.0938 1.875 12.0938Z" fill="#333333"/>
</g>
</svg>
