<svg width="32" height="32" viewBox="0 0 32 32" fill="none" xmlns="http://www.w3.org/2000/svg">
<path fill-rule="evenodd" clip-rule="evenodd" d="M11.5 6.00001C11.5 4.25111 12.9178 2.83334 14.6667 2.83334H17.3333C19.0822 2.83334 20.5 4.25111 20.5 6.00001V6.83334H26C26.2761 6.83334 26.5 7.0572 26.5 7.33334C26.5 7.60949 26.2761 7.83334 26 7.83334H25.1666V26C25.1666 27.7489 23.7488 29.1667 21.9999 29.1667H9.99992C8.25102 29.1667 6.83325 27.7489 6.83325 26V7.83334H6C5.72386 7.83334 5.5 7.60949 5.5 7.33334C5.5 7.0572 5.72386 6.83334 6 6.83334H11.5V6.00001ZM7.83325 7.83334V26C7.83325 27.1966 8.8033 28.1667 9.99992 28.1667H21.9999C23.1965 28.1667 24.1666 27.1966 24.1666 26V7.83334H7.83325ZM19.5 6.00001V6.83334H12.5V6.00001C12.5 4.80339 13.47 3.83334 14.6667 3.83334H17.3333C18.53 3.83334 19.5 4.80339 19.5 6.00001ZM13.335 11.5C13.6111 11.5 13.835 11.7239 13.835 12V24C13.835 24.2761 13.6111 24.5 13.335 24.5C13.0588 24.5 12.835 24.2761 12.835 24V12C12.835 11.7239 13.0588 11.5 13.335 11.5ZM18.6685 11.5C18.9446 11.5 19.1685 11.7239 19.1685 12V24C19.1685 24.2761 18.9446 24.5 18.6685 24.5C18.3923 24.5 18.1685 24.2761 18.1685 24V12C18.1685 11.7239 18.3923 11.5 18.6685 11.5Z" fill="#E60000"/>
</svg>
