<svg width="32" height="32" viewBox="0 0 32 32" fill="none" xmlns="http://www.w3.org/2000/svg">
<path fill-rule="evenodd" clip-rule="evenodd" d="M23.6959 5.15854C23.3401 5.15854 22.999 5.30076 22.7486 5.55355L22.7469 5.55523L20.9653 7.33688L24.5647 10.9754L27.294 8.2368L24.6432 5.55355C24.3928 5.30083 24.0516 5.15854 23.6959 5.15854ZM19.9082 6.97979C19.8964 6.99151 19.8854 7.00368 19.8751 7.01622L5.72821 21.1631C5.66411 21.2272 5.61865 21.3075 5.59667 21.3955L4.14334 27.2121C4.10077 27.3825 4.15072 27.5628 4.27492 27.6869C4.39913 27.8111 4.57938 27.861 4.74976 27.8184L10.5664 26.3634C10.6548 26.3413 10.7354 26.2955 10.7996 26.231L24.9151 12.0405L24.9175 12.038L24.9175 12.038L24.9179 12.0376L24.9214 12.0341L28.7028 8.23989L25.3536 4.8498C24.9154 4.40742 24.3186 4.15854 23.6959 4.15854C23.0736 4.15854 22.4772 4.40709 22.039 4.84892L19.9082 6.97979ZM23.8591 11.684L20.2599 8.04569L7.29391 21.0116L10.947 24.6648L23.8591 11.684ZM10.2418 25.3737L6.5868 21.7187L6.53327 21.7723L5.31552 26.6461L10.1888 25.4271L10.2418 25.3737Z" fill="#000000"/>
</svg>
