<svg width="16" height="16" viewBox="0 0 16 16" fill="none" xmlns="http://www.w3.org/2000/svg">
<path fill-rule="evenodd" clip-rule="evenodd" d="M11.8482 2.5791C11.6703 2.5791 11.4998 2.65021 11.3745 2.77661L11.3737 2.77745L10.4829 3.66827L12.2826 5.48752L13.6472 4.11823L12.3218 2.77661C12.1966 2.65025 12.0261 2.5791 11.8482 2.5791ZM9.95433 3.48973C9.94846 3.49559 9.94295 3.50167 9.9378 3.50794L2.86435 10.5814C2.8323 10.6134 2.80957 10.6536 2.79858 10.6976L2.07191 13.6059C2.05063 13.6911 2.0756 13.7812 2.13771 13.8433C2.19981 13.9054 2.28993 13.9303 2.37513 13.909L5.28346 13.1815C5.32762 13.1705 5.36793 13.1476 5.40004 13.1153L12.4578 6.02006L12.459 6.01886L12.459 6.01881L12.4592 6.01864L12.4609 6.01687L14.3516 4.11977L12.677 2.42473C12.4579 2.20354 12.1595 2.0791 11.8482 2.0791C11.5371 2.0791 11.2388 2.20338 11.0198 2.42429L9.95433 3.48973ZM11.9298 5.84185L10.1302 4.02268L3.6472 10.5056L5.47376 12.3322L11.9298 5.84185ZM5.12114 12.6867L3.29364 10.8592L3.26688 10.886L2.658 13.3229L5.09462 12.7134L5.12114 12.6867Z" fill="white"/>
</svg>
