<svg width="96" height="96" viewBox="0 0 96 96" fill="none" xmlns="http://www.w3.org/2000/svg">
<path fill-rule="evenodd" clip-rule="evenodd" d="M22.5256 65.1211C16.4455 65.1211 13.6455 61.1374 13.6455 56.2416V30.2582C13.6455 26.3211 17.2455 22.3211 22.5256 22.4011H91.0055V56.2416C91.0055 61.1374 87.4803 65.1211 82.5839 65.1211H22.5256Z" fill="#E60000"/>
<path fill-rule="evenodd" clip-rule="evenodd" d="M14.3946 27.2567C14.744 27.219 15.0988 27.1997 15.458 27.1997H84.5811H86.2716V28.8902V63.4289C86.2716 63.7469 86.2564 64.0614 86.2268 64.3717C85.1881 64.8501 84.0318 65.1169 82.8132 65.1169H21.858C17.3472 65.1169 13.6907 61.4604 13.6907 56.9501V30.5788C13.6907 29.3958 13.9421 28.2716 14.3946 27.2567ZM12.4371 27.6731C12.1531 28.592 12.0001 29.5679 12.0001 30.5788V56.9501C12.0001 62.3851 16.4225 66.8075 21.858 66.8075H82.8131C83.8666 66.8075 84.8821 66.6413 85.8347 66.3339C84.5917 70.3557 80.8379 73.2863 76.4131 73.2863H15.458C10.0225 73.2863 5.6001 68.8639 5.6001 63.4289V37.0576C5.6001 32.6754 8.47461 28.9517 12.4371 27.6731Z" fill="#E60000"/>
<path fill-rule="evenodd" clip-rule="evenodd" d="M82.5269 25.0123C82.0705 25.023 81.7025 24.6753 81.6856 24.2189C81.6693 23.767 82.0164 23.3832 82.4632 23.3596C82.9326 23.3348 83.3316 23.7106 83.3355 24.1811C83.3389 24.6303 82.9783 25.001 82.5269 25.0123Z" fill="#BD0000"/>
<path fill-rule="evenodd" clip-rule="evenodd" d="M86.0006 25.0112C85.5481 25.014 85.1773 24.6551 85.1672 24.2065C85.157 23.736 85.543 23.3494 86.0136 23.3596C86.4627 23.3691 86.8205 23.7405 86.8177 24.1936C86.8143 24.65 86.457 25.0084 86.0006 25.0112Z" fill="#BD0000"/>
<path fill-rule="evenodd" clip-rule="evenodd" d="M89.5066 25.0119C89.0502 25.0249 88.68 24.68 88.6614 24.223C88.6428 23.7711 88.9871 23.3862 89.4345 23.3597C89.9033 23.3332 90.304 23.7074 90.3107 24.1774C90.3164 24.6259 89.958 24.9995 89.5066 25.0119Z" fill="#BD0000"/>
<path fill-rule="evenodd" clip-rule="evenodd" d="M83.3351 27.6529C83.3469 28.1015 82.9947 28.4813 82.5462 28.5027C82.0762 28.5246 81.6834 28.1465 81.6846 27.6726C81.6857 27.2156 82.0424 26.8561 82.4988 26.8516C82.9502 26.8471 83.3232 27.2044 83.3351 27.6529Z" fill="#BD0000"/>
<path fill-rule="evenodd" clip-rule="evenodd" d="M86.0088 26.8517C86.4652 26.859 86.8191 27.2208 86.818 27.6778C86.8168 28.1303 86.4539 28.4982 86.0048 28.5033C85.5349 28.5084 85.1517 28.1179 85.1675 27.6479C85.1816 27.1994 85.5563 26.8443 86.0088 26.8517Z" fill="#BD0000"/>
<path fill-rule="evenodd" clip-rule="evenodd" d="M89.5031 26.8504C89.9545 26.8617 90.3146 27.2336 90.3106 27.6827C90.3061 28.1532 89.9066 28.5279 89.4372 28.5026C88.9904 28.4783 88.6438 28.0946 88.6613 27.6427C88.6782 27.1862 89.0467 26.8386 89.5031 26.8504Z" fill="#BD0000"/>
<path fill-rule="evenodd" clip-rule="evenodd" d="M82.524 31.9871C82.0675 31.9967 81.7007 31.6473 81.686 31.1909C81.6708 30.739 82.0196 30.3569 82.4665 30.3349C82.9359 30.3124 83.3337 30.6894 83.3354 31.1593C83.3377 31.6096 82.9759 31.9781 82.524 31.9871Z" fill="#BD0000"/>
<path fill-rule="evenodd" clip-rule="evenodd" d="M86.0106 30.3351C86.4597 30.343 86.8192 30.7127 86.8181 31.1651C86.817 31.6221 86.4603 31.9817 86.0038 31.9867C85.5305 31.9907 85.1496 31.6013 85.1676 31.1313C85.1845 30.6828 85.5609 30.3267 86.0106 30.3351Z" fill="#BD0000"/>
<path fill-rule="evenodd" clip-rule="evenodd" d="M90.3107 31.1533C90.3163 31.6024 89.9563 31.9749 89.5055 31.9867C89.0496 31.9996 88.6794 31.6537 88.6613 31.1967C88.6422 30.7228 89.0192 30.3306 89.4891 30.3345C89.9388 30.3384 90.3051 30.7036 90.3107 31.1533Z" fill="#BD0000"/>
<path fill-rule="evenodd" clip-rule="evenodd" d="M83.3357 34.6584C83.33 35.1081 82.9643 35.4738 82.5146 35.4778C82.0441 35.4823 81.6671 35.0906 81.6857 34.6162C81.7038 34.1592 82.0734 33.8132 82.5293 33.825C82.9812 33.8374 83.3407 34.2093 83.3357 34.6584Z" fill="#BD0000"/>
<path fill-rule="evenodd" clip-rule="evenodd" d="M86.0218 33.8271C86.4782 33.8412 86.8265 34.2086 86.818 34.6656C86.8096 35.1164 86.4399 35.4798 85.9914 35.4781C85.5214 35.4759 85.1444 35.0792 85.167 34.6098C85.1884 34.1612 85.5688 33.813 86.0218 33.8271Z" fill="#BD0000"/>
<path fill-rule="evenodd" clip-rule="evenodd" d="M89.4761 33.8267C89.9281 33.8233 90.3 34.1817 90.3101 34.6302C90.3208 35.1008 89.9348 35.4873 89.4643 35.4783C89.0157 35.4687 88.6574 35.0979 88.6602 34.6449C88.6624 34.1879 89.0191 33.8295 89.4761 33.8267Z" fill="#BD0000"/>
<path fill-rule="evenodd" clip-rule="evenodd" d="M82.5276 37.3094C82.9762 37.3206 83.3374 37.692 83.3357 38.1417C83.3335 38.6127 82.9379 38.9841 82.4634 38.9599C82.0081 38.9362 81.6677 38.562 81.6852 38.1045C81.7021 37.6542 82.0797 37.2975 82.5276 37.3094Z" fill="#BD0000"/>
<path fill-rule="evenodd" clip-rule="evenodd" d="M85.9983 38.9614C85.5458 38.9626 85.1756 38.603 85.1671 38.1539C85.1581 37.6834 85.5458 37.2985 86.0158 37.3098C86.4649 37.3211 86.8216 37.693 86.8171 38.146C86.8131 38.6025 86.4547 38.9597 85.9983 38.9614Z" fill="#BD0000"/>
<path fill-rule="evenodd" clip-rule="evenodd" d="M89.4985 38.9617C89.0415 38.9708 88.6752 38.6214 88.6611 38.1644C88.6464 37.713 88.9958 37.3304 89.4427 37.3096C89.9121 37.287 90.3088 37.6646 90.3105 38.1351C90.3121 38.5848 89.9504 38.9533 89.4985 38.9617Z" fill="#BD0000"/>
<path fill-rule="evenodd" clip-rule="evenodd" d="M82.5103 42.4527C82.0618 42.4544 81.6921 42.0904 81.6842 41.6402C81.6763 41.1826 82.0251 40.8158 82.481 40.8017C82.9549 40.787 83.3437 41.1674 83.3358 41.6379C83.3279 42.0876 82.96 42.451 82.5103 42.4527Z" fill="#BD0000"/>
<path fill-rule="evenodd" clip-rule="evenodd" d="M86.0083 42.453C85.5592 42.4597 85.1833 42.1025 85.1675 41.6539C85.1506 41.1845 85.5327 40.7957 86.006 40.8013C86.4625 40.807 86.818 41.1676 86.818 41.624C86.818 42.0765 86.4574 42.4456 86.0083 42.453Z" fill="#BD0000"/>
<path fill-rule="evenodd" clip-rule="evenodd" d="M89.4849 42.4527C89.0369 42.4544 88.6673 42.0904 88.6588 41.6402C88.6509 41.1826 88.9997 40.8158 89.4556 40.8017C89.9295 40.787 90.3183 41.1674 90.3104 41.6379C90.3026 42.0876 89.9346 42.451 89.4849 42.4527Z" fill="#BD0000"/>
<path fill-rule="evenodd" clip-rule="evenodd" d="M83.3353 45.1127C83.3353 45.5629 82.9724 45.9298 82.5205 45.9371C82.0635 45.9444 81.6989 45.5945 81.6854 45.1369C81.6719 44.6642 82.0545 44.2748 82.5239 44.2844C82.9724 44.2934 83.3348 44.663 83.3353 45.1127Z" fill="#BD0000"/>
<path fill-rule="evenodd" clip-rule="evenodd" d="M86.0083 44.2843C86.4568 44.291 86.818 44.6601 86.818 45.1126C86.818 45.5696 86.4625 45.9303 86.006 45.9359C85.5327 45.9415 85.1506 45.5527 85.1675 45.0833C85.1833 44.6348 85.5592 44.2775 86.0083 44.2843Z" fill="#BD0000"/>
<path fill-rule="evenodd" clip-rule="evenodd" d="M90.3105 45.0861C90.3246 45.5352 89.9729 45.9139 89.5221 45.9353C89.0651 45.9567 88.6887 45.6186 88.6617 45.1633C88.6335 44.6894 89.002 44.2899 89.4726 44.2842C89.9217 44.2792 90.2964 44.6375 90.3105 45.0861Z" fill="#BD0000"/>
<path fill-rule="evenodd" clip-rule="evenodd" d="M83.335 48.5845C83.3435 49.0336 82.9874 49.4106 82.5388 49.4275C82.0694 49.4455 81.68 49.0646 81.6851 48.5907C81.6896 48.1337 82.0497 47.7764 82.505 47.7759C82.9575 47.7748 83.3272 48.1354 83.335 48.5845Z" fill="#BD0000"/>
<path fill-rule="evenodd" clip-rule="evenodd" d="M85.9977 47.7759C86.4542 47.777 86.8131 48.1343 86.8171 48.5913C86.8216 49.0443 86.4649 49.4162 86.0158 49.4275C85.5458 49.4388 85.1587 49.0539 85.1671 48.5834C85.1756 48.1343 85.5452 47.7748 85.9977 47.7759Z" fill="#BD0000"/>
<path fill-rule="evenodd" clip-rule="evenodd" d="M89.4849 49.4278C89.0369 49.4295 88.6673 49.0655 88.6588 48.6153C88.6509 48.1577 88.9997 47.7909 89.4556 47.7768C89.9295 47.7621 90.3183 48.1425 90.3104 48.613C90.3026 49.0627 89.9346 49.4261 89.4849 49.4278Z" fill="#BD0000"/>
<path fill-rule="evenodd" clip-rule="evenodd" d="M82.5207 51.2594C82.9704 51.2667 83.3333 51.6353 83.3356 52.0849C83.3373 52.556 82.9445 52.9308 82.47 52.9099C82.0147 52.8902 81.6704 52.5183 81.6845 52.0613C81.698 51.611 82.0728 51.2515 82.5207 51.2594Z" fill="#BD0000"/>
<path fill-rule="evenodd" clip-rule="evenodd" d="M86.0011 52.9106C85.5486 52.9134 85.1773 52.555 85.1677 52.1065C85.1565 51.6359 85.543 51.2494 86.013 51.259C86.4621 51.2685 86.8205 51.6393 86.8176 52.0924C86.8148 52.5494 86.4576 52.9078 86.0011 52.9106Z" fill="#BD0000"/>
<path fill-rule="evenodd" clip-rule="evenodd" d="M89.457 51.2592C89.9056 51.2456 90.2865 51.5973 90.3096 52.0458C90.3339 52.5152 89.958 52.9102 89.4841 52.9114C89.0277 52.9125 88.667 52.5575 88.6603 52.0999C88.6535 51.6474 89.0085 51.2727 89.457 51.2592Z" fill="#BD0000"/>
<path fill-rule="evenodd" clip-rule="evenodd" d="M82.5231 56.403C82.0751 56.412 81.6998 56.0542 81.6846 55.6034C81.6688 55.1464 82.0114 54.7733 82.4667 54.7519C82.9418 54.7299 83.3351 55.103 83.3351 55.5746C83.3345 56.0237 82.9728 56.3934 82.5231 56.403Z" fill="#BD0000"/>
<path fill-rule="evenodd" clip-rule="evenodd" d="M86.8178 55.5749C86.8178 56.0274 86.4566 56.3959 86.0081 56.4027C85.5376 56.4094 85.1538 56.0201 85.1673 55.5501C85.1803 55.1015 85.5545 54.7454 86.0064 54.751C86.4623 54.7572 86.8178 55.1173 86.8178 55.5749Z" fill="#BD0000"/>
<path fill-rule="evenodd" clip-rule="evenodd" d="M90.3106 55.593C90.2999 56.0421 89.9297 56.4033 89.48 56.4027C89.01 56.4021 88.6376 56.0054 88.6612 55.5321C88.6843 55.0757 89.0574 54.7342 89.5144 54.7511C89.9652 54.768 90.3213 55.1439 90.3106 55.593Z" fill="#BD0000"/>
<path fill-rule="evenodd" clip-rule="evenodd" d="M82.5316 59.887C82.0746 59.8994 81.7049 59.5545 81.6863 59.0981C81.6671 58.6456 82.012 58.2607 82.4594 58.2348C82.9277 58.2077 83.3289 58.5819 83.3357 59.0519C83.3413 59.5004 82.9824 59.874 82.5316 59.887Z" fill="#BD0000"/>
<path fill-rule="evenodd" clip-rule="evenodd" d="M85.9818 58.234C86.4304 58.2267 86.8045 58.5856 86.8181 59.0364C86.8321 59.4934 86.4878 59.8653 86.032 59.8851C85.5575 59.9053 85.1653 59.5312 85.167 59.0595C85.1693 58.6099 85.5327 58.2419 85.9818 58.234Z" fill="#BD0000"/>
<path fill-rule="evenodd" clip-rule="evenodd" d="M89.4985 59.8871C89.0415 59.8955 88.6752 59.5467 88.6611 59.0891C88.6464 58.6378 88.9958 58.2557 89.4427 58.2343C89.9121 58.2123 90.3088 58.5899 90.3105 59.0598C90.3121 59.5101 89.9504 59.878 89.4985 59.8871Z" fill="#BD0000"/>
<path fill-rule="evenodd" clip-rule="evenodd" d="M83.3357 62.5589C83.33 63.0086 82.9632 63.3738 82.5135 63.3771C82.0435 63.3811 81.6671 62.9889 81.6857 62.515C81.7043 62.058 82.0745 61.712 82.5304 61.725C82.9818 61.7374 83.3413 62.1098 83.3357 62.5589Z" fill="#BD0000"/>
<path fill-rule="evenodd" clip-rule="evenodd" d="M85.9796 63.378C85.5305 63.369 85.1681 62.9999 85.167 62.5502C85.1664 62.0786 85.5598 61.7055 86.0348 61.727C86.4901 61.7478 86.8327 62.1203 86.8175 62.5773C86.8028 63.0281 86.4275 63.3865 85.9796 63.378Z" fill="#BD0000"/>
<path fill-rule="evenodd" clip-rule="evenodd" d="M79.8286 48.6353C79.8241 49.0912 79.4612 49.4417 79.0019 49.4344C78.5483 49.4265 78.1995 49.0602 78.2102 48.6004C78.2203 48.1575 78.5765 47.8137 79.0233 47.8154C79.4798 47.8171 79.8336 48.1778 79.8286 48.6353Z" fill="#BD0000"/>
<path fill-rule="evenodd" clip-rule="evenodd" d="M79.0299 44.3296C79.4857 44.3347 79.8362 44.697 79.8283 45.1563C79.821 45.6105 79.4547 45.9593 78.9949 45.9486C78.552 45.9379 78.2083 45.5823 78.21 45.1354C78.2117 44.6784 78.5723 44.3251 79.0299 44.3296Z" fill="#BD0000"/>
<path fill-rule="evenodd" clip-rule="evenodd" d="M79.023 51.3018C79.4795 51.3035 79.8328 51.6635 79.8288 52.1211C79.8243 52.577 79.4614 52.928 79.0027 52.9207C78.5593 52.9134 78.2121 52.5606 78.2105 52.1143C78.2093 51.6573 78.5655 51.3001 79.023 51.3018Z" fill="#BD0000"/>
<path fill-rule="evenodd" clip-rule="evenodd" d="M79.8286 41.6632C79.8241 42.119 79.4612 42.4695 79.0019 42.4622C78.5483 42.4543 78.1995 42.088 78.2102 41.6282C78.2203 41.1853 78.5765 40.8416 79.0233 40.8433C79.4798 40.845 79.8336 41.2056 79.8286 41.6632Z" fill="#BD0000"/>
<path fill-rule="evenodd" clip-rule="evenodd" d="M79.0258 56.4066C78.5683 56.4088 78.2104 56.0532 78.2104 55.5968C78.211 55.1398 78.5688 54.7842 79.027 54.7876C79.4721 54.791 79.8232 55.1398 79.8288 55.5844C79.8345 56.0425 79.4817 56.4037 79.0258 56.4066Z" fill="#BD0000"/>
<path fill-rule="evenodd" clip-rule="evenodd" d="M79.0152 38.976C78.5588 38.9737 78.2055 38.6137 78.21 38.1555C78.2151 37.7002 78.578 37.3492 79.0367 37.3571C79.4807 37.3644 79.8273 37.7177 79.8284 38.164C79.8295 38.621 79.4728 38.9777 79.0152 38.976Z" fill="#BD0000"/>
<path fill-rule="evenodd" clip-rule="evenodd" d="M79.8283 34.6708C79.8328 35.1284 79.479 35.4885 79.0225 35.4901C78.5655 35.4913 78.2088 35.1346 78.21 34.6776C78.2117 34.2313 78.5588 33.8785 79.0022 33.8712C79.4615 33.8639 79.8238 34.2149 79.8283 34.6708Z" fill="#BD0000"/>
<path fill-rule="evenodd" clip-rule="evenodd" d="M79.0058 59.8927C78.5505 59.8865 78.2011 59.5219 78.2101 59.0626C78.2191 58.609 78.5871 58.2619 79.0464 58.2737C79.4887 58.285 79.8319 58.6428 79.8285 59.0902C79.8257 59.5461 79.4639 59.8989 79.0058 59.8927Z" fill="#BD0000"/>
<path fill-rule="evenodd" clip-rule="evenodd" d="M79.8285 31.2029C79.8246 31.6593 79.4628 32.011 79.0041 32.0042C78.5494 31.9974 78.2006 31.6323 78.2102 31.1725C78.2197 30.729 78.5747 30.3847 79.021 30.3853C79.478 30.3864 79.8325 30.7453 79.8285 31.2029Z" fill="#BD0000"/>
<path fill-rule="evenodd" clip-rule="evenodd" d="M79.0091 61.7603C79.4672 61.7558 79.8268 62.1097 79.8284 62.5667C79.8301 63.0231 79.4734 63.3804 79.0164 63.3792C78.5707 63.3775 78.2174 63.0304 78.2101 62.587C78.2027 62.1277 78.5538 61.7648 79.0091 61.7603Z" fill="#BD0000"/>
<path fill-rule="evenodd" clip-rule="evenodd" d="M79.8283 27.6986C79.8328 28.1562 79.479 28.5163 79.0225 28.518C78.5655 28.5191 78.2088 28.1624 78.21 27.7054C78.2117 27.2591 78.5588 26.9064 79.0022 26.899C79.4615 26.8917 79.8238 27.2428 79.8283 27.6986Z" fill="#BD0000"/>
<path fill-rule="evenodd" clip-rule="evenodd" d="M79.0333 23.4127C79.488 23.4189 79.8374 23.7829 79.8284 24.2427C79.8199 24.6963 79.4519 25.0435 78.9921 25.0311C78.5498 25.0198 78.2072 24.6625 78.21 24.2151C78.2134 23.7587 78.5751 23.4065 79.0333 23.4127Z" fill="#BD0000"/>
<path fill-rule="evenodd" clip-rule="evenodd" d="M75.5266 49.4124C75.0989 49.4074 74.7411 49.0439 74.7461 48.6179C74.7512 48.1902 75.1158 47.8324 75.5407 47.8375C75.9684 47.8425 76.3262 48.206 76.3211 48.6314C76.3161 49.0597 75.9526 49.4175 75.5266 49.4124Z" fill="#BD0000"/>
<path fill-rule="evenodd" clip-rule="evenodd" d="M75.5417 23.4346C75.97 23.4403 76.3273 23.8043 76.3216 24.2297C76.316 24.658 75.952 25.0153 75.5265 25.0096C75.0983 25.004 74.741 24.64 74.7466 24.214C74.7523 23.7863 75.1169 23.429 75.5417 23.4346Z" fill="#BD0000"/>
<path fill-rule="evenodd" clip-rule="evenodd" d="M75.5395 42.4403C75.1135 42.4442 74.7506 42.0858 74.7466 41.6581C74.7427 41.2321 75.1011 40.8692 75.5282 40.8653C75.9542 40.8613 76.3177 41.2197 76.3216 41.6474C76.3256 42.0734 75.9672 42.4363 75.5395 42.4403Z" fill="#BD0000"/>
<path fill-rule="evenodd" clip-rule="evenodd" d="M75.5266 56.3846C75.0989 56.3795 74.7411 56.0161 74.7461 55.5901C74.7512 55.1624 75.1158 54.8046 75.5407 54.8096C75.9684 54.8147 76.3262 55.1782 76.3211 55.6036C76.3161 56.0319 75.9526 56.3897 75.5266 56.3846Z" fill="#BD0000"/>
<path fill-rule="evenodd" clip-rule="evenodd" d="M75.5283 37.3794C75.9543 37.3755 76.3172 37.7339 76.3211 38.1616C76.3251 38.5876 75.9667 38.9505 75.5395 38.9544C75.1135 38.9584 74.7501 38.6 74.7461 38.1723C74.7422 37.7463 75.1006 37.3834 75.5283 37.3794Z" fill="#BD0000"/>
<path fill-rule="evenodd" clip-rule="evenodd" d="M76.3216 27.7014C76.3267 28.1274 75.9689 28.4909 75.5412 28.4959C75.1152 28.501 74.7517 28.1432 74.7466 27.7149C74.7416 27.29 75.0994 26.926 75.5271 26.921C75.9531 26.9159 76.3165 27.2737 76.3216 27.7014Z" fill="#BD0000"/>
<path fill-rule="evenodd" clip-rule="evenodd" d="M76.3212 52.0993C76.3297 52.5236 75.9741 52.8904 75.5459 52.8989C75.1215 52.9073 74.7553 52.5518 74.7462 52.1235C74.7378 51.6992 75.0934 51.3324 75.5216 51.3239C75.9459 51.3149 76.3128 51.671 76.3212 52.0993Z" fill="#BD0000"/>
<path fill-rule="evenodd" clip-rule="evenodd" d="M75.5551 58.2959C75.984 58.3105 76.3361 58.6824 76.3215 59.1045C76.3068 59.5327 75.9355 59.8855 75.5134 59.8708C75.0846 59.8562 74.7324 59.4843 74.7465 59.0622C74.7617 58.6334 75.1336 58.2812 75.5551 58.2959Z" fill="#BD0000"/>
<path fill-rule="evenodd" clip-rule="evenodd" d="M76.3216 45.1416C76.3193 45.5687 75.9576 45.9283 75.5315 45.9266C75.1044 45.9249 74.7449 45.562 74.7466 45.136C74.7488 44.7088 75.1112 44.3493 75.5366 44.3516C75.9638 44.3533 76.3233 44.7156 76.3216 45.1416Z" fill="#BD0000"/>
<path fill-rule="evenodd" clip-rule="evenodd" d="M75.5412 33.8931C75.9689 33.8982 76.3267 34.2617 76.3216 34.6877C76.3166 35.1154 75.952 35.4732 75.5271 35.4681C75.0994 35.463 74.7416 35.099 74.7466 34.6736C74.7517 34.2459 75.1157 33.888 75.5412 33.8931Z" fill="#BD0000"/>
<path fill-rule="evenodd" clip-rule="evenodd" d="M75.5435 63.3568C75.1186 63.3636 74.7534 63.0063 74.7467 62.5786C74.7399 62.1537 75.0972 61.7886 75.5249 61.7818C75.9497 61.7751 76.3149 62.1318 76.3217 62.56C76.3284 62.9849 75.9712 63.3501 75.5435 63.3568Z" fill="#BD0000"/>
<path fill-rule="evenodd" clip-rule="evenodd" d="M76.3215 31.2153C76.3068 31.6441 75.9349 31.9969 75.5129 31.9817C75.0846 31.967 74.7324 31.5957 74.7465 31.1736C74.7612 30.7442 75.1331 30.392 75.5551 30.4067C75.9834 30.4219 76.3356 30.7933 76.3215 31.2153Z" fill="#BD0000"/>
<path fill-rule="evenodd" clip-rule="evenodd" d="M72.0415 42.3981C71.6347 42.393 71.2949 42.043 71.3039 41.6384C71.3129 41.2316 71.6662 40.8946 72.0697 40.9076C72.467 40.9211 72.7943 41.2581 72.7938 41.6537C72.7932 42.0599 72.4472 42.4026 72.0415 42.3981Z" fill="#BD0000"/>
<path fill-rule="evenodd" clip-rule="evenodd" d="M72.7937 48.6243C72.7943 49.0312 72.4489 49.3738 72.0426 49.3698C71.6363 49.3659 71.296 49.0165 71.3038 48.6125C71.3117 48.2146 71.6448 47.8844 72.0415 47.8799C72.4472 47.8754 72.7932 48.2175 72.7937 48.6243Z" fill="#BD0000"/>
<path fill-rule="evenodd" clip-rule="evenodd" d="M72.0526 24.9676C71.6463 24.9698 71.302 24.6267 71.3037 24.2198C71.3054 23.813 71.652 23.472 72.0577 23.4771C72.4544 23.4827 72.7869 23.8146 72.7931 24.2113C72.7998 24.6171 72.4595 24.9648 72.0526 24.9676Z" fill="#BD0000"/>
<path fill-rule="evenodd" clip-rule="evenodd" d="M72.0464 51.3662C72.4527 51.3651 72.7964 51.7094 72.7936 52.1157C72.7908 52.5225 72.4426 52.8629 72.0374 52.8567C71.6407 52.8493 71.3094 52.5169 71.3043 52.1202C71.2981 51.7145 71.6396 51.3679 72.0464 51.3662Z" fill="#BD0000"/>
<path fill-rule="evenodd" clip-rule="evenodd" d="M72.0366 38.9119C71.6292 38.9034 71.2922 38.5512 71.304 38.1478C71.3164 37.7403 71.6714 37.4056 72.0743 37.422C72.4722 37.4383 72.7973 37.777 72.7939 38.1725C72.79 38.5788 72.4412 38.9197 72.0366 38.9119Z" fill="#BD0000"/>
<path fill-rule="evenodd" clip-rule="evenodd" d="M72.0697 54.852C72.4777 54.8655 72.8102 55.2222 72.7927 55.6251C72.7752 56.0336 72.4157 56.3633 72.0134 56.3413C71.615 56.3193 71.2943 55.9761 71.3039 55.5823C71.3129 55.1748 71.6663 54.8384 72.0697 54.852Z" fill="#BD0000"/>
<path fill-rule="evenodd" clip-rule="evenodd" d="M72.0697 26.9633C72.4777 26.9768 72.8102 27.3335 72.7927 27.7364C72.7752 28.1449 72.4157 28.4746 72.0134 28.4526C71.615 28.4306 71.2943 28.0875 71.3039 27.6936C71.3129 27.2862 71.6663 26.9498 72.0697 26.9633Z" fill="#BD0000"/>
<path fill-rule="evenodd" clip-rule="evenodd" d="M72.7936 34.6718C72.7993 35.0775 72.4572 35.424 72.0509 35.4257C71.6446 35.4268 71.3015 35.0825 71.3037 34.6763C71.3065 34.2796 71.6356 33.9454 72.0329 33.9353C72.4375 33.9257 72.7874 34.2649 72.7936 34.6718Z" fill="#BD0000"/>
<path fill-rule="evenodd" clip-rule="evenodd" d="M72.052 61.8242C72.4588 61.8265 72.7997 62.1736 72.7935 62.5793C72.7874 62.9862 72.4363 63.3248 72.0323 63.3147C71.635 63.304 71.3065 62.9687 71.3042 62.5726C71.302 62.1663 71.6463 61.822 72.052 61.8242Z" fill="#BD0000"/>
<path fill-rule="evenodd" clip-rule="evenodd" d="M72.7936 31.1837C72.8004 31.5894 72.4595 31.9371 72.0532 31.9399C71.6469 31.9422 71.3026 31.5984 71.3037 31.1922C71.3054 30.796 71.6334 30.4607 72.0306 30.4495C72.4352 30.4388 72.7863 30.7769 72.7936 31.1837Z" fill="#BD0000"/>
<path fill-rule="evenodd" clip-rule="evenodd" d="M72.0617 59.8284C71.6565 59.8362 71.3077 59.4959 71.3037 59.089C71.2998 58.6833 71.643 58.3379 72.0493 58.3379C72.4454 58.3385 72.7812 58.6658 72.7936 59.0637C72.8055 59.4677 72.4685 59.8199 72.0617 59.8284Z" fill="#BD0000"/>
<path fill-rule="evenodd" clip-rule="evenodd" d="M72.7934 45.1452C72.7895 45.552 72.4407 45.8918 72.0355 45.8845C71.6292 45.8761 71.2917 45.5239 71.3035 45.1198C71.3159 44.722 71.6518 44.3946 72.0479 44.394C72.4542 44.3935 72.7974 44.7389 72.7934 45.1452Z" fill="#BD0000"/>
<path fill-rule="evenodd" clip-rule="evenodd" d="M68.5589 40.9595C68.9392 40.9567 69.2576 41.2751 69.2559 41.6554C69.2548 42.0358 68.9336 42.3519 68.5538 42.3463C68.1836 42.3406 67.8759 42.0335 67.8697 41.6633C67.8635 41.2835 68.1785 40.9617 68.5589 40.9595Z" fill="#BD0000"/>
<path fill-rule="evenodd" clip-rule="evenodd" d="M69.2564 24.2349C69.2491 24.6158 68.9228 24.9275 68.5436 24.9156C68.1638 24.9038 67.855 24.5753 67.8702 24.196C67.8848 23.8252 68.1998 23.5249 68.5695 23.5288C68.9498 23.5322 69.2643 23.8551 69.2564 24.2349Z" fill="#BD0000"/>
<path fill-rule="evenodd" clip-rule="evenodd" d="M69.2564 52.1084C69.2581 52.4893 68.9397 52.8066 68.5594 52.8043C68.179 52.8021 67.8635 52.4803 67.8702 52.0999C67.8764 51.7297 68.1841 51.4226 68.5543 51.4175C68.9341 51.4125 69.2553 51.728 69.2564 52.1084Z" fill="#BD0000"/>
<path fill-rule="evenodd" clip-rule="evenodd" d="M68.5655 58.3901C68.9459 58.3913 69.2614 58.7125 69.2563 59.0923C69.2513 59.4732 68.9273 59.7865 68.5475 59.7769C68.1772 59.7679 67.8724 59.458 67.8701 59.0878C67.8673 58.7074 68.1851 58.3885 68.5655 58.3901Z" fill="#BD0000"/>
<path fill-rule="evenodd" clip-rule="evenodd" d="M69.2561 31.1968C69.2549 31.5778 68.9337 31.8933 68.5539 31.8883C68.173 31.8826 67.8603 31.5586 67.8698 31.1788C67.8789 30.8086 68.1888 30.5037 68.559 30.5015C68.9394 30.4987 69.2577 30.8165 69.2561 31.1968Z" fill="#BD0000"/>
<path fill-rule="evenodd" clip-rule="evenodd" d="M69.2562 62.5787C69.2506 62.9596 68.9266 63.2718 68.5468 63.2628C68.1659 63.2532 67.8571 62.9252 67.87 62.546C67.883 62.1758 68.1963 61.8743 68.566 61.876C68.9463 61.8777 69.2624 62.1989 69.2562 62.5787Z" fill="#BD0000"/>
<path fill-rule="evenodd" clip-rule="evenodd" d="M68.5572 49.3182C68.1763 49.3143 67.8624 48.992 67.8698 48.6122C67.8771 48.2312 68.2033 47.9202 68.5826 47.9314C68.9528 47.9427 69.256 48.2538 69.256 48.6246C69.2565 49.0044 68.937 49.3216 68.5572 49.3182Z" fill="#BD0000"/>
<path fill-rule="evenodd" clip-rule="evenodd" d="M68.5567 33.9873C68.937 33.9834 69.2565 34.3006 69.256 34.681C69.256 35.0614 68.9359 35.3786 68.5561 35.3741C68.1859 35.3702 67.8771 35.0636 67.8698 34.6934C67.8624 34.3136 68.1763 33.9907 68.5567 33.9873Z" fill="#BD0000"/>
<path fill-rule="evenodd" clip-rule="evenodd" d="M68.5622 45.8323C68.1818 45.8317 67.8657 45.5116 67.8697 45.1318C67.8742 44.7509 68.1976 44.437 68.5769 44.4455C68.9476 44.4534 69.2531 44.7627 69.2559 45.133C69.2598 45.5133 68.9431 45.8328 68.5622 45.8323Z" fill="#BD0000"/>
<path fill-rule="evenodd" clip-rule="evenodd" d="M68.5419 38.8603C68.161 38.8479 67.8539 38.5177 67.8703 38.139C67.8866 37.7581 68.2202 37.4538 68.5983 37.4741C68.9685 37.4938 69.2649 37.8128 69.2565 38.1819C69.248 38.5628 68.9206 38.8727 68.5419 38.8603Z" fill="#BD0000"/>
<path fill-rule="evenodd" clip-rule="evenodd" d="M69.2563 27.6984C69.2625 28.0788 68.947 28.4 68.5661 28.4016C68.1863 28.4033 67.8679 28.0855 67.8701 27.7046C67.8718 27.3344 68.1767 27.0244 68.5469 27.0149C68.9261 27.0053 69.2507 27.3175 69.2563 27.6984Z" fill="#BD0000"/>
<path fill-rule="evenodd" clip-rule="evenodd" d="M68.5539 54.9039C68.9343 54.8982 69.2549 55.2144 69.256 55.5953C69.2577 55.9751 68.9393 56.2935 68.559 56.2907C68.1888 56.2878 67.8788 55.983 67.8698 55.6128C67.8608 55.2335 68.1735 54.909 68.5539 54.9039Z" fill="#BD0000"/>
<path fill-rule="evenodd" clip-rule="evenodd" d="M65.0901 54.9439C65.4637 54.9496 65.7426 55.2448 65.7308 55.6224C65.719 55.9842 65.4316 56.2558 65.0659 56.2501C64.6923 56.2445 64.4133 55.9487 64.4252 55.5711C64.4364 55.2099 64.7244 54.9383 65.0901 54.9439Z" fill="#BD0000"/>
<path fill-rule="evenodd" clip-rule="evenodd" d="M65.7304 45.1396C65.7304 45.5149 65.4402 45.7984 65.0633 45.7922C64.7009 45.7854 64.4248 45.5036 64.4248 45.1385C64.4254 44.7632 64.715 44.4792 65.0914 44.486C65.4549 44.4922 65.731 44.775 65.7304 45.1396Z" fill="#BD0000"/>
<path fill-rule="evenodd" clip-rule="evenodd" d="M65.7304 27.7049C65.7321 28.0808 65.4442 28.3659 65.0678 28.3614C64.7043 28.3564 64.4265 28.0757 64.4248 27.7117C64.4231 27.3359 64.7111 27.0507 65.0875 27.0552C65.4515 27.0592 65.7288 27.3404 65.7304 27.7049Z" fill="#BD0000"/>
<path fill-rule="evenodd" clip-rule="evenodd" d="M65.0729 47.9717C65.4487 47.9694 65.735 48.2574 65.7305 48.6332C65.7265 48.9967 65.4465 49.2756 65.083 49.2779C64.7066 49.2801 64.4209 48.9928 64.4248 48.6163C64.4282 48.2523 64.7088 47.9739 65.0729 47.9717Z" fill="#BD0000"/>
<path fill-rule="evenodd" clip-rule="evenodd" d="M65.7305 38.175C65.7265 38.5491 65.433 38.8298 65.056 38.8202C64.6936 38.81 64.4209 38.5238 64.4248 38.1581C64.4288 37.7845 64.7229 37.5038 65.0999 37.5134C65.4617 37.5236 65.7344 37.8098 65.7305 38.175Z" fill="#BD0000"/>
<path fill-rule="evenodd" clip-rule="evenodd" d="M65.7304 62.5674C65.7316 62.9433 65.4431 63.2278 65.0666 63.2228C64.7032 63.2177 64.4259 62.9365 64.4248 62.5719C64.4237 62.1961 64.7122 61.9115 65.0886 61.9166C65.4521 61.9216 65.7293 62.2028 65.7304 62.5674Z" fill="#BD0000"/>
<path fill-rule="evenodd" clip-rule="evenodd" d="M65.056 24.8753C64.6841 24.8646 64.4096 24.5643 64.426 24.1862C64.4418 23.8261 64.7337 23.559 65.0999 23.5691C65.4718 23.5793 65.7468 23.8791 65.7299 24.2572C65.7141 24.6178 65.4223 24.8855 65.056 24.8753Z" fill="#BD0000"/>
<path fill-rule="evenodd" clip-rule="evenodd" d="M65.7304 41.6573C65.7282 42.032 65.4369 42.3143 65.0599 42.3059C64.6975 42.298 64.4231 42.0134 64.4248 41.6477C64.4271 41.2736 64.719 40.9912 65.0959 40.9997C65.4583 41.0081 65.7327 41.2927 65.7304 41.6573Z" fill="#BD0000"/>
<path fill-rule="evenodd" clip-rule="evenodd" d="M65.7304 52.1101C65.731 52.4854 65.4419 52.7699 65.0655 52.7643C64.7026 52.7587 64.4254 52.4769 64.4248 52.1123C64.4242 51.7365 64.7128 51.4525 65.0897 51.4581C65.4532 51.4637 65.7299 51.7455 65.7304 52.1101Z" fill="#BD0000"/>
<path fill-rule="evenodd" clip-rule="evenodd" d="M65.7305 59.0932C65.726 59.4668 65.4318 59.7469 65.0543 59.7362C64.6925 59.726 64.4204 59.4386 64.4249 59.0735C64.4294 58.6993 64.7241 58.4198 65.1011 58.43C65.4623 58.4407 65.735 58.7275 65.7305 59.0932Z" fill="#BD0000"/>
<path fill-rule="evenodd" clip-rule="evenodd" d="M65.081 30.541C65.4557 30.5427 65.7386 30.8346 65.7301 31.211C65.7233 31.5739 65.4393 31.8483 65.0742 31.8472C64.6995 31.8455 64.4166 31.5542 64.4245 31.1772C64.4324 30.8143 64.7164 30.5393 65.081 30.541Z" fill="#BD0000"/>
<path fill-rule="evenodd" clip-rule="evenodd" d="M65.7305 34.6697C65.7361 35.0462 65.451 35.3352 65.0757 35.3341C64.7106 35.333 64.4294 35.0557 64.4249 34.6917C64.4198 34.3147 64.7044 34.0262 65.0802 34.0273C65.4448 34.0285 65.7254 34.3057 65.7305 34.6697Z" fill="#BD0000"/>
<path fill-rule="evenodd" clip-rule="evenodd" d="M61.5857 51.5098C61.9334 51.5064 62.1966 51.7701 62.1938 52.1178C62.1904 52.4537 61.9345 52.7095 61.5993 52.7129C61.2516 52.7157 60.9879 52.4525 60.9912 52.1049C60.9941 51.769 61.2499 51.5132 61.5857 51.5098Z" fill="#BD0000"/>
<path fill-rule="evenodd" clip-rule="evenodd" d="M62.1937 41.6572C62.1915 42.0032 61.9227 42.2624 61.5744 42.2545C61.2409 42.2461 60.989 41.9846 60.9912 41.6482C60.9935 41.3022 61.2623 41.043 61.6105 41.0515C61.9441 41.0594 62.196 41.3208 62.1937 41.6572Z" fill="#BD0000"/>
<path fill-rule="evenodd" clip-rule="evenodd" d="M61.5795 37.5655C61.9278 37.5599 62.1937 37.8208 62.1937 38.1673C62.1932 38.5037 61.9396 38.7624 61.6049 38.7686C61.2572 38.7742 60.9906 38.5133 60.9912 38.1656C60.9912 37.8304 61.2448 37.5712 61.5795 37.5655Z" fill="#BD0000"/>
<path fill-rule="evenodd" clip-rule="evenodd" d="M61.553 56.1973C61.2216 56.1799 60.9788 55.9094 60.9912 55.5713C61.003 55.2287 61.2825 54.9785 61.6319 54.9971C61.9734 55.0151 62.2168 55.2997 62.1914 55.6502C62.1672 55.9792 61.8917 56.2154 61.553 56.1973Z" fill="#BD0000"/>
<path fill-rule="evenodd" clip-rule="evenodd" d="M61.5891 48.0234C61.9363 48.0218 62.1983 48.2866 62.1938 48.6348C62.1893 48.9701 61.9318 49.2248 61.5965 49.2265C61.2488 49.2282 60.9868 48.9634 60.9913 48.6151C60.9958 48.2798 61.2527 48.0251 61.5891 48.0234Z" fill="#BD0000"/>
<path fill-rule="evenodd" clip-rule="evenodd" d="M61.632 34.0801C61.9628 34.0981 62.2057 34.3686 62.1933 34.7061C62.1814 35.0493 61.9019 35.2989 61.5531 35.2803C61.2117 35.2623 60.9677 34.9783 60.993 34.6278C61.0173 34.2987 61.2928 34.062 61.632 34.0801Z" fill="#BD0000"/>
<path fill-rule="evenodd" clip-rule="evenodd" d="M61.6035 30.5928C61.9484 30.5979 62.2048 30.8701 62.1935 31.2183C62.1828 31.5508 61.9185 31.8004 61.5816 31.7959C61.2373 31.7903 60.9803 31.5187 60.9916 31.1699C61.0028 30.8374 61.2666 30.5878 61.6035 30.5928Z" fill="#BD0000"/>
<path fill-rule="evenodd" clip-rule="evenodd" d="M61.5993 28.31C61.2516 28.3134 60.9879 28.0497 60.9912 27.702C60.9941 27.3662 61.2499 27.1103 61.5852 27.107C61.9329 27.1036 62.1966 27.3667 62.1938 27.7144C62.1904 28.0503 61.9351 28.3067 61.5993 28.31Z" fill="#BD0000"/>
<path fill-rule="evenodd" clip-rule="evenodd" d="M62.1938 62.5589C62.1989 62.9066 61.9368 63.172 61.5897 63.1709C61.2539 63.1692 60.9958 62.915 60.9913 62.5797C60.9862 62.2321 61.2477 61.9667 61.5954 61.9678C61.9312 61.9695 62.1887 62.2236 62.1938 62.5589Z" fill="#BD0000"/>
<path fill-rule="evenodd" clip-rule="evenodd" d="M62.1938 45.1322C62.1971 45.4793 61.9334 45.743 61.5857 45.7402C61.2499 45.7368 60.9941 45.481 60.9912 45.1452C60.9879 44.7975 61.251 44.5343 61.5987 44.5371C61.9345 44.5405 62.1904 44.7963 62.1938 45.1322Z" fill="#BD0000"/>
<path fill-rule="evenodd" clip-rule="evenodd" d="M62.1938 24.2289C62.1904 24.5743 61.9205 24.833 61.5722 24.8239C61.2392 24.8144 60.9879 24.5518 60.9912 24.2159C60.9941 23.8699 61.2645 23.6113 61.6122 23.6209C61.9458 23.6299 62.1966 23.8919 62.1938 24.2289Z" fill="#BD0000"/>
<path fill-rule="evenodd" clip-rule="evenodd" d="M61.5835 58.482C61.9311 58.478 62.196 58.7406 62.1937 59.0877C62.1915 59.4236 61.9362 59.6805 61.6009 59.6851C61.2533 59.689 60.989 59.4264 60.9912 59.0793C60.9929 58.7429 61.2482 58.4859 61.5835 58.482Z" fill="#BD0000"/>
<path fill-rule="evenodd" clip-rule="evenodd" d="M58.6559 45.151C58.6497 45.4677 58.4012 45.6999 58.0811 45.6875C57.7768 45.6756 57.5526 45.435 57.5582 45.1268C57.5644 44.8106 57.8129 44.5779 58.1324 44.5903C58.4367 44.6016 58.6615 44.8422 58.6559 45.151Z" fill="#BD0000"/>
<path fill-rule="evenodd" clip-rule="evenodd" d="M58.6559 62.5805C58.6503 62.8972 58.4023 63.1299 58.0822 63.1181C57.778 63.1074 57.5531 62.8668 57.5582 62.5585C57.5638 62.2418 57.8118 62.0091 58.1313 62.0209C58.4356 62.0316 58.661 62.2717 58.6559 62.5805Z" fill="#BD0000"/>
<path fill-rule="evenodd" clip-rule="evenodd" d="M58.114 27.1597C58.4307 27.1631 58.6657 27.4093 58.6561 27.7288C58.6465 28.0343 58.4081 28.2602 58.1005 28.2568C57.7832 28.2535 57.5488 28.0072 57.5584 27.6877C57.5674 27.3829 57.8058 27.1563 58.114 27.1597Z" fill="#BD0000"/>
<path fill-rule="evenodd" clip-rule="evenodd" d="M57.5597 59.044C57.5778 58.7408 57.8234 58.5228 58.1334 58.5352C58.4472 58.5476 58.6738 58.8017 58.654 59.1229C58.6355 59.4362 58.3757 59.656 58.0545 59.6301C57.753 59.6058 57.5411 59.3551 57.5597 59.044Z" fill="#BD0000"/>
<path fill-rule="evenodd" clip-rule="evenodd" d="M58.6558 31.1933C58.6558 31.5111 58.4135 31.7489 58.0946 31.7433C57.7886 31.7377 57.5587 31.5033 57.5581 31.1956C57.5575 30.8766 57.7998 30.64 58.1194 30.6456C58.4253 30.6512 58.6552 30.8857 58.6558 31.1933Z" fill="#BD0000"/>
<path fill-rule="evenodd" clip-rule="evenodd" d="M58.6558 48.624C58.6558 48.9418 58.4135 49.1796 58.0946 49.174C57.7886 49.1683 57.5587 48.9339 57.5581 48.6262C57.5575 48.3073 57.7998 48.0706 58.1194 48.0763C58.4253 48.0819 58.6552 48.3163 58.6558 48.624Z" fill="#BD0000"/>
<path fill-rule="evenodd" clip-rule="evenodd" d="M58.6558 34.6774C58.6569 34.9856 58.4299 35.2217 58.1239 35.2291C57.8044 35.2375 57.5598 35.0014 57.5581 34.6841C57.5564 34.3646 57.7976 34.1268 58.1171 34.1319C58.4231 34.1364 58.6541 34.3703 58.6558 34.6774Z" fill="#BD0000"/>
<path fill-rule="evenodd" clip-rule="evenodd" d="M58.6558 24.2235C58.6547 24.5413 58.4112 24.7779 58.0923 24.7712C57.7858 24.7644 57.5575 24.5289 57.5581 24.2212C57.5592 23.9034 57.8021 23.6667 58.1216 23.6735C58.4276 23.6802 58.6564 23.9152 58.6558 24.2235Z" fill="#BD0000"/>
<path fill-rule="evenodd" clip-rule="evenodd" d="M58.6558 55.5985C58.6547 55.9163 58.4112 56.1529 58.0923 56.1462C57.7858 56.1394 57.5575 55.9044 57.5581 55.5962C57.5587 55.2784 57.8021 55.0417 58.1216 55.0485C58.4276 55.0552 58.6564 55.2902 58.6558 55.5985Z" fill="#BD0000"/>
<path fill-rule="evenodd" clip-rule="evenodd" d="M58.6559 38.1789C58.6497 38.4956 58.4012 38.7277 58.0811 38.7153C57.7768 38.7035 57.5526 38.4629 57.5582 38.1541C57.5644 37.8385 57.8129 37.6052 58.1324 37.6182C58.4367 37.6295 58.6615 37.8706 58.6559 38.1789Z" fill="#BD0000"/>
<path fill-rule="evenodd" clip-rule="evenodd" d="M58.1194 42.2013C57.7998 42.2075 57.5575 41.9697 57.5581 41.6513C57.5587 41.3442 57.7886 41.1098 58.0946 41.1041C58.4141 41.0979 58.6564 41.3352 58.6558 41.6535C58.6552 41.9612 58.4253 42.1956 58.1194 42.2013Z" fill="#BD0000"/>
<path fill-rule="evenodd" clip-rule="evenodd" d="M58.6559 52.1232C58.6497 52.4399 58.4012 52.672 58.0811 52.6596C57.7768 52.6478 57.5526 52.4072 57.5582 52.0989C57.5644 51.7828 57.8129 51.5501 58.1324 51.5625C58.4367 51.5738 58.6615 51.8144 58.6559 52.1232Z" fill="#BD0000"/>
<path fill-rule="evenodd" clip-rule="evenodd" d="M55.1245 48.6127C55.1307 48.9013 54.9138 49.125 54.6264 49.1278C54.3384 49.1306 54.1175 48.9108 54.1187 48.6234C54.1192 48.3456 54.3272 48.1315 54.6027 48.1219C54.8907 48.1118 55.1177 48.3265 55.1245 48.6127Z" fill="#BD0000"/>
<path fill-rule="evenodd" clip-rule="evenodd" d="M54.6136 52.6142C54.3262 52.6097 54.111 52.3843 54.1189 52.0964C54.1268 51.8096 54.3555 51.5965 54.6435 51.6084C54.919 51.6191 55.1253 51.8355 55.1247 52.1127C55.1236 52.4001 54.9016 52.6187 54.6136 52.6142Z" fill="#BD0000"/>
<path fill-rule="evenodd" clip-rule="evenodd" d="M55.1245 27.6951C55.1313 27.9831 54.9154 28.2079 54.6281 28.2113C54.3401 28.2147 54.1187 27.9955 54.1187 27.7081C54.1187 27.4309 54.3255 27.215 54.6016 27.2055C54.889 27.1948 55.1172 27.4083 55.1245 27.6951Z" fill="#BD0000"/>
<path fill-rule="evenodd" clip-rule="evenodd" d="M54.6303 38.6695C54.3424 38.674 54.1198 38.4559 54.1187 38.1685C54.1175 37.8811 54.3379 37.6608 54.6258 37.6636C54.9031 37.6659 55.1166 37.8749 55.1245 38.151C55.1324 38.439 54.9171 38.6649 54.6303 38.6695Z" fill="#BD0000"/>
<path fill-rule="evenodd" clip-rule="evenodd" d="M55.1245 41.6406C55.1307 41.9291 54.9138 42.1528 54.6264 42.1556C54.3384 42.1584 54.1175 41.9387 54.1187 41.6513C54.1192 41.3735 54.3272 41.1593 54.6027 41.1498C54.8907 41.1396 55.1177 41.3543 55.1245 41.6406Z" fill="#BD0000"/>
<path fill-rule="evenodd" clip-rule="evenodd" d="M54.6169 62.0664C54.9049 62.0636 55.1258 62.2839 55.1246 62.5713C55.1235 62.8587 54.9009 63.0768 54.613 63.0723C54.3363 63.0678 54.1244 62.857 54.1188 62.5803C54.1126 62.2924 54.3295 62.0687 54.6169 62.0664Z" fill="#BD0000"/>
<path fill-rule="evenodd" clip-rule="evenodd" d="M54.6303 45.6421C54.3424 45.6466 54.1198 45.4285 54.1187 45.1412C54.1175 44.8538 54.3379 44.6334 54.6258 44.6363C54.9031 44.6385 55.1166 44.8476 55.1245 45.1237C55.1324 45.4116 54.9171 45.6376 54.6303 45.6421Z" fill="#BD0000"/>
<path fill-rule="evenodd" clip-rule="evenodd" d="M55.1245 59.0718C55.1307 59.3597 54.9132 59.5834 54.6258 59.5862C54.3379 59.5891 54.1175 59.3687 54.1187 59.0813C54.1198 58.8035 54.3272 58.5894 54.6033 58.5804C54.8912 58.5708 55.1183 58.7849 55.1245 59.0718Z" fill="#BD0000"/>
<path fill-rule="evenodd" clip-rule="evenodd" d="M55.1248 34.6832C55.1231 34.9706 54.8999 35.1881 54.612 35.1836C54.3252 35.1785 54.1099 34.9526 54.1189 34.6641C54.1268 34.3879 54.3404 34.1789 54.6182 34.1778C54.905 34.1755 55.1265 34.3953 55.1248 34.6832Z" fill="#BD0000"/>
<path fill-rule="evenodd" clip-rule="evenodd" d="M54.6231 56.1002C54.3351 56.1014 54.1159 55.8793 54.1182 55.5925C54.121 55.3046 54.3453 55.0876 54.6332 55.0944C54.9099 55.1006 55.1201 55.3125 55.1246 55.5891C55.1285 55.8771 54.9105 56.0991 54.6231 56.1002Z" fill="#BD0000"/>
<path fill-rule="evenodd" clip-rule="evenodd" d="M55.1245 31.2163C55.1127 31.5026 54.88 31.7122 54.5926 31.697C54.3069 31.6812 54.1012 31.4468 54.1198 31.1583C54.1379 30.8833 54.3593 30.6833 54.6371 30.6911C54.9234 30.6996 55.1364 30.9289 55.1245 31.2163Z" fill="#BD0000"/>
<path fill-rule="evenodd" clip-rule="evenodd" d="M54.6169 24.7254C54.3295 24.7226 54.1126 24.4989 54.1188 24.211C54.125 23.9241 54.3521 23.7094 54.64 23.7196C54.9161 23.7286 55.1235 23.9433 55.1246 24.2205C55.1252 24.5079 54.9049 24.7283 54.6169 24.7254Z" fill="#BD0000"/>
<path fill-rule="evenodd" clip-rule="evenodd" d="M51.1277 49.0627C50.8775 49.0588 50.6938 48.8677 50.6983 48.6164C50.7023 48.3668 50.8933 48.1831 51.1446 48.1876C51.3948 48.1915 51.578 48.382 51.5734 48.6333C51.5695 48.8841 51.379 49.0672 51.1277 49.0627Z" fill="#BD0000"/>
<path fill-rule="evenodd" clip-rule="evenodd" d="M51.5734 38.1612C51.5762 38.4126 51.3919 38.6013 51.1406 38.6041C50.8899 38.607 50.7011 38.4227 50.6983 38.1719C50.6955 37.9201 50.8803 37.7313 51.131 37.729C51.3818 37.7268 51.5706 37.911 51.5734 38.1612Z" fill="#BD0000"/>
<path fill-rule="evenodd" clip-rule="evenodd" d="M51.5734 24.2236C51.5728 24.4743 51.3857 24.6603 51.135 24.6597C50.8836 24.6592 50.6977 24.4715 50.6982 24.2207C50.6988 23.9706 50.8859 23.784 51.1372 23.7852C51.388 23.7857 51.5739 23.9728 51.5734 24.2236Z" fill="#BD0000"/>
<path fill-rule="evenodd" clip-rule="evenodd" d="M51.5734 31.2026C51.5695 31.4528 51.3785 31.6365 51.1271 31.632C50.8775 31.6275 50.6938 31.4371 50.6983 31.1857C50.7028 30.9355 50.8933 30.7524 51.1446 30.7569C51.3948 30.7609 51.578 30.9513 51.5734 31.2026Z" fill="#BD0000"/>
<path fill-rule="evenodd" clip-rule="evenodd" d="M51.5734 55.5986C51.5728 55.8493 51.3857 56.0353 51.135 56.0347C50.8836 56.0342 50.6977 55.8465 50.6982 55.5957C50.6988 55.3456 50.8859 55.159 51.1372 55.1602C51.388 55.1607 51.5739 55.3478 51.5734 55.5986Z" fill="#BD0000"/>
<path fill-rule="evenodd" clip-rule="evenodd" d="M51.5734 34.6855C51.5711 34.9363 51.3824 35.1206 51.131 35.1183C50.8803 35.1161 50.6955 34.9273 50.6983 34.6754C50.7005 34.4246 50.8893 34.2404 51.1406 34.2432C51.3919 34.2454 51.5762 34.4342 51.5734 34.6855Z" fill="#BD0000"/>
<path fill-rule="evenodd" clip-rule="evenodd" d="M51.1475 59.5208C50.8962 59.5264 50.704 59.3449 50.6984 59.0947C50.6927 58.8423 50.8742 58.6513 51.1244 58.6456C51.3768 58.64 51.5679 58.8209 51.5735 59.0716C51.5797 59.3241 51.3982 59.5151 51.1475 59.5208Z" fill="#BD0000"/>
<path fill-rule="evenodd" clip-rule="evenodd" d="M51.1343 62.1318C51.3851 62.1307 51.5727 62.3172 51.5733 62.5674C51.5739 62.8188 51.3879 63.0064 51.1377 63.007C50.8869 63.0075 50.6993 62.8216 50.6987 62.5708C50.6982 62.3195 50.8841 62.1324 51.1343 62.1318Z" fill="#BD0000"/>
<path fill-rule="evenodd" clip-rule="evenodd" d="M51.1146 42.0904C50.8666 42.0797 50.688 41.8836 50.6987 41.6317C50.7088 41.3832 50.9055 41.2051 51.1574 41.2153C51.4059 41.2254 51.584 41.4221 51.5733 41.6745C51.5631 41.9225 51.3665 42.1011 51.1146 42.0904Z" fill="#BD0000"/>
<path fill-rule="evenodd" clip-rule="evenodd" d="M51.1277 27.2711C51.379 27.2666 51.5695 27.4497 51.5734 27.7005C51.5774 27.9518 51.3942 28.1423 51.144 28.1462C50.8927 28.1501 50.7022 27.9664 50.6983 27.7168C50.6944 27.4655 50.8781 27.275 51.1277 27.2711Z" fill="#BD0000"/>
<path fill-rule="evenodd" clip-rule="evenodd" d="M51.5734 45.1406C51.5728 45.3908 51.3852 45.5768 51.1344 45.5762C50.8836 45.5757 50.6977 45.388 50.6982 45.1373C50.6988 44.8865 50.8865 44.7005 51.1378 44.7017C51.388 44.7022 51.5739 44.8893 51.5734 45.1406Z" fill="#BD0000"/>
<path fill-rule="evenodd" clip-rule="evenodd" d="M51.1349 51.6738C51.3856 51.6727 51.5727 51.8592 51.5733 52.11C51.5739 52.3613 51.3879 52.5484 51.1371 52.549C50.8864 52.5495 50.6993 52.3636 50.6987 52.1122C50.6982 51.8615 50.8841 51.6744 51.1349 51.6738Z" fill="#BD0000"/>
<path fill-rule="evenodd" clip-rule="evenodd" d="M48.021 27.7065C48.0222 27.906 47.8452 28.0813 47.6457 28.0784C47.4463 28.0751 47.2659 27.8936 47.2823 27.6964C47.3014 27.4822 47.4277 27.356 47.6429 27.3402C47.8407 27.325 48.0199 27.507 48.021 27.7065Z" fill="#BD0000"/>
<path fill-rule="evenodd" clip-rule="evenodd" d="M47.6611 62.1994C47.86 62.2056 48.0308 62.3893 48.0212 62.5865C48.011 62.7854 47.8228 62.9618 47.6273 62.9376C47.4149 62.9116 47.2909 62.782 47.2824 62.5657C47.2751 62.3673 47.4622 62.1932 47.6611 62.1994Z" fill="#BD0000"/>
<path fill-rule="evenodd" clip-rule="evenodd" d="M47.6566 59.4539C47.4571 59.4573 47.2802 59.2814 47.2808 59.0825C47.2813 58.883 47.46 58.701 47.6583 58.7151C47.8736 58.7309 47.9998 58.8571 48.0189 59.0713C48.0359 59.2685 47.8561 59.4505 47.6566 59.4539Z" fill="#BD0000"/>
<path fill-rule="evenodd" clip-rule="evenodd" d="M47.6515 44.7686C47.851 44.7691 48.0251 44.9477 48.0206 45.1467C48.0161 45.3456 47.8329 45.5253 47.6368 45.5073C47.4227 45.4865 47.2965 45.3597 47.2824 45.1444C47.2694 44.9455 47.452 44.768 47.6515 44.7686Z" fill="#BD0000"/>
<path fill-rule="evenodd" clip-rule="evenodd" d="M47.6715 23.7984C47.8705 23.8103 48.0361 23.999 48.0203 24.1957C48.004 24.3957 47.8118 24.5648 47.6169 24.5355C47.4056 24.5028 47.2844 24.3715 47.2827 24.1546C47.2816 23.9557 47.4749 23.7866 47.6715 23.7984Z" fill="#BD0000"/>
<path fill-rule="evenodd" clip-rule="evenodd" d="M47.6427 55.2271C47.8421 55.2226 48.0202 55.3973 48.0208 55.5962C48.0213 55.7957 47.8433 55.9788 47.6449 55.9659C47.4297 55.9512 47.3023 55.8256 47.282 55.612C47.264 55.4148 47.4432 55.2316 47.6427 55.2271Z" fill="#BD0000"/>
<path fill-rule="evenodd" clip-rule="evenodd" d="M48.0208 34.6756C48.0236 34.8751 47.8478 35.052 47.6489 35.0509C47.4494 35.0498 47.2679 34.8706 47.282 34.6722C47.2989 34.457 47.4246 34.3307 47.6393 34.3121C47.8365 34.2952 48.018 34.4761 48.0208 34.6756Z" fill="#BD0000"/>
<path fill-rule="evenodd" clip-rule="evenodd" d="M48.0209 52.1183C48.0164 52.3178 47.8349 52.4891 47.6366 52.4818C47.4382 52.4733 47.2602 52.2862 47.2827 52.0907C47.3069 51.8783 47.4354 51.7532 47.6512 51.743C47.8501 51.7335 48.0254 51.9188 48.0209 52.1183Z" fill="#BD0000"/>
<path fill-rule="evenodd" clip-rule="evenodd" d="M47.6386 38.5369C47.4397 38.5296 47.2695 38.3442 47.2808 38.1481C47.2921 37.9486 47.4814 37.7739 47.6758 37.7987C47.8883 37.8258 48.0122 37.956 48.019 38.1723C48.0258 38.3713 47.837 38.5443 47.6386 38.5369Z" fill="#BD0000"/>
<path fill-rule="evenodd" clip-rule="evenodd" d="M48.0211 48.6342C48.0154 48.8331 47.8323 49.0044 47.6345 48.9954C47.4362 48.9852 47.2592 48.7976 47.2829 48.6021C47.3083 48.3896 47.4373 48.2651 47.6537 48.2566C47.8526 48.2482 48.0267 48.4353 48.0211 48.6342Z" fill="#BD0000"/>
<path fill-rule="evenodd" clip-rule="evenodd" d="M48.0211 41.662C48.0154 41.8609 47.8323 42.0322 47.6345 42.0232C47.4362 42.0131 47.2592 41.8254 47.2829 41.6299C47.3083 41.4174 47.4373 41.2929 47.6537 41.2845C47.8526 41.276 48.0267 41.4631 48.0211 41.662Z" fill="#BD0000"/>
<path fill-rule="evenodd" clip-rule="evenodd" d="M48.021 31.1918C48.0227 31.3913 47.8457 31.5671 47.6468 31.5648C47.4473 31.562 47.2664 31.3817 47.2822 31.1839C47.3002 30.9692 47.427 30.843 47.6417 30.8266C47.8395 30.8109 48.0193 30.9923 48.021 31.1918Z" fill="#BD0000"/>
<path fill-rule="evenodd" clip-rule="evenodd" d="M44.1712 62.9112C44.0563 62.7585 43.9239 62.6565 43.9379 62.5832C43.9571 62.4857 44.0906 62.4102 44.1752 62.3257C44.2529 62.408 44.3848 62.4846 44.3938 62.5736C44.4017 62.6582 44.2805 62.7551 44.1712 62.9112Z" fill="#BD0000"/>
<path fill-rule="evenodd" clip-rule="evenodd" d="M44.1831 23.8276C44.2873 23.9877 44.4119 24.0981 44.3927 24.1702C44.3674 24.266 44.2287 24.332 44.1391 24.4097C44.0664 24.323 43.9397 24.2373 43.9374 24.1483C43.9357 24.0632 44.0631 23.9753 44.1831 23.8276Z" fill="#BD0000"/>
<path fill-rule="evenodd" clip-rule="evenodd" d="M44.1486 28.0495C44.0438 27.8894 43.9187 27.7795 43.9379 27.7068C43.9632 27.6111 44.1013 27.5451 44.1909 27.4668C44.2636 27.5536 44.3909 27.6387 44.3932 27.7277C44.3954 27.8128 44.2681 27.9013 44.1486 28.0495Z" fill="#BD0000"/>
<path fill-rule="evenodd" clip-rule="evenodd" d="M43.8232 59.0814C43.9788 58.9703 44.0836 58.8396 44.1568 58.8559C44.2538 58.8774 44.3259 59.012 44.4087 59.0983C44.3253 59.1743 44.2453 59.3045 44.1563 59.3113C44.0712 59.3175 43.9771 59.1946 43.8232 59.0814Z" fill="#BD0000"/>
<path fill-rule="evenodd" clip-rule="evenodd" d="M44.1831 30.8535C44.2873 31.0136 44.4119 31.124 44.3927 31.1967C44.3674 31.2925 44.2287 31.3578 44.1391 31.4362C44.0664 31.3494 43.9397 31.2637 43.9374 31.1741C43.9357 31.0896 44.0631 31.0017 44.1831 30.8535Z" fill="#BD0000"/>
<path fill-rule="evenodd" clip-rule="evenodd" d="M44.1749 55.9389C44.0582 55.7873 43.9331 55.696 43.9376 55.6115C43.9421 55.5225 44.0706 55.4397 44.145 55.354C44.2335 55.4346 44.3693 55.5045 44.3929 55.6003C44.4104 55.6729 44.2825 55.7811 44.1749 55.9389Z" fill="#BD0000"/>
<path fill-rule="evenodd" clip-rule="evenodd" d="M44.1732 34.3389C44.2814 34.4955 44.4099 34.6031 44.393 34.6758C44.3699 34.7728 44.2335 34.8426 44.1462 34.9238C44.0712 34.8387 43.9428 34.7564 43.9377 34.6674C43.9326 34.5829 44.0572 34.491 44.1732 34.3389Z" fill="#BD0000"/>
<path fill-rule="evenodd" clip-rule="evenodd" d="M44.1712 52.4532C44.0563 52.3004 43.9239 52.1985 43.9379 52.1252C43.9571 52.0277 44.0906 51.9522 44.1752 51.8677C44.2529 51.9499 44.3848 52.0266 44.3938 52.1156C44.4017 52.2001 44.2805 52.2971 44.1712 52.4532Z" fill="#BD0000"/>
<path fill-rule="evenodd" clip-rule="evenodd" d="M44.1712 38.5083C44.0563 38.3556 43.9239 38.2536 43.9379 38.1804C43.9571 38.0829 44.0906 38.0074 44.1752 37.9229C44.2529 38.0046 44.3848 38.0818 44.3938 38.1708C44.4017 38.2553 44.2805 38.3522 44.1712 38.5083Z" fill="#BD0000"/>
<path fill-rule="evenodd" clip-rule="evenodd" d="M44.5074 48.6269C44.3524 48.7385 44.247 48.8686 44.1743 48.8523C44.0768 48.8315 44.0047 48.6962 43.9219 48.6106C44.0058 48.5339 44.0859 48.4038 44.1743 48.3976C44.2594 48.3908 44.3535 48.5142 44.5074 48.6269Z" fill="#BD0000"/>
<path fill-rule="evenodd" clip-rule="evenodd" d="M44.1505 41.3115C44.2694 41.4609 44.3962 41.5499 44.3934 41.6344C44.39 41.7234 44.2621 41.8085 44.1888 41.8947C44.0998 41.8159 43.9623 41.7482 43.9375 41.6524C43.9189 41.5803 44.0452 41.4704 44.1505 41.3115Z" fill="#BD0000"/>
<path fill-rule="evenodd" clip-rule="evenodd" d="M44.5074 45.1406C44.3524 45.2522 44.247 45.3823 44.1743 45.366C44.0768 45.3451 44.0047 45.2099 43.9219 45.1242C44.0058 45.0476 44.0859 44.9174 44.1743 44.9112C44.2594 44.9045 44.3535 45.0279 44.5074 45.1406Z" fill="#BD0000"/>
<path fill-rule="evenodd" clip-rule="evenodd" d="M29.4888 31.3331C29.3293 31.3331 29.1941 31.4582 29.1597 31.6374C28.8723 33.1358 28.1516 34.4983 27.0742 35.5774C25.9962 36.6571 24.6342 37.3801 23.1364 37.6691C22.9572 37.7041 22.8321 37.8393 22.8321 37.9988V49.3573C22.8321 49.5173 22.9572 49.6526 23.1364 49.6869C24.6353 49.9766 25.9985 50.7018 27.077 51.7837C28.1544 52.8634 28.8746 54.2271 29.1603 55.7271C29.1946 55.9063 29.3304 56.0325 29.4899 56.0325H75.1764C75.3358 56.0325 75.4722 55.9063 75.506 55.7266C75.7917 54.2271 76.5119 52.8634 77.5893 51.7837C78.6678 50.7012 80.0309 49.9766 81.531 49.6869C81.7096 49.6526 81.8347 49.5173 81.8347 49.3573V37.9988C81.8347 37.8393 81.7096 37.7041 81.5304 37.6691C80.0321 37.3801 78.6701 36.6571 77.5921 35.5774C76.5147 34.4983 75.794 33.1358 75.5072 31.638C75.4728 31.4582 75.337 31.3331 75.1775 31.3331H29.4888ZM75.1764 58.2865H29.4899C28.2525 58.2865 27.1824 57.3872 26.9457 56.1492C26.7451 55.0937 26.2385 54.1346 25.4812 53.375C24.7216 52.6143 23.763 52.1038 22.7087 51.9004C21.4741 51.6614 20.5781 50.5919 20.5781 49.3573V37.9988C20.5781 36.7636 21.4747 35.694 22.7093 35.4557C23.763 35.2528 24.721 34.744 25.4795 33.9849C26.2368 33.2259 26.744 32.268 26.9457 31.2142C27.1818 29.9773 28.2513 29.0791 29.4888 29.0791H75.1775C76.415 29.0791 77.4845 29.9773 77.7211 31.2148C77.9223 32.268 78.43 33.2259 79.1868 33.9849C79.9453 34.744 80.9032 35.2528 81.957 35.4557C83.1922 35.694 84.0887 36.7636 84.0887 37.9988V49.3573C84.0887 50.5919 83.1933 51.6609 81.9587 51.9004C80.9032 52.1038 79.9447 52.6143 79.1851 53.375C78.4278 54.1346 77.9212 55.0937 77.7206 56.1486C77.4839 57.3872 76.4138 58.2865 75.1764 58.2865Z" fill="white"/>
<path fill-rule="evenodd" clip-rule="evenodd" d="M52.3336 50.9406C48.3316 50.9406 45.0757 47.6847 45.0757 43.6827C45.0757 39.6813 48.3316 36.4248 52.3336 36.4248C56.3356 36.4248 59.5915 39.6813 59.5915 43.6827C59.5915 47.6847 56.3356 50.9406 52.3336 50.9406Z" fill="white"/>
<path d="M80.371 11.9327C81.3472 10.9563 82.9301 10.956 83.9066 11.9321C84.8455 12.8707 84.8818 14.3703 84.0155 15.3524L83.9072 15.4677L15.4683 83.9302C14.4921 84.9066 12.9092 84.9069 11.9327 83.9308C10.9938 82.9922 10.9574 81.4926 11.8238 80.5105L11.9321 80.3952L80.371 11.9327Z" fill="#666666" stroke="white"/>
</svg>
