<svg width="32" height="32" viewBox="0 0 32 32" fill="none" xmlns="http://www.w3.org/2000/svg">
<path fill-rule="evenodd" clip-rule="evenodd" d="M16.5 6.16666C16.5 5.89051 16.2761 5.66666 16 5.66666C15.7239 5.66666 15.5 5.89051 15.5 6.16666V15.5H6.16675C5.89061 15.5 5.66675 15.7239 5.66675 16C5.66675 16.2761 5.89061 16.5 6.16675 16.5H15.5V25.8333C15.5 26.1095 15.7239 26.3333 16 26.3333C16.2761 26.3333 16.5 26.1095 16.5 25.8333V16.5H25.8334C26.1096 16.5 26.3334 16.2761 26.3334 16C26.3334 15.7239 26.1096 15.5 25.8334 15.5H16.5V6.16666Z" fill="#333333"/>
</svg>
