<svg width="32" height="32" viewBox="0 0 32 32" fill="none" xmlns="http://www.w3.org/2000/svg">
<path fill-rule="evenodd" clip-rule="evenodd" d="M16.5002 6.16699C16.5002 5.89085 16.2764 5.66699 16.0002 5.66699C15.7241 5.66699 15.5002 5.89085 15.5002 6.16699V15.5003H6.16699C5.89085 15.5003 5.66699 15.7242 5.66699 16.0003C5.66699 16.2765 5.89085 16.5003 6.16699 16.5003H15.5002V25.8337C15.5002 26.1098 15.7241 26.3337 16.0002 26.3337C16.2764 26.3337 16.5002 26.1098 16.5002 25.8337V16.5003H25.8337C26.1098 16.5003 26.3337 16.2765 26.3337 16.0003C26.3337 15.7242 26.1098 15.5003 25.8337 15.5003H16.5002V6.16699Z" fill="white"/>
</svg>
