<svg width="24" height="24" viewBox="0 0 24 24" fill="none" xmlns="http://www.w3.org/2000/svg">
<path fill-rule="evenodd" clip-rule="evenodd" d="M9.28444 9.165L3.16312 10.1769L7.68967 14.4198L6.76063 20.5519L12.1925 17.5592L17.7392 20.3386L16.5712 14.2452L20.9287 9.83037L14.7724 9.05846L11.9198 3.55026L9.28444 9.165ZM21.8185 9.99652L17.3821 14.4914L18.5711 20.695C18.6439 21.0749 18.2806 21.3788 17.9307 21.2666L17.856 21.2361L12.2091 18.4064L6.67882 21.4533C6.34004 21.6399 5.93879 21.3884 5.93724 21.0209L5.9432 20.9405L6.88906 14.6974L2.28064 10.3777C1.99984 10.1145 2.11249 9.65841 2.45741 9.54051L2.54106 9.51954L8.77306 8.48935L11.4562 2.77291C11.6323 2.39775 12.1621 2.38737 12.3528 2.75535L15.2571 8.36335L21.5248 9.14924C21.9066 9.19713 22.0835 9.63228 21.8738 9.9304L21.8185 9.99652Z" fill="white"/>
</svg>
