<svg width="24" height="24" viewBox="0 0 24 24" fill="none" xmlns="http://www.w3.org/2000/svg">
<path d="M8.77306 8.48935L2.54106 9.51954L2.45741 9.54051C2.11249 9.65841 1.99984 10.1145 2.28064 10.3777L6.88906 14.6974L5.9432 20.9405L5.93724 21.0209C5.93879 21.3884 6.34004 21.6399 6.67882 21.4533L12.2091 18.4064L17.856 21.2361L17.9307 21.2666C18.2806 21.3788 18.6439 21.0749 18.5711 20.695L17.3821 14.4914L21.8185 9.99652L21.8738 9.9304C22.0835 9.63228 21.9066 9.19713 21.5248 9.14924L15.2571 8.36335L12.3528 2.75535C12.1621 2.38737 11.6323 2.39775 11.4562 2.77291L8.77306 8.48935Z" fill="white"/>
</svg>
