<svg width="32" height="32" viewBox="0 0 32 32" fill="none" xmlns="http://www.w3.org/2000/svg">
<path fill-rule="evenodd" clip-rule="evenodd" d="M7.83325 17.2827C7.83439 17.2896 7.84267 17.3204 7.89197 17.3779C7.95887 17.4559 8.07753 17.5536 8.26452 17.6624C8.63802 17.8796 9.19563 18.0902 9.88575 18.2735C11.2596 18.6383 13.0495 18.8666 14.6666 18.8666C16.1351 18.8666 17.8063 18.6776 19.155 18.3684C19.8306 18.2135 20.4074 18.0324 20.8313 17.8388C21.0433 17.742 21.2036 17.648 21.3156 17.5619C21.4218 17.4802 21.4603 17.4239 21.4717 17.4019L21.5193 17.2769L22.4538 17.6329L22.3966 17.7831L22.3923 17.793C22.2918 18.0259 22.1131 18.21 21.9255 18.3544C21.7339 18.5018 21.5011 18.6322 21.2467 18.7484C20.738 18.9807 20.0894 19.1801 19.3785 19.3431C17.9544 19.6696 16.2081 19.8666 14.6666 19.8666C12.9703 19.8666 11.0936 19.6289 9.62909 19.24C8.90004 19.0464 8.24556 18.8082 7.76177 18.5268C7.52012 18.3863 7.29883 18.2223 7.13295 18.0289C6.96507 17.8332 6.83325 17.5816 6.83325 17.2832C6.83325 16.6625 7.28137 16.1936 7.78849 15.8698C8.3156 15.5331 9.03654 15.2643 9.86382 15.0698L9.95659 15.4644L10.237 15.9851L10.1571 16.0281L10.0927 16.0433C9.32496 16.2238 8.7234 16.4592 8.32677 16.7125C7.91086 16.9782 7.83352 17.1849 7.83325 17.2827Z" fill="#333333"/>
<path fill-rule="evenodd" clip-rule="evenodd" d="M7.33325 16.7716C7.60939 16.7716 7.83325 16.9955 7.83325 17.2716V21.4774C7.98077 21.5891 8.22648 21.7221 8.58898 21.8601C9.05807 22.0386 9.65635 22.2014 10.3309 22.3387C11.6796 22.6134 13.2837 22.7766 14.6666 22.7766C16.0594 22.7766 17.6685 22.6579 19.0181 22.4283C19.6937 22.3133 20.291 22.1728 20.7585 22.011C21.1168 21.887 21.3565 21.7643 21.4999 21.66V17.4533C21.4999 17.1771 21.7238 16.9533 21.9999 16.9533C22.2761 16.9533 22.4999 17.1771 22.4999 17.4533V21.8783C22.4999 21.9974 22.4574 22.1126 22.38 22.2031C22.092 22.5401 21.6019 22.7773 21.0856 22.956C20.5473 23.1423 19.8915 23.2941 19.1859 23.4141C17.7731 23.6545 16.1072 23.7766 14.6666 23.7766C13.2161 23.7766 11.5452 23.6065 10.1314 23.3186C9.42473 23.1747 8.76989 22.9989 8.23325 22.7947C7.71731 22.5983 7.23554 22.3486 6.95314 22.0181C6.87576 21.9276 6.83325 21.8124 6.83325 21.6933V17.2716C6.83325 16.9955 7.05711 16.7716 7.33325 16.7716Z" fill="#333333"/>
<path fill-rule="evenodd" clip-rule="evenodd" d="M22.6324 21.0074C22.4622 20.8435 22.1881 20.6693 21.8032 20.5045L22.1967 19.5852C22.6452 19.7772 23.0377 20.0095 23.3259 20.287C23.615 20.5652 23.8333 20.9248 23.8333 21.3532H22.8333C22.8333 21.2866 22.8016 21.1703 22.6324 21.0074Z" fill="#333333"/>
<path fill-rule="evenodd" clip-rule="evenodd" d="M23.3334 20.85C23.6096 20.85 23.8334 21.0738 23.8334 21.35V25.9516C23.8334 26.0707 23.7909 26.1859 23.7135 26.2765C23.4255 26.6135 22.9354 26.8506 22.4191 27.0293C21.8808 27.2157 21.225 27.3674 20.5194 27.4875C19.1065 27.7278 17.4406 27.85 16.0001 27.85C14.5496 27.85 12.8787 27.6799 11.4649 27.392C10.7582 27.2481 10.1034 27.0723 9.56675 26.8681C9.0508 26.6717 8.56904 26.4219 8.28663 26.0915C8.20926 26.0009 8.16675 25.8857 8.16675 25.7666V22.4333C8.16675 22.1572 8.39061 21.9333 8.66675 21.9333C8.94289 21.9333 9.16675 22.1572 9.16675 22.4333V25.5508C9.31427 25.6625 9.55997 25.7955 9.92248 25.9335C10.3916 26.112 10.9898 26.2748 11.6644 26.4121C13.0131 26.6867 14.6172 26.85 16.0001 26.85C17.3928 26.85 19.0019 26.7313 20.3516 26.5016C21.0272 26.3867 21.6245 26.2462 22.092 26.0844C22.4503 25.9603 22.69 25.8377 22.8334 25.7333V21.35C22.8334 21.0738 23.0573 20.85 23.3334 20.85Z" fill="#333333"/>
<path fill-rule="evenodd" clip-rule="evenodd" d="M9.52182 7.57077C9.19425 7.79079 9.16675 7.93408 9.16675 7.96663C9.16675 7.99919 9.19425 8.14248 9.52182 8.3625C9.83138 8.57041 10.3122 8.77725 10.9513 8.95881C12.2225 9.31996 14.0077 9.54997 16.0001 9.54997C17.9924 9.54997 19.7776 9.31996 21.0489 8.95881C21.688 8.77725 22.1688 8.57041 22.4783 8.3625C22.8059 8.14248 22.8334 7.99919 22.8334 7.96663C22.8334 7.93408 22.8059 7.79079 22.4783 7.57077C22.1688 7.36285 21.688 7.15601 21.0489 6.97446C19.7776 6.61331 17.9924 6.3833 16.0001 6.3833C14.0077 6.3833 12.2225 6.61331 10.9513 6.97446C10.3122 7.15601 9.83138 7.36285 9.52182 7.57077ZM10.678 6.01253C12.0609 5.61966 13.9423 5.3833 16.0001 5.3833C18.0578 5.3833 19.9393 5.61966 21.3222 6.01253C22.0102 6.20799 22.6033 6.45007 23.0359 6.74064C23.4505 7.01911 23.8334 7.42389 23.8334 7.96663C23.8334 8.50937 23.4505 8.91415 23.0359 9.19263C22.6033 9.4832 22.0102 9.72528 21.3222 9.92074C19.9393 10.3136 18.0578 10.55 16.0001 10.55C13.9423 10.55 12.0609 10.3136 10.678 9.92074C9.98998 9.72528 9.39687 9.4832 8.96425 9.19263C8.54965 8.91415 8.16675 8.50937 8.16675 7.96663C8.16675 7.42389 8.54965 7.01911 8.96425 6.74064C9.39687 6.45007 9.98998 6.20799 10.678 6.01253Z" fill="#333333"/>
<path fill-rule="evenodd" clip-rule="evenodd" d="M8.66675 7.46667C8.94289 7.46667 9.16675 7.69053 9.16675 7.96667V12.1675C9.31427 12.2792 9.55997 12.4122 9.92248 12.5502C10.3916 12.7287 10.9898 12.8915 11.6644 13.0288C13.0131 13.3034 14.6172 13.4667 16.0001 13.4667C17.3928 13.4667 19.0019 13.348 20.3516 13.1183C21.0272 13.0034 21.6245 12.8629 22.092 12.7011C22.4503 12.577 22.69 12.4544 22.8334 12.35V7.96667C22.8334 7.69053 23.0573 7.46667 23.3334 7.46667C23.6096 7.46667 23.8334 7.69053 23.8334 7.96667V12.5683C23.8334 12.6874 23.7909 12.8026 23.7135 12.8932C23.4255 13.2302 22.9354 13.4673 22.4191 13.646C21.8808 13.8324 21.225 13.9841 20.5194 14.1042C19.1065 14.3445 17.4406 14.4667 16.0001 14.4667C14.5496 14.4667 12.8787 14.2966 11.4649 14.0087C10.7582 13.8648 10.1034 13.689 9.56675 13.4847C9.0508 13.2884 8.56904 13.0386 8.28663 12.7082C8.20926 12.6176 8.16675 12.5024 8.16675 12.3833V7.96667C8.16675 7.69053 8.39061 7.46667 8.66675 7.46667Z" fill="#333333"/>
<path fill-rule="evenodd" clip-rule="evenodd" d="M23.9656 12.1741C23.7954 12.0103 23.5213 11.836 23.1365 11.6713L23.53 10.752C23.9784 10.9439 24.371 11.1763 24.6592 11.4537C24.9482 11.732 25.1665 12.0915 25.1665 12.52H24.1665C24.1665 12.4534 24.1349 12.3371 23.9656 12.1741Z" fill="#333333"/>
<path fill-rule="evenodd" clip-rule="evenodd" d="M24.6667 12.0166C24.9428 12.0166 25.1667 12.2405 25.1667 12.5166V16.4516C25.1667 16.5707 25.1242 16.6859 25.0468 16.7764C24.7588 17.1135 24.2686 17.3506 23.7524 17.5293C23.2141 17.7156 22.5583 17.8674 21.8526 17.9874C20.4398 18.2278 18.7739 18.3499 17.3333 18.3499C15.8829 18.3499 14.212 18.1798 12.7982 17.892C12.0915 17.7481 11.4366 17.5723 10.9 17.368C10.3841 17.1716 9.90229 16.9219 9.61988 16.5914C9.54251 16.5009 9.5 16.3857 9.5 16.2666V13.1099C9.5 12.8338 9.72386 12.6099 10 12.6099C10.2761 12.6099 10.5 12.8338 10.5 13.1099V16.0508C10.6475 16.1624 10.8932 16.2954 11.2557 16.4334C11.7248 16.612 12.3231 16.7747 12.9977 16.9121C14.3464 17.1867 15.9505 17.3499 17.3333 17.3499C18.7261 17.3499 20.3352 17.2312 21.6849 17.0016C22.3605 16.8867 22.9578 16.7461 23.4253 16.5843C23.7835 16.4603 24.0232 16.3377 24.1667 16.2333V12.5166C24.1667 12.2405 24.3905 12.0166 24.6667 12.0166Z" fill="#333333"/>
</svg>
