<svg width="32" height="32" viewBox="0 0 32 32" fill="none" xmlns="http://www.w3.org/2000/svg">
<path fill-rule="evenodd" clip-rule="evenodd" d="M12.3789 12.2197L4.21717 13.5689L10.2526 19.2261L9.01384 27.4022L16.2564 23.4119L23.6519 27.1179L22.0946 18.9933L27.9046 13.1068L19.6963 12.0776L15.8928 4.73335L12.3789 12.2197ZM29.091 13.3284L23.1758 19.3215L24.7612 27.5931C24.8582 28.0996 24.3739 28.5047 23.9072 28.3552L23.8077 28.3145L16.2784 24.5415L8.90476 28.6041C8.45306 28.8529 7.91806 28.5175 7.916 28.0275L7.92394 27.9203L9.18509 19.5961L3.04053 13.8366C2.66613 13.4857 2.81633 12.8776 3.27622 12.7203L3.38775 12.6924L11.6971 11.3188L15.2746 3.69689C15.5094 3.19667 16.2158 3.18283 16.47 3.67347L20.3424 11.1508L28.6994 12.1987C29.2085 12.2625 29.4444 12.8427 29.1648 13.2402L29.091 13.3284Z" fill="#333333"/>
</svg>
